<?xml version="1.0" encoding="UTF-8" standalone="no"?>
<!DOCTYPE svg PUBLIC "-//W3C//DTD SVG 1.1//EN" "http://www.w3.org/Graphics/SVG/1.1/DTD/svg11.dtd">
<svg xmlns="http://www.w3.org/2000/svg" version="1.1" viewBox="0.00 0.00 1536.00 1040.00">
<g stroke-width="2.00" fill="none" stroke-linecap="butt">
<path stroke="#800047" vector-effect="non-scaling-stroke" d="
  M 11.90 0.00
  Q 11.91 0.08 11.92 0.16"
/>
<path stroke="#ff8080" vector-effect="non-scaling-stroke" d="
  M 11.92 0.16
  Q 9.64 -0.32 9.00 1.48
  Q 8.63 2.53 9.58 3.15
  Q 16.63 7.71 22.04 11.67
  C 32.23 19.12 40.79 24.23 52.14 32.30
  Q 60.99 38.59 70.19 44.49
  C 79.56 50.49 92.37 60.11 104.11 67.51
  C 110.17 71.33 115.69 75.90 122.19 79.73
  Q 125.01 81.39 127.77 83.38
  Q 148.37 98.25 171.67 113.44
  C 179.86 118.78 187.63 124.34 195.84 130.07
  Q 204.68 136.24 214.08 142.42
  Q 227.27 151.09 231.38 153.99
  C 240.00 160.06 249.63 165.74 257.92 171.85
  Q 260.28 173.59 261.12 176.22
  A 1.53 1.53 0.0 0 1 259.86 178.20
  Q 259.55 178.24 259.18 178.23
  Q 243.88 177.94 238.75 177.92
  Q 229.51 177.88 214.50 177.13
  Q 210.56 176.94 207.18 174.58
  Q 193.01 164.73 184.46 159.29
  C 172.24 151.52 159.98 141.79 147.30 133.81
  C 136.11 126.76 125.29 118.50 116.66 112.93
  Q 107.11 106.76 99.83 101.66
  Q 83.93 90.54 64.34 77.70
  C 59.01 74.20 53.15 69.65 48.52 66.48
  Q 35.71 57.70 0.51 33.98"
/>
<path stroke="#800047" vector-effect="non-scaling-stroke" d="
  M 0.51 33.98
  L 0.00 30.90"
/>
<path stroke="#8080c6" vector-effect="non-scaling-stroke" d="
  M 16.41 0.00
  L 11.92 0.16"
/>
<path stroke="#8080c6" vector-effect="non-scaling-stroke" d="
  M 101.87 0.00
  Q 106.79 0.54 110.10 3.14
  Q 113.91 6.14 117.00 8.22
  C 122.45 11.90 126.47 14.97 130.13 17.39
  Q 163.69 39.56 197.10 62.90
  C 202.70 66.81 208.25 70.07 213.32 73.72
  Q 219.54 78.21 225.36 82.06
  Q 235.91 89.03 271.94 113.48
  Q 281.50 119.96 296.65 130.51
  Q 309.01 139.12 321.48 147.40
  A 2.09 2.07 36.9 0 0 324.22 147.03
  Q 324.60 146.58 324.50 145.25
  Q 324.16 140.49 324.16 136.75
  Q 324.25 79.23 324.17 2.52
  A 1.99 1.99 0.0 0 1 325.88 0.55
  L 329.75 0.00"
/>
<path stroke="#8080c6" vector-effect="non-scaling-stroke" d="
  M 343.39 0.00
  L 346.83 0.59"
/>
<path stroke="#ff8080" vector-effect="non-scaling-stroke" d="
  M 346.83 0.59
  Q 348.86 2.55 348.43 7.31
  Q 347.89 13.29 347.89 14.25
  Q 347.88 87.69 347.80 163.25
  Q 347.77 193.89 348.06 202.75
  Q 348.14 205.38 347.69 207.58
  A 2.34 2.33 6.9 0 1 345.32 209.43
  C 337.06 209.11 328.83 209.44 321.95 209.44
  Q 68.54 209.41 35.00 209.24
  Q 21.07 209.17 18.67 209.37
  C 13.38 209.80 7.55 208.99 1.95 209.88
  A 1.01 0.99 64.7 0 1 1.03 209.54
  L 0.31 208.69"
/>
<path stroke="#8080c6" vector-effect="non-scaling-stroke" d="
  M 0.31 208.69
  Q 0.52 207.03 0.00 205.79"
/>
<path stroke="#8080c6" vector-effect="non-scaling-stroke" d="
  M 0.00 180.52
  L 0.56 178.18
  A 1.97 1.97 0.0 0 1 2.58 176.67
  Q 13.28 177.24 17.25 177.25
  Q 118.17 177.34 128.73 177.37
  Q 135.58 177.38 140.26 177.16
  Q 147.03 176.84 156.76 178.05
  Q 158.39 178.25 159.54 177.25
  A 1.88 1.83 55.6 0 0 159.93 174.99
  Q 158.84 172.92 156.93 171.62
  C 149.61 166.60 141.31 161.45 134.79 157.03
  Q 103.48 135.81 74.90 116.40
  Q 47.40 97.72 31.03 86.35
  Q 23.52 81.14 16.29 76.40
  Q 8.79 71.49 1.60 66.07
  A 1.78 1.77 10.8 0 1 0.94 65.10
  L 0.00 61.51"
/>
<path stroke="#8080c6" vector-effect="non-scaling-stroke" d="
  M 0.00 37.87
  L 0.51 33.98"
/>
<path stroke="#800047" vector-effect="non-scaling-stroke" d="
  M 351.38 0.00
  Q 348.48 0.80 346.83 0.59"
/>
<path stroke="#800047" vector-effect="non-scaling-stroke" d="
  M 416.89 0.00
  L 419.38 0.47"
/>
<path stroke="#ff8080" vector-effect="non-scaling-stroke" d="
  M 419.38 0.47
  Q 419.22 4.74 419.97 9.03
  A 9.36 8.59 42.6 0 1 420.10 10.55
  C 419.81 55.61 419.58 100.70 420.03 145.76
  Q 420.20 163.22 419.87 180.75
  Q 419.74 187.82 419.65 202.17
  Q 419.62 206.40 419.87 206.98
  Q 420.94 209.41 423.58 209.45
  Q 425.16 209.48 520.50 209.60
  Q 559.48 209.65 596.75 209.47
  Q 664.90 209.15 736.94 209.62
  Q 737.00 209.62 751.55 209.34
  Q 759.52 209.18 767.76 209.92"
/>
<path stroke="#800047" vector-effect="non-scaling-stroke" d="
  M 767.76 209.92
  Q 768.53 221.92 768.18 240.00
  Q 767.93 253.00 768.33 284.75
  Q 768.46 295.13 768.43 296.43
  C 768.37 299.18 767.86 302.18 767.58 304.77
  Q 767.50 305.53 766.90 305.43"
/>
<path stroke="#ff8080" vector-effect="non-scaling-stroke" d="
  M 766.90 305.43
  Q 762.25 306.54 755.50 306.68
  Q 746.90 306.87 731.19 306.86
  Q 664.60 306.82 470.06 306.92
  Q 452.43 306.93 427.35 307.13
  C 422.58 307.17 419.09 306.53 419.47 312.26
  Q 419.90 318.90 419.88 324.50
  Q 419.60 415.17 419.74 495.25
  Q 419.74 498.03 419.37 507.23
  Q 419.13 513.29 419.50 519.21"
/>
<path stroke="#800047" vector-effect="non-scaling-stroke" d="
  M 419.50 519.21
  L 415.99 518.77
  A 7.56 7.43 -46.8 0 0 413.50 518.87
  Q 409.69 519.68 405.75 519.65
  Q 377.18 519.39 348.74 519.71"
/>
<path stroke="#ff8080" vector-effect="non-scaling-stroke" d="
  M 348.74 519.71
  Q 349.02 517.99 348.87 516.25
  Q 348.62 513.44 348.62 513.22
  Q 348.11 496.12 348.03 481.25
  Q 347.83 447.98 347.92 323.73
  Q 347.92 320.37 348.47 312.44
  Q 348.66 309.79 348.15 308.26
  A 1.97 1.95 82.0 0 0 346.40 306.93
  Q 342.13 306.68 335.76 306.69
  Q 135.85 306.96 10.25 306.74
  Q 7.09 306.74 6.18 306.36
  Q 1.98 304.60 0.28 307.19"
/>
<path stroke="#800047" vector-effect="non-scaling-stroke" d="
  M 0.28 307.19
  Q 0.45 305.23 0.00 303.64"
/>
<path stroke="#800047" vector-effect="non-scaling-stroke" d="
  M 0.00 211.34
  Q 0.55 210.35 0.31 208.69"
/>
<path stroke="#8080c6" vector-effect="non-scaling-stroke" d="
  M 422.22 0.00
  L 419.38 0.47"
/>
<path stroke="#8080c6" vector-effect="non-scaling-stroke" d="
  M 437.63 0.00
  C 440.28 0.34 443.99 0.18 443.90 3.97
  C 443.83 6.92 443.59 10.41 443.61 12.69
  Q 443.96 62.89 443.79 133.00
  Q 443.78 137.20 443.35 145.77
  A 1.77 1.77 0.0 0 0 445.49 147.59
  Q 446.70 147.33 447.96 146.47
  Q 463.60 135.77 476.31 127.31
  C 479.51 125.18 483.74 121.73 487.32 119.35
  Q 495.67 113.83 545.45 80.16
  Q 553.01 75.05 554.04 74.30
  C 561.13 69.11 567.65 65.17 575.52 59.68
  Q 604.42 39.53 630.61 22.18
  Q 636.44 18.32 641.07 14.95
  Q 648.57 9.48 651.59 7.77
  C 654.59 6.07 657.86 2.83 661.61 1.01
  A 4.58 4.53 -62.7 0 1 662.78 0.63
  L 666.25 0.00"
/>
<path stroke="#8080c6" vector-effect="non-scaling-stroke" d="
  M 703.12 0.00
  Q 704.72 0.66 705.79 0.00"
/>
<path stroke="#ff8080" vector-effect="non-scaling-stroke" d="
  M 709.47 0.00
  Q 694.06 10.23 679.45 20.52
  Q 674.53 23.99 672.42 25.30
  C 666.35 29.08 659.82 34.14 654.99 37.34
  Q 627.25 55.75 599.60 74.98
  Q 593.88 78.96 586.29 83.83
  C 579.59 88.13 572.81 93.17 565.61 97.71
  Q 562.14 99.90 558.22 102.67
  C 537.20 117.55 504.44 138.97 484.67 153.08
  C 479.19 156.99 474.16 159.92 467.87 164.28
  Q 463.00 167.66 458.11 170.84
  C 456.19 172.09 452.40 175.28 454.50 177.58
  A 0.81 0.80 -34.6 0 0 455.46 177.75
  Q 456.30 177.33 466.77 177.48
  Q 489.48 177.79 495.25 177.63
  Q 502.57 177.41 504.29 176.50
  Q 505.71 175.75 509.47 173.21
  C 529.74 159.52 544.89 148.80 564.54 135.68
  C 579.83 125.48 597.49 113.00 614.65 101.66
  Q 622.79 96.29 631.92 89.78
  Q 641.95 82.62 646.46 79.69
  C 657.36 72.62 669.73 64.38 683.24 54.97
  Q 704.00 40.50 719.43 30.38
  C 730.81 22.91 739.44 16.67 753.67 6.55
  C 756.16 4.77 758.68 2.56 761.29 0.62"
/>
<path stroke="#8080c6" vector-effect="non-scaling-stroke" d="
  M 761.29 0.62
  Q 764.31 -0.20 767.33 0.41
  A 0.80 0.79 6.7 0 1 767.96 1.20
  Q 767.75 24.17 768.05 52.03
  C 768.14 60.59 768.60 65.15 761.71 69.73
  Q 735.13 87.36 727.88 92.54
  C 718.66 99.12 708.82 105.25 699.26 112.15
  C 697.31 113.55 694.65 114.92 692.90 116.14
  Q 667.03 134.18 629.18 159.65
  Q 613.99 169.86 611.39 171.40
  Q 609.42 172.57 608.18 174.62
  A 2.09 1.84 -59.9 0 0 608.73 177.41
  Q 609.63 177.90 611.03 177.74
  Q 618.54 176.82 627.11 177.11
  Q 642.97 177.65 654.69 177.46
  Q 672.96 177.15 682.31 177.20
  C 718.59 177.40 739.75 177.43 764.86 176.81
  A 2.61 2.61 0.0 0 1 767.41 178.62
  Q 768.01 180.48 768.07 183.00
  Q 768.38 196.46 767.76 209.92"
/>
<path stroke="#800047" vector-effect="non-scaling-stroke" d="
  M 752.63 0.00
  Q 756.74 1.16 761.29 0.62"
/>
<path stroke="#8080c6" vector-effect="non-scaling-stroke" d="
  M 0.00 511.37
  L 1.37 520.03"
/>
<path stroke="#800047" vector-effect="non-scaling-stroke" d="
  M 1.37 520.03
  L 8.91 519.12
  A 1.63 1.63 0.0 0 1 9.35 519.12
  Q 13.62 519.78 15.75 519.73
  Q 26.22 519.53 37.00 519.87
  Q 46.37 520.17 54.23 518.89"
/>
<path stroke="#8080c6" vector-effect="non-scaling-stroke" d="
  M 54.23 518.89
  C 56.39 519.23 58.61 519.66 60.62 519.60
  Q 78.51 519.12 93.34 519.36
  C 99.06 519.45 102.70 517.94 107.11 514.84
  Q 126.85 500.94 156.16 481.68
  C 164.52 476.18 178.63 465.95 188.69 459.23
  Q 205.41 448.06 222.85 436.19
  C 227.84 432.80 231.37 430.12 235.48 427.44
  C 243.37 422.30 250.52 417.01 256.88 412.84
  Q 268.78 405.01 293.63 387.89
  C 300.77 382.97 307.67 378.07 314.14 374.12
  Q 315.89 373.05 317.06 372.05
  C 318.97 370.42 320.70 368.39 322.94 369.53
  Q 324.45 370.29 324.43 372.22
  Q 324.31 382.33 324.22 391.50
  Q 323.92 422.69 323.98 505.00
  Q 323.99 511.37 323.83 514.98
  C 323.75 516.93 324.28 518.59 326.27 518.77
  Q 334.70 519.55 348.74 519.71"
/>
<path stroke="#8080c6" vector-effect="non-scaling-stroke" d="
  M 419.50 519.21
  Q 431.39 519.64 441.48 519.00
  Q 443.92 518.85 443.91 516.50
  Q 443.72 460.66 443.77 385.00
  Q 443.78 378.91 442.95 372.33
  C 442.67 370.02 444.93 367.60 447.20 369.36
  Q 450.77 372.13 457.25 376.33
  C 464.51 381.03 468.93 384.61 475.67 388.80
  Q 479.09 390.92 483.85 394.31
  Q 501.23 406.69 513.04 414.19
  Q 516.28 416.24 519.87 418.96
  C 524.91 422.78 530.87 426.37 534.93 429.15
  Q 561.75 447.50 580.88 460.36
  Q 589.56 466.20 591.23 467.44
  C 597.98 472.51 603.41 475.58 609.73 480.22
  Q 611.52 481.53 618.13 485.86
  Q 635.89 497.51 642.95 502.56
  Q 657.31 512.84 663.37 516.62
  C 668.07 519.55 674.12 519.35 678.50 519.33
  Q 709.69 519.18 739.29 519.30
  Q 739.56 519.30 751.55 519.82
  Q 758.61 520.13 765.35 519.19"
/>
<path stroke="#800047" vector-effect="non-scaling-stroke" d="
  M 765.35 519.19
  Q 767.21 517.06 767.37 516.25
  Q 767.57 515.21 767.26 511.98
  A 4.93 4.47 47.9 0 1 767.26 511.01
  Q 768.86 496.50 767.43 482.96"
/>
<path stroke="#8080c6" vector-effect="non-scaling-stroke" d="
  M 767.43 482.96
  C 767.74 480.00 768.19 477.13 768.15 474.33
  Q 768.03 463.79 768.15 456.39
  C 768.24 450.51 762.66 446.75 758.16 444.09
  Q 755.59 442.56 749.38 438.36
  Q 723.18 420.64 702.87 406.58
  C 688.49 396.63 676.04 388.80 663.60 380.13
  Q 649.22 370.10 638.50 362.95
  Q 615.09 347.34 613.18 345.95
  Q 609.88 343.55 607.92 340.86
  A 1.31 1.13 55.9 0 1 608.13 339.07
  Q 608.48 338.86 609.26 338.83
  C 616.23 338.53 623.46 340.13 629.61 339.94
  Q 629.65 339.93 649.02 339.94
  Q 713.05 339.96 744.50 340.03
  Q 757.48 340.05 766.09 339.75
  A 1.88 1.88 0.0 0 0 767.91 337.88
  Q 767.92 324.74 767.97 314.75
  Q 768.00 308.78 766.90 305.43"
/>
<path stroke="#8080c6" vector-effect="non-scaling-stroke" d="
  M 1100.64 188.54
  Q 1101.41 189.05 1102.34 189.07
  Q 1117.12 189.25 1127.02 190.43
  C 1130.05 190.79 1132.05 190.62 1132.09 193.76
  C 1132.26 206.71 1130.01 221.23 1127.55 233.00
  Q 1127.29 234.27 1128.00 234.98
  A 1.75 1.73 -48.8 0 0 1130.62 234.79
  Q 1138.79 224.04 1144.63 215.13
  C 1145.84 213.28 1147.22 209.48 1149.52 207.02
  C 1151.65 204.73 1154.63 206.29 1155.87 208.57
  Q 1160.79 217.71 1165.79 224.54
  Q 1170.27 230.66 1173.00 234.75
  Q 1173.65 235.72 1174.53 235.61
  A 2.04 2.01 80.3 0 0 1176.23 233.17
  Q 1175.58 230.17 1175.47 229.28
  Q 1172.76 207.16 1171.66 196.56
  C 1171.39 193.89 1170.79 191.02 1174.55 190.69
  Q 1192.10 189.14 1202.04 189.35
  A 0.75 0.75 0.0 0 0 1202.78 188.84
  C 1203.77 185.93 1198.43 181.85 1196.62 180.39
  Q 1179.91 166.90 1178.78 166.00
  Q 1175.49 163.39 1177.22 160.19
  Q 1181.85 151.65 1185.33 144.14
  C 1187.95 138.52 1191.92 132.97 1194.34 127.63
  A 1.36 1.35 20.8 0 0 1193.50 125.78
  Q 1192.29 125.40 1190.84 126.11
  Q 1185.99 128.45 1171.42 137.15
  C 1168.65 138.80 1162.87 142.86 1161.63 137.11
  Q 1159.90 129.00 1159.14 125.95
  C 1157.21 118.24 1156.18 109.11 1154.01 101.88
  A 2.13 1.84 67.7 0 0 1151.24 100.47
  Q 1149.62 101.40 1149.15 104.02
  Q 1145.76 123.05 1142.34 137.08
  Q 1141.31 141.35 1137.32 139.68
  Q 1133.02 137.88 1127.64 134.14
  C 1123.59 131.33 1118.59 129.01 1113.17 125.88
  A 2.59 2.25 26.1 0 0 1109.60 126.83
  Q 1109.31 127.59 1110.20 129.08
  C 1113.60 134.73 1116.62 139.32 1119.26 145.48
  Q 1121.49 150.70 1126.08 158.93
  Q 1128.57 163.40 1124.72 166.46
  Q 1105.13 182.04 1102.29 184.53
  Q 1100.78 185.86 1100.23 187.17
  A 1.13 1.12 28.5 0 0 1100.64 188.54"
/>
<path stroke="#8080c6" vector-effect="non-scaling-stroke" d="
  M 1299.49 450.13
  Q 1300.36 449.91 1300.69 449.16
  C 1302.44 445.19 1306.43 442.03 1308.53 438.71
  Q 1313.23 431.31 1317.19 424.70
  C 1319.09 421.54 1322.98 417.46 1325.79 421.75
  Q 1330.54 429.02 1337.94 439.95
  C 1339.84 442.75 1341.68 448.44 1344.96 449.41
  A 1.20 1.20 0.0 0 0 1346.48 448.47
  Q 1346.92 446.08 1346.53 443.52
  Q 1342.30 415.18 1341.40 409.15
  Q 1340.90 405.80 1343.00 404.45
  A 1.90 1.84 27.5 0 1 1343.97 404.16
  Q 1351.28 404.02 1361.05 402.87
  C 1365.02 402.41 1369.48 402.76 1372.60 402.60
  A 1.63 1.63 0.0 0 0 1373.88 400.07
  Q 1372.39 397.81 1369.77 395.72
  Q 1357.45 385.91 1348.19 378.17
  A 2.70 2.68 -62.6 0 1 1347.32 375.40
  C 1347.80 373.64 1348.46 371.77 1349.37 370.22
  Q 1353.64 362.99 1355.70 358.17
  Q 1357.54 353.88 1360.24 349.51
  Q 1361.62 347.26 1364.53 340.66
  A 1.40 1.40 0.0 0 0 1363.55 338.73
  Q 1361.89 338.36 1360.07 339.59
  Q 1352.70 344.58 1338.75 352.08
  C 1335.79 353.67 1332.27 354.95 1331.63 350.39
  Q 1329.11 332.34 1323.94 314.94
  A 1.89 1.88 71.8 0 0 1321.50 313.70
  Q 1319.92 314.27 1319.72 316.24
  C 1318.91 324.16 1317.90 331.64 1315.40 339.47
  Q 1313.39 345.80 1313.08 349.64
  C 1312.79 353.22 1310.86 354.87 1307.53 352.92
  C 1305.12 351.50 1302.83 349.85 1300.02 348.54
  Q 1296.04 346.68 1293.69 345.02
  C 1290.02 342.42 1286.75 341.13 1282.85 338.68
  A 1.25 1.25 0.0 0 0 1280.95 339.96
  C 1281.27 341.83 1282.45 344.95 1283.58 346.96
  Q 1290.41 359.09 1297.01 373.47
  Q 1297.77 375.11 1297.55 376.74
  A 1.93 1.85 -23.2 0 1 1297.17 377.63
  Q 1295.37 380.02 1291.92 382.68
  Q 1281.51 390.71 1275.91 395.41
  Q 1273.77 397.21 1272.28 399.37
  C 1271.09 401.09 1273.24 402.74 1274.77 402.75
  Q 1287.96 402.79 1300.13 404.62
  Q 1303.74 405.16 1303.31 408.56
  Q 1301.71 421.47 1301.53 426.87
  C 1301.30 434.15 1298.34 442.41 1298.68 449.53
  A 0.65 0.65 0.0 0 0 1299.49 450.13"
/>
<path stroke="#8080c6" vector-effect="non-scaling-stroke" d="
  M 1009.85 472.18
  A 1.75 1.74 81.6 0 0 1011.46 470.01
  Q 1010.95 468.01 1009.41 466.83
  Q 994.35 455.32 987.72 449.83
  Q 986.55 448.86 985.07 446.86
  A 3.11 3.10 42.6 0 1 984.92 443.36
  Q 989.16 436.55 992.67 427.95
  Q 993.37 426.22 997.95 418.88
  C 999.74 416.02 1001.00 413.26 1002.27 410.78
  A 1.15 1.15 0.0 0 0 1001.82 409.25
  C 998.66 407.42 996.14 410.92 994.13 411.88
  Q 982.32 417.48 976.68 421.67
  Q 974.73 423.12 972.85 423.09
  A 3.06 2.97 -6.8 0 1 969.97 420.89
  Q 966.62 408.52 964.69 396.54
  Q 963.69 390.39 962.52 386.27
  Q 961.98 384.37 960.76 383.32
  A 1.27 1.26 -48.2 0 0 959.01 383.42
  Q 957.89 384.61 957.50 386.25
  C 954.99 396.87 953.65 405.45 950.87 418.21
  C 949.53 424.34 946.30 423.90 941.94 420.89
  Q 935.30 416.30 928.02 413.26
  Q 926.12 412.47 921.73 409.04
  A 1.98 1.96 66.7 0 0 920.74 408.64
  Q 919.19 408.46 918.10 409.38
  A 2.16 1.68 55.5 0 0 917.95 411.90
  C 920.98 416.93 924.66 422.74 927.57 429.04
  Q 931.51 437.56 934.92 442.91
  A 3.31 3.31 0.0 0 1 935.10 446.15
  Q 933.99 448.40 932.32 449.81
  Q 921.53 458.85 909.15 467.56
  Q 907.46 468.75 907.82 470.62
  Q 908.03 471.73 910.56 472.20
  C 913.70 472.78 918.93 472.22 923.15 472.72
  Q 929.46 473.47 937.36 473.78
  A 2.54 2.53 83.5 0 1 939.69 475.64
  Q 940.28 477.80 940.07 480.75
  C 939.60 487.19 939.30 494.29 938.00 501.45
  Q 936.47 509.88 935.27 516.35
  A 1.58 1.58 0.0 0 0 936.95 518.21
  C 939.25 518.03 939.70 516.67 940.88 515.10
  Q 949.39 503.80 956.42 491.41
  C 957.93 488.75 961.53 487.24 963.29 490.57
  Q 967.88 499.28 972.79 506.14
  Q 979.11 514.97 980.98 517.86
  A 2.05 1.87 -47.1 0 0 984.29 517.59
  C 984.90 516.57 984.37 514.91 983.86 513.01
  Q 983.44 511.45 983.16 509.52
  Q 981.05 494.83 979.54 477.25
  C 979.37 475.20 980.14 473.93 982.20 473.83
  Q 992.11 473.35 999.36 472.37
  C 1002.94 471.88 1007.28 472.30 1009.85 472.18"
/>
<path stroke="#8080c6" vector-effect="non-scaling-stroke" d="
  M 1247.07 596.57
  Q 1247.69 594.41 1247.13 592.09
  Q 1243.99 579.07 1242.98 572.01
  Q 1242.51 568.73 1243.99 566.75
  Q 1246.39 563.54 1251.06 559.45
  C 1253.99 556.88 1255.82 554.48 1257.03 551.15
  A 1.60 1.59 -67.7 0 0 1256.19 549.14
  Q 1254.45 548.35 1252.00 548.52
  C 1245.58 548.94 1238.14 549.52 1235.79 542.40
  Q 1232.96 533.81 1231.92 526.87
  Q 1231.59 524.63 1230.22 523.21
  A 1.23 1.23 0.0 0 0 1228.26 523.46
  Q 1226.85 525.97 1225.65 529.85
  Q 1223.51 536.71 1221.24 543.49
  Q 1219.56 548.53 1214.48 548.51
  Q 1208.66 548.50 1202.80 548.48
  Q 1201.37 548.48 1200.33 550.01
  A 0.95 0.93 49.8 0 0 1200.26 550.94
  Q 1201.74 553.95 1203.27 555.49
  Q 1209.82 562.08 1213.46 566.55
  C 1215.62 569.20 1214.78 572.93 1213.87 576.05
  C 1212.34 581.27 1211.57 587.40 1210.61 592.56
  Q 1210.38 593.77 1210.57 595.35
  A 1.26 1.26 0.0 0 0 1212.40 596.32
  C 1214.06 595.45 1216.10 594.09 1217.51 592.48
  Q 1221.00 588.48 1226.19 584.45
  C 1228.87 582.36 1232.45 584.84 1234.50 586.76
  Q 1240.83 592.73 1246.23 596.85
  A 0.54 0.53 -63.2 0 0 1247.07 596.57"
/>
<path stroke="#8080c6" vector-effect="non-scaling-stroke" d="
  M 383.99 851.67
  Q 385.41 851.67 386.90 853.88
  Q 400.04 873.42 420.11 901.98
  C 424.06 907.60 427.35 914.05 432.50 918.83
  A 1.05 1.05 0.0 0 0 434.13 918.57
  Q 434.34 918.18 434.24 917.44
  Q 431.78 899.40 431.18 892.46
  C 429.91 877.88 427.65 863.73 426.45 848.86
  Q 425.22 833.58 424.63 828.51
  Q 424.02 823.33 428.96 823.05
  C 446.44 822.05 463.65 819.78 482.33 816.72
  C 485.10 816.27 487.99 816.40 491.01 816.33
  Q 492.82 816.28 493.59 815.55
  A 2.23 1.92 43.7 0 0 493.30 812.50
  C 489.81 809.39 485.10 806.30 480.32 802.37
  Q 471.28 794.92 464.44 789.64
  C 455.39 782.66 446.64 774.77 439.18 769.03
  Q 439.15 769.01 439.12 768.99
  L 435.98 767.01
  A 2.48 2.47 19.5 0 1 434.85 764.65
  Q 435.24 761.09 436.93 758.21
  C 440.99 751.30 444.06 743.96 447.59 737.14
  Q 452.39 727.88 462.04 707.60
  C 464.71 701.99 468.39 694.88 470.42 691.42
  Q 471.78 689.10 472.63 685.64
  A 1.43 1.43 0.0 0 0 471.11 683.87
  Q 470.40 683.94 469.43 684.50
  Q 458.45 690.77 450.46 694.92
  Q 421.92 709.74 411.76 715.04
  C 409.81 716.06 405.97 717.20 405.49 714.38
  Q 404.08 705.96 400.78 694.81
  C 399.22 689.50 398.30 684.32 397.50 680.03
  C 395.56 669.61 391.87 659.25 390.13 648.92
  Q 388.37 638.53 386.62 631.48
  Q 385.76 628.03 384.00 628.03
  Q 382.24 628.03 381.38 631.48
  Q 379.62 638.53 377.86 648.92
  C 376.12 659.25 372.43 669.61 370.49 680.03
  C 369.69 684.32 368.77 689.50 367.21 694.81
  Q 363.91 705.96 362.50 714.38
  C 362.02 717.20 358.18 716.06 356.23 715.04
  Q 346.07 709.74 317.53 694.91
  Q 309.54 690.76 298.56 684.49
  Q 297.59 683.93 296.88 683.86
  A 1.43 1.43 0.0 0 0 295.36 685.63
  Q 296.21 689.09 297.57 691.41
  C 299.60 694.87 303.28 701.98 305.95 707.59
  Q 315.59 727.87 320.39 737.13
  C 323.92 743.95 326.99 751.29 331.05 758.20
  Q 332.74 761.08 333.13 764.64
  A 2.48 2.47 -19.5 0 1 332.00 767.00
  L 328.86 768.98
  Q 328.83 769.00 328.80 769.02
  C 321.34 774.76 312.59 782.65 303.54 789.63
  Q 296.70 794.91 287.66 802.36
  C 282.88 806.29 278.17 809.38 274.68 812.49
  A 2.23 1.92 -43.7 0 0 274.39 815.54
  Q 275.16 816.27 276.97 816.32
  C 279.99 816.39 282.88 816.26 285.65 816.71
  C 304.32 819.77 321.53 822.04 339.01 823.05
  Q 343.95 823.33 343.34 828.51
  Q 342.75 833.58 341.52 848.86
  C 340.32 863.73 338.06 877.87 336.79 892.45
  Q 336.19 899.39 333.72 917.43
  Q 333.62 918.17 333.83 918.56
  A 1.05 1.05 0.0 0 0 335.46 918.82
  C 340.61 914.05 343.91 907.60 347.86 901.98
  Q 367.93 873.42 381.08 853.88
  Q 382.56 851.67 383.99 851.67"
/>
<path stroke="#8080c6" vector-effect="non-scaling-stroke" d="
  M 1176.31 930.88
  Q 1173.65 912.87 1171.63 893.13
  Q 1171.36 890.44 1172.08 888.82
  A 3.26 3.24 10.5 0 1 1174.89 886.90
  L 1202.22 885.50
  A 1.44 1.43 -8.3 0 0 1203.55 883.73
  C 1203.26 882.56 1200.63 880.18 1198.06 877.43
  A 7.57 7.25 -3.2 0 0 1196.74 876.30
  Q 1188.68 870.91 1179.73 863.68
  Q 1179.66 863.63 1178.67 862.91
  C 1175.86 860.88 1177.58 856.50 1178.91 853.64
  Q 1179.98 851.35 1187.30 836.71
  Q 1188.86 833.62 1190.32 831.32
  C 1192.14 828.49 1194.40 825.60 1194.18 823.32
  A 1.64 1.33 -4.7 0 0 1192.45 822.14
  Q 1190.42 822.31 1188.98 823.20
  Q 1179.60 829.06 1175.65 830.95
  C 1173.36 832.04 1163.38 839.98 1161.95 834.79
  C 1160.16 828.30 1158.43 820.77 1157.32 813.41
  Q 1156.06 805.03 1153.87 798.05
  A 1.96 1.77 68.3 0 0 1151.30 796.79
  Q 1150.00 797.46 1149.56 799.52
  Q 1143.56 827.81 1143.47 828.83
  C 1143.28 830.92 1142.70 834.09 1141.48 836.10
  A 1.73 1.72 22.4 0 1 1139.61 836.87
  C 1137.22 836.29 1134.98 835.21 1132.70 833.65
  Q 1127.27 829.94 1123.00 827.90
  Q 1120.20 826.56 1118.22 825.28
  C 1115.78 823.70 1112.77 821.17 1110.49 822.59
  A 1.67 1.66 58.6 0 0 1109.95 824.85
  Q 1118.03 838.58 1126.37 856.05
  Q 1127.65 858.73 1126.39 861.45
  A 2.16 2.12 82.6 0 1 1125.87 862.14
  Q 1115.74 870.90 1104.54 878.24
  Q 1103.71 878.77 1101.06 881.87
  C 1099.51 883.67 1100.50 885.12 1102.54 885.29
  C 1109.95 885.90 1119.79 885.81 1128.63 887.20
  C 1131.48 887.64 1132.06 889.09 1132.02 891.76
  Q 1131.80 910.59 1127.11 930.45
  A 1.13 1.12 -83.3 0 0 1128.20 931.84
  Q 1130.34 931.84 1132.00 929.72
  Q 1139.82 919.66 1148.04 905.56
  Q 1148.66 904.50 1150.88 902.54
  A 1.26 1.22 25.1 0 1 1151.78 902.23
  Q 1153.96 902.34 1154.97 904.03
  Q 1164.31 919.46 1172.79 930.98
  Q 1173.64 932.14 1174.68 932.38
  A 1.34 1.34 0.0 0 0 1176.31 930.88"
/>
<path stroke="#8080c6" vector-effect="non-scaling-stroke" d="
  M 0.28 307.19
  Q 0.28 308.24 0.00 308.34"
/>
<path stroke="#ff8080" vector-effect="non-scaling-stroke" d="
  M 767.43 482.96
  Q 766.59 484.48 763.64 480.59
  A 4.12 4.12 0.0 0 0 762.88 479.83
  Q 756.99 475.34 750.88 471.17
  Q 726.02 454.23 702.93 438.38
  Q 690.65 429.94 679.02 421.92
  Q 672.21 417.22 665.30 412.65
  Q 659.12 408.58 651.64 403.32
  Q 644.72 398.46 637.62 393.82
  Q 633.63 391.21 628.96 388.08
  Q 617.18 380.19 605.40 372.05
  C 591.95 362.74 580.90 355.36 565.27 344.52
  C 561.30 341.76 559.04 339.83 553.82 339.69
  Q 534.47 339.17 528.68 339.48
  Q 523.45 339.77 519.33 339.29
  Q 513.70 338.64 509.72 339.37
  A 2.06 2.06 0.0 0 0 508.06 341.05
  C 507.76 342.88 508.61 343.93 510.30 344.98
  Q 518.70 350.17 524.25 353.90
  Q 555.19 374.66 590.15 398.87
  C 597.34 403.85 603.55 407.44 610.87 412.61
  Q 612.33 413.64 616.56 416.47
  Q 623.30 420.96 637.60 431.07
  Q 646.69 437.50 658.80 445.43
  Q 675.06 456.07 691.59 467.75
  Q 700.75 474.21 711.12 480.96
  Q 728.00 491.95 730.80 494.10
  C 737.04 498.89 744.18 502.96 751.32 508.18
  C 753.46 509.75 757.87 512.44 761.32 513.98
  Q 763.50 514.95 764.74 515.88
  Q 766.02 516.84 765.35 519.19"
/>
<path stroke="#ff8080" vector-effect="non-scaling-stroke" d="
  M 54.23 518.89
  Q 60.71 513.76 67.46 509.55
  Q 80.94 501.12 81.18 500.97
  Q 94.38 492.10 110.60 480.85
  Q 128.74 468.28 147.73 455.95
  C 150.56 454.11 153.19 451.96 156.42 449.68
  Q 172.62 438.30 187.14 428.69
  C 207.63 415.13 227.77 401.07 247.78 387.51
  Q 257.23 381.11 260.02 379.32
  C 269.10 373.49 275.21 368.63 284.45 362.70
  Q 285.40 362.09 296.70 354.33
  C 300.40 351.79 305.12 348.97 309.15 346.35
  C 311.82 344.61 314.38 343.14 313.53 340.04
  A 1.97 1.97 0.0 0 0 311.50 338.60
  C 302.39 339.18 292.57 339.90 282.91 339.52
  Q 280.32 339.41 270.74 339.38
  Q 263.68 339.35 258.37 343.12
  Q 256.19 344.67 227.76 364.23
  Q 221.15 368.78 219.12 370.17
  Q 192.64 388.39 157.04 412.28
  Q 144.88 420.44 144.32 420.84
  C 134.84 427.70 129.70 430.77 119.60 437.84
  Q 114.18 441.64 97.07 452.98
  C 91.54 456.65 87.25 460.03 82.58 462.97
  Q 78.60 465.48 71.71 470.42
  Q 58.96 479.56 47.93 486.42
  Q 40.96 490.76 37.41 493.34
  C 29.37 499.20 24.07 502.51 15.34 509.08
  Q 13.13 510.74 5.96 514.93
  A 2.14 2.13 -88.7 0 0 5.19 515.67
  Q 3.44 518.50 1.37 520.03"
/>
<path stroke="#8080c6" vector-effect="non-scaling-stroke" d="
  M 0.00 454.28
  Q 0.59 450.38 3.91 448.18
  Q 28.24 432.05 54.38 413.92
  C 65.87 405.95 79.27 397.34 89.66 390.17
  Q 133.34 360.01 147.26 351.03
  C 152.57 347.61 158.39 344.82 159.68 341.05
  A 1.77 1.77 0.0 0 0 158.23 338.72
  C 154.67 338.28 149.76 339.08 146.41 339.59
  Q 144.56 339.86 140.66 339.87
  Q 75.76 339.93 1.90 339.83
  A 1.49 1.49 0.0 0 1 0.43 338.57
  L 0.00 335.87"
/>
</g>
<path fill="#ff0000" d="
  M 11.90 0.00
  Q 11.91 0.08 11.92 0.16
  Q 9.64 -0.32 9.00 1.48
  Q 8.63 2.53 9.58 3.15
  Q 16.63 7.71 22.04 11.67
  C 32.23 19.12 40.79 24.23 52.14 32.30
  Q 60.99 38.59 70.19 44.49
  C 79.56 50.49 92.37 60.11 104.11 67.51
  C 110.17 71.33 115.69 75.90 122.19 79.73
  Q 125.01 81.39 127.77 83.38
  Q 148.37 98.25 171.67 113.44
  C 179.86 118.78 187.63 124.34 195.84 130.07
  Q 204.68 136.24 214.08 142.42
  Q 227.27 151.09 231.38 153.99
  C 240.00 160.06 249.63 165.74 257.92 171.85
  Q 260.28 173.59 261.12 176.22
  A 1.53 1.53 0.0 0 1 259.86 178.20
  Q 259.55 178.24 259.18 178.23
  Q 243.88 177.94 238.75 177.92
  Q 229.51 177.88 214.50 177.13
  Q 210.56 176.94 207.18 174.58
  Q 193.01 164.73 184.46 159.29
  C 172.24 151.52 159.98 141.79 147.30 133.81
  C 136.11 126.76 125.29 118.50 116.66 112.93
  Q 107.11 106.76 99.83 101.66
  Q 83.93 90.54 64.34 77.70
  C 59.01 74.20 53.15 69.65 48.52 66.48
  Q 35.71 57.70 0.51 33.98
  L 0.00 30.90
  L 0.00 0.00
  L 11.90 0.00
  Z"
/>
<path fill="#00008d" d="
  M 16.41 0.00
  L 11.92 0.16
  Q 11.91 0.08 11.90 0.00
  L 16.41 0.00
  Z"
/>
<path fill="#ffffff" d="
  M 101.87 0.00
  Q 106.79 0.54 110.10 3.14
  Q 113.91 6.14 117.00 8.22
  C 122.45 11.90 126.47 14.97 130.13 17.39
  Q 163.69 39.56 197.10 62.90
  C 202.70 66.81 208.25 70.07 213.32 73.72
  Q 219.54 78.21 225.36 82.06
  Q 235.91 89.03 271.94 113.48
  Q 281.50 119.96 296.65 130.51
  Q 309.01 139.12 321.48 147.40
  A 2.09 2.07 36.9 0 0 324.22 147.03
  Q 324.60 146.58 324.50 145.25
  Q 324.16 140.49 324.16 136.75
  Q 324.25 79.23 324.17 2.52
  A 1.99 1.99 0.0 0 1 325.88 0.55
  L 329.75 0.00
  L 343.39 0.00
  L 346.83 0.59
  Q 348.86 2.55 348.43 7.31
  Q 347.89 13.29 347.89 14.25
  Q 347.88 87.69 347.80 163.25
  Q 347.77 193.89 348.06 202.75
  Q 348.14 205.38 347.69 207.58
  A 2.34 2.33 6.9 0 1 345.32 209.43
  C 337.06 209.11 328.83 209.44 321.95 209.44
  Q 68.54 209.41 35.00 209.24
  Q 21.07 209.17 18.67 209.37
  C 13.38 209.80 7.55 208.99 1.95 209.88
  A 1.01 0.99 64.7 0 1 1.03 209.54
  L 0.31 208.69
  Q 0.52 207.03 0.00 205.79
  L 0.00 180.52
  L 0.56 178.18
  A 1.97 1.97 0.0 0 1 2.58 176.67
  Q 13.28 177.24 17.25 177.25
  Q 118.17 177.34 128.73 177.37
  Q 135.58 177.38 140.26 177.16
  Q 147.03 176.84 156.76 178.05
  Q 158.39 178.25 159.54 177.25
  A 1.88 1.83 55.6 0 0 159.93 174.99
  Q 158.84 172.92 156.93 171.62
  C 149.61 166.60 141.31 161.45 134.79 157.03
  Q 103.48 135.81 74.90 116.40
  Q 47.40 97.72 31.03 86.35
  Q 23.52 81.14 16.29 76.40
  Q 8.79 71.49 1.60 66.07
  A 1.78 1.77 10.8 0 1 0.94 65.10
  L 0.00 61.51
  L 0.00 37.87
  L 0.51 33.98
  Q 35.71 57.70 48.52 66.48
  C 53.15 69.65 59.01 74.20 64.34 77.70
  Q 83.93 90.54 99.83 101.66
  Q 107.11 106.76 116.66 112.93
  C 125.29 118.50 136.11 126.76 147.30 133.81
  C 159.98 141.79 172.24 151.52 184.46 159.29
  Q 193.01 164.73 207.18 174.58
  Q 210.56 176.94 214.50 177.13
  Q 229.51 177.88 238.75 177.92
  Q 243.88 177.94 259.18 178.23
  Q 259.55 178.24 259.86 178.20
  A 1.53 1.53 0.0 0 0 261.12 176.22
  Q 260.28 173.59 257.92 171.85
  C 249.63 165.74 240.00 160.06 231.38 153.99
  Q 227.27 151.09 214.08 142.42
  Q 204.68 136.24 195.84 130.07
  C 187.63 124.34 179.86 118.78 171.67 113.44
  Q 148.37 98.25 127.77 83.38
  Q 125.01 81.39 122.19 79.73
  C 115.69 75.90 110.17 71.33 104.11 67.51
  C 92.37 60.11 79.56 50.49 70.19 44.49
  Q 60.99 38.59 52.14 32.30
  C 40.79 24.23 32.23 19.12 22.04 11.67
  Q 16.63 7.71 9.58 3.15
  Q 8.63 2.53 9.00 1.48
  Q 9.64 -0.32 11.92 0.16
  L 16.41 0.00
  L 101.87 0.00
  Z"
/>
<path fill="#00008d" d="
  M 329.75 0.00
  L 325.88 0.55
  A 1.99 1.99 0.0 0 0 324.17 2.52
  Q 324.25 79.23 324.16 136.75
  Q 324.16 140.49 324.50 145.25
  Q 324.60 146.58 324.22 147.03
  A 2.09 2.07 36.9 0 1 321.48 147.40
  Q 309.01 139.12 296.65 130.51
  Q 281.50 119.96 271.94 113.48
  Q 235.91 89.03 225.36 82.06
  Q 219.54 78.21 213.32 73.72
  C 208.25 70.07 202.70 66.81 197.10 62.90
  Q 163.69 39.56 130.13 17.39
  C 126.47 14.97 122.45 11.90 117.00 8.22
  Q 113.91 6.14 110.10 3.14
  Q 106.79 0.54 101.87 0.00
  L 329.75 0.00
  Z"
/>
<path fill="#00008d" d="
  M 351.38 0.00
  Q 348.48 0.80 346.83 0.59
  L 343.39 0.00
  L 351.38 0.00
  Z"
/>
<path fill="#ff0000" d="
  M 416.89 0.00
  L 419.38 0.47
  Q 419.22 4.74 419.97 9.03
  A 9.36 8.59 42.6 0 1 420.10 10.55
  C 419.81 55.61 419.58 100.70 420.03 145.76
  Q 420.20 163.22 419.87 180.75
  Q 419.74 187.82 419.65 202.17
  Q 419.62 206.40 419.87 206.98
  Q 420.94 209.41 423.58 209.45
  Q 425.16 209.48 520.50 209.60
  Q 559.48 209.65 596.75 209.47
  Q 664.90 209.15 736.94 209.62
  Q 737.00 209.62 751.55 209.34
  Q 759.52 209.18 767.76 209.92
  Q 768.53 221.92 768.18 240.00
  Q 767.93 253.00 768.33 284.75
  Q 768.46 295.13 768.43 296.43
  C 768.37 299.18 767.86 302.18 767.58 304.77
  Q 767.50 305.53 766.90 305.43
  Q 762.25 306.54 755.50 306.68
  Q 746.90 306.87 731.19 306.86
  Q 664.60 306.82 470.06 306.92
  Q 452.43 306.93 427.35 307.13
  C 422.58 307.17 419.09 306.53 419.47 312.26
  Q 419.90 318.90 419.88 324.50
  Q 419.60 415.17 419.74 495.25
  Q 419.74 498.03 419.37 507.23
  Q 419.13 513.29 419.50 519.21
  L 415.99 518.77
  A 7.56 7.43 -46.8 0 0 413.50 518.87
  Q 409.69 519.68 405.75 519.65
  Q 377.18 519.39 348.74 519.71
  Q 349.02 517.99 348.87 516.25
  Q 348.62 513.44 348.62 513.22
  Q 348.11 496.12 348.03 481.25
  Q 347.83 447.98 347.92 323.73
  Q 347.92 320.37 348.47 312.44
  Q 348.66 309.79 348.15 308.26
  A 1.97 1.95 82.0 0 0 346.40 306.93
  Q 342.13 306.68 335.76 306.69
  Q 135.85 306.96 10.25 306.74
  Q 7.09 306.74 6.18 306.36
  Q 1.98 304.60 0.28 307.19
  Q 0.45 305.23 0.00 303.64
  L 0.00 211.34
  Q 0.55 210.35 0.31 208.69
  L 1.03 209.54
  A 1.01 0.99 64.7 0 0 1.95 209.88
  C 7.55 208.99 13.38 209.80 18.67 209.37
  Q 21.07 209.17 35.00 209.24
  Q 68.54 209.41 321.95 209.44
  C 328.83 209.44 337.06 209.11 345.32 209.43
  A 2.34 2.33 6.9 0 0 347.69 207.58
  Q 348.14 205.38 348.06 202.75
  Q 347.77 193.89 347.80 163.25
  Q 347.88 87.69 347.89 14.25
  Q 347.89 13.29 348.43 7.31
  Q 348.86 2.55 346.83 0.59
  Q 348.48 0.80 351.38 0.00
  L 416.89 0.00
  Z"
/>
<path fill="#00008d" d="
  M 422.22 0.00
  L 419.38 0.47
  L 416.89 0.00
  L 422.22 0.00
  Z"
/>
<path fill="#ffffff" d="
  M 437.63 0.00
  C 440.28 0.34 443.99 0.18 443.90 3.97
  C 443.83 6.92 443.59 10.41 443.61 12.69
  Q 443.96 62.89 443.79 133.00
  Q 443.78 137.20 443.35 145.77
  A 1.77 1.77 0.0 0 0 445.49 147.59
  Q 446.70 147.33 447.96 146.47
  Q 463.60 135.77 476.31 127.31
  C 479.51 125.18 483.74 121.73 487.32 119.35
  Q 495.67 113.83 545.45 80.16
  Q 553.01 75.05 554.04 74.30
  C 561.13 69.11 567.65 65.17 575.52 59.68
  Q 604.42 39.53 630.61 22.18
  Q 636.44 18.32 641.07 14.95
  Q 648.57 9.48 651.59 7.77
  C 654.59 6.07 657.86 2.83 661.61 1.01
  A 4.58 4.53 -62.7 0 1 662.78 0.63
  L 666.25 0.00
  L 703.12 0.00
  Q 704.72 0.66 705.79 0.00
  L 709.47 0.00
  Q 694.06 10.23 679.45 20.52
  Q 674.53 23.99 672.42 25.30
  C 666.35 29.08 659.82 34.14 654.99 37.34
  Q 627.25 55.75 599.60 74.98
  Q 593.88 78.96 586.29 83.83
  C 579.59 88.13 572.81 93.17 565.61 97.71
  Q 562.14 99.90 558.22 102.67
  C 537.20 117.55 504.44 138.97 484.67 153.08
  C 479.19 156.99 474.16 159.92 467.87 164.28
  Q 463.00 167.66 458.11 170.84
  C 456.19 172.09 452.40 175.28 454.50 177.58
  A 0.81 0.80 -34.6 0 0 455.46 177.75
  Q 456.30 177.33 466.77 177.48
  Q 489.48 177.79 495.25 177.63
  Q 502.57 177.41 504.29 176.50
  Q 505.71 175.75 509.47 173.21
  C 529.74 159.52 544.89 148.80 564.54 135.68
  C 579.83 125.48 597.49 113.00 614.65 101.66
  Q 622.79 96.29 631.92 89.78
  Q 641.95 82.62 646.46 79.69
  C 657.36 72.62 669.73 64.38 683.24 54.97
  Q 704.00 40.50 719.43 30.38
  C 730.81 22.91 739.44 16.67 753.67 6.55
  C 756.16 4.77 758.68 2.56 761.29 0.62
  Q 764.31 -0.20 767.33 0.41
  A 0.80 0.79 6.7 0 1 767.96 1.20
  Q 767.75 24.17 768.05 52.03
  C 768.14 60.59 768.60 65.15 761.71 69.73
  Q 735.13 87.36 727.88 92.54
  C 718.66 99.12 708.82 105.25 699.26 112.15
  C 697.31 113.55 694.65 114.92 692.90 116.14
  Q 667.03 134.18 629.18 159.65
  Q 613.99 169.86 611.39 171.40
  Q 609.42 172.57 608.18 174.62
  A 2.09 1.84 -59.9 0 0 608.73 177.41
  Q 609.63 177.90 611.03 177.74
  Q 618.54 176.82 627.11 177.11
  Q 642.97 177.65 654.69 177.46
  Q 672.96 177.15 682.31 177.20
  C 718.59 177.40 739.75 177.43 764.86 176.81
  A 2.61 2.61 0.0 0 1 767.41 178.62
  Q 768.01 180.48 768.07 183.00
  Q 768.38 196.46 767.76 209.92
  Q 759.52 209.18 751.55 209.34
  Q 737.00 209.62 736.94 209.62
  Q 664.90 209.15 596.75 209.47
  Q 559.48 209.65 520.50 209.60
  Q 425.16 209.48 423.58 209.45
  Q 420.94 209.41 419.87 206.98
  Q 419.62 206.40 419.65 202.17
  Q 419.74 187.82 419.87 180.75
  Q 420.20 163.22 420.03 145.76
  C 419.58 100.70 419.81 55.61 420.10 10.55
  A 9.36 8.59 42.6 0 0 419.97 9.03
  Q 419.22 4.74 419.38 0.47
  L 422.22 0.00
  L 437.63 0.00
  Z"
/>
<path fill="#00008d" d="
  M 666.25 0.00
  L 662.78 0.63
  A 4.58 4.53 -62.7 0 0 661.61 1.01
  C 657.86 2.83 654.59 6.07 651.59 7.77
  Q 648.57 9.48 641.07 14.95
  Q 636.44 18.32 630.61 22.18
  Q 604.42 39.53 575.52 59.68
  C 567.65 65.17 561.13 69.11 554.04 74.30
  Q 553.01 75.05 545.45 80.16
  Q 495.67 113.83 487.32 119.35
  C 483.74 121.73 479.51 125.18 476.31 127.31
  Q 463.60 135.77 447.96 146.47
  Q 446.70 147.33 445.49 147.59
  A 1.77 1.77 0.0 0 1 443.35 145.77
  Q 443.78 137.20 443.79 133.00
  Q 443.96 62.89 443.61 12.69
  C 443.59 10.41 443.83 6.92 443.90 3.97
  C 443.99 0.18 440.28 0.34 437.63 0.00
  L 666.25 0.00
  Z"
/>
<path fill="#00008d" d="
  M 705.79 0.00
  Q 704.72 0.66 703.12 0.00
  L 705.79 0.00
  Z"
/>
<path fill="#ff0000" d="
  M 752.63 0.00
  Q 756.74 1.16 761.29 0.62
  C 758.68 2.56 756.16 4.77 753.67 6.55
  C 739.44 16.67 730.81 22.91 719.43 30.38
  Q 704.00 40.50 683.24 54.97
  C 669.73 64.38 657.36 72.62 646.46 79.69
  Q 641.95 82.62 631.92 89.78
  Q 622.79 96.29 614.65 101.66
  C 597.49 113.00 579.83 125.48 564.54 135.68
  C 544.89 148.80 529.74 159.52 509.47 173.21
  Q 505.71 175.75 504.29 176.50
  Q 502.57 177.41 495.25 177.63
  Q 489.48 177.79 466.77 177.48
  Q 456.30 177.33 455.46 177.75
  A 0.81 0.80 -34.6 0 1 454.50 177.58
  C 452.40 175.28 456.19 172.09 458.11 170.84
  Q 463.00 167.66 467.87 164.28
  C 474.16 159.92 479.19 156.99 484.67 153.08
  C 504.44 138.97 537.20 117.55 558.22 102.67
  Q 562.14 99.90 565.61 97.71
  C 572.81 93.17 579.59 88.13 586.29 83.83
  Q 593.88 78.96 599.60 74.98
  Q 627.25 55.75 654.99 37.34
  C 659.82 34.14 666.35 29.08 672.42 25.30
  Q 674.53 23.99 679.45 20.52
  Q 694.06 10.23 709.47 0.00
  L 752.63 0.00
  Z"
/>
<path fill="#00008d" d="
  M 1536.00 0.00
  L 1536.00 1040.00
  L 0.00 1040.00
  L 0.00 511.37
  L 1.37 520.03
  L 8.91 519.12
  A 1.63 1.63 0.0 0 1 9.35 519.12
  Q 13.62 519.78 15.75 519.73
  Q 26.22 519.53 37.00 519.87
  Q 46.37 520.17 54.23 518.89
  C 56.39 519.23 58.61 519.66 60.62 519.60
  Q 78.51 519.12 93.34 519.36
  C 99.06 519.45 102.70 517.94 107.11 514.84
  Q 126.85 500.94 156.16 481.68
  C 164.52 476.18 178.63 465.95 188.69 459.23
  Q 205.41 448.06 222.85 436.19
  C 227.84 432.80 231.37 430.12 235.48 427.44
  C 243.37 422.30 250.52 417.01 256.88 412.84
  Q 268.78 405.01 293.63 387.89
  C 300.77 382.97 307.67 378.07 314.14 374.12
  Q 315.89 373.05 317.06 372.05
  C 318.97 370.42 320.70 368.39 322.94 369.53
  Q 324.45 370.29 324.43 372.22
  Q 324.31 382.33 324.22 391.50
  Q 323.92 422.69 323.98 505.00
  Q 323.99 511.37 323.83 514.98
  C 323.75 516.93 324.28 518.59 326.27 518.77
  Q 334.70 519.55 348.74 519.71
  Q 377.18 519.39 405.75 519.65
  Q 409.69 519.68 413.50 518.87
  A 7.56 7.43 -46.8 0 1 415.99 518.77
  L 419.50 519.21
  Q 431.39 519.64 441.48 519.00
  Q 443.92 518.85 443.91 516.50
  Q 443.72 460.66 443.77 385.00
  Q 443.78 378.91 442.95 372.33
  C 442.67 370.02 444.93 367.60 447.20 369.36
  Q 450.77 372.13 457.25 376.33
  C 464.51 381.03 468.93 384.61 475.67 388.80
  Q 479.09 390.92 483.85 394.31
  Q 501.23 406.69 513.04 414.19
  Q 516.28 416.24 519.87 418.96
  C 524.91 422.78 530.87 426.37 534.93 429.15
  Q 561.75 447.50 580.88 460.36
  Q 589.56 466.20 591.23 467.44
  C 597.98 472.51 603.41 475.58 609.73 480.22
  Q 611.52 481.53 618.13 485.86
  Q 635.89 497.51 642.95 502.56
  Q 657.31 512.84 663.37 516.62
  C 668.07 519.55 674.12 519.35 678.50 519.33
  Q 709.69 519.18 739.29 519.30
  Q 739.56 519.30 751.55 519.82
  Q 758.61 520.13 765.35 519.19
  Q 767.21 517.06 767.37 516.25
  Q 767.57 515.21 767.26 511.98
  A 4.93 4.47 47.9 0 1 767.26 511.01
  Q 768.86 496.50 767.43 482.96
  C 767.74 480.00 768.19 477.13 768.15 474.33
  Q 768.03 463.79 768.15 456.39
  C 768.24 450.51 762.66 446.75 758.16 444.09
  Q 755.59 442.56 749.38 438.36
  Q 723.18 420.64 702.87 406.58
  C 688.49 396.63 676.04 388.80 663.60 380.13
  Q 649.22 370.10 638.50 362.95
  Q 615.09 347.34 613.18 345.95
  Q 609.88 343.55 607.92 340.86
  A 1.31 1.13 55.9 0 1 608.13 339.07
  Q 608.48 338.86 609.26 338.83
  C 616.23 338.53 623.46 340.13 629.61 339.94
  Q 629.65 339.93 649.02 339.94
  Q 713.05 339.96 744.50 340.03
  Q 757.48 340.05 766.09 339.75
  A 1.88 1.88 0.0 0 0 767.91 337.88
  Q 767.92 324.74 767.97 314.75
  Q 768.00 308.78 766.90 305.43
  Q 767.50 305.53 767.58 304.77
  C 767.86 302.18 768.37 299.18 768.43 296.43
  Q 768.46 295.13 768.33 284.75
  Q 767.93 253.00 768.18 240.00
  Q 768.53 221.92 767.76 209.92
  Q 768.38 196.46 768.07 183.00
  Q 768.01 180.48 767.41 178.62
  A 2.61 2.61 0.0 0 0 764.86 176.81
  C 739.75 177.43 718.59 177.40 682.31 177.20
  Q 672.96 177.15 654.69 177.46
  Q 642.97 177.65 627.11 177.11
  Q 618.54 176.82 611.03 177.74
  Q 609.63 177.90 608.73 177.41
  A 2.09 1.84 -59.9 0 1 608.18 174.62
  Q 609.42 172.57 611.39 171.40
  Q 613.99 169.86 629.18 159.65
  Q 667.03 134.18 692.90 116.14
  C 694.65 114.92 697.31 113.55 699.26 112.15
  C 708.82 105.25 718.66 99.12 727.88 92.54
  Q 735.13 87.36 761.71 69.73
  C 768.60 65.15 768.14 60.59 768.05 52.03
  Q 767.75 24.17 767.96 1.20
  A 0.80 0.79 6.7 0 0 767.33 0.41
  Q 764.31 -0.20 761.29 0.62
  Q 756.74 1.16 752.63 0.00
  L 1536.00 0.00
  Z
  M 1100.64 188.54
  Q 1101.41 189.05 1102.34 189.07
  Q 1117.12 189.25 1127.02 190.43
  C 1130.05 190.79 1132.05 190.62 1132.09 193.76
  C 1132.26 206.71 1130.01 221.23 1127.55 233.00
  Q 1127.29 234.27 1128.00 234.98
  A 1.75 1.73 -48.8 0 0 1130.62 234.79
  Q 1138.79 224.04 1144.63 215.13
  C 1145.84 213.28 1147.22 209.48 1149.52 207.02
  C 1151.65 204.73 1154.63 206.29 1155.87 208.57
  Q 1160.79 217.71 1165.79 224.54
  Q 1170.27 230.66 1173.00 234.75
  Q 1173.65 235.72 1174.53 235.61
  A 2.04 2.01 80.3 0 0 1176.23 233.17
  Q 1175.58 230.17 1175.47 229.28
  Q 1172.76 207.16 1171.66 196.56
  C 1171.39 193.89 1170.79 191.02 1174.55 190.69
  Q 1192.10 189.14 1202.04 189.35
  A 0.75 0.75 0.0 0 0 1202.78 188.84
  C 1203.77 185.93 1198.43 181.85 1196.62 180.39
  Q 1179.91 166.90 1178.78 166.00
  Q 1175.49 163.39 1177.22 160.19
  Q 1181.85 151.65 1185.33 144.14
  C 1187.95 138.52 1191.92 132.97 1194.34 127.63
  A 1.36 1.35 20.8 0 0 1193.50 125.78
  Q 1192.29 125.40 1190.84 126.11
  Q 1185.99 128.45 1171.42 137.15
  C 1168.65 138.80 1162.87 142.86 1161.63 137.11
  Q 1159.90 129.00 1159.14 125.95
  C 1157.21 118.24 1156.18 109.11 1154.01 101.88
  A 2.13 1.84 67.7 0 0 1151.24 100.47
  Q 1149.62 101.40 1149.15 104.02
  Q 1145.76 123.05 1142.34 137.08
  Q 1141.31 141.35 1137.32 139.68
  Q 1133.02 137.88 1127.64 134.14
  C 1123.59 131.33 1118.59 129.01 1113.17 125.88
  A 2.59 2.25 26.1 0 0 1109.60 126.83
  Q 1109.31 127.59 1110.20 129.08
  C 1113.60 134.73 1116.62 139.32 1119.26 145.48
  Q 1121.49 150.70 1126.08 158.93
  Q 1128.57 163.40 1124.72 166.46
  Q 1105.13 182.04 1102.29 184.53
  Q 1100.78 185.86 1100.23 187.17
  A 1.13 1.12 28.5 0 0 1100.64 188.54
  Z
  M 1299.49 450.13
  Q 1300.36 449.91 1300.69 449.16
  C 1302.44 445.19 1306.43 442.03 1308.53 438.71
  Q 1313.23 431.31 1317.19 424.70
  C 1319.09 421.54 1322.98 417.46 1325.79 421.75
  Q 1330.54 429.02 1337.94 439.95
  C 1339.84 442.75 1341.68 448.44 1344.96 449.41
  A 1.20 1.20 0.0 0 0 1346.48 448.47
  Q 1346.92 446.08 1346.53 443.52
  Q 1342.30 415.18 1341.40 409.15
  Q 1340.90 405.80 1343.00 404.45
  A 1.90 1.84 27.5 0 1 1343.97 404.16
  Q 1351.28 404.02 1361.05 402.87
  C 1365.02 402.41 1369.48 402.76 1372.60 402.60
  A 1.63 1.63 0.0 0 0 1373.88 400.07
  Q 1372.39 397.81 1369.77 395.72
  Q 1357.45 385.91 1348.19 378.17
  A 2.70 2.68 -62.6 0 1 1347.32 375.40
  C 1347.80 373.64 1348.46 371.77 1349.37 370.22
  Q 1353.64 362.99 1355.70 358.17
  Q 1357.54 353.88 1360.24 349.51
  Q 1361.62 347.26 1364.53 340.66
  A 1.40 1.40 0.0 0 0 1363.55 338.73
  Q 1361.89 338.36 1360.07 339.59
  Q 1352.70 344.58 1338.75 352.08
  C 1335.79 353.67 1332.27 354.95 1331.63 350.39
  Q 1329.11 332.34 1323.94 314.94
  A 1.89 1.88 71.8 0 0 1321.50 313.70
  Q 1319.92 314.27 1319.72 316.24
  C 1318.91 324.16 1317.90 331.64 1315.40 339.47
  Q 1313.39 345.80 1313.08 349.64
  C 1312.79 353.22 1310.86 354.87 1307.53 352.92
  C 1305.12 351.50 1302.83 349.85 1300.02 348.54
  Q 1296.04 346.68 1293.69 345.02
  C 1290.02 342.42 1286.75 341.13 1282.85 338.68
  A 1.25 1.25 0.0 0 0 1280.95 339.96
  C 1281.27 341.83 1282.45 344.95 1283.58 346.96
  Q 1290.41 359.09 1297.01 373.47
  Q 1297.77 375.11 1297.55 376.74
  A 1.93 1.85 -23.2 0 1 1297.17 377.63
  Q 1295.37 380.02 1291.92 382.68
  Q 1281.51 390.71 1275.91 395.41
  Q 1273.77 397.21 1272.28 399.37
  C 1271.09 401.09 1273.24 402.74 1274.77 402.75
  Q 1287.96 402.79 1300.13 404.62
  Q 1303.74 405.16 1303.31 408.56
  Q 1301.71 421.47 1301.53 426.87
  C 1301.30 434.15 1298.34 442.41 1298.68 449.53
  A 0.65 0.65 0.0 0 0 1299.49 450.13
  Z
  M 1009.85 472.18
  A 1.75 1.74 81.6 0 0 1011.46 470.01
  Q 1010.95 468.01 1009.41 466.83
  Q 994.35 455.32 987.72 449.83
  Q 986.55 448.86 985.07 446.86
  A 3.11 3.10 42.6 0 1 984.92 443.36
  Q 989.16 436.55 992.67 427.95
  Q 993.37 426.22 997.95 418.88
  C 999.74 416.02 1001.00 413.26 1002.27 410.78
  A 1.15 1.15 0.0 0 0 1001.82 409.25
  C 998.66 407.42 996.14 410.92 994.13 411.88
  Q 982.32 417.48 976.68 421.67
  Q 974.73 423.12 972.85 423.09
  A 3.06 2.97 -6.8 0 1 969.97 420.89
  Q 966.62 408.52 964.69 396.54
  Q 963.69 390.39 962.52 386.27
  Q 961.98 384.37 960.76 383.32
  A 1.27 1.26 -48.2 0 0 959.01 383.42
  Q 957.89 384.61 957.50 386.25
  C 954.99 396.87 953.65 405.45 950.87 418.21
  C 949.53 424.34 946.30 423.90 941.94 420.89
  Q 935.30 416.30 928.02 413.26
  Q 926.12 412.47 921.73 409.04
  A 1.98 1.96 66.7 0 0 920.74 408.64
  Q 919.19 408.46 918.10 409.38
  A 2.16 1.68 55.5 0 0 917.95 411.90
  C 920.98 416.93 924.66 422.74 927.57 429.04
  Q 931.51 437.56 934.92 442.91
  A 3.31 3.31 0.0 0 1 935.10 446.15
  Q 933.99 448.40 932.32 449.81
  Q 921.53 458.85 909.15 467.56
  Q 907.46 468.75 907.82 470.62
  Q 908.03 471.73 910.56 472.20
  C 913.70 472.78 918.93 472.22 923.15 472.72
  Q 929.46 473.47 937.36 473.78
  A 2.54 2.53 83.5 0 1 939.69 475.64
  Q 940.28 477.80 940.07 480.75
  C 939.60 487.19 939.30 494.29 938.00 501.45
  Q 936.47 509.88 935.27 516.35
  A 1.58 1.58 0.0 0 0 936.95 518.21
  C 939.25 518.03 939.70 516.67 940.88 515.10
  Q 949.39 503.80 956.42 491.41
  C 957.93 488.75 961.53 487.24 963.29 490.57
  Q 967.88 499.28 972.79 506.14
  Q 979.11 514.97 980.98 517.86
  A 2.05 1.87 -47.1 0 0 984.29 517.59
  C 984.90 516.57 984.37 514.91 983.86 513.01
  Q 983.44 511.45 983.16 509.52
  Q 981.05 494.83 979.54 477.25
  C 979.37 475.20 980.14 473.93 982.20 473.83
  Q 992.11 473.35 999.36 472.37
  C 1002.94 471.88 1007.28 472.30 1009.85 472.18
  Z
  M 1247.07 596.57
  Q 1247.69 594.41 1247.13 592.09
  Q 1243.99 579.07 1242.98 572.01
  Q 1242.51 568.73 1243.99 566.75
  Q 1246.39 563.54 1251.06 559.45
  C 1253.99 556.88 1255.82 554.48 1257.03 551.15
  A 1.60 1.59 -67.7 0 0 1256.19 549.14
  Q 1254.45 548.35 1252.00 548.52
  C 1245.58 548.94 1238.14 549.52 1235.79 542.40
  Q 1232.96 533.81 1231.92 526.87
  Q 1231.59 524.63 1230.22 523.21
  A 1.23 1.23 0.0 0 0 1228.26 523.46
  Q 1226.85 525.97 1225.65 529.85
  Q 1223.51 536.71 1221.24 543.49
  Q 1219.56 548.53 1214.48 548.51
  Q 1208.66 548.50 1202.80 548.48
  Q 1201.37 548.48 1200.33 550.01
  A 0.95 0.93 49.8 0 0 1200.26 550.94
  Q 1201.74 553.95 1203.27 555.49
  Q 1209.82 562.08 1213.46 566.55
  C 1215.62 569.20 1214.78 572.93 1213.87 576.05
  C 1212.34 581.27 1211.57 587.40 1210.61 592.56
  Q 1210.38 593.77 1210.57 595.35
  A 1.26 1.26 0.0 0 0 1212.40 596.32
  C 1214.06 595.45 1216.10 594.09 1217.51 592.48
  Q 1221.00 588.48 1226.19 584.45
  C 1228.87 582.36 1232.45 584.84 1234.50 586.76
  Q 1240.83 592.73 1246.23 596.85
  A 0.54 0.53 -63.2 0 0 1247.07 596.57
  Z
  M 383.99 851.67
  Q 385.41 851.67 386.90 853.88
  Q 400.04 873.42 420.11 901.98
  C 424.06 907.60 427.35 914.05 432.50 918.83
  A 1.05 1.05 0.0 0 0 434.13 918.57
  Q 434.34 918.18 434.24 917.44
  Q 431.78 899.40 431.18 892.46
  C 429.91 877.88 427.65 863.73 426.45 848.86
  Q 425.22 833.58 424.63 828.51
  Q 424.02 823.33 428.96 823.05
  C 446.44 822.05 463.65 819.78 482.33 816.72
  C 485.10 816.27 487.99 816.40 491.01 816.33
  Q 492.82 816.28 493.59 815.55
  A 2.23 1.92 43.7 0 0 493.30 812.50
  C 489.81 809.39 485.10 806.30 480.32 802.37
  Q 471.28 794.92 464.44 789.64
  C 455.39 782.66 446.64 774.77 439.18 769.03
  Q 439.15 769.01 439.12 768.99
  L 435.98 767.01
  A 2.48 2.47 19.5 0 1 434.85 764.65
  Q 435.24 761.09 436.93 758.21
  C 440.99 751.30 444.06 743.96 447.59 737.14
  Q 452.39 727.88 462.04 707.60
  C 464.71 701.99 468.39 694.88 470.42 691.42
  Q 471.78 689.10 472.63 685.64
  A 1.43 1.43 0.0 0 0 471.11 683.87
  Q 470.40 683.94 469.43 684.50
  Q 458.45 690.77 450.46 694.92
  Q 421.92 709.74 411.76 715.04
  C 409.81 716.06 405.97 717.20 405.49 714.38
  Q 404.08 705.96 400.78 694.81
  C 399.22 689.50 398.30 684.32 397.50 680.03
  C 395.56 669.61 391.87 659.25 390.13 648.92
  Q 388.37 638.53 386.62 631.48
  Q 385.76 628.03 384.00 628.03
  Q 382.24 628.03 381.38 631.48
  Q 379.62 638.53 377.86 648.92
  C 376.12 659.25 372.43 669.61 370.49 680.03
  C 369.69 684.32 368.77 689.50 367.21 694.81
  Q 363.91 705.96 362.50 714.38
  C 362.02 717.20 358.18 716.06 356.23 715.04
  Q 346.07 709.74 317.53 694.91
  Q 309.54 690.76 298.56 684.49
  Q 297.59 683.93 296.88 683.86
  A 1.43 1.43 0.0 0 0 295.36 685.63
  Q 296.21 689.09 297.57 691.41
  C 299.60 694.87 303.28 701.98 305.95 707.59
  Q 315.59 727.87 320.39 737.13
  C 323.92 743.95 326.99 751.29 331.05 758.20
  Q 332.74 761.08 333.13 764.64
  A 2.48 2.47 -19.5 0 1 332.00 767.00
  L 328.86 768.98
  Q 328.83 769.00 328.80 769.02
  C 321.34 774.76 312.59 782.65 303.54 789.63
  Q 296.70 794.91 287.66 802.36
  C 282.88 806.29 278.17 809.38 274.68 812.49
  A 2.23 1.92 -43.7 0 0 274.39 815.54
  Q 275.16 816.27 276.97 816.32
  C 279.99 816.39 282.88 816.26 285.65 816.71
  C 304.32 819.77 321.53 822.04 339.01 823.05
  Q 343.95 823.33 343.34 828.51
  Q 342.75 833.58 341.52 848.86
  C 340.32 863.73 338.06 877.87 336.79 892.45
  Q 336.19 899.39 333.72 917.43
  Q 333.62 918.17 333.83 918.56
  A 1.05 1.05 0.0 0 0 335.46 918.82
  C 340.61 914.05 343.91 907.60 347.86 901.98
  Q 367.93 873.42 381.08 853.88
  Q 382.56 851.67 383.99 851.67
  Z
  M 1176.31 930.88
  Q 1173.65 912.87 1171.63 893.13
  Q 1171.36 890.44 1172.08 888.82
  A 3.26 3.24 10.5 0 1 1174.89 886.90
  L 1202.22 885.50
  A 1.44 1.43 -8.3 0 0 1203.55 883.73
  C 1203.26 882.56 1200.63 880.18 1198.06 877.43
  A 7.57 7.25 -3.2 0 0 1196.74 876.30
  Q 1188.68 870.91 1179.73 863.68
  Q 1179.66 863.63 1178.67 862.91
  C 1175.86 860.88 1177.58 856.50 1178.91 853.64
  Q 1179.98 851.35 1187.30 836.71
  Q 1188.86 833.62 1190.32 831.32
  C 1192.14 828.49 1194.40 825.60 1194.18 823.32
  A 1.64 1.33 -4.7 0 0 1192.45 822.14
  Q 1190.42 822.31 1188.98 823.20
  Q 1179.60 829.06 1175.65 830.95
  C 1173.36 832.04 1163.38 839.98 1161.95 834.79
  C 1160.16 828.30 1158.43 820.77 1157.32 813.41
  Q 1156.06 805.03 1153.87 798.05
  A 1.96 1.77 68.3 0 0 1151.30 796.79
  Q 1150.00 797.46 1149.56 799.52
  Q 1143.56 827.81 1143.47 828.83
  C 1143.28 830.92 1142.70 834.09 1141.48 836.10
  A 1.73 1.72 22.4 0 1 1139.61 836.87
  C 1137.22 836.29 1134.98 835.21 1132.70 833.65
  Q 1127.27 829.94 1123.00 827.90
  Q 1120.20 826.56 1118.22 825.28
  C 1115.78 823.70 1112.77 821.17 1110.49 822.59
  A 1.67 1.66 58.6 0 0 1109.95 824.85
  Q 1118.03 838.58 1126.37 856.05
  Q 1127.65 858.73 1126.39 861.45
  A 2.16 2.12 82.6 0 1 1125.87 862.14
  Q 1115.74 870.90 1104.54 878.24
  Q 1103.71 878.77 1101.06 881.87
  C 1099.51 883.67 1100.50 885.12 1102.54 885.29
  C 1109.95 885.90 1119.79 885.81 1128.63 887.20
  C 1131.48 887.64 1132.06 889.09 1132.02 891.76
  Q 1131.80 910.59 1127.11 930.45
  A 1.13 1.12 -83.3 0 0 1128.20 931.84
  Q 1130.34 931.84 1132.00 929.72
  Q 1139.82 919.66 1148.04 905.56
  Q 1148.66 904.50 1150.88 902.54
  A 1.26 1.22 25.1 0 1 1151.78 902.23
  Q 1153.96 902.34 1154.97 904.03
  Q 1164.31 919.46 1172.79 930.98
  Q 1173.64 932.14 1174.68 932.38
  A 1.34 1.34 0.0 0 0 1176.31 930.88
  Z"
/>
<path fill="#00008d" d="
  M 0.51 33.98
  L 0.00 37.87
  L 0.00 30.90
  L 0.51 33.98
  Z"
/>
<path fill="#00008d" d="
  M 0.00 180.52
  L 0.00 61.51
  L 0.94 65.10
  A 1.78 1.77 10.8 0 0 1.60 66.07
  Q 8.79 71.49 16.29 76.40
  Q 23.52 81.14 31.03 86.35
  Q 47.40 97.72 74.90 116.40
  Q 103.48 135.81 134.79 157.03
  C 141.31 161.45 149.61 166.60 156.93 171.62
  Q 158.84 172.92 159.93 174.99
  A 1.88 1.83 55.6 0 1 159.54 177.25
  Q 158.39 178.25 156.76 178.05
  Q 147.03 176.84 140.26 177.16
  Q 135.58 177.38 128.73 177.37
  Q 118.17 177.34 17.25 177.25
  Q 13.28 177.24 2.58 176.67
  A 1.97 1.97 0.0 0 0 0.56 178.18
  L 0.00 180.52
  Z"
/>
<path fill="#ffffff" d="
  M 1100.64 188.54
  A 1.13 1.12 28.5 0 1 1100.23 187.17
  Q 1100.78 185.86 1102.29 184.53
  Q 1105.13 182.04 1124.72 166.46
  Q 1128.57 163.40 1126.08 158.93
  Q 1121.49 150.70 1119.26 145.48
  C 1116.62 139.32 1113.60 134.73 1110.20 129.08
  Q 1109.31 127.59 1109.60 126.83
  A 2.59 2.25 26.1 0 1 1113.17 125.88
  C 1118.59 129.01 1123.59 131.33 1127.64 134.14
  Q 1133.02 137.88 1137.32 139.68
  Q 1141.31 141.35 1142.34 137.08
  Q 1145.76 123.05 1149.15 104.02
  Q 1149.62 101.40 1151.24 100.47
  A 2.13 1.84 67.7 0 1 1154.01 101.88
  C 1156.18 109.11 1157.21 118.24 1159.14 125.95
  Q 1159.90 129.00 1161.63 137.11
  C 1162.87 142.86 1168.65 138.80 1171.42 137.15
  Q 1185.99 128.45 1190.84 126.11
  Q 1192.29 125.40 1193.50 125.78
  A 1.36 1.35 20.8 0 1 1194.34 127.63
  C 1191.92 132.97 1187.95 138.52 1185.33 144.14
  Q 1181.85 151.65 1177.22 160.19
  Q 1175.49 163.39 1178.78 166.00
  Q 1179.91 166.90 1196.62 180.39
  C 1198.43 181.85 1203.77 185.93 1202.78 188.84
  A 0.75 0.75 0.0 0 1 1202.04 189.35
  Q 1192.10 189.14 1174.55 190.69
  C 1170.79 191.02 1171.39 193.89 1171.66 196.56
  Q 1172.76 207.16 1175.47 229.28
  Q 1175.58 230.17 1176.23 233.17
  A 2.04 2.01 80.3 0 1 1174.53 235.61
  Q 1173.65 235.72 1173.00 234.75
  Q 1170.27 230.66 1165.79 224.54
  Q 1160.79 217.71 1155.87 208.57
  C 1154.63 206.29 1151.65 204.73 1149.52 207.02
  C 1147.22 209.48 1145.84 213.28 1144.63 215.13
  Q 1138.79 224.04 1130.62 234.79
  A 1.75 1.73 -48.8 0 1 1128.00 234.98
  Q 1127.29 234.27 1127.55 233.00
  C 1130.01 221.23 1132.26 206.71 1132.09 193.76
  C 1132.05 190.62 1130.05 190.79 1127.02 190.43
  Q 1117.12 189.25 1102.34 189.07
  Q 1101.41 189.05 1100.64 188.54
  Z"
/>
<path fill="#00008d" d="
  M 0.31 208.69
  Q 0.55 210.35 0.00 211.34
  L 0.00 205.79
  Q 0.52 207.03 0.31 208.69
  Z"
/>
<path fill="#00008d" d="
  M 0.28 307.19
  Q 0.28 308.24 0.00 308.34
  L 0.00 303.64
  Q 0.45 305.23 0.28 307.19
  Z"
/>
<path fill="#ffffff" d="
  M 766.90 305.43
  Q 768.00 308.78 767.97 314.75
  Q 767.92 324.74 767.91 337.88
  A 1.88 1.88 0.0 0 1 766.09 339.75
  Q 757.48 340.05 744.50 340.03
  Q 713.05 339.96 649.02 339.94
  Q 629.65 339.93 629.61 339.94
  C 623.46 340.13 616.23 338.53 609.26 338.83
  Q 608.48 338.86 608.13 339.07
  A 1.31 1.13 55.9 0 0 607.92 340.86
  Q 609.88 343.55 613.18 345.95
  Q 615.09 347.34 638.50 362.95
  Q 649.22 370.10 663.60 380.13
  C 676.04 388.80 688.49 396.63 702.87 406.58
  Q 723.18 420.64 749.38 438.36
  Q 755.59 442.56 758.16 444.09
  C 762.66 446.75 768.24 450.51 768.15 456.39
  Q 768.03 463.79 768.15 474.33
  C 768.19 477.13 767.74 480.00 767.43 482.96
  Q 766.59 484.48 763.64 480.59
  A 4.12 4.12 0.0 0 0 762.88 479.83
  Q 756.99 475.34 750.88 471.17
  Q 726.02 454.23 702.93 438.38
  Q 690.65 429.94 679.02 421.92
  Q 672.21 417.22 665.30 412.65
  Q 659.12 408.58 651.64 403.32
  Q 644.72 398.46 637.62 393.82
  Q 633.63 391.21 628.96 388.08
  Q 617.18 380.19 605.40 372.05
  C 591.95 362.74 580.90 355.36 565.27 344.52
  C 561.30 341.76 559.04 339.83 553.82 339.69
  Q 534.47 339.17 528.68 339.48
  Q 523.45 339.77 519.33 339.29
  Q 513.70 338.64 509.72 339.37
  A 2.06 2.06 0.0 0 0 508.06 341.05
  C 507.76 342.88 508.61 343.93 510.30 344.98
  Q 518.70 350.17 524.25 353.90
  Q 555.19 374.66 590.15 398.87
  C 597.34 403.85 603.55 407.44 610.87 412.61
  Q 612.33 413.64 616.56 416.47
  Q 623.30 420.96 637.60 431.07
  Q 646.69 437.50 658.80 445.43
  Q 675.06 456.07 691.59 467.75
  Q 700.75 474.21 711.12 480.96
  Q 728.00 491.95 730.80 494.10
  C 737.04 498.89 744.18 502.96 751.32 508.18
  C 753.46 509.75 757.87 512.44 761.32 513.98
  Q 763.50 514.95 764.74 515.88
  Q 766.02 516.84 765.35 519.19
  Q 758.61 520.13 751.55 519.82
  Q 739.56 519.30 739.29 519.30
  Q 709.69 519.18 678.50 519.33
  C 674.12 519.35 668.07 519.55 663.37 516.62
  Q 657.31 512.84 642.95 502.56
  Q 635.89 497.51 618.13 485.86
  Q 611.52 481.53 609.73 480.22
  C 603.41 475.58 597.98 472.51 591.23 467.44
  Q 589.56 466.20 580.88 460.36
  Q 561.75 447.50 534.93 429.15
  C 530.87 426.37 524.91 422.78 519.87 418.96
  Q 516.28 416.24 513.04 414.19
  Q 501.23 406.69 483.85 394.31
  Q 479.09 390.92 475.67 388.80
  C 468.93 384.61 464.51 381.03 457.25 376.33
  Q 450.77 372.13 447.20 369.36
  C 444.93 367.60 442.67 370.02 442.95 372.33
  Q 443.78 378.91 443.77 385.00
  Q 443.72 460.66 443.91 516.50
  Q 443.92 518.85 441.48 519.00
  Q 431.39 519.64 419.50 519.21
  Q 419.13 513.29 419.37 507.23
  Q 419.74 498.03 419.74 495.25
  Q 419.60 415.17 419.88 324.50
  Q 419.90 318.90 419.47 312.26
  C 419.09 306.53 422.58 307.17 427.35 307.13
  Q 452.43 306.93 470.06 306.92
  Q 664.60 306.82 731.19 306.86
  Q 746.90 306.87 755.50 306.68
  Q 762.25 306.54 766.90 305.43
  Z"
/>
<path fill="#ffffff" d="
  M 348.74 519.71
  Q 334.70 519.55 326.27 518.77
  C 324.28 518.59 323.75 516.93 323.83 514.98
  Q 323.99 511.37 323.98 505.00
  Q 323.92 422.69 324.22 391.50
  Q 324.31 382.33 324.43 372.22
  Q 324.45 370.29 322.94 369.53
  C 320.70 368.39 318.97 370.42 317.06 372.05
  Q 315.89 373.05 314.14 374.12
  C 307.67 378.07 300.77 382.97 293.63 387.89
  Q 268.78 405.01 256.88 412.84
  C 250.52 417.01 243.37 422.30 235.48 427.44
  C 231.37 430.12 227.84 432.80 222.85 436.19
  Q 205.41 448.06 188.69 459.23
  C 178.63 465.95 164.52 476.18 156.16 481.68
  Q 126.85 500.94 107.11 514.84
  C 102.70 517.94 99.06 519.45 93.34 519.36
  Q 78.51 519.12 60.62 519.60
  C 58.61 519.66 56.39 519.23 54.23 518.89
  Q 60.71 513.76 67.46 509.55
  Q 80.94 501.12 81.18 500.97
  Q 94.38 492.10 110.60 480.85
  Q 128.74 468.28 147.73 455.95
  C 150.56 454.11 153.19 451.96 156.42 449.68
  Q 172.62 438.30 187.14 428.69
  C 207.63 415.13 227.77 401.07 247.78 387.51
  Q 257.23 381.11 260.02 379.32
  C 269.10 373.49 275.21 368.63 284.45 362.70
  Q 285.40 362.09 296.70 354.33
  C 300.40 351.79 305.12 348.97 309.15 346.35
  C 311.82 344.61 314.38 343.14 313.53 340.04
  A 1.97 1.97 0.0 0 0 311.50 338.60
  C 302.39 339.18 292.57 339.90 282.91 339.52
  Q 280.32 339.41 270.74 339.38
  Q 263.68 339.35 258.37 343.12
  Q 256.19 344.67 227.76 364.23
  Q 221.15 368.78 219.12 370.17
  Q 192.64 388.39 157.04 412.28
  Q 144.88 420.44 144.32 420.84
  C 134.84 427.70 129.70 430.77 119.60 437.84
  Q 114.18 441.64 97.07 452.98
  C 91.54 456.65 87.25 460.03 82.58 462.97
  Q 78.60 465.48 71.71 470.42
  Q 58.96 479.56 47.93 486.42
  Q 40.96 490.76 37.41 493.34
  C 29.37 499.20 24.07 502.51 15.34 509.08
  Q 13.13 510.74 5.96 514.93
  A 2.14 2.13 -88.7 0 0 5.19 515.67
  Q 3.44 518.50 1.37 520.03
  L 0.00 511.37
  L 0.00 454.28
  Q 0.59 450.38 3.91 448.18
  Q 28.24 432.05 54.38 413.92
  C 65.87 405.95 79.27 397.34 89.66 390.17
  Q 133.34 360.01 147.26 351.03
  C 152.57 347.61 158.39 344.82 159.68 341.05
  A 1.77 1.77 0.0 0 0 158.23 338.72
  C 154.67 338.28 149.76 339.08 146.41 339.59
  Q 144.56 339.86 140.66 339.87
  Q 75.76 339.93 1.90 339.83
  A 1.49 1.49 0.0 0 1 0.43 338.57
  L 0.00 335.87
  L 0.00 308.34
  Q 0.28 308.24 0.28 307.19
  Q 1.98 304.60 6.18 306.36
  Q 7.09 306.74 10.25 306.74
  Q 135.85 306.96 335.76 306.69
  Q 342.13 306.68 346.40 306.93
  A 1.97 1.95 82.0 0 1 348.15 308.26
  Q 348.66 309.79 348.47 312.44
  Q 347.92 320.37 347.92 323.73
  Q 347.83 447.98 348.03 481.25
  Q 348.11 496.12 348.62 513.22
  Q 348.62 513.44 348.87 516.25
  Q 349.02 517.99 348.74 519.71
  Z"
/>
<path fill="#ffffff" d="
  M 1299.49 450.13
  A 0.65 0.65 0.0 0 1 1298.68 449.53
  C 1298.34 442.41 1301.30 434.15 1301.53 426.87
  Q 1301.71 421.47 1303.31 408.56
  Q 1303.74 405.16 1300.13 404.62
  Q 1287.96 402.79 1274.77 402.75
  C 1273.24 402.74 1271.09 401.09 1272.28 399.37
  Q 1273.77 397.21 1275.91 395.41
  Q 1281.51 390.71 1291.92 382.68
  Q 1295.37 380.02 1297.17 377.63
  A 1.93 1.85 -23.2 0 0 1297.55 376.74
  Q 1297.77 375.11 1297.01 373.47
  Q 1290.41 359.09 1283.58 346.96
  C 1282.45 344.95 1281.27 341.83 1280.95 339.96
  A 1.25 1.25 0.0 0 1 1282.85 338.68
  C 1286.75 341.13 1290.02 342.42 1293.69 345.02
  Q 1296.04 346.68 1300.02 348.54
  C 1302.83 349.85 1305.12 351.50 1307.53 352.92
  C 1310.86 354.87 1312.79 353.22 1313.08 349.64
  Q 1313.39 345.80 1315.40 339.47
  C 1317.90 331.64 1318.91 324.16 1319.72 316.24
  Q 1319.92 314.27 1321.50 313.70
  A 1.89 1.88 71.8 0 1 1323.94 314.94
  Q 1329.11 332.34 1331.63 350.39
  C 1332.27 354.95 1335.79 353.67 1338.75 352.08
  Q 1352.70 344.58 1360.07 339.59
  Q 1361.89 338.36 1363.55 338.73
  A 1.40 1.40 0.0 0 1 1364.53 340.66
  Q 1361.62 347.26 1360.24 349.51
  Q 1357.54 353.88 1355.70 358.17
  Q 1353.64 362.99 1349.37 370.22
  C 1348.46 371.77 1347.80 373.64 1347.32 375.40
  A 2.70 2.68 -62.6 0 0 1348.19 378.17
  Q 1357.45 385.91 1369.77 395.72
  Q 1372.39 397.81 1373.88 400.07
  A 1.63 1.63 0.0 0 1 1372.60 402.60
  C 1369.48 402.76 1365.02 402.41 1361.05 402.87
  Q 1351.28 404.02 1343.97 404.16
  A 1.90 1.84 27.5 0 0 1343.00 404.45
  Q 1340.90 405.80 1341.40 409.15
  Q 1342.30 415.18 1346.53 443.52
  Q 1346.92 446.08 1346.48 448.47
  A 1.20 1.20 0.0 0 1 1344.96 449.41
  C 1341.68 448.44 1339.84 442.75 1337.94 439.95
  Q 1330.54 429.02 1325.79 421.75
  C 1322.98 417.46 1319.09 421.54 1317.19 424.70
  Q 1313.23 431.31 1308.53 438.71
  C 1306.43 442.03 1302.44 445.19 1300.69 449.16
  Q 1300.36 449.91 1299.49 450.13
  Z"
/>
<path fill="#00008d" d="
  M 0.00 454.28
  L 0.00 335.87
  L 0.43 338.57
  A 1.49 1.49 0.0 0 0 1.90 339.83
  Q 75.76 339.93 140.66 339.87
  Q 144.56 339.86 146.41 339.59
  C 149.76 339.08 154.67 338.28 158.23 338.72
  A 1.77 1.77 0.0 0 1 159.68 341.05
  C 158.39 344.82 152.57 347.61 147.26 351.03
  Q 133.34 360.01 89.66 390.17
  C 79.27 397.34 65.87 405.95 54.38 413.92
  Q 28.24 432.05 3.91 448.18
  Q 0.59 450.38 0.00 454.28
  Z"
/>
<path fill="#ff0000" d="
  M 54.23 518.89
  Q 46.37 520.17 37.00 519.87
  Q 26.22 519.53 15.75 519.73
  Q 13.62 519.78 9.35 519.12
  A 1.63 1.63 0.0 0 0 8.91 519.12
  L 1.37 520.03
  Q 3.44 518.50 5.19 515.67
  A 2.14 2.13 -88.7 0 1 5.96 514.93
  Q 13.13 510.74 15.34 509.08
  C 24.07 502.51 29.37 499.20 37.41 493.34
  Q 40.96 490.76 47.93 486.42
  Q 58.96 479.56 71.71 470.42
  Q 78.60 465.48 82.58 462.97
  C 87.25 460.03 91.54 456.65 97.07 452.98
  Q 114.18 441.64 119.60 437.84
  C 129.70 430.77 134.84 427.70 144.32 420.84
  Q 144.88 420.44 157.04 412.28
  Q 192.64 388.39 219.12 370.17
  Q 221.15 368.78 227.76 364.23
  Q 256.19 344.67 258.37 343.12
  Q 263.68 339.35 270.74 339.38
  Q 280.32 339.41 282.91 339.52
  C 292.57 339.90 302.39 339.18 311.50 338.60
  A 1.97 1.97 0.0 0 1 313.53 340.04
  C 314.38 343.14 311.82 344.61 309.15 346.35
  C 305.12 348.97 300.40 351.79 296.70 354.33
  Q 285.40 362.09 284.45 362.70
  C 275.21 368.63 269.10 373.49 260.02 379.32
  Q 257.23 381.11 247.78 387.51
  C 227.77 401.07 207.63 415.13 187.14 428.69
  Q 172.62 438.30 156.42 449.68
  C 153.19 451.96 150.56 454.11 147.73 455.95
  Q 128.74 468.28 110.60 480.85
  Q 94.38 492.10 81.18 500.97
  Q 80.94 501.12 67.46 509.55
  Q 60.71 513.76 54.23 518.89
  Z"
/>
<path fill="#ff0000" d="
  M 767.43 482.96
  Q 768.86 496.50 767.26 511.01
  A 4.93 4.47 47.9 0 0 767.26 511.98
  Q 767.57 515.21 767.37 516.25
  Q 767.21 517.06 765.35 519.19
  Q 766.02 516.84 764.74 515.88
  Q 763.50 514.95 761.32 513.98
  C 757.87 512.44 753.46 509.75 751.32 508.18
  C 744.18 502.96 737.04 498.89 730.80 494.10
  Q 728.00 491.95 711.12 480.96
  Q 700.75 474.21 691.59 467.75
  Q 675.06 456.07 658.80 445.43
  Q 646.69 437.50 637.60 431.07
  Q 623.30 420.96 616.56 416.47
  Q 612.33 413.64 610.87 412.61
  C 603.55 407.44 597.34 403.85 590.15 398.87
  Q 555.19 374.66 524.25 353.90
  Q 518.70 350.17 510.30 344.98
  C 508.61 343.93 507.76 342.88 508.06 341.05
  A 2.06 2.06 0.0 0 1 509.72 339.37
  Q 513.70 338.64 519.33 339.29
  Q 523.45 339.77 528.68 339.48
  Q 534.47 339.17 553.82 339.69
  C 559.04 339.83 561.30 341.76 565.27 344.52
  C 580.90 355.36 591.95 362.74 605.40 372.05
  Q 617.18 380.19 628.96 388.08
  Q 633.63 391.21 637.62 393.82
  Q 644.72 398.46 651.64 403.32
  Q 659.12 408.58 665.30 412.65
  Q 672.21 417.22 679.02 421.92
  Q 690.65 429.94 702.93 438.38
  Q 726.02 454.23 750.88 471.17
  Q 756.99 475.34 762.88 479.83
  A 4.12 4.12 0.0 0 1 763.64 480.59
  Q 766.59 484.48 767.43 482.96
  Z"
/>
<path fill="#ffffff" d="
  M 1009.85 472.18
  C 1007.28 472.30 1002.94 471.88 999.36 472.37
  Q 992.11 473.35 982.20 473.83
  C 980.14 473.93 979.37 475.20 979.54 477.25
  Q 981.05 494.83 983.16 509.52
  Q 983.44 511.45 983.86 513.01
  C 984.37 514.91 984.90 516.57 984.29 517.59
  A 2.05 1.87 -47.1 0 1 980.98 517.86
  Q 979.11 514.97 972.79 506.14
  Q 967.88 499.28 963.29 490.57
  C 961.53 487.24 957.93 488.75 956.42 491.41
  Q 949.39 503.80 940.88 515.10
  C 939.70 516.67 939.25 518.03 936.95 518.21
  A 1.58 1.58 0.0 0 1 935.27 516.35
  Q 936.47 509.88 938.00 501.45
  C 939.30 494.29 939.60 487.19 940.07 480.75
  Q 940.28 477.80 939.69 475.64
  A 2.54 2.53 83.5 0 0 937.36 473.78
  Q 929.46 473.47 923.15 472.72
  C 918.93 472.22 913.70 472.78 910.56 472.20
  Q 908.03 471.73 907.82 470.62
  Q 907.46 468.75 909.15 467.56
  Q 921.53 458.85 932.32 449.81
  Q 933.99 448.40 935.10 446.15
  A 3.31 3.31 0.0 0 0 934.92 442.91
  Q 931.51 437.56 927.57 429.04
  C 924.66 422.74 920.98 416.93 917.95 411.90
  A 2.16 1.68 55.5 0 1 918.10 409.38
  Q 919.19 408.46 920.74 408.64
  A 1.98 1.96 66.7 0 1 921.73 409.04
  Q 926.12 412.47 928.02 413.26
  Q 935.30 416.30 941.94 420.89
  C 946.30 423.90 949.53 424.34 950.87 418.21
  C 953.65 405.45 954.99 396.87 957.50 386.25
  Q 957.89 384.61 959.01 383.42
  A 1.27 1.26 -48.2 0 1 960.76 383.32
  Q 961.98 384.37 962.52 386.27
  Q 963.69 390.39 964.69 396.54
  Q 966.62 408.52 969.97 420.89
  A 3.06 2.97 -6.8 0 0 972.85 423.09
  Q 974.73 423.12 976.68 421.67
  Q 982.32 417.48 994.13 411.88
  C 996.14 410.92 998.66 407.42 1001.82 409.25
  A 1.15 1.15 0.0 0 1 1002.27 410.78
  C 1001.00 413.26 999.74 416.02 997.95 418.88
  Q 993.37 426.22 992.67 427.95
  Q 989.16 436.55 984.92 443.36
  A 3.11 3.10 42.6 0 0 985.07 446.86
  Q 986.55 448.86 987.72 449.83
  Q 994.35 455.32 1009.41 466.83
  Q 1010.95 468.01 1011.46 470.01
  A 1.75 1.74 81.6 0 1 1009.85 472.18
  Z"
/>
<path fill="#ffffff" d="
  M 1247.07 596.57
  A 0.54 0.53 -63.2 0 1 1246.23 596.85
  Q 1240.83 592.73 1234.50 586.76
  C 1232.45 584.84 1228.87 582.36 1226.19 584.45
  Q 1221.00 588.48 1217.51 592.48
  C 1216.10 594.09 1214.06 595.45 1212.40 596.32
  A 1.26 1.26 0.0 0 1 1210.57 595.35
  Q 1210.38 593.77 1210.61 592.56
  C 1211.57 587.40 1212.34 581.27 1213.87 576.05
  C 1214.78 572.93 1215.62 569.20 1213.46 566.55
  Q 1209.82 562.08 1203.27 555.49
  Q 1201.74 553.95 1200.26 550.94
  A 0.95 0.93 49.8 0 1 1200.33 550.01
  Q 1201.37 548.48 1202.80 548.48
  Q 1208.66 548.50 1214.48 548.51
  Q 1219.56 548.53 1221.24 543.49
  Q 1223.51 536.71 1225.65 529.85
  Q 1226.85 525.97 1228.26 523.46
  A 1.23 1.23 0.0 0 1 1230.22 523.21
  Q 1231.59 524.63 1231.92 526.87
  Q 1232.96 533.81 1235.79 542.40
  C 1238.14 549.52 1245.58 548.94 1252.00 548.52
  Q 1254.45 548.35 1256.19 549.14
  A 1.60 1.59 -67.7 0 1 1257.03 551.15
  C 1255.82 554.48 1253.99 556.88 1251.06 559.45
  Q 1246.39 563.54 1243.99 566.75
  Q 1242.51 568.73 1242.98 572.01
  Q 1243.99 579.07 1247.13 592.09
  Q 1247.69 594.41 1247.07 596.57
  Z"
/>
<path fill="#ffffff" d="
  M 384.00 628.03
  Q 385.76 628.03 386.62 631.48
  Q 388.37 638.53 390.13 648.92
  C 391.87 659.25 395.56 669.61 397.50 680.03
  C 398.30 684.32 399.22 689.50 400.78 694.81
  Q 404.08 705.96 405.49 714.38
  C 405.97 717.20 409.81 716.06 411.76 715.04
  Q 421.92 709.74 450.46 694.92
  Q 458.45 690.77 469.43 684.50
  Q 470.40 683.94 471.11 683.87
  A 1.43 1.43 0.0 0 1 472.63 685.64
  Q 471.78 689.10 470.42 691.42
  C 468.39 694.88 464.71 701.99 462.04 707.60
  Q 452.39 727.88 447.59 737.14
  C 444.06 743.96 440.99 751.30 436.93 758.21
  Q 435.24 761.09 434.85 764.65
  A 2.48 2.47 19.5 0 0 435.98 767.01
  L 439.12 768.99
  Q 439.15 769.01 439.18 769.03
  C 446.64 774.77 455.39 782.66 464.44 789.64
  Q 471.28 794.92 480.32 802.37
  C 485.10 806.30 489.81 809.39 493.30 812.50
  A 2.23 1.92 43.7 0 1 493.59 815.55
  Q 492.82 816.28 491.01 816.33
  C 487.99 816.40 485.10 816.27 482.33 816.72
  C 463.65 819.78 446.44 822.05 428.96 823.05
  Q 424.02 823.33 424.63 828.51
  Q 425.22 833.58 426.45 848.86
  C 427.65 863.73 429.91 877.88 431.18 892.46
  Q 431.78 899.40 434.24 917.44
  Q 434.34 918.18 434.13 918.57
  A 1.05 1.05 0.0 0 1 432.50 918.83
  C 427.35 914.05 424.06 907.60 420.11 901.98
  Q 400.04 873.42 386.90 853.88
  Q 385.41 851.67 383.99 851.67
  Q 382.56 851.67 381.08 853.88
  Q 367.93 873.42 347.86 901.98
  C 343.91 907.60 340.61 914.05 335.46 918.82
  A 1.05 1.05 0.0 0 1 333.83 918.56
  Q 333.62 918.17 333.72 917.43
  Q 336.19 899.39 336.79 892.45
  C 338.06 877.87 340.32 863.73 341.52 848.86
  Q 342.75 833.58 343.34 828.51
  Q 343.95 823.33 339.01 823.05
  C 321.53 822.04 304.32 819.77 285.65 816.71
  C 282.88 816.26 279.99 816.39 276.97 816.32
  Q 275.16 816.27 274.39 815.54
  A 2.23 1.92 -43.7 0 1 274.68 812.49
  C 278.17 809.38 282.88 806.29 287.66 802.36
  Q 296.70 794.91 303.54 789.63
  C 312.59 782.65 321.34 774.76 328.80 769.02
  Q 328.83 769.00 328.86 768.98
  L 332.00 767.00
  A 2.48 2.47 -19.5 0 0 333.13 764.64
  Q 332.74 761.08 331.05 758.20
  C 326.99 751.29 323.92 743.95 320.39 737.13
  Q 315.59 727.87 305.95 707.59
  C 303.28 701.98 299.60 694.87 297.57 691.41
  Q 296.21 689.09 295.36 685.63
  A 1.43 1.43 0.0 0 1 296.88 683.86
  Q 297.59 683.93 298.56 684.49
  Q 309.54 690.76 317.53 694.91
  Q 346.07 709.74 356.23 715.04
  C 358.18 716.06 362.02 717.20 362.50 714.38
  Q 363.91 705.96 367.21 694.81
  C 368.77 689.50 369.69 684.32 370.49 680.03
  C 372.43 669.61 376.12 659.25 377.86 648.92
  Q 379.62 638.53 381.38 631.48
  Q 382.24 628.03 384.00 628.03
  Z"
/>
<path fill="#ffffff" d="
  M 1176.31 930.88
  A 1.34 1.34 0.0 0 1 1174.68 932.38
  Q 1173.64 932.14 1172.79 930.98
  Q 1164.31 919.46 1154.97 904.03
  Q 1153.96 902.34 1151.78 902.23
  A 1.26 1.22 25.1 0 0 1150.88 902.54
  Q 1148.66 904.50 1148.04 905.56
  Q 1139.82 919.66 1132.00 929.72
  Q 1130.34 931.84 1128.20 931.84
  A 1.13 1.12 -83.3 0 1 1127.11 930.45
  Q 1131.80 910.59 1132.02 891.76
  C 1132.06 889.09 1131.48 887.64 1128.63 887.20
  C 1119.79 885.81 1109.95 885.90 1102.54 885.29
  C 1100.50 885.12 1099.51 883.67 1101.06 881.87
  Q 1103.71 878.77 1104.54 878.24
  Q 1115.74 870.90 1125.87 862.14
  A 2.16 2.12 82.6 0 0 1126.39 861.45
  Q 1127.65 858.73 1126.37 856.05
  Q 1118.03 838.58 1109.95 824.85
  A 1.67 1.66 58.6 0 1 1110.49 822.59
  C 1112.77 821.17 1115.78 823.70 1118.22 825.28
  Q 1120.20 826.56 1123.00 827.90
  Q 1127.27 829.94 1132.70 833.65
  C 1134.98 835.21 1137.22 836.29 1139.61 836.87
  A 1.73 1.72 22.4 0 0 1141.48 836.10
  C 1142.70 834.09 1143.28 830.92 1143.47 828.83
  Q 1143.56 827.81 1149.56 799.52
  Q 1150.00 797.46 1151.30 796.79
  A 1.96 1.77 68.3 0 1 1153.87 798.05
  Q 1156.06 805.03 1157.32 813.41
  C 1158.43 820.77 1160.16 828.30 1161.95 834.79
  C 1163.38 839.98 1173.36 832.04 1175.65 830.95
  Q 1179.60 829.06 1188.98 823.20
  Q 1190.42 822.31 1192.45 822.14
  A 1.64 1.33 -4.7 0 1 1194.18 823.32
  C 1194.40 825.60 1192.14 828.49 1190.32 831.32
  Q 1188.86 833.62 1187.30 836.71
  Q 1179.98 851.35 1178.91 853.64
  C 1177.58 856.50 1175.86 860.88 1178.67 862.91
  Q 1179.66 863.63 1179.73 863.68
  Q 1188.68 870.91 1196.74 876.30
  A 7.57 7.25 -3.2 0 1 1198.06 877.43
  C 1200.63 880.18 1203.26 882.56 1203.55 883.73
  A 1.44 1.43 -8.3 0 1 1202.22 885.50
  L 1174.89 886.90
  A 3.26 3.24 10.5 0 0 1172.08 888.82
  Q 1171.36 890.44 1171.63 893.13
  Q 1173.65 912.87 1176.31 930.88
  Z"
/>
</svg>
