<?xml version="1.0" encoding="UTF-8" standalone="no"?>
<!DOCTYPE svg PUBLIC "-//W3C//DTD SVG 1.1//EN" "http://www.w3.org/Graphics/SVG/1.1/DTD/svg11.dtd">
<svg xmlns="http://www.w3.org/2000/svg" version="1.1" viewBox="0.00 0.00 1536.00 1040.00">
<g stroke-width="2.00" fill="none" stroke-linecap="butt">
<path stroke="#ef8408" vector-effect="non-scaling-stroke" d="
  M 530.49 53.37
  Q 530.05 53.20 529.81 53.52
  Q 526.40 57.98 524.13 60.86
  C 519.83 66.30 515.44 70.61 511.13 76.36
  C 509.39 78.68 505.27 81.24 502.63 78.62
  C 499.81 75.83 495.62 76.27 492.63 74.61
  Q 487.84 71.95 483.30 69.85
  A 2.19 2.07 -9.7 0 1 482.76 69.49
  Q 480.74 67.72 477.54 66.83
  A 1.21 1.21 0.0 0 0 476.09 67.55
  C 474.41 71.71 481.49 78.90 483.76 83.10
  Q 488.24 91.38 489.65 94.06
  Q 492.20 98.93 488.60 103.09
  Q 485.88 106.23 477.06 115.73
  C 475.04 117.90 470.38 123.74 471.18 125.97
  A 1.44 1.44 0.0 0 0 472.85 126.89
  Q 483.20 124.50 491.74 121.32
  C 497.06 119.34 504.20 117.53 507.05 122.74
  Q 511.96 131.75 519.02 145.24
  Q 520.03 147.18 522.09 148.11
  A 1.33 1.32 20.9 0 0 523.89 147.31
  Q 524.72 144.75 524.91 141.47
  Q 525.39 133.16 525.61 124.86
  Q 525.66 123.01 526.07 121.21
  Q 526.49 119.40 526.84 117.57
  C 527.41 114.60 530.77 113.02 533.48 112.19
  C 543.73 109.06 549.30 106.86 557.11 107.11
  A 0.78 0.36 20.3 0 0 557.24 107.10
  L 558.55 106.84
  A 1.09 1.08 65.9 0 0 559.20 105.12
  Q 557.45 102.82 554.77 101.04
  A 3.04 2.78 -17.3 0 0 553.96 100.66
  Q 549.36 99.31 541.46 94.83
  Q 538.52 93.16 532.42 90.91
  C 529.73 89.93 528.74 89.14 528.89 86.22
  Q 529.36 76.80 531.45 64.93
  C 532.00 61.78 532.33 57.85 531.86 55.20
  Q 531.56 53.51 530.15 53.93
  A 0.05 0.05 0.0 0 1 530.09 53.88
  Q 530.11 53.75 529.92 53.72
  A 0.25 0.10 -18.8 0 1 530.20 53.47
  Q 530.40 53.47 530.48 53.46
  A 0.05 0.05 0.0 0 0 530.49 53.37"
/>
<path stroke="#ef8408" vector-effect="non-scaling-stroke" d="
  M 260.44 111.66
  Q 260.46 111.67 260.50 111.69
  A 0.07 0.06 12.3 0 0 260.61 111.63
  Q 259.51 106.61 255.67 103.87
  A 0.80 0.79 43.9 0 0 254.73 103.88
  Q 252.38 105.70 252.26 108.51
  C 252.03 114.14 250.91 119.61 248.49 125.38
  Q 244.82 134.10 242.40 143.69
  Q 240.01 153.12 237.82 158.41
  Q 236.72 161.07 231.06 178.68
  C 228.49 186.71 226.56 196.34 223.40 203.90
  C 220.96 209.73 217.95 209.04 211.79 208.81
  C 197.06 208.24 176.35 208.49 137.50 208.70
  Q 129.71 208.74 119.50 208.09
  Q 116.59 207.90 114.17 208.59
  A 1.35 1.35 0.0 0 0 113.31 209.30
  Q 112.58 210.76 114.45 212.25
  Q 118.79 215.70 131.78 225.59
  C 135.73 228.59 140.12 230.98 143.98 234.14
  Q 147.14 236.72 151.14 239.70
  C 164.57 249.67 168.98 252.64 179.83 261.41
  Q 184.88 265.50 192.38 270.24
  C 195.48 272.20 201.81 277.27 199.24 281.49
  Q 195.90 286.95 194.36 292.84
  Q 192.90 298.45 190.84 308.50
  C 188.85 318.21 182.76 326.17 180.80 336.46
  C 178.50 348.55 173.76 361.17 169.02 372.25
  Q 167.87 374.93 167.31 378.71
  C 167.00 380.89 167.98 383.16 170.52 382.48
  A 2.20 2.19 -71.7 0 0 171.35 382.06
  Q 178.67 376.28 186.04 370.05
  Q 190.24 366.49 201.81 358.55
  C 208.80 353.76 214.43 348.74 221.39 343.84
  Q 225.91 340.65 231.35 336.32
  C 236.76 332.02 241.35 329.31 247.07 325.07
  A 9.81 9.15 -83.9 0 0 248.11 324.17
  C 251.55 320.64 254.57 317.58 259.41 319.26
  A 2.68 2.49 -11.9 0 1 260.29 319.79
  Q 265.12 324.26 270.74 328.49
  Q 287.24 340.92 293.04 344.97
  C 299.00 349.14 305.96 355.33 313.14 359.80
  A 5.78 5.71 -7.5 0 1 314.05 360.49
  Q 318.72 364.79 324.66 368.35
  C 327.97 370.34 330.81 373.42 333.35 375.36
  Q 335.18 376.76 342.68 382.39
  A 0.94 0.94 0.0 0 0 344.19 381.67
  C 344.32 378.09 342.64 375.39 341.88 371.85
  C 338.40 355.53 330.74 337.48 327.68 325.16
  Q 325.72 317.29 322.20 307.80
  Q 318.73 298.41 315.40 286.63
  Q 313.85 281.14 314.08 278.40
  A 4.93 4.85 55.9 0 1 314.26 277.42
  Q 315.21 274.04 319.12 271.11
  Q 349.85 248.06 363.76 237.78
  Q 388.90 219.19 395.91 214.66
  Q 398.26 213.14 399.97 210.36
  A 1.41 1.41 0.0 0 0 398.68 208.21
  L 389.89 208.77
  A 1.02 0.95 47.0 0 1 389.75 208.76
  C 386.02 208.31 381.89 208.89 378.18 208.92
  Q 369.62 209.00 355.50 208.55
  Q 347.93 208.31 332.87 208.47
  Q 311.71 208.70 295.25 208.25
  Q 291.64 208.15 290.50 205.22
  C 286.82 195.69 283.09 185.72 280.39 176.01
  Q 276.20 160.91 272.83 151.76
  Q 268.87 141.00 266.77 132.58
  Q 265.23 126.43 261.07 112.87
  A 1.11 1.11 0.0 0 0 260.93 112.59
  Q 260.62 112.16 260.33 111.70
  A 0.07 0.04 10.0 0 1 260.44 111.66"
/>
<path stroke="#ef8408" vector-effect="non-scaling-stroke" d="
  M 594.51 177.48
  Q 594.47 177.34 594.54 177.16
  A 0.22 0.21 51.5 0 1 594.95 177.21
  Q 596.45 185.69 596.79 188.73
  Q 597.54 195.45 592.84 198.33
  Q 586.69 202.11 577.08 205.10
  C 573.24 206.30 568.99 208.30 567.32 211.89
  A 1.83 1.73 -59.5 0 0 567.82 214.07
  Q 568.39 214.49 569.45 214.60
  Q 583.76 216.04 593.76 217.24
  C 596.26 217.54 600.35 218.30 600.87 221.16
  C 602.66 231.02 602.22 242.44 604.89 252.47
  A 1.59 1.59 0.0 0 0 607.12 253.50
  C 610.12 252.06 611.13 248.89 612.00 245.68
  Q 612.39 244.25 613.86 241.52
  Q 614.68 239.99 620.24 228.59
  C 621.22 226.57 622.54 225.04 624.58 224.56
  Q 629.11 223.49 634.62 224.94
  Q 643.97 227.40 654.33 229.06
  A 1.50 1.46 32.7 0 0 655.36 228.85
  C 657.28 227.64 655.71 225.04 654.42 223.70
  Q 649.00 218.13 640.47 209.07
  C 636.58 204.94 635.45 201.89 637.23 196.75
  Q 639.61 189.87 643.35 184.83
  Q 647.69 178.98 650.10 172.68
  A 1.78 1.78 0.0 0 0 648.77 170.30
  Q 648.62 170.28 647.58 170.60
  Q 645.18 171.34 639.52 174.45
  C 633.23 177.90 628.65 179.81 621.76 183.44
  Q 619.68 184.54 616.65 183.75
  A 2.36 2.25 -13.1 0 1 615.58 183.12
  Q 606.60 173.77 600.19 165.60
  C 598.39 163.30 596.46 161.82 594.21 160.81
  A 1.59 1.59 0.0 0 0 592.00 162.59
  Q 593.20 168.30 594.32 174.62
  Q 594.68 176.65 594.64 177.46
  A 0.07 0.07 0.0 0 1 594.51 177.48"
/>
<path stroke="#ef8408" vector-effect="non-scaling-stroke" d="
  M 579.90 347.31
  Q 579.93 347.27 579.96 347.25
  A 0.10 0.08 25.0 0 0 579.89 347.10
  C 577.06 346.87 570.84 346.78 568.86 349.21
  Q 567.64 350.70 569.58 351.95
  C 574.07 354.83 580.96 358.08 585.45 362.04
  Q 589.12 365.27 592.50 367.62
  Q 595.97 370.03 595.12 374.36
  Q 594.50 377.57 590.00 388.84
  C 587.97 393.94 587.41 397.99 587.63 403.05
  A 0.81 0.81 0.0 0 0 588.84 403.71
  Q 594.91 400.26 598.42 396.77
  C 601.72 393.48 605.51 391.72 608.34 388.35
  C 611.75 384.31 615.28 381.95 619.84 385.64
  Q 626.05 390.66 630.29 392.94
  A 3.13 2.53 -4.1 0 1 630.63 393.16
  L 642.72 402.67
  A 1.19 1.19 0.0 0 0 644.64 401.71
  Q 644.61 400.33 644.28 399.48
  Q 639.34 386.74 635.94 374.28
  Q 634.91 370.53 635.41 369.12
  C 636.70 365.40 640.73 361.96 643.35 360.09
  Q 652.59 353.53 653.86 352.38
  Q 657.31 349.27 659.46 346.62
  A 1.76 1.25 45.6 0 0 659.15 344.66
  Q 658.98 344.46 659.02 344.34
  A 0.34 0.34 0.0 0 0 658.72 343.89
  Q 654.32 343.58 649.43 345.03
  A 2.05 1.64 29.6 0 1 648.99 345.10
  L 629.25 345.83
  A 3.45 3.44 77.1 0 1 625.98 343.77
  L 618.88 327.46
  A 5.30 5.17 -59.3 0 1 618.46 325.72
  Q 618.32 323.72 617.55 321.44
  Q 617.05 319.97 617.10 319.46
  Q 617.15 318.82 615.60 316.30
  A 1.70 1.70 0.0 0 0 612.62 316.46
  Q 611.53 318.75 609.80 320.23
  A 1.37 1.32 -16.5 0 0 609.35 321.02
  Q 607.86 329.15 607.78 329.51
  Q 606.73 334.25 603.09 342.30
  Q 601.20 346.46 596.82 346.87
  Q 589.79 347.53 579.94 347.35
  A 0.04 0.02 17.8 0 1 579.90 347.31"
/>
<path stroke="#ef8408" vector-effect="non-scaling-stroke" d="
  M 498.88 445.29
  Q 491.94 443.28 485.68 440.36
  A 6.54 6.26 44.8 0 0 484.82 440.04
  Q 479.91 438.67 477.17 436.10
  A 0.79 0.79 0.0 0 0 475.86 436.48
  Q 474.78 440.90 477.40 444.40
  Q 484.55 453.93 488.61 461.16
  Q 491.73 466.71 488.07 472.07
  Q 483.12 479.34 477.02 485.14
  A 1.97 1.92 84.1 0 0 476.68 485.57
  L 471.90 493.85
  A 0.77 0.77 0.0 0 0 472.42 494.99
  Q 474.67 495.42 477.03 494.82
  Q 481.40 493.71 492.47 490.91
  C 495.64 490.11 497.62 487.61 500.60 486.93
  Q 505.71 485.77 508.06 490.49
  Q 511.19 496.78 519.57 509.93
  Q 520.95 512.09 523.13 514.09
  A 1.75 1.74 22.2 0 0 526.05 512.87
  Q 526.63 497.05 526.79 490.55
  Q 526.83 488.56 527.63 483.73
  A 2.52 2.35 -30.5 0 1 527.82 483.09
  Q 529.01 480.34 532.14 479.40
  C 538.01 477.63 543.21 475.98 549.58 474.50
  Q 553.77 473.54 558.01 471.71
  A 1.14 1.14 0.0 0 0 558.18 469.71
  L 551.59 465.46
  A 3.93 3.71 -15.7 0 0 551.00 465.15
  Q 543.62 461.97 534.81 458.68
  Q 531.88 457.59 530.21 456.17
  A 4.48 4.47 19.0 0 1 528.63 452.94
  Q 528.19 441.25 529.38 428.74
  Q 529.70 425.35 528.98 422.35
  A 1.23 1.23 0.0 0 0 526.80 421.90
  Q 521.77 428.58 515.38 437.64
  Q 513.42 440.42 510.43 444.08
  Q 505.98 449.53 499.20 445.43
  A 1.41 1.34 -19.9 0 0 498.88 445.29"
/>
</g>
<path fill="#df280f" d="
  M 1536.00 0.00
  L 1536.00 1040.00
  L 0.00 1040.00
  L 0.00 0.00
  L 1536.00 0.00
  Z
  M 530.49 53.37
  Q 530.05 53.20 529.81 53.52
  Q 526.40 57.98 524.13 60.86
  C 519.83 66.30 515.44 70.61 511.13 76.36
  C 509.39 78.68 505.27 81.24 502.63 78.62
  C 499.81 75.83 495.62 76.27 492.63 74.61
  Q 487.84 71.95 483.30 69.85
  A 2.19 2.07 -9.7 0 1 482.76 69.49
  Q 480.74 67.72 477.54 66.83
  A 1.21 1.21 0.0 0 0 476.09 67.55
  C 474.41 71.71 481.49 78.90 483.76 83.10
  Q 488.24 91.38 489.65 94.06
  Q 492.20 98.93 488.60 103.09
  Q 485.88 106.23 477.06 115.73
  C 475.04 117.90 470.38 123.74 471.18 125.97
  A 1.44 1.44 0.0 0 0 472.85 126.89
  Q 483.20 124.50 491.74 121.32
  C 497.06 119.34 504.20 117.53 507.05 122.74
  Q 511.96 131.75 519.02 145.24
  Q 520.03 147.18 522.09 148.11
  A 1.33 1.32 20.9 0 0 523.89 147.31
  Q 524.72 144.75 524.91 141.47
  Q 525.39 133.16 525.61 124.86
  Q 525.66 123.01 526.07 121.21
  Q 526.49 119.40 526.84 117.57
  C 527.41 114.60 530.77 113.02 533.48 112.19
  C 543.73 109.06 549.30 106.86 557.11 107.11
  A 0.78 0.36 20.3 0 0 557.24 107.10
  L 558.55 106.84
  A 1.09 1.08 65.9 0 0 559.20 105.12
  Q 557.45 102.82 554.77 101.04
  A 3.04 2.78 -17.3 0 0 553.96 100.66
  Q 549.36 99.31 541.46 94.83
  Q 538.52 93.16 532.42 90.91
  C 529.73 89.93 528.74 89.14 528.89 86.22
  Q 529.36 76.80 531.45 64.93
  C 532.00 61.78 532.33 57.85 531.86 55.20
  Q 531.56 53.51 530.15 53.93
  A 0.05 0.05 0.0 0 1 530.09 53.88
  Q 530.11 53.75 529.92 53.72
  A 0.25 0.10 -18.8 0 1 530.20 53.47
  Q 530.40 53.47 530.48 53.46
  A 0.05 0.05 0.0 0 0 530.49 53.37
  Z
  M 260.44 111.66
  Q 260.46 111.67 260.50 111.69
  A 0.07 0.06 12.3 0 0 260.61 111.63
  Q 259.51 106.61 255.67 103.87
  A 0.80 0.79 43.9 0 0 254.73 103.88
  Q 252.38 105.70 252.26 108.51
  C 252.03 114.14 250.91 119.61 248.49 125.38
  Q 244.82 134.10 242.40 143.69
  Q 240.01 153.12 237.82 158.41
  Q 236.72 161.07 231.06 178.68
  C 228.49 186.71 226.56 196.34 223.40 203.90
  C 220.96 209.73 217.95 209.04 211.79 208.81
  C 197.06 208.24 176.35 208.49 137.50 208.70
  Q 129.71 208.74 119.50 208.09
  Q 116.59 207.90 114.17 208.59
  A 1.35 1.35 0.0 0 0 113.31 209.30
  Q 112.58 210.76 114.45 212.25
  Q 118.79 215.70 131.78 225.59
  C 135.73 228.59 140.12 230.98 143.98 234.14
  Q 147.14 236.72 151.14 239.70
  C 164.57 249.67 168.98 252.64 179.83 261.41
  Q 184.88 265.50 192.38 270.24
  C 195.48 272.20 201.81 277.27 199.24 281.49
  Q 195.90 286.95 194.36 292.84
  Q 192.90 298.45 190.84 308.50
  C 188.85 318.21 182.76 326.17 180.80 336.46
  C 178.50 348.55 173.76 361.17 169.02 372.25
  Q 167.87 374.93 167.31 378.71
  C 167.00 380.89 167.98 383.16 170.52 382.48
  A 2.20 2.19 -71.7 0 0 171.35 382.06
  Q 178.67 376.28 186.04 370.05
  Q 190.24 366.49 201.81 358.55
  C 208.80 353.76 214.43 348.74 221.39 343.84
  Q 225.91 340.65 231.35 336.32
  C 236.76 332.02 241.35 329.31 247.07 325.07
  A 9.81 9.15 -83.9 0 0 248.11 324.17
  C 251.55 320.64 254.57 317.58 259.41 319.26
  A 2.68 2.49 -11.9 0 1 260.29 319.79
  Q 265.12 324.26 270.74 328.49
  Q 287.24 340.92 293.04 344.97
  C 299.00 349.14 305.96 355.33 313.14 359.80
  A 5.78 5.71 -7.5 0 1 314.05 360.49
  Q 318.72 364.79 324.66 368.35
  C 327.97 370.34 330.81 373.42 333.35 375.36
  Q 335.18 376.76 342.68 382.39
  A 0.94 0.94 0.0 0 0 344.19 381.67
  C 344.32 378.09 342.64 375.39 341.88 371.85
  C 338.40 355.53 330.74 337.48 327.68 325.16
  Q 325.72 317.29 322.20 307.80
  Q 318.73 298.41 315.40 286.63
  Q 313.85 281.14 314.08 278.40
  A 4.93 4.85 55.9 0 1 314.26 277.42
  Q 315.21 274.04 319.12 271.11
  Q 349.85 248.06 363.76 237.78
  Q 388.90 219.19 395.91 214.66
  Q 398.26 213.14 399.97 210.36
  A 1.41 1.41 0.0 0 0 398.68 208.21
  L 389.89 208.77
  A 1.02 0.95 47.0 0 1 389.75 208.76
  C 386.02 208.31 381.89 208.89 378.18 208.92
  Q 369.62 209.00 355.50 208.55
  Q 347.93 208.31 332.87 208.47
  Q 311.71 208.70 295.25 208.25
  Q 291.64 208.15 290.50 205.22
  C 286.82 195.69 283.09 185.72 280.39 176.01
  Q 276.20 160.91 272.83 151.76
  Q 268.87 141.00 266.77 132.58
  Q 265.23 126.43 261.07 112.87
  A 1.11 1.11 0.0 0 0 260.93 112.59
  Q 260.62 112.16 260.33 111.70
  A 0.07 0.04 10.0 0 1 260.44 111.66
  Z
  M 594.51 177.48
  Q 594.47 177.34 594.54 177.16
  A 0.22 0.21 51.5 0 1 594.95 177.21
  Q 596.45 185.69 596.79 188.73
  Q 597.54 195.45 592.84 198.33
  Q 586.69 202.11 577.08 205.10
  C 573.24 206.30 568.99 208.30 567.32 211.89
  A 1.83 1.73 -59.5 0 0 567.82 214.07
  Q 568.39 214.49 569.45 214.60
  Q 583.76 216.04 593.76 217.24
  C 596.26 217.54 600.35 218.30 600.87 221.16
  C 602.66 231.02 602.22 242.44 604.89 252.47
  A 1.59 1.59 0.0 0 0 607.12 253.50
  C 610.12 252.06 611.13 248.89 612.00 245.68
  Q 612.39 244.25 613.86 241.52
  Q 614.68 239.99 620.24 228.59
  C 621.22 226.57 622.54 225.04 624.58 224.56
  Q 629.11 223.49 634.62 224.94
  Q 643.97 227.40 654.33 229.06
  A 1.50 1.46 32.7 0 0 655.36 228.85
  C 657.28 227.64 655.71 225.04 654.42 223.70
  Q 649.00 218.13 640.47 209.07
  C 636.58 204.94 635.45 201.89 637.23 196.75
  Q 639.61 189.87 643.35 184.83
  Q 647.69 178.98 650.10 172.68
  A 1.78 1.78 0.0 0 0 648.77 170.30
  Q 648.62 170.28 647.58 170.60
  Q 645.18 171.34 639.52 174.45
  C 633.23 177.90 628.65 179.81 621.76 183.44
  Q 619.68 184.54 616.65 183.75
  A 2.36 2.25 -13.1 0 1 615.58 183.12
  Q 606.60 173.77 600.19 165.60
  C 598.39 163.30 596.46 161.82 594.21 160.81
  A 1.59 1.59 0.0 0 0 592.00 162.59
  Q 593.20 168.30 594.32 174.62
  Q 594.68 176.65 594.64 177.46
  A 0.07 0.07 0.0 0 1 594.51 177.48
  Z
  M 579.90 347.31
  Q 579.93 347.27 579.96 347.25
  A 0.10 0.08 25.0 0 0 579.89 347.10
  C 577.06 346.87 570.84 346.78 568.86 349.21
  Q 567.64 350.70 569.58 351.95
  C 574.07 354.83 580.96 358.08 585.45 362.04
  Q 589.12 365.27 592.50 367.62
  Q 595.97 370.03 595.12 374.36
  Q 594.50 377.57 590.00 388.84
  C 587.97 393.94 587.41 397.99 587.63 403.05
  A 0.81 0.81 0.0 0 0 588.84 403.71
  Q 594.91 400.26 598.42 396.77
  C 601.72 393.48 605.51 391.72 608.34 388.35
  C 611.75 384.31 615.28 381.95 619.84 385.64
  Q 626.05 390.66 630.29 392.94
  A 3.13 2.53 -4.1 0 1 630.63 393.16
  L 642.72 402.67
  A 1.19 1.19 0.0 0 0 644.64 401.71
  Q 644.61 400.33 644.28 399.48
  Q 639.34 386.74 635.94 374.28
  Q 634.91 370.53 635.41 369.12
  C 636.70 365.40 640.73 361.96 643.35 360.09
  Q 652.59 353.53 653.86 352.38
  Q 657.31 349.27 659.46 346.62
  A 1.76 1.25 45.6 0 0 659.15 344.66
  Q 658.98 344.46 659.02 344.34
  A 0.34 0.34 0.0 0 0 658.72 343.89
  Q 654.32 343.58 649.43 345.03
  A 2.05 1.64 29.6 0 1 648.99 345.10
  L 629.25 345.83
  A 3.45 3.44 77.1 0 1 625.98 343.77
  L 618.88 327.46
  A 5.30 5.17 -59.3 0 1 618.46 325.72
  Q 618.32 323.72 617.55 321.44
  Q 617.05 319.97 617.10 319.46
  Q 617.15 318.82 615.60 316.30
  A 1.70 1.70 0.0 0 0 612.62 316.46
  Q 611.53 318.75 609.80 320.23
  A 1.37 1.32 -16.5 0 0 609.35 321.02
  Q 607.86 329.15 607.78 329.51
  Q 606.73 334.25 603.09 342.30
  Q 601.20 346.46 596.82 346.87
  Q 589.79 347.53 579.94 347.35
  A 0.04 0.02 17.8 0 1 579.90 347.31
  Z
  M 498.88 445.29
  Q 491.94 443.28 485.68 440.36
  A 6.54 6.26 44.8 0 0 484.82 440.04
  Q 479.91 438.67 477.17 436.10
  A 0.79 0.79 0.0 0 0 475.86 436.48
  Q 474.78 440.90 477.40 444.40
  Q 484.55 453.93 488.61 461.16
  Q 491.73 466.71 488.07 472.07
  Q 483.12 479.34 477.02 485.14
  A 1.97 1.92 84.1 0 0 476.68 485.57
  L 471.90 493.85
  A 0.77 0.77 0.0 0 0 472.42 494.99
  Q 474.67 495.42 477.03 494.82
  Q 481.40 493.71 492.47 490.91
  C 495.64 490.11 497.62 487.61 500.60 486.93
  Q 505.71 485.77 508.06 490.49
  Q 511.19 496.78 519.57 509.93
  Q 520.95 512.09 523.13 514.09
  A 1.75 1.74 22.2 0 0 526.05 512.87
  Q 526.63 497.05 526.79 490.55
  Q 526.83 488.56 527.63 483.73
  A 2.52 2.35 -30.5 0 1 527.82 483.09
  Q 529.01 480.34 532.14 479.40
  C 538.01 477.63 543.21 475.98 549.58 474.50
  Q 553.77 473.54 558.01 471.71
  A 1.14 1.14 0.0 0 0 558.18 469.71
  L 551.59 465.46
  A 3.93 3.71 -15.7 0 0 551.00 465.15
  Q 543.62 461.97 534.81 458.68
  Q 531.88 457.59 530.21 456.17
  A 4.48 4.47 19.0 0 1 528.63 452.94
  Q 528.19 441.25 529.38 428.74
  Q 529.70 425.35 528.98 422.35
  A 1.23 1.23 0.0 0 0 526.80 421.90
  Q 521.77 428.58 515.38 437.64
  Q 513.42 440.42 510.43 444.08
  Q 505.98 449.53 499.20 445.43
  A 1.41 1.34 -19.9 0 0 498.88 445.29
  Z"
/>
<path fill="#ffe000" d="
  M 530.48 53.46
  Q 530.40 53.47 530.20 53.47
  A 0.25 0.10 -18.8 0 0 529.92 53.72
  Q 530.11 53.75 530.09 53.88
  A 0.05 0.05 0.0 0 0 530.15 53.93
  Q 531.56 53.51 531.86 55.20
  C 532.33 57.85 532.00 61.78 531.45 64.93
  Q 529.36 76.80 528.89 86.22
  C 528.74 89.14 529.73 89.93 532.42 90.91
  Q 538.52 93.16 541.46 94.83
  Q 549.36 99.31 553.96 100.66
  A 3.04 2.78 -17.3 0 1 554.77 101.04
  Q 557.45 102.82 559.20 105.12
  A 1.09 1.08 65.9 0 1 558.55 106.84
  L 557.24 107.10
  A 0.78 0.36 20.3 0 1 557.11 107.11
  C 549.30 106.86 543.73 109.06 533.48 112.19
  C 530.77 113.02 527.41 114.60 526.84 117.57
  Q 526.49 119.40 526.07 121.21
  Q 525.66 123.01 525.61 124.86
  Q 525.39 133.16 524.91 141.47
  Q 524.72 144.75 523.89 147.31
  A 1.33 1.32 20.9 0 1 522.09 148.11
  Q 520.03 147.18 519.02 145.24
  Q 511.96 131.75 507.05 122.74
  C 504.20 117.53 497.06 119.34 491.74 121.32
  Q 483.20 124.50 472.85 126.89
  A 1.44 1.44 0.0 0 1 471.18 125.97
  C 470.38 123.74 475.04 117.90 477.06 115.73
  Q 485.88 106.23 488.60 103.09
  Q 492.20 98.93 489.65 94.06
  Q 488.24 91.38 483.76 83.10
  C 481.49 78.90 474.41 71.71 476.09 67.55
  A 1.21 1.21 0.0 0 1 477.54 66.83
  Q 480.74 67.72 482.76 69.49
  A 2.19 2.07 -9.7 0 0 483.30 69.85
  Q 487.84 71.95 492.63 74.61
  C 495.62 76.27 499.81 75.83 502.63 78.62
  C 505.27 81.24 509.39 78.68 511.13 76.36
  C 515.44 70.61 519.83 66.30 524.13 60.86
  Q 526.40 57.98 529.81 53.52
  Q 530.05 53.20 530.49 53.37
  A 0.05 0.05 0.0 0 1 530.48 53.46
  Z"
/>
<path fill="#ffe000" d="
  M 260.33 111.70
  Q 260.62 112.16 260.93 112.59
  A 1.11 1.11 0.0 0 1 261.07 112.87
  Q 265.23 126.43 266.77 132.58
  Q 268.87 141.00 272.83 151.76
  Q 276.20 160.91 280.39 176.01
  C 283.09 185.72 286.82 195.69 290.50 205.22
  Q 291.64 208.15 295.25 208.25
  Q 311.71 208.70 332.87 208.47
  Q 347.93 208.31 355.50 208.55
  Q 369.62 209.00 378.18 208.92
  C 381.89 208.89 386.02 208.31 389.75 208.76
  A 1.02 0.95 47.0 0 0 389.89 208.77
  L 398.68 208.21
  A 1.41 1.41 0.0 0 1 399.97 210.36
  Q 398.26 213.14 395.91 214.66
  Q 388.90 219.19 363.76 237.78
  Q 349.85 248.06 319.12 271.11
  Q 315.21 274.04 314.26 277.42
  A 4.93 4.85 55.9 0 0 314.08 278.40
  Q 313.85 281.14 315.40 286.63
  Q 318.73 298.41 322.20 307.80
  Q 325.72 317.29 327.68 325.16
  C 330.74 337.48 338.40 355.53 341.88 371.85
  C 342.64 375.39 344.32 378.09 344.19 381.67
  A 0.94 0.94 0.0 0 1 342.68 382.39
  Q 335.18 376.76 333.35 375.36
  C 330.81 373.42 327.97 370.34 324.66 368.35
  Q 318.72 364.79 314.05 360.49
  A 5.78 5.71 -7.5 0 0 313.14 359.80
  C 305.96 355.33 299.00 349.14 293.04 344.97
  Q 287.24 340.92 270.74 328.49
  Q 265.12 324.26 260.29 319.79
  A 2.68 2.49 -11.9 0 0 259.41 319.26
  C 254.57 317.58 251.55 320.64 248.11 324.17
  A 9.81 9.15 -83.9 0 1 247.07 325.07
  C 241.35 329.31 236.76 332.02 231.35 336.32
  Q 225.91 340.65 221.39 343.84
  C 214.43 348.74 208.80 353.76 201.81 358.55
  Q 190.24 366.49 186.04 370.05
  Q 178.67 376.28 171.35 382.06
  A 2.20 2.19 -71.7 0 1 170.52 382.48
  C 167.98 383.16 167.00 380.89 167.31 378.71
  Q 167.87 374.93 169.02 372.25
  C 173.76 361.17 178.50 348.55 180.80 336.46
  C 182.76 326.17 188.85 318.21 190.84 308.50
  Q 192.90 298.45 194.36 292.84
  Q 195.90 286.95 199.24 281.49
  C 201.81 277.27 195.48 272.20 192.38 270.24
  Q 184.88 265.50 179.83 261.41
  C 168.98 252.64 164.57 249.67 151.14 239.70
  Q 147.14 236.72 143.98 234.14
  C 140.12 230.98 135.73 228.59 131.78 225.59
  Q 118.79 215.70 114.45 212.25
  Q 112.58 210.76 113.31 209.30
  A 1.35 1.35 0.0 0 1 114.17 208.59
  Q 116.59 207.90 119.50 208.09
  Q 129.71 208.74 137.50 208.70
  C 176.35 208.49 197.06 208.24 211.79 208.81
  C 217.95 209.04 220.96 209.73 223.40 203.90
  C 226.56 196.34 228.49 186.71 231.06 178.68
  Q 236.72 161.07 237.82 158.41
  Q 240.01 153.12 242.40 143.69
  Q 244.82 134.10 248.49 125.38
  C 250.91 119.61 252.03 114.14 252.26 108.51
  Q 252.38 105.70 254.73 103.88
  A 0.80 0.79 43.9 0 1 255.67 103.87
  Q 259.51 106.61 260.61 111.63
  A 0.07 0.06 12.3 0 1 260.50 111.69
  Q 260.46 111.67 260.44 111.66
  A 0.07 0.04 10.0 0 0 260.33 111.70
  Z"
/>
<path fill="#ffe000" d="
  M 594.64 177.46
  Q 594.68 176.65 594.32 174.62
  Q 593.20 168.30 592.00 162.59
  A 1.59 1.59 0.0 0 1 594.21 160.81
  C 596.46 161.82 598.39 163.30 600.19 165.60
  Q 606.60 173.77 615.58 183.12
  A 2.36 2.25 -13.1 0 0 616.65 183.75
  Q 619.68 184.54 621.76 183.44
  C 628.65 179.81 633.23 177.90 639.52 174.45
  Q 645.18 171.34 647.58 170.60
  Q 648.62 170.28 648.77 170.30
  A 1.78 1.78 0.0 0 1 650.10 172.68
  Q 647.69 178.98 643.35 184.83
  Q 639.61 189.87 637.23 196.75
  C 635.45 201.89 636.58 204.94 640.47 209.07
  Q 649.00 218.13 654.42 223.70
  C 655.71 225.04 657.28 227.64 655.36 228.85
  A 1.50 1.46 32.7 0 1 654.33 229.06
  Q 643.97 227.40 634.62 224.94
  Q 629.11 223.49 624.58 224.56
  C 622.54 225.04 621.22 226.57 620.24 228.59
  Q 614.68 239.99 613.86 241.52
  Q 612.39 244.25 612.00 245.68
  C 611.13 248.89 610.12 252.06 607.12 253.50
  A 1.59 1.59 0.0 0 1 604.89 252.47
  C 602.22 242.44 602.66 231.02 600.87 221.16
  C 600.35 218.30 596.26 217.54 593.76 217.24
  Q 583.76 216.04 569.45 214.60
  Q 568.39 214.49 567.82 214.07
  A 1.83 1.73 -59.5 0 1 567.32 211.89
  C 568.99 208.30 573.24 206.30 577.08 205.10
  Q 586.69 202.11 592.84 198.33
  Q 597.54 195.45 596.79 188.73
  Q 596.45 185.69 594.95 177.21
  A 0.22 0.21 51.5 0 0 594.54 177.16
  Q 594.47 177.34 594.51 177.48
  A 0.07 0.07 0.0 0 0 594.64 177.46
  Z"
/>
<path fill="#ffe000" d="
  M 579.94 347.35
  Q 589.79 347.53 596.82 346.87
  Q 601.20 346.46 603.09 342.30
  Q 606.73 334.25 607.78 329.51
  Q 607.86 329.15 609.35 321.02
  A 1.37 1.32 -16.5 0 1 609.80 320.23
  Q 611.53 318.75 612.62 316.46
  A 1.70 1.70 0.0 0 1 615.60 316.30
  Q 617.15 318.82 617.10 319.46
  Q 617.05 319.97 617.55 321.44
  Q 618.32 323.72 618.46 325.72
  A 5.30 5.17 -59.3 0 0 618.88 327.46
  L 625.98 343.77
  A 3.45 3.44 77.1 0 0 629.25 345.83
  L 648.99 345.10
  A 2.05 1.64 29.6 0 0 649.43 345.03
  Q 654.32 343.58 658.72 343.89
  A 0.34 0.34 0.0 0 1 659.02 344.34
  Q 658.98 344.46 659.15 344.66
  A 1.76 1.25 45.6 0 1 659.46 346.62
  Q 657.31 349.27 653.86 352.38
  Q 652.59 353.53 643.35 360.09
  C 640.73 361.96 636.70 365.40 635.41 369.12
  Q 634.91 370.53 635.94 374.28
  Q 639.34 386.74 644.28 399.48
  Q 644.61 400.33 644.64 401.71
  A 1.19 1.19 0.0 0 1 642.72 402.67
  L 630.63 393.16
  A 3.13 2.53 -4.1 0 0 630.29 392.94
  Q 626.05 390.66 619.84 385.64
  C 615.28 381.95 611.75 384.31 608.34 388.35
  C 605.51 391.72 601.72 393.48 598.42 396.77
  Q 594.91 400.26 588.84 403.71
  A 0.81 0.81 0.0 0 1 587.63 403.05
  C 587.41 397.99 587.97 393.94 590.00 388.84
  Q 594.50 377.57 595.12 374.36
  Q 595.97 370.03 592.50 367.62
  Q 589.12 365.27 585.45 362.04
  C 580.96 358.08 574.07 354.83 569.58 351.95
  Q 567.64 350.70 568.86 349.21
  C 570.84 346.78 577.06 346.87 579.89 347.10
  A 0.10 0.08 25.0 0 1 579.96 347.25
  Q 579.93 347.27 579.90 347.31
  A 0.04 0.02 17.8 0 0 579.94 347.35
  Z"
/>
<path fill="#ffe000" d="
  M 499.20 445.43
  Q 505.98 449.53 510.43 444.08
  Q 513.42 440.42 515.38 437.64
  Q 521.77 428.58 526.80 421.90
  A 1.23 1.23 0.0 0 1 528.98 422.35
  Q 529.70 425.35 529.38 428.74
  Q 528.19 441.25 528.63 452.94
  A 4.48 4.47 19.0 0 0 530.21 456.17
  Q 531.88 457.59 534.81 458.68
  Q 543.62 461.97 551.00 465.15
  A 3.93 3.71 -15.7 0 1 551.59 465.46
  L 558.18 469.71
  A 1.14 1.14 0.0 0 1 558.01 471.71
  Q 553.77 473.54 549.58 474.50
  C 543.21 475.98 538.01 477.63 532.14 479.40
  Q 529.01 480.34 527.82 483.09
  A 2.52 2.35 -30.5 0 0 527.63 483.73
  Q 526.83 488.56 526.79 490.55
  Q 526.63 497.05 526.05 512.87
  A 1.75 1.74 22.2 0 1 523.13 514.09
  Q 520.95 512.09 519.57 509.93
  Q 511.19 496.78 508.06 490.49
  Q 505.71 485.77 500.60 486.93
  C 497.62 487.61 495.64 490.11 492.47 490.91
  Q 481.40 493.71 477.03 494.82
  Q 474.67 495.42 472.42 494.99
  A 0.77 0.77 0.0 0 1 471.90 493.85
  L 476.68 485.57
  A 1.97 1.92 84.1 0 1 477.02 485.14
  Q 483.12 479.34 488.07 472.07
  Q 491.73 466.71 488.61 461.16
  Q 484.55 453.93 477.40 444.40
  Q 474.78 440.90 475.86 436.48
  A 0.79 0.79 0.0 0 1 477.17 436.10
  Q 479.91 438.67 484.82 440.04
  A 6.54 6.26 44.8 0 1 485.68 440.36
  Q 491.94 443.28 498.88 445.29
  A 1.41 1.34 -19.9 0 1 499.20 445.43
  Z"
/>
</svg>
