<?xml version="1.0" encoding="UTF-8" standalone="no"?>
<!DOCTYPE svg PUBLIC "-//W3C//DTD SVG 1.1//EN" "http://www.w3.org/Graphics/SVG/1.1/DTD/svg11.dtd">
<svg xmlns="http://www.w3.org/2000/svg" version="1.1" viewBox="0.00 0.00 1536.00 1040.00">
<g stroke-width="2.00" fill="none" stroke-linecap="butt">
<path stroke="#8091ca" vector-effect="non-scaling-stroke" d="
  M 507.25 0.00
  L 511.26 0.55
  A 1.27 1.26 4.7 0 1 512.35 1.82
  Q 512.14 14.84 512.14 16.25
  Q 511.77 914.66 512.28 1025.25
  Q 512.33 1036.84 512.34 1037.97
  A 1.49 1.49 0.0 0 1 511.07 1039.44
  L 507.44 1040.00"
/>
<path stroke="#f6949c" vector-effect="non-scaling-stroke" d="
  M 1028.80 0.00
  L 1024.91 0.35
  A 1.03 1.03 0.0 0 0 1023.97 1.38
  L 1023.97 1038.50
  A 1.10 1.10 0.0 0 0 1024.96 1039.59
  L 1028.69 1040.00"
/>
<path stroke="#f6949c" vector-effect="non-scaling-stroke" d="
  M 1536.00 1039.20
  L 1535.41 1040.00"
/>
</g>
<path fill="#012294" d="
  M 507.25 0.00
  L 511.26 0.55
  A 1.27 1.26 4.7 0 1 512.35 1.82
  Q 512.14 14.84 512.14 16.25
  Q 511.77 914.66 512.28 1025.25
  Q 512.33 1036.84 512.34 1037.97
  A 1.49 1.49 0.0 0 1 511.07 1039.44
  L 507.44 1040.00
  L 0.00 1040.00
  L 0.00 0.00
  L 507.25 0.00
  Z"
/>
<path fill="#ffffff" d="
  M 1028.80 0.00
  L 1024.91 0.35
  A 1.03 1.03 0.0 0 0 1023.97 1.38
  L 1023.97 1038.50
  A 1.10 1.10 0.0 0 0 1024.96 1039.59
  L 1028.69 1040.00
  L 507.44 1040.00
  L 511.07 1039.44
  A 1.49 1.49 0.0 0 0 512.34 1037.97
  Q 512.33 1036.84 512.28 1025.25
  Q 511.77 914.66 512.14 16.25
  Q 512.14 14.84 512.35 1.82
  A 1.27 1.26 4.7 0 0 511.26 0.55
  L 507.25 0.00
  L 1028.80 0.00
  Z"
/>
<path fill="#ed2939" d="
  M 1536.00 0.00
  L 1536.00 1039.20
  L 1535.41 1040.00
  L 1028.69 1040.00
  L 1024.96 1039.59
  A 1.10 1.10 0.0 0 1 1023.97 1038.50
  L 1023.97 1.38
  A 1.03 1.03 0.0 0 1 1024.91 0.35
  L 1028.80 0.00
  L 1536.00 0.00
  Z"
/>
<path fill="#ffffff" d="
  M 1536.00 1039.20
  L 1536.00 1040.00
  L 1535.41 1040.00
  L 1536.00 1039.20
  Z"
/>
</svg>
