<?xml version="1.0" encoding="UTF-8" standalone="no"?>
<!DOCTYPE svg PUBLIC "-//W3C//DTD SVG 1.1//EN" "http://www.w3.org/Graphics/SVG/1.1/DTD/svg11.dtd">
<svg xmlns="http://www.w3.org/2000/svg" version="1.1" viewBox="0.00 0.00 1536.00 1040.00">
<g stroke-width="2.00" fill="none" stroke-linecap="butt">
<path stroke="#ffcd99" vector-effect="non-scaling-stroke" d="
  M 1536.00 349.63
  Q 1535.60 347.40 1535.64 346.36
  C 1535.78 342.22 1531.06 342.80 1528.87 342.80
  Q 113.98 342.70 34.25 342.83
  Q 20.37 342.85 10.85 342.98
  C 8.11 343.02 6.02 342.60 3.49 342.46
  C -0.23 342.24 0.32 346.25 0.00 348.76"
/>
<path stroke="#ffcd99" vector-effect="non-scaling-stroke" d="
  M 1536.00 391.27
  L 1536.00 633.85"
/>
<path stroke="#ffcd99" vector-effect="non-scaling-stroke" d="
  M 1536.00 681.24
  Q 1535.72 684.75 1535.54 688.25
  Q 1535.34 692.23 1531.56 691.66"
/>
<path stroke="#89c483" vector-effect="non-scaling-stroke" d="
  M 1531.56 691.66
  C 1523.88 690.64 1514.60 691.28 1501.00 691.28
  Q 760.25 691.34 19.50 691.37
  Q 10.71 691.37 3.23 691.11
  Q 0.15 691.00 0.00 687.61"
/>
<path stroke="#8182ba" vector-effect="non-scaling-stroke" d="
  M 632.34 517.08
  Q 632.33 523.57 632.41 525.54
  Q 632.65 531.43 635.22 548.26
  Q 636.19 554.60 641.07 568.99
  C 642.91 574.43 646.31 579.45 649.19 585.31
  Q 652.27 591.58 656.27 596.99
  Q 663.73 607.07 665.57 609.24
  Q 680.76 627.16 702.49 639.62
  C 710.27 644.08 720.47 648.00 728.59 651.27
  Q 734.45 653.63 741.50 654.54
  C 750.79 655.74 760.24 656.98 769.53 656.75
  Q 787.88 656.28 801.50 653.21
  C 807.15 651.93 813.94 648.73 823.84 644.60
  Q 831.71 641.32 838.76 636.66
  C 850.51 628.89 861.31 620.85 869.25 611.24
  C 875.62 603.51 881.49 596.18 886.14 587.40
  Q 890.72 578.77 892.69 575.18
  C 895.52 570.04 897.12 562.30 898.59 558.53
  Q 900.04 554.84 901.46 545.58
  Q 902.54 538.56 903.73 531.76
  Q 904.63 526.67 904.65 517.76
  Q 904.67 508.85 903.80 503.76
  Q 902.64 496.95 901.60 489.92
  Q 900.22 480.66 898.79 476.96
  C 897.34 473.18 895.78 465.43 892.98 460.28
  Q 891.02 456.68 886.49 448.03
  C 881.88 439.22 876.05 431.87 869.71 424.10
  C 861.82 414.45 851.06 406.36 839.35 398.53
  Q 832.32 393.84 824.47 390.52
  C 814.59 386.34 807.82 383.11 802.17 381.80
  Q 788.57 378.66 770.22 378.10
  C 760.93 377.82 751.48 379.02 742.18 380.17
  Q 735.13 381.04 729.26 383.38
  C 721.12 386.61 710.90 390.47 703.10 394.90
  Q 681.31 407.25 666.03 425.09
  Q 664.18 427.25 656.67 437.30
  Q 652.64 442.69 649.53 448.94
  C 646.62 454.79 643.19 459.79 641.33 465.22
  Q 636.38 479.59 635.37 485.92
  Q 632.72 502.74 632.45 508.63
  Q 632.36 510.60 632.34 517.08"
/>
<path stroke="#8182ba" vector-effect="non-scaling-stroke" d="
  M 723.70 625.14
  A 3.10 3.08 -15.2 0 1 726.19 626.56
  C 728.26 629.81 730.54 632.64 733.96 634.26
  Q 735.88 635.16 742.41 636.09
  Q 745.05 636.46 748.95 634.43
  A 2.51 2.41 -81.7 0 0 749.67 633.87
  Q 750.98 632.42 751.94 631.97
  A 2.90 2.74 58.0 0 1 755.32 632.85
  C 757.80 635.97 760.63 639.11 764.78 639.65
  C 769.27 640.23 774.69 640.02 777.83 636.64
  Q 781.09 633.14 781.44 632.81
  A 2.82 2.81 -46.9 0 1 785.14 632.68
  L 788.31 635.26
  A 0.63 0.56 -11.7 0 0 788.52 635.38
  C 793.20 637.36 799.98 635.42 804.08 633.20
  A 1.41 1.21 4.5 0 0 804.30 633.04
  L 811.68 626.07
  A 1.09 0.97 -74.7 0 1 811.99 625.87
  Q 815.53 624.42 818.09 625.74
  C 821.73 627.62 822.35 626.66 825.97 624.55
  Q 834.61 619.51 836.47 609.72
  A 2.11 2.10 -82.0 0 1 838.72 608.02
  C 842.18 608.34 846.27 608.63 849.11 606.79
  Q 855.83 602.42 857.56 596.28
  A 1.10 0.97 59.9 0 0 857.61 596.03
  L 858.36 588.71
  A 1.86 1.84 68.2 0 1 858.78 587.72
  C 860.31 585.89 862.50 585.90 865.36 585.61
  A 2.38 2.30 -64.5 0 0 866.48 585.19
  C 869.14 583.31 870.20 581.20 872.24 577.82
  C 875.13 573.05 873.87 568.70 873.21 563.00
  Q 872.88 560.19 875.48 558.69
  Q 880.02 556.07 880.34 555.83
  A 5.87 1.99 -35.0 0 0 880.98 555.32
  C 883.83 552.88 885.67 541.05 883.60 538.47
  Q 881.70 536.09 881.17 533.68
  A 2.53 2.50 -30.6 0 1 881.75 531.48
  Q 883.83 529.12 885.27 527.29
  C 888.26 523.49 888.05 518.24 887.34 512.87
  C 886.79 508.71 883.07 506.58 881.31 502.77
  A 2.81 2.77 -53.6 0 1 881.09 501.24
  C 881.50 498.37 883.57 495.50 884.04 492.82
  Q 885.32 485.51 881.04 479.82
  A 3.75 3.60 88.4 0 0 880.30 479.09
  L 874.63 474.96
  A 3.13 3.13 0.0 0 1 873.35 472.32
  C 873.46 469.15 874.45 464.87 873.77 461.90
  Q 872.17 454.93 866.42 450.33
  A 4.21 3.97 -14.4 0 0 865.24 449.68
  L 859.41 447.62
  A 2.31 2.31 0.0 0 1 857.87 445.50
  C 857.75 440.65 858.10 437.34 855.48 434.02
  Q 851.40 428.86 845.33 427.04
  A 3.68 3.56 -33.4 0 0 844.53 426.89
  L 837.65 426.45
  A 2.05 2.04 85.3 0 1 835.78 424.86
  C 834.65 419.94 834.43 417.30 831.26 414.74
  Q 827.90 412.01 823.69 408.81
  C 821.90 407.45 820.36 407.61 818.35 409.17
  C 815.00 411.77 811.09 409.76 808.84 406.64
  Q 807.59 404.91 806.28 403.34
  A 4.83 4.71 87.4 0 0 805.50 402.61
  Q 800.07 398.55 792.99 398.79
  C 789.63 398.90 787.95 400.39 784.92 402.62
  A 1.94 1.91 -65.2 0 1 783.99 402.97
  Q 781.31 403.24 779.91 401.40
  C 776.91 397.45 775.12 395.21 770.18 395.23
  Q 765.34 395.26 762.82 395.96
  C 759.43 396.90 756.98 399.85 755.04 402.03
  C 753.73 403.50 752.17 404.23 750.85 402.66
  C 748.64 400.03 746.72 398.27 742.99 398.62
  Q 737.17 399.17 732.30 401.68
  A 5.06 4.89 9.9 0 0 731.34 402.33
  Q 728.89 404.40 726.71 407.51
  C 723.84 411.61 720.11 410.09 716.30 408.54
  A 3.94 3.93 -52.3 0 0 712.44 409.04
  Q 707.93 412.44 705.70 413.66
  C 701.95 415.70 701.44 420.49 700.86 424.08
  C 700.51 426.26 699.58 427.26 697.48 427.08
  C 694.50 426.81 692.56 426.48 689.73 427.29
  Q 681.27 429.71 679.25 438.24
  C 678.59 441.04 679.70 447.17 676.29 448.34
  Q 670.77 450.21 670.74 450.23
  A 8.13 7.20 -66.6 0 0 669.79 450.78
  C 662.39 455.79 662.42 463.82 663.13 471.59
  A 3.89 3.87 69.4 0 1 661.55 475.10
  Q 658.28 477.48 657.49 478.19
  C 653.13 482.09 649.47 490.22 653.01 495.77
  Q 655.27 499.32 655.77 500.79
  A 2.47 2.47 0.0 0 1 655.15 503.34
  C 652.54 505.87 650.11 508.45 649.46 512.00
  C 648.62 516.57 648.42 521.67 650.81 525.63
  Q 651.05 526.04 654.03 530.71
  Q 656.14 534.01 654.32 536.40
  Q 650.23 541.76 651.91 547.75
  C 653.59 553.76 656.06 555.66 661.61 559.25
  A 2.24 2.10 -1.9 0 1 662.10 559.68
  Q 663.32 561.17 663.12 563.26
  Q 662.51 569.40 662.42 570.81
  A 6.54 6.41 -49.6 0 0 662.54 572.49
  Q 663.74 578.47 668.50 583.33
  C 670.60 585.47 673.47 585.88 676.49 586.23
  A 2.38 2.37 3.8 0 1 678.59 588.62
  C 678.53 593.28 677.86 597.25 681.14 601.30
  Q 687.92 609.68 698.35 608.12
  A 1.53 1.52 -9.5 0 1 700.07 609.34
  C 700.79 613.15 701.65 616.98 704.70 620.04
  Q 708.31 623.68 713.25 626.11
  A 3.61 3.60 -40.9 0 0 715.97 626.30
  Q 719.85 625.02 723.70 625.14"
/>
<path stroke="#1d2287" vector-effect="non-scaling-stroke" d="
  M 632.31 522.01
  Q 632.17 523.93 632.57 525.06
  A 0.22 0.22 0.0 0 0 633.00 524.96
  L 632.68 522.00
  A 0.19 0.18 -46.3 0 0 632.31 522.01"
/>
<path stroke="#9c9fcc" vector-effect="non-scaling-stroke" d="
  M 748.93 541.71
  L 752.89 546.88
  A 1.42 1.38 81.0 0 0 753.49 547.33
  Q 755.06 547.94 755.67 548.72
  A 2.00 1.95 -67.5 0 1 756.07 549.72
  Q 756.42 552.85 754.94 555.26
  A 0.63 0.57 -8.6 0 1 754.81 555.42
  L 752.53 557.89
  A 4.94 4.81 -17.7 0 0 751.35 560.11
  Q 749.07 569.85 748.26 578.99
  C 747.81 584.11 746.54 592.05 744.64 598.85
  Q 740.16 614.96 738.45 621.93
  Q 738.05 623.57 738.50 624.39
  A 0.81 0.80 -45.3 0 0 739.91 624.38
  C 741.57 621.32 742.43 617.99 744.20 615.00
  Q 746.18 611.65 747.64 605.96
  C 749.40 599.07 750.80 595.43 752.56 588.78
  Q 752.99 587.16 755.53 580.17
  Q 757.28 575.33 757.96 568.58
  Q 758.04 567.75 760.02 565.36
  A 1.73 1.65 -19.7 0 0 760.38 564.64
  L 760.63 563.54
  A 0.56 0.56 0.0 0 1 761.73 563.61
  Q 761.77 563.95 761.61 566.69
  A 2.46 2.39 -54.0 0 0 761.76 567.73
  Q 762.69 570.29 762.74 571.13
  C 763.93 590.13 766.43 610.63 767.45 627.27
  A 0.43 0.42 66.9 0 0 768.16 627.56
  C 770.03 625.84 770.44 621.96 770.55 619.75
  Q 771.09 608.56 771.14 598.89
  A 2.78 2.68 -38.2 0 1 771.24 598.16
  Q 772.02 595.28 771.41 590.26
  A 4.33 4.33 0.0 0 1 771.59 588.38
  Q 772.68 585.05 772.25 579.59
  A 5.22 4.54 50.5 0 1 772.27 578.82
  L 773.52 567.92
  A 1.36 1.33 -28.4 0 1 773.65 567.50
  L 775.15 564.39
  A 0.42 0.41 34.1 0 1 775.81 564.27
  Q 776.72 565.10 776.90 565.99
  Q 778.25 572.39 780.74 579.40
  C 783.95 588.44 785.24 594.12 788.44 605.72
  Q 789.95 611.17 791.94 614.87
  Q 794.60 619.80 796.73 623.32
  A 0.52 0.52 0.0 0 0 797.69 623.15
  Q 797.86 622.22 797.45 620.49
  Q 794.49 607.73 791.47 596.51
  Q 789.94 590.82 789.28 586.07
  Q 788.63 581.35 787.12 575.60
  C 786.34 572.58 786.23 568.05 785.25 564.76
  Q 783.38 558.48 781.31 553.81
  C 779.78 550.34 779.07 546.60 782.68 544.62
  A 0.84 0.84 0.0 0 1 783.92 545.32
  L 784.23 552.17
  A 0.77 0.57 -63.0 0 0 784.27 552.41
  Q 786.97 560.72 792.11 568.59
  Q 798.21 577.94 798.67 578.88
  Q 800.57 582.78 805.73 589.50
  Q 809.08 593.87 812.04 599.37
  Q 813.92 602.87 820.97 613.18
  A 0.55 0.55 0.0 0 0 821.96 612.77
  Q 820.96 607.04 817.92 601.34
  Q 812.30 590.80 808.74 582.00
  Q 807.37 578.61 802.58 571.26
  A 6.57 6.17 -74.2 0 1 802.02 570.18
  Q 797.79 559.65 796.54 558.16
  Q 794.30 555.48 790.75 550.80
  Q 789.07 548.58 789.10 545.99
  A 1.42 1.42 0.0 0 1 791.41 544.89
  Q 792.51 545.77 792.67 546.40
  C 793.77 550.70 796.69 553.85 800.52 557.68
  Q 803.71 560.87 805.60 562.41
  C 809.88 565.87 814.04 570.44 817.35 572.98
  C 821.05 575.82 824.92 580.09 828.72 583.04
  Q 833.01 586.37 835.88 589.32
  Q 839.93 593.48 843.19 596.00
  A 0.76 0.76 0.0 0 0 844.38 595.61
  L 844.39 595.56
  A 2.20 2.20 0.0 0 0 843.95 593.52
  C 841.00 590.08 838.31 586.50 835.64 583.65
  Q 830.65 578.32 827.10 573.76
  C 821.46 566.53 814.56 559.99 810.01 553.75
  Q 808.34 551.46 805.78 549.46
  A 3.67 3.60 -87.6 0 1 804.94 548.53
  C 803.46 546.16 800.58 544.70 798.99 542.08
  A 0.60 0.60 0.0 0 1 799.34 541.19
  Q 800.72 540.80 801.84 542.00
  Q 804.22 544.55 806.46 545.54
  C 809.50 546.88 811.06 549.47 813.92 550.81
  Q 819.47 553.41 828.02 556.98
  C 833.53 559.28 840.65 564.36 847.27 567.11
  C 850.67 568.52 856.36 572.17 861.85 573.11
  A 0.62 0.62 0.0 0 0 862.46 572.14
  L 861.96 571.42
  A 3.32 3.27 -9.7 0 0 860.09 570.12
  Q 855.50 568.93 852.74 565.67
  A 2.34 2.24 80.7 0 0 851.93 565.06
  Q 849.99 564.19 844.59 559.17
  C 842.23 556.98 837.44 553.93 833.13 551.74
  Q 829.15 549.72 824.60 545.68
  Q 821.46 542.90 812.46 538.08
  Q 811.42 537.52 811.38 536.49
  A 1.09 1.08 87.6 0 1 812.40 535.37
  Q 815.54 535.17 819.07 536.39
  Q 827.58 539.32 837.85 540.96
  Q 839.84 541.28 840.95 541.68
  Q 847.90 544.17 854.66 544.59
  C 859.15 544.87 863.59 543.80 867.94 543.44
  A 0.47 0.46 -39.6 0 0 868.03 542.53
  Q 865.72 541.90 861.52 541.89
  C 857.08 541.88 851.09 540.77 848.56 536.76
  A 2.24 2.13 0.2 0 0 847.82 536.05
  Q 844.96 534.33 840.74 533.51
  A 4.94 4.34 -24.2 0 1 839.73 533.20
  Q 830.64 529.25 820.79 526.76
  Q 819.33 526.40 816.15 524.37
  A 0.14 0.11 -7.0 0 0 816.10 524.34
  L 806.70 520.57
  A 1.04 0.40 -5.5 0 0 806.52 520.52
  L 800.62 519.39
  A 4.13 4.07 -46.8 0 0 798.81 519.46
  L 796.36 520.12
  A 0.89 0.89 0.0 0 1 795.28 518.99
  Q 796.02 516.73 796.07 515.49
  A 0.12 0.09 -60.9 0 1 796.26 515.41
  Q 796.27 515.44 796.27 515.69
  A 0.04 0.03 59.9 0 0 796.33 515.71
  Q 796.62 515.21 797.01 515.21
  Q 800.03 515.24 801.97 515.74
  Q 803.86 516.22 806.61 517.47
  Q 815.03 521.30 821.74 521.73
  Q 827.99 522.12 837.76 521.31
  C 843.75 520.81 848.86 520.80 854.86 520.25
  A 3.07 2.85 -56.6 0 0 855.68 520.05
  Q 858.43 518.94 860.97 519.37
  Q 861.48 519.46 862.23 518.78
  A 2.32 2.30 -69.0 0 1 863.54 518.19
  L 871.44 517.34
  A 0.61 0.61 0.0 0 0 871.58 516.16
  Q 870.30 515.70 867.92 515.92
  A 1.11 1.10 -24.6 0 1 867.05 515.60
  L 866.69 515.24
  A 1.03 1.01 68.5 0 0 866.02 514.94
  L 860.69 514.60
  A 0.77 0.70 36.2 0 0 860.42 514.63
  Q 856.71 515.68 853.52 514.76
  A 2.06 1.86 -33.9 0 0 852.96 514.68
  Q 848.69 514.72 842.51 513.42
  A 2.06 1.57 -30.9 0 0 842.07 513.37
  L 810.77 512.78
  A 0.74 0.74 0.0 0 1 810.47 511.37
  Q 811.88 510.72 814.04 510.56
  A 1.77 1.70 22.9 0 0 814.98 510.20
  Q 816.44 509.05 823.17 507.63
  Q 830.42 506.10 836.70 503.21
  C 840.78 501.34 845.98 500.14 850.54 498.13
  A 3.25 3.13 -78.3 0 0 851.52 497.46
  C 854.29 494.69 854.98 493.62 859.25 493.00
  C 863.94 492.32 867.72 492.07 869.31 491.13
  A 0.53 0.53 0.0 0 0 869.12 490.15
  Q 858.16 488.42 847.14 491.22
  Q 836.40 493.95 825.51 496.52
  Q 822.51 497.22 821.09 497.80
  Q 817.12 499.40 816.63 499.50
  A 4.97 0.77 -13.2 0 0 815.96 499.63
  Q 814.32 499.94 811.86 500.70
  Q 811.13 500.93 809.12 502.86
  Q 807.22 504.69 804.53 504.65
  A 0.40 0.40 0.0 0 1 804.17 504.08
  Q 805.23 501.77 806.02 501.33
  Q 807.94 500.26 809.04 498.57
  Q 810.32 496.60 813.90 495.16
  C 817.30 493.78 820.94 492.42 823.41 490.12
  Q 823.49 490.05 829.54 485.46
  Q 832.57 483.16 835.98 481.23
  Q 841.02 478.40 845.82 475.02
  A 4.86 4.83 -87.5 0 0 846.70 474.21
  Q 849.74 470.59 854.73 467.02
  Q 856.26 465.92 858.64 464.95
  Q 860.89 464.02 862.25 462.27
  Q 862.84 461.51 862.65 460.80
  A 0.43 0.42 -18.5 0 0 862.07 460.52
  C 854.52 463.76 848.22 466.61 841.16 470.95
  Q 834.48 475.05 827.31 478.06
  Q 817.89 482.02 813.39 484.40
  Q 812.23 485.02 808.72 488.14
  A 1.99 1.58 -73.3 0 1 808.36 488.39
  L 805.47 489.94
  A 7.11 6.77 -78.7 0 0 804.03 490.95
  L 798.58 495.84
  A 0.43 0.43 0.0 0 1 797.86 495.51
  L 797.89 493.64
  A 1.97 1.94 -19.8 0 1 798.58 492.20
  L 803.05 488.40
  A 1.61 1.53 1.4 0 0 803.27 488.20
  L 810.20 481.08
  A 1.04 0.90 85.7 0 0 810.37 480.85
  Q 811.15 479.46 814.26 476.01
  C 824.23 464.97 829.44 458.53 841.03 445.03
  Q 843.60 442.03 844.71 437.75
  A 0.29 0.29 0.0 0 0 844.26 437.44
  C 840.26 440.31 836.89 444.44 833.36 447.66
  Q 821.41 458.56 812.16 466.66
  Q 811.23 467.47 809.85 468.98
  A 9.09 8.75 -86.7 0 1 808.91 469.85
  C 801.10 476.06 796.54 480.27 792.67 488.23
  A 1.13 1.13 0.0 0 1 790.59 488.10
  Q 789.78 485.73 791.61 483.34
  C 794.24 479.90 796.52 477.05 798.47 472.72
  Q 800.05 469.23 803.42 461.94
  Q 803.92 460.85 807.25 455.98
  C 809.04 453.38 809.98 449.34 811.36 446.74
  C 813.54 442.62 815.50 437.03 818.51 432.23
  Q 821.55 427.38 823.10 420.52
  A 0.33 0.33 0.0 0 0 822.54 420.23
  Q 815.23 428.43 810.37 437.99
  C 808.35 441.98 806.16 444.92 803.72 448.28
  Q 802.01 450.65 798.66 455.97
  C 794.03 463.36 791.54 466.81 788.45 472.04
  A 6.12 5.97 70.8 0 0 788.01 472.98
  Q 785.94 478.68 783.98 483.00
  Q 783.63 483.78 783.56 487.87
  A 1.00 0.99 16.7 0 0 784.03 488.73
  L 787.24 490.76
  A 1.06 1.03 1.6 0 1 787.64 491.17
  Q 788.97 493.55 788.64 496.75
  A 0.86 0.86 0.0 0 1 788.00 497.50
  Q 786.89 497.80 785.62 496.85
  A 0.40 0.40 0.0 0 1 785.61 496.22
  Q 786.69 495.35 786.20 493.77
  A 1.23 1.22 -87.4 0 0 785.50 493.00
  Q 783.32 492.06 783.51 489.88
  A 1.04 1.04 0.0 0 0 782.46 488.75
  Q 780.44 488.78 779.77 488.18
  A 1.22 1.22 0.0 0 1 779.38 487.24
  Q 779.56 482.76 781.76 479.89
  Q 783.39 477.78 783.77 476.29
  Q 785.49 469.56 786.41 465.90
  Q 786.68 464.86 788.90 450.63
  C 790.20 442.31 792.32 434.84 794.61 427.01
  C 795.78 423.02 796.14 419.83 797.10 415.37
  Q 797.42 413.88 797.19 412.60
  A 0.60 0.59 58.1 0 0 796.13 412.35
  C 791.15 419.06 789.95 424.34 787.01 435.02
  Q 786.13 438.20 785.09 441.27
  Q 783.04 447.29 783.12 447.49
  Q 783.21 447.70 780.26 456.15
  C 778.32 461.72 777.94 468.25 777.24 473.25
  A 0.91 0.90 -55.3 0 1 775.55 473.56
  Q 775.14 472.81 775.01 471.71
  Q 774.31 465.38 774.26 465.10
  C 773.52 461.23 772.90 455.94 772.69 450.94
  Q 771.86 431.08 769.33 415.44
  Q 769.08 413.92 769.26 407.77
  A 1.36 1.36 0.0 0 0 767.60 406.40
  L 767.54 406.42
  A 2.36 2.35 86.5 0 0 765.71 408.50
  Q 765.07 415.45 765.28 423.75
  Q 765.40 428.47 764.41 438.77
  C 763.30 450.37 762.94 459.39 761.90 469.20
  A 0.52 0.52 0.0 0 1 761.11 469.59
  Q 759.75 468.77 759.27 466.94
  Q 758.28 463.08 756.67 455.90
  A 7.92 7.12 -67.0 0 0 756.16 454.41
  Q 754.44 450.77 753.99 449.51
  Q 749.06 435.87 745.65 422.40
  Q 745.38 421.33 742.93 416.94
  A 5.85 5.62 -68.7 0 1 742.44 415.76
  Q 741.42 412.17 740.24 410.71
  A 0.89 0.89 0.0 0 0 738.65 411.22
  C 738.49 413.84 738.43 414.98 739.13 417.32
  Q 741.57 425.50 743.58 431.91
  C 745.54 438.14 746.22 443.47 747.42 450.79
  Q 748.03 454.50 748.66 460.79
  Q 749.27 466.80 751.62 474.62
  C 752.76 478.41 755.42 479.96 755.90 484.22
  C 756.18 486.69 754.66 487.74 752.58 488.11
  A 1.13 1.12 -85.6 0 1 751.32 486.64
  Q 752.55 482.95 751.12 480.11
  Q 749.05 476.00 747.65 471.99
  A 4.07 3.85 20.8 0 0 747.21 471.08
  Q 745.37 468.24 739.63 459.34
  C 737.44 455.95 735.93 452.55 734.04 449.43
  A 5.69 5.42 9.9 0 0 733.39 448.55
  Q 726.89 441.24 722.90 432.49
  Q 722.89 432.47 722.88 432.45
  L 713.68 419.26
  A 1.05 1.04 -17.2 0 0 712.82 418.81
  L 712.66 418.81
  A 0.72 0.72 0.0 0 0 712.07 419.82
  C 713.75 423.63 715.19 427.23 717.17 430.98
  Q 721.93 439.96 723.03 442.73
  Q 726.43 451.30 730.17 457.35
  C 733.80 463.22 734.88 466.29 737.86 472.93
  C 739.55 476.71 743.20 479.85 744.67 483.01
  A 3.87 3.87 0.0 0 1 744.94 483.82
  Q 745.39 485.88 744.71 487.40
  A 0.99 0.99 0.0 0 1 742.93 487.46
  C 741.92 485.57 741.76 483.47 740.34 482.08
  Q 725.50 467.43 707.70 452.18
  C 703.17 448.30 699.12 444.26 695.82 440.92
  Q 693.44 438.51 691.29 437.45
  A 0.45 0.45 0.0 0 0 690.65 437.95
  Q 691.03 439.57 692.45 441.49
  Q 695.61 445.72 700.22 450.70
  Q 705.70 456.62 708.61 460.16
  C 715.55 468.62 720.68 474.41 726.50 481.21
  A 2.79 2.73 -0.7 0 0 726.95 481.64
  Q 729.82 483.91 731.70 486.58
  A 2.81 2.69 1.7 0 0 732.30 487.19
  Q 734.77 489.07 735.45 490.39
  A 1.05 1.05 0.0 0 1 734.05 491.80
  Q 728.30 488.94 723.07 484.78
  A 13.12 12.96 78.3 0 0 721.16 483.51
  Q 715.87 480.61 706.75 476.74
  C 701.79 474.63 698.44 472.29 692.24 468.63
  A 0.17 0.02 38.0 0 1 692.19 468.60
  L 674.34 460.74
  A 0.75 0.75 0.0 0 0 673.32 461.65
  L 673.49 462.18
  A 3.40 3.37 -89.0 0 0 675.25 464.02
  Q 679.05 465.75 681.90 468.39
  C 683.79 470.15 685.92 470.58 687.87 472.29
  C 690.50 474.60 693.18 476.26 696.64 479.03
  Q 698.64 480.63 703.29 483.48
  Q 708.40 486.60 714.36 491.40
  Q 715.50 492.31 721.48 495.05
  Q 722.79 495.65 726.65 499.08
  A 5.37 5.34 80.2 0 0 727.58 499.74
  Q 730.69 501.45 731.85 502.74
  A 1.00 0.99 82.2 0 1 730.67 504.30
  C 727.41 502.68 724.89 500.24 721.74 499.41
  Q 706.28 495.33 691.56 491.93
  C 683.79 490.13 674.58 488.78 666.86 490.86
  A 0.42 0.42 0.0 0 0 666.68 491.56
  Q 667.13 492.00 667.99 492.06
  C 674.07 492.48 680.92 493.46 685.77 497.10
  Q 687.49 498.38 689.62 498.91
  Q 691.27 499.32 693.65 500.47
  A 1.99 1.81 56.4 0 0 694.33 500.64
  Q 695.29 500.68 695.86 501.19
  A 2.54 0.63 50.4 0 0 696.66 501.78
  Q 702.30 504.58 706.12 505.65
  Q 711.60 507.20 715.37 508.55
  Q 716.59 508.98 725.27 512.00
  Q 725.83 512.20 725.93 512.56
  A 0.61 0.61 0.0 0 1 725.35 513.34
  Q 709.16 513.28 689.33 514.20
  Q 687.40 514.29 686.08 515.30
  A 2.04 1.99 20.3 0 1 685.25 515.67
  Q 682.95 516.11 681.75 516.10
  Q 672.30 516.04 667.45 516.53
  Q 665.83 516.70 664.80 517.21
  A 0.79 0.79 0.0 0 0 665.21 518.70
  C 668.14 518.47 671.62 519.53 675.10 519.81
  Q 687.95 520.85 695.01 520.78
  Q 698.17 520.75 705.45 521.44
  Q 712.96 522.14 720.27 520.74
  A 6.04 6.00 -47.5 0 1 721.96 520.66
  Q 726.22 521.02 728.95 517.13
  A 3.73 3.73 0.0 0 1 732.08 515.54
  L 741.70 515.72
  A 1.20 1.20 0.0 0 1 742.75 516.37
  Q 744.26 519.29 743.81 523.18
  A 0.92 0.92 0.0 0 1 741.99 523.22
  C 741.38 519.59 738.43 519.69 735.09 519.51
  Q 730.47 519.27 727.35 522.51
  Q 726.80 523.08 723.47 523.65
  A 6.70 6.31 -59.9 0 0 722.03 524.08
  Q 718.17 525.78 716.35 526.39
  Q 690.54 535.03 690.37 535.13
  Q 687.45 537.00 686.18 538.17
  Q 684.39 539.83 680.98 540.50
  Q 673.62 541.94 670.76 542.28
  Q 666.98 542.74 664.00 544.11
  A 0.40 0.40 0.0 0 0 664.22 544.87
  Q 669.67 544.05 678.42 544.42
  C 681.28 544.54 684.92 543.96 687.42 543.60
  C 693.57 542.72 701.40 540.33 705.78 539.56
  C 711.59 538.54 715.79 536.49 722.01 534.46
  Q 725.26 533.40 726.55 532.39
  C 728.78 530.63 731.48 527.68 734.39 527.60
  A 0.55 0.55 0.0 0 1 734.78 528.55
  L 725.18 537.46
  A 3.52 3.33 8.0 0 1 724.42 538.00
  Q 715.66 542.80 709.38 547.78
  C 705.72 550.68 702.50 552.13 698.21 554.72
  Q 692.92 557.92 688.79 562.04
  Q 688.54 562.29 675.76 570.29
  Q 674.53 571.06 673.33 572.34
  A 0.76 0.76 0.0 0 0 674.14 573.57
  Q 681.86 570.85 691.24 566.23
  Q 694.86 564.44 705.56 558.06
  Q 707.10 557.14 710.90 555.84
  C 716.36 553.97 720.55 551.33 725.92 547.43
  Q 727.47 546.30 735.87 541.62
  Q 736.51 541.26 736.78 540.39
  A 0.34 0.34 0.0 0 1 737.41 540.36
  Q 737.55 540.69 737.42 541.03
  A 0.70 0.68 -89.6 0 1 737.02 541.44
  Q 736.93 541.48 736.87 541.51
  A 1.01 1.00 78.3 0 0 736.34 542.33
  C 736.21 544.54 732.32 547.97 729.95 550.28
  Q 727.81 552.36 724.30 556.44
  Q 707.04 576.50 706.39 577.31
  C 702.03 582.70 696.96 587.71 691.59 593.83
  Q 690.91 594.61 690.71 596.04
  A 0.36 0.36 0.0 0 0 691.25 596.40
  C 696.40 593.55 700.35 589.01 704.32 585.79
  Q 708.80 582.16 713.89 577.39
  Q 721.15 570.58 732.61 560.36
  Q 738.30 555.27 742.43 548.16
  Q 742.93 547.30 744.06 547.26
  A 1.33 1.30 -3.7 0 1 745.42 548.43
  Q 745.62 550.57 744.24 552.27
  C 741.27 555.92 738.33 560.36 736.65 564.78
  C 735.27 568.40 733.82 571.63 731.84 574.95
  C 729.16 579.44 727.44 581.89 725.77 586.20
  Q 722.01 595.92 716.85 604.37
  C 715.14 607.17 713.50 611.49 712.93 613.79
  A 0.57 0.57 0.0 0 0 713.88 614.33
  L 715.38 612.84
  A 1.80 1.70 -9.7 0 0 715.68 612.44
  Q 718.47 607.46 721.35 603.83
  C 723.88 600.65 725.75 596.20 728.60 592.27
  Q 731.36 588.45 734.30 584.53
  A 9.02 8.76 -15.3 0 0 735.32 582.80
  Q 736.23 580.79 737.51 578.77
  Q 745.70 565.86 747.24 563.60
  A 5.33 5.18 71.9 0 0 747.93 562.19
  Q 748.80 559.42 750.32 557.48
  A 3.00 2.95 72.2 0 0 750.85 556.43
  Q 752.60 550.43 749.19 546.42
  C 748.00 545.02 747.56 543.37 747.65 541.73
  A 0.97 0.96 -65.7 0 0 747.37 540.98
  L 745.95 539.57
  A 1.08 1.05 26.9 0 1 745.65 538.70
  L 745.71 538.20
  A 0.78 0.78 0.0 0 1 747.04 537.74
  L 748.62 539.32
  A 0.95 0.95 0.0 0 1 748.84 540.32
  Q 748.62 540.91 748.83 541.54
  A 0.90 0.85 16.5 0 0 748.93 541.71"
/>
<path stroke="#9c9fcc" vector-effect="non-scaling-stroke" d="
  M 770.78 491.47
  L 777.37 493.67
  A 0.16 0.16 0.0 0 0 777.57 493.57
  L 777.61 493.46
  A 3.37 1.52 18.5 0 0 774.89 490.95
  L 774.40 490.78
  A 3.37 1.52 18.5 0 0 770.72 491.16
  L 770.68 491.27
  A 0.16 0.16 0.0 0 0 770.78 491.47"
/>
<path stroke="#9c9fcc" vector-effect="non-scaling-stroke" d="
  M 754.22 497.67
  Q 755.56 495.57 754.39 495.16
  A 3.09 2.96 -70.7 0 0 750.57 497.10
  Q 750.35 497.71 748.66 498.80
  A 0.43 0.43 0.0 0 0 748.72 499.56
  L 749.19 499.77
  A 1.07 1.06 -46.6 0 0 750.10 499.74
  L 753.20 498.11"
/>
<path stroke="#1d2287" vector-effect="non-scaling-stroke" d="
  M 753.20 498.11
  Q 753.81 498.94 752.88 499.38
  C 749.39 501.02 749.33 502.96 747.77 505.79
  A 3.46 3.27 -8.7 0 1 747.14 506.60
  Q 744.74 508.84 745.09 512.29
  A 2.08 2.03 -34.5 0 1 744.86 513.45
  Q 743.93 515.17 744.15 516.77
  Q 744.86 522.02 744.01 527.09
  A 0.89 0.88 21.7 0 0 744.40 527.98
  Q 748.12 530.43 750.22 534.53"
/>
<path stroke="#9c9fcc" vector-effect="non-scaling-stroke" d="
  M 750.22 534.53
  L 747.12 531.46
  A 2.30 2.27 73.2 0 0 745.98 530.84
  Q 744.03 530.43 740.95 531.20
  A 0.96 0.95 83.4 0 0 740.23 532.12
  L 740.13 537.10
  A 0.79 0.78 10.4 0 0 740.65 537.85
  Q 741.70 538.22 743.31 537.78
  A 0.81 0.80 8.8 0 0 743.79 537.43
  L 744.94 535.66
  A 1.40 1.39 29.4 0 1 746.73 535.17
  L 752.15 537.84
  A 0.71 0.71 0.0 0 0 753.17 537.29
  Q 753.18 537.23 752.53 536.91"
/>
<path stroke="#1d2287" vector-effect="non-scaling-stroke" d="
  M 752.53 536.91
  Q 752.48 536.80 752.50 536.64
  A 0.15 0.15 0.0 0 1 752.72 536.52
  Q 753.79 537.14 754.55 538.23
  A 1.22 1.21 80.8 0 0 755.23 538.72
  Q 756.60 539.14 758.57 540.70
  A 1.41 1.28 -16.7 0 0 759.07 540.94
  L 764.52 542.32
  A 0.60 0.43 -27.9 0 0 764.67 542.34
  Q 768.35 542.27 771.97 542.64"
/>
<path stroke="#9c9fcc" vector-effect="non-scaling-stroke" d="
  M 771.97 542.64
  L 760.17 542.88
  A 0.85 0.85 0.0 0 0 759.72 544.44
  C 761.01 545.31 762.49 545.41 764.16 545.02
  Q 767.64 544.21 771.48 545.02
  A 0.97 0.82 -35.9 0 0 771.75 545.04
  L 778.61 544.44
  A 0.98 0.96 -73.5 0 0 779.33 544.04
  L 781.52 541.04
  A 0.97 0.96 -71.9 0 1 782.30 540.64
  Q 785.20 540.65 786.40 541.74
  A 1.71 1.71 0.0 0 0 788.65 541.77
  C 790.96 539.80 793.35 538.81 794.57 535.79
  Q 795.09 534.51 794.14 533.79
  A 0.79 0.76 16.6 0 1 793.83 533.24
  Q 793.74 532.11 792.40 530.97
  A 1.13 1.13 0.0 0 1 792.01 530.21
  L 791.93 529.47
  A 1.05 1.05 0.0 0 0 790.04 528.97
  Q 788.56 531.01 787.87 533.37
  A 1.69 1.65 -13.7 0 1 787.39 534.14
  L 785.33 536.02"
/>
<path stroke="#1d2287" vector-effect="non-scaling-stroke" d="
  M 785.33 536.02
  Q 787.52 530.79 790.97 526.27
  A 0.16 0.16 0.0 0 1 791.20 526.25
  Q 791.30 526.34 791.32 526.34
  A 0.31 0.31 0.0 0 0 791.66 526.02
  L 791.44 521.23
  A 3.35 3.14 -43.1 0 1 791.49 520.47
  Q 792.02 517.75 791.43 515.37
  C 788.64 504.07 782.52 495.33 770.93 493.26
  Q 766.58 492.48 762.15 493.78
  Q 757.92 495.01 754.22 497.67"
/>
<path stroke="#8182ba" vector-effect="non-scaling-stroke" d="
  M 785.33 536.02
  L 781.97 539.47
  A 1.70 1.64 -75.0 0 1 781.27 539.89
  L 771.97 542.64"
/>
<path stroke="#8182ba" vector-effect="non-scaling-stroke" d="
  M 752.53 536.91
  L 750.22 534.53"
/>
<path stroke="#8182ba" vector-effect="non-scaling-stroke" d="
  M 753.20 498.11
  L 754.22 497.67"
/>
<path stroke="#9c9fcc" vector-effect="non-scaling-stroke" d="
  M 743.86 502.14
  Q 744.88 500.15 746.36 498.96
  A 1.95 1.91 71.7 0 0 747.08 497.49
  L 747.10 496.45
  A 0.81 0.81 0.0 0 0 745.75 495.83
  L 741.84 499.30
  A 1.55 1.48 77.9 0 0 741.38 500.05
  Q 740.88 501.95 742.93 502.54
  A 0.79 0.79 0.0 0 0 743.86 502.14"
/>
<path stroke="#9c9fcc" vector-effect="non-scaling-stroke" d="
  M 794.8536 498.8953
  A 2.17 1.42 -43.9 0 0 792.3054 499.3768
  A 2.17 1.42 -43.9 0 0 791.7264 501.9047
  A 2.17 1.42 -43.9 0 0 794.2746 501.4232
  A 2.17 1.42 -43.9 0 0 794.8536 498.8953"
/>
<path stroke="#1d2287" vector-effect="non-scaling-stroke" d="
  M 787.49 503.57
  A 0.26 0.26 0.0 0 0 787.95 503.32
  L 786.72 500.43
  A 0.57 0.57 0.0 0 0 786.42 500.13
  L 785.40 499.68
  A 0.27 0.27 0.0 0 0 785.07 500.09
  L 787.49 503.57"
/>
<path stroke="#9c9fcc" vector-effect="non-scaling-stroke" d="
  M 793.1611 519.9961
  A 2.04 0.99 -77.8 0 0 791.7624 521.7808
  A 2.04 0.99 -77.8 0 0 792.2989 523.9839
  A 2.04 0.99 -77.8 0 0 793.6976 522.1992
  A 2.04 0.99 -77.8 0 0 793.1611 519.9961"
/>
<path stroke="#89911d" vector-effect="non-scaling-stroke" d="
  M 1536.00 695.26
  Q 1535.23 691.29 1531.56 691.66"
/>
</g>
<path fill="#ff9a33" d="
  M 1536.00 0.00
  L 1536.00 349.63
  Q 1535.60 347.40 1535.64 346.36
  C 1535.78 342.22 1531.06 342.80 1528.87 342.80
  Q 113.98 342.70 34.25 342.83
  Q 20.37 342.85 10.85 342.98
  C 8.11 343.02 6.02 342.60 3.49 342.46
  C -0.23 342.24 0.32 346.25 0.00 348.76
  L 0.00 0.00
  L 1536.00 0.00
  Z"
/>
<path fill="#ffffff" d="
  M 1536.00 349.63
  L 1536.00 391.27
  L 1536.00 633.85
  L 1536.00 681.24
  Q 1535.72 684.75 1535.54 688.25
  Q 1535.34 692.23 1531.56 691.66
  C 1523.88 690.64 1514.60 691.28 1501.00 691.28
  Q 760.25 691.34 19.50 691.37
  Q 10.71 691.37 3.23 691.11
  Q 0.15 691.00 0.00 687.61
  L 0.00 348.76
  C 0.32 346.25 -0.23 342.24 3.49 342.46
  C 6.02 342.60 8.11 343.02 10.85 342.98
  Q 20.37 342.85 34.25 342.83
  Q 113.98 342.70 1528.87 342.80
  C 1531.06 342.80 1535.78 342.22 1535.64 346.36
  Q 1535.60 347.40 1536.00 349.63
  Z
  M 632.34 517.08
  Q 632.33 523.57 632.41 525.54
  Q 632.65 531.43 635.22 548.26
  Q 636.19 554.60 641.07 568.99
  C 642.91 574.43 646.31 579.45 649.19 585.31
  Q 652.27 591.58 656.27 596.99
  Q 663.73 607.07 665.57 609.24
  Q 680.76 627.16 702.49 639.62
  C 710.27 644.08 720.47 648.00 728.59 651.27
  Q 734.45 653.63 741.50 654.54
  C 750.79 655.74 760.24 656.98 769.53 656.75
  Q 787.88 656.28 801.50 653.21
  C 807.15 651.93 813.94 648.73 823.84 644.60
  Q 831.71 641.32 838.76 636.66
  C 850.51 628.89 861.31 620.85 869.25 611.24
  C 875.62 603.51 881.49 596.18 886.14 587.40
  Q 890.72 578.77 892.69 575.18
  C 895.52 570.04 897.12 562.30 898.59 558.53
  Q 900.04 554.84 901.46 545.58
  Q 902.54 538.56 903.73 531.76
  Q 904.63 526.67 904.65 517.76
  Q 904.67 508.85 903.80 503.76
  Q 902.64 496.95 901.60 489.92
  Q 900.22 480.66 898.79 476.96
  C 897.34 473.18 895.78 465.43 892.98 460.28
  Q 891.02 456.68 886.49 448.03
  C 881.88 439.22 876.05 431.87 869.71 424.10
  C 861.82 414.45 851.06 406.36 839.35 398.53
  Q 832.32 393.84 824.47 390.52
  C 814.59 386.34 807.82 383.11 802.17 381.80
  Q 788.57 378.66 770.22 378.10
  C 760.93 377.82 751.48 379.02 742.18 380.17
  Q 735.13 381.04 729.26 383.38
  C 721.12 386.61 710.90 390.47 703.10 394.90
  Q 681.31 407.25 666.03 425.09
  Q 664.18 427.25 656.67 437.30
  Q 652.64 442.69 649.53 448.94
  C 646.62 454.79 643.19 459.79 641.33 465.22
  Q 636.38 479.59 635.37 485.92
  Q 632.72 502.74 632.45 508.63
  Q 632.36 510.60 632.34 517.08
  Z"
/>
<path fill="#020475" d="
  M 904.65 517.76
  Q 904.63 526.67 903.73 531.76
  Q 902.54 538.56 901.46 545.58
  Q 900.04 554.84 898.59 558.53
  C 897.12 562.30 895.52 570.04 892.69 575.18
  Q 890.72 578.77 886.14 587.40
  C 881.49 596.18 875.62 603.51 869.25 611.24
  C 861.31 620.85 850.51 628.89 838.76 636.66
  Q 831.71 641.32 823.84 644.60
  C 813.94 648.73 807.15 651.93 801.50 653.21
  Q 787.88 656.28 769.53 656.75
  C 760.24 656.98 750.79 655.74 741.50 654.54
  Q 734.45 653.63 728.59 651.27
  C 720.47 648.00 710.27 644.08 702.49 639.62
  Q 680.76 627.16 665.57 609.24
  Q 663.73 607.07 656.27 596.99
  Q 652.27 591.58 649.19 585.31
  C 646.31 579.45 642.91 574.43 641.07 568.99
  Q 636.19 554.60 635.22 548.26
  Q 632.65 531.43 632.41 525.54
  Q 632.33 523.57 632.34 517.08
  Q 632.36 510.60 632.45 508.63
  Q 632.72 502.74 635.37 485.92
  Q 636.38 479.59 641.33 465.22
  C 643.19 459.79 646.62 454.79 649.53 448.94
  Q 652.64 442.69 656.67 437.30
  Q 664.18 427.25 666.03 425.09
  Q 681.31 407.25 703.10 394.90
  C 710.90 390.47 721.12 386.61 729.26 383.38
  Q 735.13 381.04 742.18 380.17
  C 751.48 379.02 760.93 377.82 770.22 378.10
  Q 788.57 378.66 802.17 381.80
  C 807.82 383.11 814.59 386.34 824.47 390.52
  Q 832.32 393.84 839.35 398.53
  C 851.06 406.36 861.82 414.45 869.71 424.10
  C 876.05 431.87 881.88 439.22 886.49 448.03
  Q 891.02 456.68 892.98 460.28
  C 895.78 465.43 897.34 473.18 898.79 476.96
  Q 900.22 480.66 901.60 489.92
  Q 902.64 496.95 903.80 503.76
  Q 904.67 508.85 904.65 517.76
  Z
  M 723.70 625.14
  A 3.10 3.08 -15.2 0 1 726.19 626.56
  C 728.26 629.81 730.54 632.64 733.96 634.26
  Q 735.88 635.16 742.41 636.09
  Q 745.05 636.46 748.95 634.43
  A 2.51 2.41 -81.7 0 0 749.67 633.87
  Q 750.98 632.42 751.94 631.97
  A 2.90 2.74 58.0 0 1 755.32 632.85
  C 757.80 635.97 760.63 639.11 764.78 639.65
  C 769.27 640.23 774.69 640.02 777.83 636.64
  Q 781.09 633.14 781.44 632.81
  A 2.82 2.81 -46.9 0 1 785.14 632.68
  L 788.31 635.26
  A 0.63 0.56 -11.7 0 0 788.52 635.38
  C 793.20 637.36 799.98 635.42 804.08 633.20
  A 1.41 1.21 4.5 0 0 804.30 633.04
  L 811.68 626.07
  A 1.09 0.97 -74.7 0 1 811.99 625.87
  Q 815.53 624.42 818.09 625.74
  C 821.73 627.62 822.35 626.66 825.97 624.55
  Q 834.61 619.51 836.47 609.72
  A 2.11 2.10 -82.0 0 1 838.72 608.02
  C 842.18 608.34 846.27 608.63 849.11 606.79
  Q 855.83 602.42 857.56 596.28
  A 1.10 0.97 59.9 0 0 857.61 596.03
  L 858.36 588.71
  A 1.86 1.84 68.2 0 1 858.78 587.72
  C 860.31 585.89 862.50 585.90 865.36 585.61
  A 2.38 2.30 -64.5 0 0 866.48 585.19
  C 869.14 583.31 870.20 581.20 872.24 577.82
  C 875.13 573.05 873.87 568.70 873.21 563.00
  Q 872.88 560.19 875.48 558.69
  Q 880.02 556.07 880.34 555.83
  A 5.87 1.99 -35.0 0 0 880.98 555.32
  C 883.83 552.88 885.67 541.05 883.60 538.47
  Q 881.70 536.09 881.17 533.68
  A 2.53 2.50 -30.6 0 1 881.75 531.48
  Q 883.83 529.12 885.27 527.29
  C 888.26 523.49 888.05 518.24 887.34 512.87
  C 886.79 508.71 883.07 506.58 881.31 502.77
  A 2.81 2.77 -53.6 0 1 881.09 501.24
  C 881.50 498.37 883.57 495.50 884.04 492.82
  Q 885.32 485.51 881.04 479.82
  A 3.75 3.60 88.4 0 0 880.30 479.09
  L 874.63 474.96
  A 3.13 3.13 0.0 0 1 873.35 472.32
  C 873.46 469.15 874.45 464.87 873.77 461.90
  Q 872.17 454.93 866.42 450.33
  A 4.21 3.97 -14.4 0 0 865.24 449.68
  L 859.41 447.62
  A 2.31 2.31 0.0 0 1 857.87 445.50
  C 857.75 440.65 858.10 437.34 855.48 434.02
  Q 851.40 428.86 845.33 427.04
  A 3.68 3.56 -33.4 0 0 844.53 426.89
  L 837.65 426.45
  A 2.05 2.04 85.3 0 1 835.78 424.86
  C 834.65 419.94 834.43 417.30 831.26 414.74
  Q 827.90 412.01 823.69 408.81
  C 821.90 407.45 820.36 407.61 818.35 409.17
  C 815.00 411.77 811.09 409.76 808.84 406.64
  Q 807.59 404.91 806.28 403.34
  A 4.83 4.71 87.4 0 0 805.50 402.61
  Q 800.07 398.55 792.99 398.79
  C 789.63 398.90 787.95 400.39 784.92 402.62
  A 1.94 1.91 -65.2 0 1 783.99 402.97
  Q 781.31 403.24 779.91 401.40
  C 776.91 397.45 775.12 395.21 770.18 395.23
  Q 765.34 395.26 762.82 395.96
  C 759.43 396.90 756.98 399.85 755.04 402.03
  C 753.73 403.50 752.17 404.23 750.85 402.66
  C 748.64 400.03 746.72 398.27 742.99 398.62
  Q 737.17 399.17 732.30 401.68
  A 5.06 4.89 9.9 0 0 731.34 402.33
  Q 728.89 404.40 726.71 407.51
  C 723.84 411.61 720.11 410.09 716.30 408.54
  A 3.94 3.93 -52.3 0 0 712.44 409.04
  Q 707.93 412.44 705.70 413.66
  C 701.95 415.70 701.44 420.49 700.86 424.08
  C 700.51 426.26 699.58 427.26 697.48 427.08
  C 694.50 426.81 692.56 426.48 689.73 427.29
  Q 681.27 429.71 679.25 438.24
  C 678.59 441.04 679.70 447.17 676.29 448.34
  Q 670.77 450.21 670.74 450.23
  A 8.13 7.20 -66.6 0 0 669.79 450.78
  C 662.39 455.79 662.42 463.82 663.13 471.59
  A 3.89 3.87 69.4 0 1 661.55 475.10
  Q 658.28 477.48 657.49 478.19
  C 653.13 482.09 649.47 490.22 653.01 495.77
  Q 655.27 499.32 655.77 500.79
  A 2.47 2.47 0.0 0 1 655.15 503.34
  C 652.54 505.87 650.11 508.45 649.46 512.00
  C 648.62 516.57 648.42 521.67 650.81 525.63
  Q 651.05 526.04 654.03 530.71
  Q 656.14 534.01 654.32 536.40
  Q 650.23 541.76 651.91 547.75
  C 653.59 553.76 656.06 555.66 661.61 559.25
  A 2.24 2.10 -1.9 0 1 662.10 559.68
  Q 663.32 561.17 663.12 563.26
  Q 662.51 569.40 662.42 570.81
  A 6.54 6.41 -49.6 0 0 662.54 572.49
  Q 663.74 578.47 668.50 583.33
  C 670.60 585.47 673.47 585.88 676.49 586.23
  A 2.38 2.37 3.8 0 1 678.59 588.62
  C 678.53 593.28 677.86 597.25 681.14 601.30
  Q 687.92 609.68 698.35 608.12
  A 1.53 1.52 -9.5 0 1 700.07 609.34
  C 700.79 613.15 701.65 616.98 704.70 620.04
  Q 708.31 623.68 713.25 626.11
  A 3.61 3.60 -40.9 0 0 715.97 626.30
  Q 719.85 625.02 723.70 625.14
  Z
  M 632.31 522.01
  Q 632.17 523.93 632.57 525.06
  A 0.22 0.22 0.0 0 0 633.00 524.96
  L 632.68 522.00
  A 0.19 0.18 -46.3 0 0 632.31 522.01
  Z"
/>
<path fill="#ff9a33" d="
  M 1536.00 391.27
  L 1536.00 633.85
  L 1536.00 391.27
  Z"
/>
<path fill="#ffffff" d="
  M 723.70 625.14
  Q 719.85 625.02 715.97 626.30
  A 3.61 3.60 -40.9 0 1 713.25 626.11
  Q 708.31 623.68 704.70 620.04
  C 701.65 616.98 700.79 613.15 700.07 609.34
  A 1.53 1.52 -9.5 0 0 698.35 608.12
  Q 687.92 609.68 681.14 601.30
  C 677.86 597.25 678.53 593.28 678.59 588.62
  A 2.38 2.37 3.8 0 0 676.49 586.23
  C 673.47 585.88 670.60 585.47 668.50 583.33
  Q 663.74 578.47 662.54 572.49
  A 6.54 6.41 -49.6 0 1 662.42 570.81
  Q 662.51 569.40 663.12 563.26
  Q 663.32 561.17 662.10 559.68
  A 2.24 2.10 -1.9 0 0 661.61 559.25
  C 656.06 555.66 653.59 553.76 651.91 547.75
  Q 650.23 541.76 654.32 536.40
  Q 656.14 534.01 654.03 530.71
  Q 651.05 526.04 650.81 525.63
  C 648.42 521.67 648.62 516.57 649.46 512.00
  C 650.11 508.45 652.54 505.87 655.15 503.34
  A 2.47 2.47 0.0 0 0 655.77 500.79
  Q 655.27 499.32 653.01 495.77
  C 649.47 490.22 653.13 482.09 657.49 478.19
  Q 658.28 477.48 661.55 475.10
  A 3.89 3.87 69.4 0 0 663.13 471.59
  C 662.42 463.82 662.39 455.79 669.79 450.78
  A 8.13 7.20 -66.6 0 1 670.74 450.23
  Q 670.77 450.21 676.29 448.34
  C 679.70 447.17 678.59 441.04 679.25 438.24
  Q 681.27 429.71 689.73 427.29
  C 692.56 426.48 694.50 426.81 697.48 427.08
  C 699.58 427.26 700.51 426.26 700.86 424.08
  C 701.44 420.49 701.95 415.70 705.70 413.66
  Q 707.93 412.44 712.44 409.04
  A 3.94 3.93 -52.3 0 1 716.30 408.54
  C 720.11 410.09 723.84 411.61 726.71 407.51
  Q 728.89 404.40 731.34 402.33
  A 5.06 4.89 9.9 0 1 732.30 401.68
  Q 737.17 399.17 742.99 398.62
  C 746.72 398.27 748.64 400.03 750.85 402.66
  C 752.17 404.23 753.73 403.50 755.04 402.03
  C 756.98 399.85 759.43 396.90 762.82 395.96
  Q 765.34 395.26 770.18 395.23
  C 775.12 395.21 776.91 397.45 779.91 401.40
  Q 781.31 403.24 783.99 402.97
  A 1.94 1.91 -65.2 0 0 784.92 402.62
  C 787.95 400.39 789.63 398.90 792.99 398.79
  Q 800.07 398.55 805.50 402.61
  A 4.83 4.71 87.4 0 1 806.28 403.34
  Q 807.59 404.91 808.84 406.64
  C 811.09 409.76 815.00 411.77 818.35 409.17
  C 820.36 407.61 821.90 407.45 823.69 408.81
  Q 827.90 412.01 831.26 414.74
  C 834.43 417.30 834.65 419.94 835.78 424.86
  A 2.05 2.04 85.3 0 0 837.65 426.45
  L 844.53 426.89
  A 3.68 3.56 -33.4 0 1 845.33 427.04
  Q 851.40 428.86 855.48 434.02
  C 858.10 437.34 857.75 440.65 857.87 445.50
  A 2.31 2.31 0.0 0 0 859.41 447.62
  L 865.24 449.68
  A 4.21 3.97 -14.4 0 1 866.42 450.33
  Q 872.17 454.93 873.77 461.90
  C 874.45 464.87 873.46 469.15 873.35 472.32
  A 3.13 3.13 0.0 0 0 874.63 474.96
  L 880.30 479.09
  A 3.75 3.60 88.4 0 1 881.04 479.82
  Q 885.32 485.51 884.04 492.82
  C 883.57 495.50 881.50 498.37 881.09 501.24
  A 2.81 2.77 -53.6 0 0 881.31 502.77
  C 883.07 506.58 886.79 508.71 887.34 512.87
  C 888.05 518.24 888.26 523.49 885.27 527.29
  Q 883.83 529.12 881.75 531.48
  A 2.53 2.50 -30.6 0 0 881.17 533.68
  Q 881.70 536.09 883.60 538.47
  C 885.67 541.05 883.83 552.88 880.98 555.32
  A 5.87 1.99 -35.0 0 1 880.34 555.83
  Q 880.02 556.07 875.48 558.69
  Q 872.88 560.19 873.21 563.00
  C 873.87 568.70 875.13 573.05 872.24 577.82
  C 870.20 581.20 869.14 583.31 866.48 585.19
  A 2.38 2.30 -64.5 0 1 865.36 585.61
  C 862.50 585.90 860.31 585.89 858.78 587.72
  A 1.86 1.84 68.2 0 0 858.36 588.71
  L 857.61 596.03
  A 1.10 0.97 59.9 0 1 857.56 596.28
  Q 855.83 602.42 849.11 606.79
  C 846.27 608.63 842.18 608.34 838.72 608.02
  A 2.11 2.10 -82.0 0 0 836.47 609.72
  Q 834.61 619.51 825.97 624.55
  C 822.35 626.66 821.73 627.62 818.09 625.74
  Q 815.53 624.42 811.99 625.87
  A 1.09 0.97 -74.7 0 0 811.68 626.07
  L 804.30 633.04
  A 1.41 1.21 4.5 0 1 804.08 633.20
  C 799.98 635.42 793.20 637.36 788.52 635.38
  A 0.63 0.56 -11.7 0 1 788.31 635.26
  L 785.14 632.68
  A 2.82 2.81 -46.9 0 0 781.44 632.81
  Q 781.09 633.14 777.83 636.64
  C 774.69 640.02 769.27 640.23 764.78 639.65
  C 760.63 639.11 757.80 635.97 755.32 632.85
  A 2.90 2.74 58.0 0 0 751.94 631.97
  Q 750.98 632.42 749.67 633.87
  A 2.51 2.41 -81.7 0 1 748.95 634.43
  Q 745.05 636.46 742.41 636.09
  Q 735.88 635.16 733.96 634.26
  C 730.54 632.64 728.26 629.81 726.19 626.56
  A 3.10 3.08 -15.2 0 0 723.70 625.14
  Z
  M 748.93 541.71
  L 752.89 546.88
  A 1.42 1.38 81.0 0 0 753.49 547.33
  Q 755.06 547.94 755.67 548.72
  A 2.00 1.95 -67.5 0 1 756.07 549.72
  Q 756.42 552.85 754.94 555.26
  A 0.63 0.57 -8.6 0 1 754.81 555.42
  L 752.53 557.89
  A 4.94 4.81 -17.7 0 0 751.35 560.11
  Q 749.07 569.85 748.26 578.99
  C 747.81 584.11 746.54 592.05 744.64 598.85
  Q 740.16 614.96 738.45 621.93
  Q 738.05 623.57 738.50 624.39
  A 0.81 0.80 -45.3 0 0 739.91 624.38
  C 741.57 621.32 742.43 617.99 744.20 615.00
  Q 746.18 611.65 747.64 605.96
  C 749.40 599.07 750.80 595.43 752.56 588.78
  Q 752.99 587.16 755.53 580.17
  Q 757.28 575.33 757.96 568.58
  Q 758.04 567.75 760.02 565.36
  A 1.73 1.65 -19.7 0 0 760.38 564.64
  L 760.63 563.54
  A 0.56 0.56 0.0 0 1 761.73 563.61
  Q 761.77 563.95 761.61 566.69
  A 2.46 2.39 -54.0 0 0 761.76 567.73
  Q 762.69 570.29 762.74 571.13
  C 763.93 590.13 766.43 610.63 767.45 627.27
  A 0.43 0.42 66.9 0 0 768.16 627.56
  C 770.03 625.84 770.44 621.96 770.55 619.75
  Q 771.09 608.56 771.14 598.89
  A 2.78 2.68 -38.2 0 1 771.24 598.16
  Q 772.02 595.28 771.41 590.26
  A 4.33 4.33 0.0 0 1 771.59 588.38
  Q 772.68 585.05 772.25 579.59
  A 5.22 4.54 50.5 0 1 772.27 578.82
  L 773.52 567.92
  A 1.36 1.33 -28.4 0 1 773.65 567.50
  L 775.15 564.39
  A 0.42 0.41 34.1 0 1 775.81 564.27
  Q 776.72 565.10 776.90 565.99
  Q 778.25 572.39 780.74 579.40
  C 783.95 588.44 785.24 594.12 788.44 605.72
  Q 789.95 611.17 791.94 614.87
  Q 794.60 619.80 796.73 623.32
  A 0.52 0.52 0.0 0 0 797.69 623.15
  Q 797.86 622.22 797.45 620.49
  Q 794.49 607.73 791.47 596.51
  Q 789.94 590.82 789.28 586.07
  Q 788.63 581.35 787.12 575.60
  C 786.34 572.58 786.23 568.05 785.25 564.76
  Q 783.38 558.48 781.31 553.81
  C 779.78 550.34 779.07 546.60 782.68 544.62
  A 0.84 0.84 0.0 0 1 783.92 545.32
  L 784.23 552.17
  A 0.77 0.57 -63.0 0 0 784.27 552.41
  Q 786.97 560.72 792.11 568.59
  Q 798.21 577.94 798.67 578.88
  Q 800.57 582.78 805.73 589.50
  Q 809.08 593.87 812.04 599.37
  Q 813.92 602.87 820.97 613.18
  A 0.55 0.55 0.0 0 0 821.96 612.77
  Q 820.96 607.04 817.92 601.34
  Q 812.30 590.80 808.74 582.00
  Q 807.37 578.61 802.58 571.26
  A 6.57 6.17 -74.2 0 1 802.02 570.18
  Q 797.79 559.65 796.54 558.16
  Q 794.30 555.48 790.75 550.80
  Q 789.07 548.58 789.10 545.99
  A 1.42 1.42 0.0 0 1 791.41 544.89
  Q 792.51 545.77 792.67 546.40
  C 793.77 550.70 796.69 553.85 800.52 557.68
  Q 803.71 560.87 805.60 562.41
  C 809.88 565.87 814.04 570.44 817.35 572.98
  C 821.05 575.82 824.92 580.09 828.72 583.04
  Q 833.01 586.37 835.88 589.32
  Q 839.93 593.48 843.19 596.00
  A 0.76 0.76 0.0 0 0 844.38 595.61
  L 844.39 595.56
  A 2.20 2.20 0.0 0 0 843.95 593.52
  C 841.00 590.08 838.31 586.50 835.64 583.65
  Q 830.65 578.32 827.10 573.76
  C 821.46 566.53 814.56 559.99 810.01 553.75
  Q 808.34 551.46 805.78 549.46
  A 3.67 3.60 -87.6 0 1 804.94 548.53
  C 803.46 546.16 800.58 544.70 798.99 542.08
  A 0.60 0.60 0.0 0 1 799.34 541.19
  Q 800.72 540.80 801.84 542.00
  Q 804.22 544.55 806.46 545.54
  C 809.50 546.88 811.06 549.47 813.92 550.81
  Q 819.47 553.41 828.02 556.98
  C 833.53 559.28 840.65 564.36 847.27 567.11
  C 850.67 568.52 856.36 572.17 861.85 573.11
  A 0.62 0.62 0.0 0 0 862.46 572.14
  L 861.96 571.42
  A 3.32 3.27 -9.7 0 0 860.09 570.12
  Q 855.50 568.93 852.74 565.67
  A 2.34 2.24 80.7 0 0 851.93 565.06
  Q 849.99 564.19 844.59 559.17
  C 842.23 556.98 837.44 553.93 833.13 551.74
  Q 829.15 549.72 824.60 545.68
  Q 821.46 542.90 812.46 538.08
  Q 811.42 537.52 811.38 536.49
  A 1.09 1.08 87.6 0 1 812.40 535.37
  Q 815.54 535.17 819.07 536.39
  Q 827.58 539.32 837.85 540.96
  Q 839.84 541.28 840.95 541.68
  Q 847.90 544.17 854.66 544.59
  C 859.15 544.87 863.59 543.80 867.94 543.44
  A 0.47 0.46 -39.6 0 0 868.03 542.53
  Q 865.72 541.90 861.52 541.89
  C 857.08 541.88 851.09 540.77 848.56 536.76
  A 2.24 2.13 0.2 0 0 847.82 536.05
  Q 844.96 534.33 840.74 533.51
  A 4.94 4.34 -24.2 0 1 839.73 533.20
  Q 830.64 529.25 820.79 526.76
  Q 819.33 526.40 816.15 524.37
  A 0.14 0.11 -7.0 0 0 816.10 524.34
  L 806.70 520.57
  A 1.04 0.40 -5.5 0 0 806.52 520.52
  L 800.62 519.39
  A 4.13 4.07 -46.8 0 0 798.81 519.46
  L 796.36 520.12
  A 0.89 0.89 0.0 0 1 795.28 518.99
  Q 796.02 516.73 796.07 515.49
  A 0.12 0.09 -60.9 0 1 796.26 515.41
  Q 796.27 515.44 796.27 515.69
  A 0.04 0.03 59.9 0 0 796.33 515.71
  Q 796.62 515.21 797.01 515.21
  Q 800.03 515.24 801.97 515.74
  Q 803.86 516.22 806.61 517.47
  Q 815.03 521.30 821.74 521.73
  Q 827.99 522.12 837.76 521.31
  C 843.75 520.81 848.86 520.80 854.86 520.25
  A 3.07 2.85 -56.6 0 0 855.68 520.05
  Q 858.43 518.94 860.97 519.37
  Q 861.48 519.46 862.23 518.78
  A 2.32 2.30 -69.0 0 1 863.54 518.19
  L 871.44 517.34
  A 0.61 0.61 0.0 0 0 871.58 516.16
  Q 870.30 515.70 867.92 515.92
  A 1.11 1.10 -24.6 0 1 867.05 515.60
  L 866.69 515.24
  A 1.03 1.01 68.5 0 0 866.02 514.94
  L 860.69 514.60
  A 0.77 0.70 36.2 0 0 860.42 514.63
  Q 856.71 515.68 853.52 514.76
  A 2.06 1.86 -33.9 0 0 852.96 514.68
  Q 848.69 514.72 842.51 513.42
  A 2.06 1.57 -30.9 0 0 842.07 513.37
  L 810.77 512.78
  A 0.74 0.74 0.0 0 1 810.47 511.37
  Q 811.88 510.72 814.04 510.56
  A 1.77 1.70 22.9 0 0 814.98 510.20
  Q 816.44 509.05 823.17 507.63
  Q 830.42 506.10 836.70 503.21
  C 840.78 501.34 845.98 500.14 850.54 498.13
  A 3.25 3.13 -78.3 0 0 851.52 497.46
  C 854.29 494.69 854.98 493.62 859.25 493.00
  C 863.94 492.32 867.72 492.07 869.31 491.13
  A 0.53 0.53 0.0 0 0 869.12 490.15
  Q 858.16 488.42 847.14 491.22
  Q 836.40 493.95 825.51 496.52
  Q 822.51 497.22 821.09 497.80
  Q 817.12 499.40 816.63 499.50
  A 4.97 0.77 -13.2 0 0 815.96 499.63
  Q 814.32 499.94 811.86 500.70
  Q 811.13 500.93 809.12 502.86
  Q 807.22 504.69 804.53 504.65
  A 0.40 0.40 0.0 0 1 804.17 504.08
  Q 805.23 501.77 806.02 501.33
  Q 807.94 500.26 809.04 498.57
  Q 810.32 496.60 813.90 495.16
  C 817.30 493.78 820.94 492.42 823.41 490.12
  Q 823.49 490.05 829.54 485.46
  Q 832.57 483.16 835.98 481.23
  Q 841.02 478.40 845.82 475.02
  A 4.86 4.83 -87.5 0 0 846.70 474.21
  Q 849.74 470.59 854.73 467.02
  Q 856.26 465.92 858.64 464.95
  Q 860.89 464.02 862.25 462.27
  Q 862.84 461.51 862.65 460.80
  A 0.43 0.42 -18.5 0 0 862.07 460.52
  C 854.52 463.76 848.22 466.61 841.16 470.95
  Q 834.48 475.05 827.31 478.06
  Q 817.89 482.02 813.39 484.40
  Q 812.23 485.02 808.72 488.14
  A 1.99 1.58 -73.3 0 1 808.36 488.39
  L 805.47 489.94
  A 7.11 6.77 -78.7 0 0 804.03 490.95
  L 798.58 495.84
  A 0.43 0.43 0.0 0 1 797.86 495.51
  L 797.89 493.64
  A 1.97 1.94 -19.8 0 1 798.58 492.20
  L 803.05 488.40
  A 1.61 1.53 1.4 0 0 803.27 488.20
  L 810.20 481.08
  A 1.04 0.90 85.7 0 0 810.37 480.85
  Q 811.15 479.46 814.26 476.01
  C 824.23 464.97 829.44 458.53 841.03 445.03
  Q 843.60 442.03 844.71 437.75
  A 0.29 0.29 0.0 0 0 844.26 437.44
  C 840.26 440.31 836.89 444.44 833.36 447.66
  Q 821.41 458.56 812.16 466.66
  Q 811.23 467.47 809.85 468.98
  A 9.09 8.75 -86.7 0 1 808.91 469.85
  C 801.10 476.06 796.54 480.27 792.67 488.23
  A 1.13 1.13 0.0 0 1 790.59 488.10
  Q 789.78 485.73 791.61 483.34
  C 794.24 479.90 796.52 477.05 798.47 472.72
  Q 800.05 469.23 803.42 461.94
  Q 803.92 460.85 807.25 455.98
  C 809.04 453.38 809.98 449.34 811.36 446.74
  C 813.54 442.62 815.50 437.03 818.51 432.23
  Q 821.55 427.38 823.10 420.52
  A 0.33 0.33 0.0 0 0 822.54 420.23
  Q 815.23 428.43 810.37 437.99
  C 808.35 441.98 806.16 444.92 803.72 448.28
  Q 802.01 450.65 798.66 455.97
  C 794.03 463.36 791.54 466.81 788.45 472.04
  A 6.12 5.97 70.8 0 0 788.01 472.98
  Q 785.94 478.68 783.98 483.00
  Q 783.63 483.78 783.56 487.87
  A 1.00 0.99 16.7 0 0 784.03 488.73
  L 787.24 490.76
  A 1.06 1.03 1.6 0 1 787.64 491.17
  Q 788.97 493.55 788.64 496.75
  A 0.86 0.86 0.0 0 1 788.00 497.50
  Q 786.89 497.80 785.62 496.85
  A 0.40 0.40 0.0 0 1 785.61 496.22
  Q 786.69 495.35 786.20 493.77
  A 1.23 1.22 -87.4 0 0 785.50 493.00
  Q 783.32 492.06 783.51 489.88
  A 1.04 1.04 0.0 0 0 782.46 488.75
  Q 780.44 488.78 779.77 488.18
  A 1.22 1.22 0.0 0 1 779.38 487.24
  Q 779.56 482.76 781.76 479.89
  Q 783.39 477.78 783.77 476.29
  Q 785.49 469.56 786.41 465.90
  Q 786.68 464.86 788.90 450.63
  C 790.20 442.31 792.32 434.84 794.61 427.01
  C 795.78 423.02 796.14 419.83 797.10 415.37
  Q 797.42 413.88 797.19 412.60
  A 0.60 0.59 58.1 0 0 796.13 412.35
  C 791.15 419.06 789.95 424.34 787.01 435.02
  Q 786.13 438.20 785.09 441.27
  Q 783.04 447.29 783.12 447.49
  Q 783.21 447.70 780.26 456.15
  C 778.32 461.72 777.94 468.25 777.24 473.25
  A 0.91 0.90 -55.3 0 1 775.55 473.56
  Q 775.14 472.81 775.01 471.71
  Q 774.31 465.38 774.26 465.10
  C 773.52 461.23 772.90 455.94 772.69 450.94
  Q 771.86 431.08 769.33 415.44
  Q 769.08 413.92 769.26 407.77
  A 1.36 1.36 0.0 0 0 767.60 406.40
  L 767.54 406.42
  A 2.36 2.35 86.5 0 0 765.71 408.50
  Q 765.07 415.45 765.28 423.75
  Q 765.40 428.47 764.41 438.77
  C 763.30 450.37 762.94 459.39 761.90 469.20
  A 0.52 0.52 0.0 0 1 761.11 469.59
  Q 759.75 468.77 759.27 466.94
  Q 758.28 463.08 756.67 455.90
  A 7.92 7.12 -67.0 0 0 756.16 454.41
  Q 754.44 450.77 753.99 449.51
  Q 749.06 435.87 745.65 422.40
  Q 745.38 421.33 742.93 416.94
  A 5.85 5.62 -68.7 0 1 742.44 415.76
  Q 741.42 412.17 740.24 410.71
  A 0.89 0.89 0.0 0 0 738.65 411.22
  C 738.49 413.84 738.43 414.98 739.13 417.32
  Q 741.57 425.50 743.58 431.91
  C 745.54 438.14 746.22 443.47 747.42 450.79
  Q 748.03 454.50 748.66 460.79
  Q 749.27 466.80 751.62 474.62
  C 752.76 478.41 755.42 479.96 755.90 484.22
  C 756.18 486.69 754.66 487.74 752.58 488.11
  A 1.13 1.12 -85.6 0 1 751.32 486.64
  Q 752.55 482.95 751.12 480.11
  Q 749.05 476.00 747.65 471.99
  A 4.07 3.85 20.8 0 0 747.21 471.08
  Q 745.37 468.24 739.63 459.34
  C 737.44 455.95 735.93 452.55 734.04 449.43
  A 5.69 5.42 9.9 0 0 733.39 448.55
  Q 726.89 441.24 722.90 432.49
  Q 722.89 432.47 722.88 432.45
  L 713.68 419.26
  A 1.05 1.04 -17.2 0 0 712.82 418.81
  L 712.66 418.81
  A 0.72 0.72 0.0 0 0 712.07 419.82
  C 713.75 423.63 715.19 427.23 717.17 430.98
  Q 721.93 439.96 723.03 442.73
  Q 726.43 451.30 730.17 457.35
  C 733.80 463.22 734.88 466.29 737.86 472.93
  C 739.55 476.71 743.20 479.85 744.67 483.01
  A 3.87 3.87 0.0 0 1 744.94 483.82
  Q 745.39 485.88 744.71 487.40
  A 0.99 0.99 0.0 0 1 742.93 487.46
  C 741.92 485.57 741.76 483.47 740.34 482.08
  Q 725.50 467.43 707.70 452.18
  C 703.17 448.30 699.12 444.26 695.82 440.92
  Q 693.44 438.51 691.29 437.45
  A 0.45 0.45 0.0 0 0 690.65 437.95
  Q 691.03 439.57 692.45 441.49
  Q 695.61 445.72 700.22 450.70
  Q 705.70 456.62 708.61 460.16
  C 715.55 468.62 720.68 474.41 726.50 481.21
  A 2.79 2.73 -0.7 0 0 726.95 481.64
  Q 729.82 483.91 731.70 486.58
  A 2.81 2.69 1.7 0 0 732.30 487.19
  Q 734.77 489.07 735.45 490.39
  A 1.05 1.05 0.0 0 1 734.05 491.80
  Q 728.30 488.94 723.07 484.78
  A 13.12 12.96 78.3 0 0 721.16 483.51
  Q 715.87 480.61 706.75 476.74
  C 701.79 474.63 698.44 472.29 692.24 468.63
  A 0.17 0.02 38.0 0 1 692.19 468.60
  L 674.34 460.74
  A 0.75 0.75 0.0 0 0 673.32 461.65
  L 673.49 462.18
  A 3.40 3.37 -89.0 0 0 675.25 464.02
  Q 679.05 465.75 681.90 468.39
  C 683.79 470.15 685.92 470.58 687.87 472.29
  C 690.50 474.60 693.18 476.26 696.64 479.03
  Q 698.64 480.63 703.29 483.48
  Q 708.40 486.60 714.36 491.40
  Q 715.50 492.31 721.48 495.05
  Q 722.79 495.65 726.65 499.08
  A 5.37 5.34 80.2 0 0 727.58 499.74
  Q 730.69 501.45 731.85 502.74
  A 1.00 0.99 82.2 0 1 730.67 504.30
  C 727.41 502.68 724.89 500.24 721.74 499.41
  Q 706.28 495.33 691.56 491.93
  C 683.79 490.13 674.58 488.78 666.86 490.86
  A 0.42 0.42 0.0 0 0 666.68 491.56
  Q 667.13 492.00 667.99 492.06
  C 674.07 492.48 680.92 493.46 685.77 497.10
  Q 687.49 498.38 689.62 498.91
  Q 691.27 499.32 693.65 500.47
  A 1.99 1.81 56.4 0 0 694.33 500.64
  Q 695.29 500.68 695.86 501.19
  A 2.54 0.63 50.4 0 0 696.66 501.78
  Q 702.30 504.58 706.12 505.65
  Q 711.60 507.20 715.37 508.55
  Q 716.59 508.98 725.27 512.00
  Q 725.83 512.20 725.93 512.56
  A 0.61 0.61 0.0 0 1 725.35 513.34
  Q 709.16 513.28 689.33 514.20
  Q 687.40 514.29 686.08 515.30
  A 2.04 1.99 20.3 0 1 685.25 515.67
  Q 682.95 516.11 681.75 516.10
  Q 672.30 516.04 667.45 516.53
  Q 665.83 516.70 664.80 517.21
  A 0.79 0.79 0.0 0 0 665.21 518.70
  C 668.14 518.47 671.62 519.53 675.10 519.81
  Q 687.95 520.85 695.01 520.78
  Q 698.17 520.75 705.45 521.44
  Q 712.96 522.14 720.27 520.74
  A 6.04 6.00 -47.5 0 1 721.96 520.66
  Q 726.22 521.02 728.95 517.13
  A 3.73 3.73 0.0 0 1 732.08 515.54
  L 741.70 515.72
  A 1.20 1.20 0.0 0 1 742.75 516.37
  Q 744.26 519.29 743.81 523.18
  A 0.92 0.92 0.0 0 1 741.99 523.22
  C 741.38 519.59 738.43 519.69 735.09 519.51
  Q 730.47 519.27 727.35 522.51
  Q 726.80 523.08 723.47 523.65
  A 6.70 6.31 -59.9 0 0 722.03 524.08
  Q 718.17 525.78 716.35 526.39
  Q 690.54 535.03 690.37 535.13
  Q 687.45 537.00 686.18 538.17
  Q 684.39 539.83 680.98 540.50
  Q 673.62 541.94 670.76 542.28
  Q 666.98 542.74 664.00 544.11
  A 0.40 0.40 0.0 0 0 664.22 544.87
  Q 669.67 544.05 678.42 544.42
  C 681.28 544.54 684.92 543.96 687.42 543.60
  C 693.57 542.72 701.40 540.33 705.78 539.56
  C 711.59 538.54 715.79 536.49 722.01 534.46
  Q 725.26 533.40 726.55 532.39
  C 728.78 530.63 731.48 527.68 734.39 527.60
  A 0.55 0.55 0.0 0 1 734.78 528.55
  L 725.18 537.46
  A 3.52 3.33 8.0 0 1 724.42 538.00
  Q 715.66 542.80 709.38 547.78
  C 705.72 550.68 702.50 552.13 698.21 554.72
  Q 692.92 557.92 688.79 562.04
  Q 688.54 562.29 675.76 570.29
  Q 674.53 571.06 673.33 572.34
  A 0.76 0.76 0.0 0 0 674.14 573.57
  Q 681.86 570.85 691.24 566.23
  Q 694.86 564.44 705.56 558.06
  Q 707.10 557.14 710.90 555.84
  C 716.36 553.97 720.55 551.33 725.92 547.43
  Q 727.47 546.30 735.87 541.62
  Q 736.51 541.26 736.78 540.39
  A 0.34 0.34 0.0 0 1 737.41 540.36
  Q 737.55 540.69 737.42 541.03
  A 0.70 0.68 -89.6 0 1 737.02 541.44
  Q 736.93 541.48 736.87 541.51
  A 1.01 1.00 78.3 0 0 736.34 542.33
  C 736.21 544.54 732.32 547.97 729.95 550.28
  Q 727.81 552.36 724.30 556.44
  Q 707.04 576.50 706.39 577.31
  C 702.03 582.70 696.96 587.71 691.59 593.83
  Q 690.91 594.61 690.71 596.04
  A 0.36 0.36 0.0 0 0 691.25 596.40
  C 696.40 593.55 700.35 589.01 704.32 585.79
  Q 708.80 582.16 713.89 577.39
  Q 721.15 570.58 732.61 560.36
  Q 738.30 555.27 742.43 548.16
  Q 742.93 547.30 744.06 547.26
  A 1.33 1.30 -3.7 0 1 745.42 548.43
  Q 745.62 550.57 744.24 552.27
  C 741.27 555.92 738.33 560.36 736.65 564.78
  C 735.27 568.40 733.82 571.63 731.84 574.95
  C 729.16 579.44 727.44 581.89 725.77 586.20
  Q 722.01 595.92 716.85 604.37
  C 715.14 607.17 713.50 611.49 712.93 613.79
  A 0.57 0.57 0.0 0 0 713.88 614.33
  L 715.38 612.84
  A 1.80 1.70 -9.7 0 0 715.68 612.44
  Q 718.47 607.46 721.35 603.83
  C 723.88 600.65 725.75 596.20 728.60 592.27
  Q 731.36 588.45 734.30 584.53
  A 9.02 8.76 -15.3 0 0 735.32 582.80
  Q 736.23 580.79 737.51 578.77
  Q 745.70 565.86 747.24 563.60
  A 5.33 5.18 71.9 0 0 747.93 562.19
  Q 748.80 559.42 750.32 557.48
  A 3.00 2.95 72.2 0 0 750.85 556.43
  Q 752.60 550.43 749.19 546.42
  C 748.00 545.02 747.56 543.37 747.65 541.73
  A 0.97 0.96 -65.7 0 0 747.37 540.98
  L 745.95 539.57
  A 1.08 1.05 26.9 0 1 745.65 538.70
  L 745.71 538.20
  A 0.78 0.78 0.0 0 1 747.04 537.74
  L 748.62 539.32
  A 0.95 0.95 0.0 0 1 748.84 540.32
  Q 748.62 540.91 748.83 541.54
  A 0.90 0.85 16.5 0 0 748.93 541.71
  Z"
/>
<path fill="#383f99" d="
  M 748.83 541.54
  Q 748.62 540.91 748.84 540.32
  A 0.95 0.95 0.0 0 0 748.62 539.32
  L 747.04 537.74
  A 0.78 0.78 0.0 0 0 745.71 538.20
  L 745.65 538.70
  A 1.08 1.05 26.9 0 0 745.95 539.57
  L 747.37 540.98
  A 0.97 0.96 -65.7 0 1 747.65 541.73
  C 747.56 543.37 748.00 545.02 749.19 546.42
  Q 752.60 550.43 750.85 556.43
  A 3.00 2.95 72.2 0 1 750.32 557.48
  Q 748.80 559.42 747.93 562.19
  A 5.33 5.18 71.9 0 1 747.24 563.60
  Q 745.70 565.86 737.51 578.77
  Q 736.23 580.79 735.32 582.80
  A 9.02 8.76 -15.3 0 1 734.30 584.53
  Q 731.36 588.45 728.60 592.27
  C 725.75 596.20 723.88 600.65 721.35 603.83
  Q 718.47 607.46 715.68 612.44
  A 1.80 1.70 -9.7 0 1 715.38 612.84
  L 713.88 614.33
  A 0.57 0.57 0.0 0 1 712.93 613.79
  C 713.50 611.49 715.14 607.17 716.85 604.37
  Q 722.01 595.92 725.77 586.20
  C 727.44 581.89 729.16 579.44 731.84 574.95
  C 733.82 571.63 735.27 568.40 736.65 564.78
  C 738.33 560.36 741.27 555.92 744.24 552.27
  Q 745.62 550.57 745.42 548.43
  A 1.33 1.30 -3.7 0 0 744.06 547.26
  Q 742.93 547.30 742.43 548.16
  Q 738.30 555.27 732.61 560.36
  Q 721.15 570.58 713.89 577.39
  Q 708.80 582.16 704.32 585.79
  C 700.35 589.01 696.40 593.55 691.25 596.40
  A 0.36 0.36 0.0 0 1 690.71 596.04
  Q 690.91 594.61 691.59 593.83
  C 696.96 587.71 702.03 582.70 706.39 577.31
  Q 707.04 576.50 724.30 556.44
  Q 727.81 552.36 729.95 550.28
  C 732.32 547.97 736.21 544.54 736.34 542.33
  A 1.01 1.00 78.3 0 1 736.87 541.51
  Q 736.93 541.48 737.02 541.44
  A 0.70 0.68 -89.6 0 0 737.42 541.03
  Q 737.55 540.69 737.41 540.36
  A 0.34 0.34 0.0 0 0 736.78 540.39
  Q 736.51 541.26 735.87 541.62
  Q 727.47 546.30 725.92 547.43
  C 720.55 551.33 716.36 553.97 710.90 555.84
  Q 707.10 557.14 705.56 558.06
  Q 694.86 564.44 691.24 566.23
  Q 681.86 570.85 674.14 573.57
  A 0.76 0.76 0.0 0 1 673.33 572.34
  Q 674.53 571.06 675.76 570.29
  Q 688.54 562.29 688.79 562.04
  Q 692.92 557.92 698.21 554.72
  C 702.50 552.13 705.72 550.68 709.38 547.78
  Q 715.66 542.80 724.42 538.00
  A 3.52 3.33 8.0 0 0 725.18 537.46
  L 734.78 528.55
  A 0.55 0.55 0.0 0 0 734.39 527.60
  C 731.48 527.68 728.78 530.63 726.55 532.39
  Q 725.26 533.40 722.01 534.46
  C 715.79 536.49 711.59 538.54 705.78 539.56
  C 701.40 540.33 693.57 542.72 687.42 543.60
  C 684.92 543.96 681.28 544.54 678.42 544.42
  Q 669.67 544.05 664.22 544.87
  A 0.40 0.40 0.0 0 1 664.00 544.11
  Q 666.98 542.74 670.76 542.28
  Q 673.62 541.94 680.98 540.50
  Q 684.39 539.83 686.18 538.17
  Q 687.45 537.00 690.37 535.13
  Q 690.54 535.03 716.35 526.39
  Q 718.17 525.78 722.03 524.08
  A 6.70 6.31 -59.9 0 1 723.47 523.65
  Q 726.80 523.08 727.35 522.51
  Q 730.47 519.27 735.09 519.51
  C 738.43 519.69 741.38 519.59 741.99 523.22
  A 0.92 0.92 0.0 0 0 743.81 523.18
  Q 744.26 519.29 742.75 516.37
  A 1.20 1.20 0.0 0 0 741.70 515.72
  L 732.08 515.54
  A 3.73 3.73 0.0 0 0 728.95 517.13
  Q 726.22 521.02 721.96 520.66
  A 6.04 6.00 -47.5 0 0 720.27 520.74
  Q 712.96 522.14 705.45 521.44
  Q 698.17 520.75 695.01 520.78
  Q 687.95 520.85 675.10 519.81
  C 671.62 519.53 668.14 518.47 665.21 518.70
  A 0.79 0.79 0.0 0 1 664.80 517.21
  Q 665.83 516.70 667.45 516.53
  Q 672.30 516.04 681.75 516.10
  Q 682.95 516.11 685.25 515.67
  A 2.04 1.99 20.3 0 0 686.08 515.30
  Q 687.40 514.29 689.33 514.20
  Q 709.16 513.28 725.35 513.34
  A 0.61 0.61 0.0 0 0 725.93 512.56
  Q 725.83 512.20 725.27 512.00
  Q 716.59 508.98 715.37 508.55
  Q 711.60 507.20 706.12 505.65
  Q 702.30 504.58 696.66 501.78
  A 2.54 0.63 50.4 0 1 695.86 501.19
  Q 695.29 500.68 694.33 500.64
  A 1.99 1.81 56.4 0 1 693.65 500.47
  Q 691.27 499.32 689.62 498.91
  Q 687.49 498.38 685.77 497.10
  C 680.92 493.46 674.07 492.48 667.99 492.06
  Q 667.13 492.00 666.68 491.56
  A 0.42 0.42 0.0 0 1 666.86 490.86
  C 674.58 488.78 683.79 490.13 691.56 491.93
  Q 706.28 495.33 721.74 499.41
  C 724.89 500.24 727.41 502.68 730.67 504.30
  A 1.00 0.99 82.2 0 0 731.85 502.74
  Q 730.69 501.45 727.58 499.74
  A 5.37 5.34 80.2 0 1 726.65 499.08
  Q 722.79 495.65 721.48 495.05
  Q 715.50 492.31 714.36 491.40
  Q 708.40 486.60 703.29 483.48
  Q 698.64 480.63 696.64 479.03
  C 693.18 476.26 690.50 474.60 687.87 472.29
  C 685.92 470.58 683.79 470.15 681.90 468.39
  Q 679.05 465.75 675.25 464.02
  A 3.40 3.37 -89.0 0 1 673.49 462.18
  L 673.32 461.65
  A 0.75 0.75 0.0 0 1 674.34 460.74
  L 692.19 468.60
  A 0.17 0.02 38.0 0 0 692.24 468.63
  C 698.44 472.29 701.79 474.63 706.75 476.74
  Q 715.87 480.61 721.16 483.51
  A 13.12 12.96 78.3 0 1 723.07 484.78
  Q 728.30 488.94 734.05 491.80
  A 1.05 1.05 0.0 0 0 735.45 490.39
  Q 734.77 489.07 732.30 487.19
  A 2.81 2.69 1.7 0 1 731.70 486.58
  Q 729.82 483.91 726.95 481.64
  A 2.79 2.73 -0.7 0 1 726.50 481.21
  C 720.68 474.41 715.55 468.62 708.61 460.16
  Q 705.70 456.62 700.22 450.70
  Q 695.61 445.72 692.45 441.49
  Q 691.03 439.57 690.65 437.95
  A 0.45 0.45 0.0 0 1 691.29 437.45
  Q 693.44 438.51 695.82 440.92
  C 699.12 444.26 703.17 448.30 707.70 452.18
  Q 725.50 467.43 740.34 482.08
  C 741.76 483.47 741.92 485.57 742.93 487.46
  A 0.99 0.99 0.0 0 0 744.71 487.40
  Q 745.39 485.88 744.94 483.82
  A 3.87 3.87 0.0 0 0 744.67 483.01
  C 743.20 479.85 739.55 476.71 737.86 472.93
  C 734.88 466.29 733.80 463.22 730.17 457.35
  Q 726.43 451.30 723.03 442.73
  Q 721.93 439.96 717.17 430.98
  C 715.19 427.23 713.75 423.63 712.07 419.82
  A 0.72 0.72 0.0 0 1 712.66 418.81
  L 712.82 418.81
  A 1.05 1.04 -17.2 0 1 713.68 419.26
  L 722.88 432.45
  Q 722.89 432.47 722.90 432.49
  Q 726.89 441.24 733.39 448.55
  A 5.69 5.42 9.9 0 1 734.04 449.43
  C 735.93 452.55 737.44 455.95 739.63 459.34
  Q 745.37 468.24 747.21 471.08
  A 4.07 3.85 20.8 0 1 747.65 471.99
  Q 749.05 476.00 751.12 480.11
  Q 752.55 482.95 751.32 486.64
  A 1.13 1.12 -85.6 0 0 752.58 488.11
  C 754.66 487.74 756.18 486.69 755.90 484.22
  C 755.42 479.96 752.76 478.41 751.62 474.62
  Q 749.27 466.80 748.66 460.79
  Q 748.03 454.50 747.42 450.79
  C 746.22 443.47 745.54 438.14 743.58 431.91
  Q 741.57 425.50 739.13 417.32
  C 738.43 414.98 738.49 413.84 738.65 411.22
  A 0.89 0.89 0.0 0 1 740.24 410.71
  Q 741.42 412.17 742.44 415.76
  A 5.85 5.62 -68.7 0 0 742.93 416.94
  Q 745.38 421.33 745.65 422.40
  Q 749.06 435.87 753.99 449.51
  Q 754.44 450.77 756.16 454.41
  A 7.92 7.12 -67.0 0 1 756.67 455.90
  Q 758.28 463.08 759.27 466.94
  Q 759.75 468.77 761.11 469.59
  A 0.52 0.52 0.0 0 0 761.90 469.20
  C 762.94 459.39 763.30 450.37 764.41 438.77
  Q 765.40 428.47 765.28 423.75
  Q 765.07 415.45 765.71 408.50
  A 2.36 2.35 86.5 0 1 767.54 406.42
  L 767.60 406.40
  A 1.36 1.36 0.0 0 1 769.26 407.77
  Q 769.08 413.92 769.33 415.44
  Q 771.86 431.08 772.69 450.94
  C 772.90 455.94 773.52 461.23 774.26 465.10
  Q 774.31 465.38 775.01 471.71
  Q 775.14 472.81 775.55 473.56
  A 0.91 0.90 -55.3 0 0 777.24 473.25
  C 777.94 468.25 778.32 461.72 780.26 456.15
  Q 783.21 447.70 783.12 447.49
  Q 783.04 447.29 785.09 441.27
  Q 786.13 438.20 787.01 435.02
  C 789.95 424.34 791.15 419.06 796.13 412.35
  A 0.60 0.59 58.1 0 1 797.19 412.60
  Q 797.42 413.88 797.10 415.37
  C 796.14 419.83 795.78 423.02 794.61 427.01
  C 792.32 434.84 790.20 442.31 788.90 450.63
  Q 786.68 464.86 786.41 465.90
  Q 785.49 469.56 783.77 476.29
  Q 783.39 477.78 781.76 479.89
  Q 779.56 482.76 779.38 487.24
  A 1.22 1.22 0.0 0 0 779.77 488.18
  Q 780.44 488.78 782.46 488.75
  A 1.04 1.04 0.0 0 1 783.51 489.88
  Q 783.32 492.06 785.50 493.00
  A 1.23 1.22 -87.4 0 1 786.20 493.77
  Q 786.69 495.35 785.61 496.22
  A 0.40 0.40 0.0 0 0 785.62 496.85
  Q 786.89 497.80 788.00 497.50
  A 0.86 0.86 0.0 0 0 788.64 496.75
  Q 788.97 493.55 787.64 491.17
  A 1.06 1.03 1.6 0 0 787.24 490.76
  L 784.03 488.73
  A 1.00 0.99 16.7 0 1 783.56 487.87
  Q 783.63 483.78 783.98 483.00
  Q 785.94 478.68 788.01 472.98
  A 6.12 5.97 70.8 0 1 788.45 472.04
  C 791.54 466.81 794.03 463.36 798.66 455.97
  Q 802.01 450.65 803.72 448.28
  C 806.16 444.92 808.35 441.98 810.37 437.99
  Q 815.23 428.43 822.54 420.23
  A 0.33 0.33 0.0 0 1 823.10 420.52
  Q 821.55 427.38 818.51 432.23
  C 815.50 437.03 813.54 442.62 811.36 446.74
  C 809.98 449.34 809.04 453.38 807.25 455.98
  Q 803.92 460.85 803.42 461.94
  Q 800.05 469.23 798.47 472.72
  C 796.52 477.05 794.24 479.90 791.61 483.34
  Q 789.78 485.73 790.59 488.10
  A 1.13 1.13 0.0 0 0 792.67 488.23
  C 796.54 480.27 801.10 476.06 808.91 469.85
  A 9.09 8.75 -86.7 0 0 809.85 468.98
  Q 811.23 467.47 812.16 466.66
  Q 821.41 458.56 833.36 447.66
  C 836.89 444.44 840.26 440.31 844.26 437.44
  A 0.29 0.29 0.0 0 1 844.71 437.75
  Q 843.60 442.03 841.03 445.03
  C 829.44 458.53 824.23 464.97 814.26 476.01
  Q 811.15 479.46 810.37 480.85
  A 1.04 0.90 85.7 0 1 810.20 481.08
  L 803.27 488.20
  A 1.61 1.53 1.4 0 1 803.05 488.40
  L 798.58 492.20
  A 1.97 1.94 -19.8 0 0 797.89 493.64
  L 797.86 495.51
  A 0.43 0.43 0.0 0 0 798.58 495.84
  L 804.03 490.95
  A 7.11 6.77 -78.7 0 1 805.47 489.94
  L 808.36 488.39
  A 1.99 1.58 -73.3 0 0 808.72 488.14
  Q 812.23 485.02 813.39 484.40
  Q 817.89 482.02 827.31 478.06
  Q 834.48 475.05 841.16 470.95
  C 848.22 466.61 854.52 463.76 862.07 460.52
  A 0.43 0.42 -18.5 0 1 862.65 460.80
  Q 862.84 461.51 862.25 462.27
  Q 860.89 464.02 858.64 464.95
  Q 856.26 465.92 854.73 467.02
  Q 849.74 470.59 846.70 474.21
  A 4.86 4.83 -87.5 0 1 845.82 475.02
  Q 841.02 478.40 835.98 481.23
  Q 832.57 483.16 829.54 485.46
  Q 823.49 490.05 823.41 490.12
  C 820.94 492.42 817.30 493.78 813.90 495.16
  Q 810.32 496.60 809.04 498.57
  Q 807.94 500.26 806.02 501.33
  Q 805.23 501.77 804.17 504.08
  A 0.40 0.40 0.0 0 0 804.53 504.65
  Q 807.22 504.69 809.12 502.86
  Q 811.13 500.93 811.86 500.70
  Q 814.32 499.94 815.96 499.63
  A 4.97 0.77 -13.2 0 1 816.63 499.50
  Q 817.12 499.40 821.09 497.80
  Q 822.51 497.22 825.51 496.52
  Q 836.40 493.95 847.14 491.22
  Q 858.16 488.42 869.12 490.15
  A 0.53 0.53 0.0 0 1 869.31 491.13
  C 867.72 492.07 863.94 492.32 859.25 493.00
  C 854.98 493.62 854.29 494.69 851.52 497.46
  A 3.25 3.13 -78.3 0 1 850.54 498.13
  C 845.98 500.14 840.78 501.34 836.70 503.21
  Q 830.42 506.10 823.17 507.63
  Q 816.44 509.05 814.98 510.20
  A 1.77 1.70 22.9 0 1 814.04 510.56
  Q 811.88 510.72 810.47 511.37
  A 0.74 0.74 0.0 0 0 810.77 512.78
  L 842.07 513.37
  A 2.06 1.57 -30.9 0 1 842.51 513.42
  Q 848.69 514.72 852.96 514.68
  A 2.06 1.86 -33.9 0 1 853.52 514.76
  Q 856.71 515.68 860.42 514.63
  A 0.77 0.70 36.2 0 1 860.69 514.60
  L 866.02 514.94
  A 1.03 1.01 68.5 0 1 866.69 515.24
  L 867.05 515.60
  A 1.11 1.10 -24.6 0 0 867.92 515.92
  Q 870.30 515.70 871.58 516.16
  A 0.61 0.61 0.0 0 1 871.44 517.34
  L 863.54 518.19
  A 2.32 2.30 -69.0 0 0 862.23 518.78
  Q 861.48 519.46 860.97 519.37
  Q 858.43 518.94 855.68 520.05
  A 3.07 2.85 -56.6 0 1 854.86 520.25
  C 848.86 520.80 843.75 520.81 837.76 521.31
  Q 827.99 522.12 821.74 521.73
  Q 815.03 521.30 806.61 517.47
  Q 803.86 516.22 801.97 515.74
  Q 800.03 515.24 797.01 515.21
  Q 796.62 515.21 796.33 515.71
  A 0.04 0.03 59.9 0 1 796.27 515.69
  Q 796.27 515.44 796.26 515.41
  A 0.12 0.09 -60.9 0 0 796.07 515.49
  Q 796.02 516.73 795.28 518.99
  A 0.89 0.89 0.0 0 0 796.36 520.12
  L 798.81 519.46
  A 4.13 4.07 -46.8 0 1 800.62 519.39
  L 806.52 520.52
  A 1.04 0.40 -5.5 0 1 806.70 520.57
  L 816.10 524.34
  A 0.14 0.11 -7.0 0 1 816.15 524.37
  Q 819.33 526.40 820.79 526.76
  Q 830.64 529.25 839.73 533.20
  A 4.94 4.34 -24.2 0 0 840.74 533.51
  Q 844.96 534.33 847.82 536.05
  A 2.24 2.13 0.2 0 1 848.56 536.76
  C 851.09 540.77 857.08 541.88 861.52 541.89
  Q 865.72 541.90 868.03 542.53
  A 0.47 0.46 -39.6 0 1 867.94 543.44
  C 863.59 543.80 859.15 544.87 854.66 544.59
  Q 847.90 544.17 840.95 541.68
  Q 839.84 541.28 837.85 540.96
  Q 827.58 539.32 819.07 536.39
  Q 815.54 535.17 812.40 535.37
  A 1.09 1.08 87.6 0 0 811.38 536.49
  Q 811.42 537.52 812.46 538.08
  Q 821.46 542.90 824.60 545.68
  Q 829.15 549.72 833.13 551.74
  C 837.44 553.93 842.23 556.98 844.59 559.17
  Q 849.99 564.19 851.93 565.06
  A 2.34 2.24 80.7 0 1 852.74 565.67
  Q 855.50 568.93 860.09 570.12
  A 3.32 3.27 -9.7 0 1 861.96 571.42
  L 862.46 572.14
  A 0.62 0.62 0.0 0 1 861.85 573.11
  C 856.36 572.17 850.67 568.52 847.27 567.11
  C 840.65 564.36 833.53 559.28 828.02 556.98
  Q 819.47 553.41 813.92 550.81
  C 811.06 549.47 809.50 546.88 806.46 545.54
  Q 804.22 544.55 801.84 542.00
  Q 800.72 540.80 799.34 541.19
  A 0.60 0.60 0.0 0 0 798.99 542.08
  C 800.58 544.70 803.46 546.16 804.94 548.53
  A 3.67 3.60 -87.6 0 0 805.78 549.46
  Q 808.34 551.46 810.01 553.75
  C 814.56 559.99 821.46 566.53 827.10 573.76
  Q 830.65 578.32 835.64 583.65
  C 838.31 586.50 841.00 590.08 843.95 593.52
  A 2.20 2.20 0.0 0 1 844.39 595.56
  L 844.38 595.61
  A 0.76 0.76 0.0 0 1 843.19 596.00
  Q 839.93 593.48 835.88 589.32
  Q 833.01 586.37 828.72 583.04
  C 824.92 580.09 821.05 575.82 817.35 572.98
  C 814.04 570.44 809.88 565.87 805.60 562.41
  Q 803.71 560.87 800.52 557.68
  C 796.69 553.85 793.77 550.70 792.67 546.40
  Q 792.51 545.77 791.41 544.89
  A 1.42 1.42 0.0 0 0 789.10 545.99
  Q 789.07 548.58 790.75 550.80
  Q 794.30 555.48 796.54 558.16
  Q 797.79 559.65 802.02 570.18
  A 6.57 6.17 -74.2 0 0 802.58 571.26
  Q 807.37 578.61 808.74 582.00
  Q 812.30 590.80 817.92 601.34
  Q 820.96 607.04 821.96 612.77
  A 0.55 0.55 0.0 0 1 820.97 613.18
  Q 813.92 602.87 812.04 599.37
  Q 809.08 593.87 805.73 589.50
  Q 800.57 582.78 798.67 578.88
  Q 798.21 577.94 792.11 568.59
  Q 786.97 560.72 784.27 552.41
  A 0.77 0.57 -63.0 0 1 784.23 552.17
  L 783.92 545.32
  A 0.84 0.84 0.0 0 0 782.68 544.62
  C 779.07 546.60 779.78 550.34 781.31 553.81
  Q 783.38 558.48 785.25 564.76
  C 786.23 568.05 786.34 572.58 787.12 575.60
  Q 788.63 581.35 789.28 586.07
  Q 789.94 590.82 791.47 596.51
  Q 794.49 607.73 797.45 620.49
  Q 797.86 622.22 797.69 623.15
  A 0.52 0.52 0.0 0 1 796.73 623.32
  Q 794.60 619.80 791.94 614.87
  Q 789.95 611.17 788.44 605.72
  C 785.24 594.12 783.95 588.44 780.74 579.40
  Q 778.25 572.39 776.90 565.99
  Q 776.72 565.10 775.81 564.27
  A 0.42 0.41 34.1 0 0 775.15 564.39
  L 773.65 567.50
  A 1.36 1.33 -28.4 0 0 773.52 567.92
  L 772.27 578.82
  A 5.22 4.54 50.5 0 0 772.25 579.59
  Q 772.68 585.05 771.59 588.38
  A 4.33 4.33 0.0 0 0 771.41 590.26
  Q 772.02 595.28 771.24 598.16
  A 2.78 2.68 -38.2 0 0 771.14 598.89
  Q 771.09 608.56 770.55 619.75
  C 770.44 621.96 770.03 625.84 768.16 627.56
  A 0.43 0.42 66.9 0 1 767.45 627.27
  C 766.43 610.63 763.93 590.13 762.74 571.13
  Q 762.69 570.29 761.76 567.73
  A 2.46 2.39 -54.0 0 1 761.61 566.69
  Q 761.77 563.95 761.73 563.61
  A 0.56 0.56 0.0 0 0 760.63 563.54
  L 760.38 564.64
  A 1.73 1.65 -19.7 0 1 760.02 565.36
  Q 758.04 567.75 757.96 568.58
  Q 757.28 575.33 755.53 580.17
  Q 752.99 587.16 752.56 588.78
  C 750.80 595.43 749.40 599.07 747.64 605.96
  Q 746.18 611.65 744.20 615.00
  C 742.43 617.99 741.57 621.32 739.91 624.38
  A 0.81 0.80 -45.3 0 1 738.50 624.39
  Q 738.05 623.57 738.45 621.93
  Q 740.16 614.96 744.64 598.85
  C 746.54 592.05 747.81 584.11 748.26 578.99
  Q 749.07 569.85 751.35 560.11
  A 4.94 4.81 -17.7 0 1 752.53 557.89
  L 754.81 555.42
  A 0.63 0.57 -8.6 0 0 754.94 555.26
  Q 756.42 552.85 756.07 549.72
  A 2.00 1.95 -67.5 0 0 755.67 548.72
  Q 755.06 547.94 753.49 547.33
  A 1.42 1.38 81.0 0 1 752.89 546.88
  L 748.93 541.71
  A 0.90 0.85 16.5 0 1 748.83 541.54
  Z
  M 770.78 491.47
  L 777.37 493.67
  A 0.16 0.16 0.0 0 0 777.57 493.57
  L 777.61 493.46
  A 3.37 1.52 18.5 0 0 774.89 490.95
  L 774.40 490.78
  A 3.37 1.52 18.5 0 0 770.72 491.16
  L 770.68 491.27
  A 0.16 0.16 0.0 0 0 770.78 491.47
  Z
  M 754.22 497.67
  Q 755.56 495.57 754.39 495.16
  A 3.09 2.96 -70.7 0 0 750.57 497.10
  Q 750.35 497.71 748.66 498.80
  A 0.43 0.43 0.0 0 0 748.72 499.56
  L 749.19 499.77
  A 1.07 1.06 -46.6 0 0 750.10 499.74
  L 753.20 498.11
  Q 753.81 498.94 752.88 499.38
  C 749.39 501.02 749.33 502.96 747.77 505.79
  A 3.46 3.27 -8.7 0 1 747.14 506.60
  Q 744.74 508.84 745.09 512.29
  A 2.08 2.03 -34.5 0 1 744.86 513.45
  Q 743.93 515.17 744.15 516.77
  Q 744.86 522.02 744.01 527.09
  A 0.89 0.88 21.7 0 0 744.40 527.98
  Q 748.12 530.43 750.22 534.53
  L 747.12 531.46
  A 2.30 2.27 73.2 0 0 745.98 530.84
  Q 744.03 530.43 740.95 531.20
  A 0.96 0.95 83.4 0 0 740.23 532.12
  L 740.13 537.10
  A 0.79 0.78 10.4 0 0 740.65 537.85
  Q 741.70 538.22 743.31 537.78
  A 0.81 0.80 8.8 0 0 743.79 537.43
  L 744.94 535.66
  A 1.40 1.39 29.4 0 1 746.73 535.17
  L 752.15 537.84
  A 0.71 0.71 0.0 0 0 753.17 537.29
  Q 753.18 537.23 752.53 536.91
  Q 752.48 536.80 752.50 536.64
  A 0.15 0.15 0.0 0 1 752.72 536.52
  Q 753.79 537.14 754.55 538.23
  A 1.22 1.21 80.8 0 0 755.23 538.72
  Q 756.60 539.14 758.57 540.70
  A 1.41 1.28 -16.7 0 0 759.07 540.94
  L 764.52 542.32
  A 0.60 0.43 -27.9 0 0 764.67 542.34
  Q 768.35 542.27 771.97 542.64
  L 760.17 542.88
  A 0.85 0.85 0.0 0 0 759.72 544.44
  C 761.01 545.31 762.49 545.41 764.16 545.02
  Q 767.64 544.21 771.48 545.02
  A 0.97 0.82 -35.9 0 0 771.75 545.04
  L 778.61 544.44
  A 0.98 0.96 -73.5 0 0 779.33 544.04
  L 781.52 541.04
  A 0.97 0.96 -71.9 0 1 782.30 540.64
  Q 785.20 540.65 786.40 541.74
  A 1.71 1.71 0.0 0 0 788.65 541.77
  C 790.96 539.80 793.35 538.81 794.57 535.79
  Q 795.09 534.51 794.14 533.79
  A 0.79 0.76 16.6 0 1 793.83 533.24
  Q 793.74 532.11 792.40 530.97
  A 1.13 1.13 0.0 0 1 792.01 530.21
  L 791.93 529.47
  A 1.05 1.05 0.0 0 0 790.04 528.97
  Q 788.56 531.01 787.87 533.37
  A 1.69 1.65 -13.7 0 1 787.39 534.14
  L 785.33 536.02
  Q 787.52 530.79 790.97 526.27
  A 0.16 0.16 0.0 0 1 791.20 526.25
  Q 791.30 526.34 791.32 526.34
  A 0.31 0.31 0.0 0 0 791.66 526.02
  L 791.44 521.23
  A 3.35 3.14 -43.1 0 1 791.49 520.47
  Q 792.02 517.75 791.43 515.37
  C 788.64 504.07 782.52 495.33 770.93 493.26
  Q 766.58 492.48 762.15 493.78
  Q 757.92 495.01 754.22 497.67
  Z
  M 743.86 502.14
  Q 744.88 500.15 746.36 498.96
  A 1.95 1.91 71.7 0 0 747.08 497.49
  L 747.10 496.45
  A 0.81 0.81 0.0 0 0 745.75 495.83
  L 741.84 499.30
  A 1.55 1.48 77.9 0 0 741.38 500.05
  Q 740.88 501.95 742.93 502.54
  A 0.79 0.79 0.0 0 0 743.86 502.14
  Z
  M 794.8536 498.8953
  A 2.17 1.42 -43.9 0 0 792.3054 499.3768
  A 2.17 1.42 -43.9 0 0 791.7264 501.9047
  A 2.17 1.42 -43.9 0 0 794.2746 501.4232
  A 2.17 1.42 -43.9 0 0 794.8536 498.8953
  Z
  M 787.49 503.57
  A 0.26 0.26 0.0 0 0 787.95 503.32
  L 786.72 500.43
  A 0.57 0.57 0.0 0 0 786.42 500.13
  L 785.40 499.68
  A 0.27 0.27 0.0 0 0 785.07 500.09
  L 787.49 503.57
  Z
  M 793.1611 519.9961
  A 2.04 0.99 -77.8 0 0 791.7624 521.7808
  A 2.04 0.99 -77.8 0 0 792.2989 523.9839
  A 2.04 0.99 -77.8 0 0 793.6976 522.1992
  A 2.04 0.99 -77.8 0 0 793.1611 519.9961
  Z"
/>
<path fill="#ffffff" d="
  M 770.78 491.47
  A 0.16 0.16 0.0 0 1 770.68 491.27
  L 770.72 491.16
  A 3.37 1.52 18.5 0 1 774.40 490.78
  L 774.89 490.95
  A 3.37 1.52 18.5 0 1 777.61 493.46
  L 777.57 493.57
  A 0.16 0.16 0.0 0 1 777.37 493.67
  L 770.78 491.47
  Z"
/>
<path fill="#020475" d="
  M 785.33 536.02
  L 781.97 539.47
  A 1.70 1.64 -75.0 0 1 781.27 539.89
  L 771.97 542.64
  Q 768.35 542.27 764.67 542.34
  A 0.60 0.43 -27.9 0 1 764.52 542.32
  L 759.07 540.94
  A 1.41 1.28 -16.7 0 1 758.57 540.70
  Q 756.60 539.14 755.23 538.72
  A 1.22 1.21 80.8 0 1 754.55 538.23
  Q 753.79 537.14 752.72 536.52
  A 0.15 0.15 0.0 0 0 752.50 536.64
  Q 752.48 536.80 752.53 536.91
  L 750.22 534.53
  Q 748.12 530.43 744.40 527.98
  A 0.89 0.88 21.7 0 1 744.01 527.09
  Q 744.86 522.02 744.15 516.77
  Q 743.93 515.17 744.86 513.45
  A 2.08 2.03 -34.5 0 0 745.09 512.29
  Q 744.74 508.84 747.14 506.60
  A 3.46 3.27 -8.7 0 0 747.77 505.79
  C 749.33 502.96 749.39 501.02 752.88 499.38
  Q 753.81 498.94 753.20 498.11
  L 754.22 497.67
  Q 757.92 495.01 762.15 493.78
  Q 766.58 492.48 770.93 493.26
  C 782.52 495.33 788.64 504.07 791.43 515.37
  Q 792.02 517.75 791.49 520.47
  A 3.35 3.14 -43.1 0 0 791.44 521.23
  L 791.66 526.02
  A 0.31 0.31 0.0 0 1 791.32 526.34
  Q 791.30 526.34 791.20 526.25
  A 0.16 0.16 0.0 0 0 790.97 526.27
  Q 787.52 530.79 785.33 536.02
  Z"
/>
<path fill="#ffffff" d="
  M 754.22 497.67
  L 753.20 498.11
  L 750.10 499.74
  A 1.07 1.06 -46.6 0 1 749.19 499.77
  L 748.72 499.56
  A 0.43 0.43 0.0 0 1 748.66 498.80
  Q 750.35 497.71 750.57 497.10
  A 3.09 2.96 -70.7 0 1 754.39 495.16
  Q 755.56 495.57 754.22 497.67
  Z"
/>
<path fill="#ffffff" d="
  M 743.86 502.14
  A 0.79 0.79 0.0 0 1 742.93 502.54
  Q 740.88 501.95 741.38 500.05
  A 1.55 1.48 77.9 0 1 741.84 499.30
  L 745.75 495.83
  A 0.81 0.81 0.0 0 1 747.10 496.45
  L 747.08 497.49
  A 1.95 1.91 71.7 0 1 746.36 498.96
  Q 744.88 500.15 743.86 502.14
  Z"
/>
<ellipse fill="#ffffff" cx="0.00" cy="0.00" transform="translate(793.29,500.40) rotate(-43.9)" rx="2.17" ry="1.42"/>
<path fill="#020475" d="
  M 787.49 503.57
  L 785.07 500.09
  A 0.27 0.27 0.0 0 1 785.40 499.68
  L 786.42 500.13
  A 0.57 0.57 0.0 0 1 786.72 500.43
  L 787.95 503.32
  A 0.26 0.26 0.0 0 1 787.49 503.57
  Z"
/>
<ellipse fill="#ffffff" cx="0.00" cy="0.00" transform="translate(792.73,521.99) rotate(-77.8)" rx="2.04" ry="0.99"/>
<path fill="#383f99" d="
  M 632.68 522.00
  L 633.00 524.96
  A 0.22 0.22 0.0 0 1 632.57 525.06
  Q 632.17 523.93 632.31 522.01
  A 0.19 0.18 -46.3 0 1 632.68 522.00
  Z"
/>
<path fill="#ffffff" d="
  M 771.97 542.64
  L 781.27 539.89
  A 1.70 1.64 -75.0 0 0 781.97 539.47
  L 785.33 536.02
  L 787.39 534.14
  A 1.69 1.65 -13.7 0 0 787.87 533.37
  Q 788.56 531.01 790.04 528.97
  A 1.05 1.05 0.0 0 1 791.93 529.47
  L 792.01 530.21
  A 1.13 1.13 0.0 0 0 792.40 530.97
  Q 793.74 532.11 793.83 533.24
  A 0.79 0.76 16.6 0 0 794.14 533.79
  Q 795.09 534.51 794.57 535.79
  C 793.35 538.81 790.96 539.80 788.65 541.77
  A 1.71 1.71 0.0 0 1 786.40 541.74
  Q 785.20 540.65 782.30 540.64
  A 0.97 0.96 -71.9 0 0 781.52 541.04
  L 779.33 544.04
  A 0.98 0.96 -73.5 0 1 778.61 544.44
  L 771.75 545.04
  A 0.97 0.82 -35.9 0 1 771.48 545.02
  Q 767.64 544.21 764.16 545.02
  C 762.49 545.41 761.01 545.31 759.72 544.44
  A 0.85 0.85 0.0 0 1 760.17 542.88
  L 771.97 542.64
  Z"
/>
<path fill="#ffffff" d="
  M 750.22 534.53
  L 752.53 536.91
  Q 753.18 537.23 753.17 537.29
  A 0.71 0.71 0.0 0 1 752.15 537.84
  L 746.73 535.17
  A 1.40 1.39 29.4 0 0 744.94 535.66
  L 743.79 537.43
  A 0.81 0.80 8.8 0 1 743.31 537.78
  Q 741.70 538.22 740.65 537.85
  A 0.79 0.78 10.4 0 1 740.13 537.10
  L 740.23 532.12
  A 0.96 0.95 83.4 0 1 740.95 531.20
  Q 744.03 530.43 745.98 530.84
  A 2.30 2.27 73.2 0 1 747.12 531.46
  L 750.22 534.53
  Z"
/>
<path fill="#ff9a33" d="
  M 1536.00 681.24
  L 1536.00 695.26
  Q 1535.23 691.29 1531.56 691.66
  Q 1535.34 692.23 1535.54 688.25
  Q 1535.72 684.75 1536.00 681.24
  Z"
/>
<path fill="#128807" d="
  M 1531.56 691.66
  Q 1535.23 691.29 1536.00 695.26
  L 1536.00 1040.00
  L 0.00 1040.00
  L 0.00 687.61
  Q 0.15 691.00 3.23 691.11
  Q 10.71 691.37 19.50 691.37
  Q 760.25 691.34 1501.00 691.28
  C 1514.60 691.28 1523.88 690.64 1531.56 691.66
  Z"
/>
</svg>
