<?xml version="1.0" encoding="UTF-8" standalone="no"?>
<!DOCTYPE svg PUBLIC "-//W3C//DTD SVG 1.1//EN" "http://www.w3.org/Graphics/SVG/1.1/DTD/svg11.dtd">
<svg xmlns="http://www.w3.org/2000/svg" version="1.1" viewBox="0.00 0.00 1536.00 1040.00">
<path stroke="#e68893" stroke-width="2.00" fill="none" stroke-linecap="butt" vector-effect="non-scaling-stroke" d="
  M 1536.00 509.63
  L 1535.16 513.57
  A 0.98 0.98 0.0 0 1 1534.30 514.34
  C 1522.86 515.40 1512.46 514.81 1490.50 514.81
  Q 369.04 514.84 9.50 514.80
  Q 6.73 514.80 1.67 514.30
  A 0.74 0.73 85.4 0 1 1.03 513.75
  L 0.00 510.00"
/>
<path fill="#cd1127" d="
  M 1536.00 0.00
  L 1536.00 509.63
  L 1535.16 513.57
  A 0.98 0.98 0.0 0 1 1534.30 514.34
  C 1522.86 515.40 1512.46 514.81 1490.50 514.81
  Q 369.04 514.84 9.50 514.80
  Q 6.73 514.80 1.67 514.30
  A 0.74 0.73 85.4 0 1 1.03 513.75
  L 0.00 510.00
  L 0.00 0.00
  L 1536.00 0.00
  Z"
/>
<path fill="#ffffff" d="
  M 1536.00 509.63
  L 1536.00 1040.00
  L 0.00 1040.00
  L 0.00 510.00
  L 1.03 513.75
  A 0.74 0.73 85.4 0 0 1.67 514.30
  Q 6.73 514.80 9.50 514.80
  Q 369.04 514.84 1490.50 514.81
  C 1512.46 514.81 1522.86 515.40 1534.30 514.34
  A 0.98 0.98 0.0 0 0 1535.16 513.57
  L 1536.00 509.63
  Z"
/>
</svg>
