<?xml version="1.0" encoding="UTF-8" standalone="no"?>
<!DOCTYPE svg PUBLIC "-//W3C//DTD SVG 1.1//EN" "http://www.w3.org/Graphics/SVG/1.1/DTD/svg11.dtd">
<svg xmlns="http://www.w3.org/2000/svg" version="1.1" viewBox="0.00 0.00 1536.00 1040.00">
<g stroke-width="2.00" fill="none" stroke-linecap="butt">
<path stroke="#80c9a3" vector-effect="non-scaling-stroke" d="
  M 515.50 0.00
  Q 519.11 0.02 519.96 2.34
  Q 520.15 2.86 520.15 7.69
  Q 520.11 522.24 520.15 1037.23
  A 2.31 2.30 -5.9 0 1 518.31 1039.48
  L 515.75 1040.00"
/>
<path stroke="#e7959b" vector-effect="non-scaling-stroke" d="
  M 1042.25 0.00
  Q 1040.18 0.12 1039.05 0.97
  A 0.48 0.47 72.2 0 0 1038.86 1.35
  L 1038.86 1038.15
  A 1.21 1.21 0.0 0 0 1039.57 1039.25
  Q 1041.14 1039.95 1043.12 1040.00"
/>
<path stroke="#e7959b" vector-effect="non-scaling-stroke" d="
  M 1536.00 1039.16
  Q 1535.64 1039.52 1535.40 1040.00"
/>
</g>
<path fill="#009346" d="
  M 515.50 0.00
  Q 519.11 0.02 519.96 2.34
  Q 520.15 2.86 520.15 7.69
  Q 520.11 522.24 520.15 1037.23
  A 2.31 2.30 -5.9 0 1 518.31 1039.48
  L 515.75 1040.00
  L 0.00 1040.00
  L 0.00 0.00
  L 515.50 0.00
  Z"
/>
<path fill="#ffffff" d="
  M 1042.25 0.00
  Q 1040.18 0.12 1039.05 0.97
  A 0.48 0.47 72.2 0 0 1038.86 1.35
  L 1038.86 1038.15
  A 1.21 1.21 0.0 0 0 1039.57 1039.25
  Q 1041.14 1039.95 1043.12 1040.00
  L 515.75 1040.00
  L 518.31 1039.48
  A 2.31 2.30 -5.9 0 0 520.15 1037.23
  Q 520.11 522.24 520.15 7.69
  Q 520.15 2.86 519.96 2.34
  Q 519.11 0.02 515.50 0.00
  L 1042.25 0.00
  Z"
/>
<path fill="#ce2b37" d="
  M 1536.00 0.00
  L 1536.00 1039.16
  Q 1535.64 1039.52 1535.40 1040.00
  L 1043.12 1040.00
  Q 1041.14 1039.95 1039.57 1039.25
  A 1.21 1.21 0.0 0 1 1038.86 1038.15
  L 1038.86 1.35
  A 0.48 0.47 72.2 0 1 1039.05 0.97
  Q 1040.18 0.12 1042.25 0.00
  L 1536.00 0.00
  Z"
/>
<path fill="#ffffff" d="
  M 1536.00 1039.16
  L 1536.00 1040.00
  L 1535.40 1040.00
  Q 1535.64 1039.52 1536.00 1039.16
  Z"
/>
</svg>
