<?xml version="1.0" encoding="UTF-8" standalone="no"?>
<!DOCTYPE svg PUBLIC "-//W3C//DTD SVG 1.1//EN" "http://www.w3.org/Graphics/SVG/1.1/DTD/svg11.dtd">
<svg xmlns="http://www.w3.org/2000/svg" version="1.1" viewBox="0.00 0.00 1536.00 1040.00">
<path stroke="#de8097" stroke-width="2.00" fill="none" stroke-linecap="butt" vector-effect="non-scaling-stroke" d="
  M 453.34 535.13
  Q 453.40 569.22 459.15 602.78
  Q 459.93 607.30 462.46 613.51
  Q 463.43 615.92 465.22 623.67
  C 466.79 630.44 468.46 635.41 470.75 643.24
  Q 471.94 647.28 474.24 652.35
  C 478.43 661.59 482.73 673.14 487.87 683.09
  Q 494.68 696.27 504.12 711.56
  C 510.10 721.25 518.22 731.65 523.32 738.19
  Q 534.09 751.98 547.45 765.09
  Q 560.40 777.81 568.56 784.45
  Q 581.09 794.66 599.06 806.27
  C 608.40 812.30 614.78 815.28 627.47 822.07
  Q 632.69 824.86 638.92 827.36
  C 651.04 832.22 663.42 838.03 676.74 840.74
  Q 686.74 842.78 695.48 845.07
  Q 707.72 848.27 714.20 849.27
  Q 730.26 851.73 744.50 851.82
  C 760.36 851.92 775.29 851.73 791.38 850.04
  Q 799.63 849.18 809.41 846.48
  Q 817.97 844.12 836.59 839.97
  Q 841.93 838.78 846.30 837.15
  C 855.65 833.66 864.49 829.41 873.17 826.36
  Q 875.47 825.55 877.63 824.32
  Q 880.35 822.76 899.46 812.70
  C 905.30 809.63 909.98 805.80 915.43 802.68
  Q 920.73 799.64 927.03 794.63
  C 932.33 790.43 937.45 787.35 942.45 782.88
  Q 955.85 770.92 956.79 770.04
  Q 971.11 756.62 984.96 739.80
  C 989.47 734.34 992.60 729.31 996.25 724.80
  Q 1000.28 719.83 1004.14 713.17
  C 1007.42 707.50 1012.27 701.01 1015.20 694.77
  C 1018.69 687.34 1023.21 680.32 1026.32 672.76
  Q 1029.95 663.91 1035.24 651.77
  C 1038.83 643.54 1040.76 635.12 1043.54 625.16
  Q 1045.83 616.99 1047.72 610.89
  Q 1050.75 601.14 1052.14 589.03
  Q 1054.10 571.87 1054.30 569.26
  Q 1055.34 555.41 1055.30 534.14
  Q 1055.27 512.87 1054.18 499.03
  Q 1053.98 496.41 1051.96 479.26
  Q 1050.53 467.15 1047.47 457.41
  Q 1045.56 451.32 1043.24 443.16
  C 1040.43 433.21 1038.47 424.79 1034.85 416.57
  Q 1029.52 404.45 1025.86 395.61
  C 1022.73 388.06 1018.19 381.06 1014.67 373.64
  C 1011.72 367.41 1006.85 360.94 1003.55 355.28
  Q 999.67 348.63 995.62 343.67
  C 991.96 339.18 988.81 334.16 984.28 328.71
  Q 970.38 311.94 956.01 298.56
  Q 955.07 297.69 941.63 285.77
  C 936.62 281.32 931.49 278.25 926.17 274.07
  Q 919.86 269.08 914.55 266.06
  C 909.09 262.96 904.39 259.14 898.54 256.09
  Q 879.40 246.09 876.68 244.54
  Q 874.51 243.32 872.21 242.52
  C 863.52 239.50 854.67 235.28 845.30 231.82
  Q 840.93 230.20 835.59 229.03
  Q 816.95 224.94 808.38 222.61
  Q 798.60 219.94 790.34 219.11
  C 774.25 217.47 759.32 217.33 743.46 217.48
  Q 729.22 217.62 713.17 220.13
  Q 706.69 221.15 694.46 224.39
  Q 685.73 226.71 675.73 228.78
  C 662.42 231.54 650.06 237.39 637.96 242.29
  Q 631.74 244.81 626.53 247.62
  C 613.86 254.45 607.49 257.45 598.17 263.51
  Q 580.24 275.18 567.74 285.43
  Q 559.60 292.10 546.69 304.86
  Q 533.38 318.01 522.65 331.84
  C 517.57 338.40 509.49 348.82 503.54 358.53
  Q 494.15 373.85 487.38 387.06
  C 482.28 397.02 478.01 408.59 473.85 417.84
  Q 471.57 422.92 470.39 426.96
  C 468.13 434.80 466.48 439.77 464.93 446.55
  Q 463.16 454.31 462.20 456.72
  Q 459.69 462.94 458.93 467.45
  Q 453.29 501.04 453.34 535.13"
/>
<path fill="#ffffff" d="
  M 1536.00 0.00
  L 1536.00 1040.00
  L 0.00 1040.00
  L 0.00 0.00
  L 1536.00 0.00
  Z
  M 453.34 535.13
  Q 453.40 569.22 459.15 602.78
  Q 459.93 607.30 462.46 613.51
  Q 463.43 615.92 465.22 623.67
  C 466.79 630.44 468.46 635.41 470.75 643.24
  Q 471.94 647.28 474.24 652.35
  C 478.43 661.59 482.73 673.14 487.87 683.09
  Q 494.68 696.27 504.12 711.56
  C 510.10 721.25 518.22 731.65 523.32 738.19
  Q 534.09 751.98 547.45 765.09
  Q 560.40 777.81 568.56 784.45
  Q 581.09 794.66 599.06 806.27
  C 608.40 812.30 614.78 815.28 627.47 822.07
  Q 632.69 824.86 638.92 827.36
  C 651.04 832.22 663.42 838.03 676.74 840.74
  Q 686.74 842.78 695.48 845.07
  Q 707.72 848.27 714.20 849.27
  Q 730.26 851.73 744.50 851.82
  C 760.36 851.92 775.29 851.73 791.38 850.04
  Q 799.63 849.18 809.41 846.48
  Q 817.97 844.12 836.59 839.97
  Q 841.93 838.78 846.30 837.15
  C 855.65 833.66 864.49 829.41 873.17 826.36
  Q 875.47 825.55 877.63 824.32
  Q 880.35 822.76 899.46 812.70
  C 905.30 809.63 909.98 805.80 915.43 802.68
  Q 920.73 799.64 927.03 794.63
  C 932.33 790.43 937.45 787.35 942.45 782.88
  Q 955.85 770.92 956.79 770.04
  Q 971.11 756.62 984.96 739.80
  C 989.47 734.34 992.60 729.31 996.25 724.80
  Q 1000.28 719.83 1004.14 713.17
  C 1007.42 707.50 1012.27 701.01 1015.20 694.77
  C 1018.69 687.34 1023.21 680.32 1026.32 672.76
  Q 1029.95 663.91 1035.24 651.77
  C 1038.83 643.54 1040.76 635.12 1043.54 625.16
  Q 1045.83 616.99 1047.72 610.89
  Q 1050.75 601.14 1052.14 589.03
  Q 1054.10 571.87 1054.30 569.26
  Q 1055.34 555.41 1055.30 534.14
  Q 1055.27 512.87 1054.18 499.03
  Q 1053.98 496.41 1051.96 479.26
  Q 1050.53 467.15 1047.47 457.41
  Q 1045.56 451.32 1043.24 443.16
  C 1040.43 433.21 1038.47 424.79 1034.85 416.57
  Q 1029.52 404.45 1025.86 395.61
  C 1022.73 388.06 1018.19 381.06 1014.67 373.64
  C 1011.72 367.41 1006.85 360.94 1003.55 355.28
  Q 999.67 348.63 995.62 343.67
  C 991.96 339.18 988.81 334.16 984.28 328.71
  Q 970.38 311.94 956.01 298.56
  Q 955.07 297.69 941.63 285.77
  C 936.62 281.32 931.49 278.25 926.17 274.07
  Q 919.86 269.08 914.55 266.06
  C 909.09 262.96 904.39 259.14 898.54 256.09
  Q 879.40 246.09 876.68 244.54
  Q 874.51 243.32 872.21 242.52
  C 863.52 239.50 854.67 235.28 845.30 231.82
  Q 840.93 230.20 835.59 229.03
  Q 816.95 224.94 808.38 222.61
  Q 798.60 219.94 790.34 219.11
  C 774.25 217.47 759.32 217.33 743.46 217.48
  Q 729.22 217.62 713.17 220.13
  Q 706.69 221.15 694.46 224.39
  Q 685.73 226.71 675.73 228.78
  C 662.42 231.54 650.06 237.39 637.96 242.29
  Q 631.74 244.81 626.53 247.62
  C 613.86 254.45 607.49 257.45 598.17 263.51
  Q 580.24 275.18 567.74 285.43
  Q 559.60 292.10 546.69 304.86
  Q 533.38 318.01 522.65 331.84
  C 517.57 338.40 509.49 348.82 503.54 358.53
  Q 494.15 373.85 487.38 387.06
  C 482.28 397.02 478.01 408.59 473.85 417.84
  Q 471.57 422.92 470.39 426.96
  C 468.13 434.80 466.48 439.77 464.93 446.55
  Q 463.16 454.31 462.20 456.72
  Q 459.69 462.94 458.93 467.45
  Q 453.29 501.04 453.34 535.13
  Z"
/>
<path fill="#bc012e" d="
  M 1055.30 534.14
  Q 1055.34 555.41 1054.30 569.26
  Q 1054.10 571.87 1052.14 589.03
  Q 1050.75 601.14 1047.72 610.89
  Q 1045.83 616.99 1043.54 625.16
  C 1040.76 635.12 1038.83 643.54 1035.24 651.77
  Q 1029.95 663.91 1026.32 672.76
  C 1023.21 680.32 1018.69 687.34 1015.20 694.77
  C 1012.27 701.01 1007.42 707.50 1004.14 713.17
  Q 1000.28 719.83 996.25 724.80
  C 992.60 729.31 989.47 734.34 984.96 739.80
  Q 971.11 756.62 956.79 770.04
  Q 955.85 770.92 942.45 782.88
  C 937.45 787.35 932.33 790.43 927.03 794.63
  Q 920.73 799.64 915.43 802.68
  C 909.98 805.80 905.30 809.63 899.46 812.70
  Q 880.35 822.76 877.63 824.32
  Q 875.47 825.55 873.17 826.36
  C 864.49 829.41 855.65 833.66 846.30 837.15
  Q 841.93 838.78 836.59 839.97
  Q 817.97 844.12 809.41 846.48
  Q 799.63 849.18 791.38 850.04
  C 775.29 851.73 760.36 851.92 744.50 851.82
  Q 730.26 851.73 714.20 849.27
  Q 707.72 848.27 695.48 845.07
  Q 686.74 842.78 676.74 840.74
  C 663.42 838.03 651.04 832.22 638.92 827.36
  Q 632.69 824.86 627.47 822.07
  C 614.78 815.28 608.40 812.30 599.06 806.27
  Q 581.09 794.66 568.56 784.45
  Q 560.40 777.81 547.45 765.09
  Q 534.09 751.98 523.32 738.19
  C 518.22 731.65 510.10 721.25 504.12 711.56
  Q 494.68 696.27 487.87 683.09
  C 482.73 673.14 478.43 661.59 474.24 652.35
  Q 471.94 647.28 470.75 643.24
  C 468.46 635.41 466.79 630.44 465.22 623.67
  Q 463.43 615.92 462.46 613.51
  Q 459.93 607.30 459.15 602.78
  Q 453.40 569.22 453.34 535.13
  Q 453.29 501.04 458.93 467.45
  Q 459.69 462.94 462.20 456.72
  Q 463.16 454.31 464.93 446.55
  C 466.48 439.77 468.13 434.80 470.39 426.96
  Q 471.57 422.92 473.85 417.84
  C 478.01 408.59 482.28 397.02 487.38 387.06
  Q 494.15 373.85 503.54 358.53
  C 509.49 348.82 517.57 338.40 522.65 331.84
  Q 533.38 318.01 546.69 304.86
  Q 559.60 292.10 567.74 285.43
  Q 580.24 275.18 598.17 263.51
  C 607.49 257.45 613.86 254.45 626.53 247.62
  Q 631.74 244.81 637.96 242.29
  C 650.06 237.39 662.42 231.54 675.73 228.78
  Q 685.73 226.71 694.46 224.39
  Q 706.69 221.15 713.17 220.13
  Q 729.22 217.62 743.46 217.48
  C 759.32 217.33 774.25 217.47 790.34 219.11
  Q 798.60 219.94 808.38 222.61
  Q 816.95 224.94 835.59 229.03
  Q 840.93 230.20 845.30 231.82
  C 854.67 235.28 863.52 239.50 872.21 242.52
  Q 874.51 243.32 876.68 244.54
  Q 879.40 246.09 898.54 256.09
  C 904.39 259.14 909.09 262.96 914.55 266.06
  Q 919.86 269.08 926.17 274.07
  C 931.49 278.25 936.62 281.32 941.63 285.77
  Q 955.07 297.69 956.01 298.56
  Q 970.38 311.94 984.28 328.71
  C 988.81 334.16 991.96 339.18 995.62 343.67
  Q 999.67 348.63 1003.55 355.28
  C 1006.85 360.94 1011.72 367.41 1014.67 373.64
  C 1018.19 381.06 1022.73 388.06 1025.86 395.61
  Q 1029.52 404.45 1034.85 416.57
  C 1038.47 424.79 1040.43 433.21 1043.24 443.16
  Q 1045.56 451.32 1047.47 457.41
  Q 1050.53 467.15 1051.96 479.26
  Q 1053.98 496.41 1054.18 499.03
  Q 1055.27 512.87 1055.30 534.14
  Z"
/>
</svg>
