<?xml version="1.0" encoding="UTF-8" standalone="no"?>
<!DOCTYPE svg PUBLIC "-//W3C//DTD SVG 1.1//EN" "http://www.w3.org/Graphics/SVG/1.1/DTD/svg11.dtd">
<svg xmlns="http://www.w3.org/2000/svg" version="1.1" viewBox="0.00 0.00 1536.00 1040.00">
<g stroke-width="2.00" fill="none" stroke-linecap="butt">
<path stroke="#660033" vector-effect="non-scaling-stroke" d="
  M 770.00 0.00
  Q 770.63 7.20 770.41 14.35
  C 769.97 28.52 769.98 41.91 769.96 61.13
  Q 769.95 64.27 770.17 66.36
  C 770.46 69.12 770.86 71.28 770.62 71.86
  Q 770.56 72.00 770.69 72.12
  Q 770.57 71.20 770.93 70.40
  A 0.23 0.23 0.0 0 1 771.37 70.50
  Q 771.34 72.16 771.35 72.26
  A 0.36 0.36 0.0 0 0 772.07 72.25
  Q 772.07 72.14 771.88 71.99
  A 0.10 0.08 74.1 0 1 771.95 71.82
  Q 772.00 71.85 772.05 71.87
  A 0.26 0.22 -67.6 0 1 772.16 72.21
  Q 771.79 73.02 771.84 73.47
  A 0.41 0.41 0.0 0 0 772.43 73.80
  Q 773.33 73.35 773.29 74.01"
/>
<path stroke="#8080b3" vector-effect="non-scaling-stroke" d="
  M 773.29 74.01
  Q 770.90 75.82 770.90 80.50
  Q 770.89 111.24 770.87 141.99
  C 770.87 144.68 771.35 147.37 771.77 150.00"
/>
<path stroke="#660033" vector-effect="non-scaling-stroke" d="
  M 771.77 150.00
  Q 771.15 151.05 770.27 151.65
  A 0.93 0.93 0.0 0 0 769.87 152.45
  L 770.03 155.71"
/>
<path stroke="#040340" vector-effect="non-scaling-stroke" d="
  M 770.03 155.71
  Q 769.82 155.44 769.72 155.43
  A 0.20 0.20 0.0 0 0 769.56 155.76
  Q 769.76 155.98 770.16 155.96"
/>
<path stroke="#660033" vector-effect="non-scaling-stroke" d="
  M 770.16 155.96
  L 770.43 220.31
  A 0.18 0.18 0.0 0 0 770.79 220.34
  L 770.86 219.97
  A 0.02 0.01 -42.6 0 1 770.89 219.97
  L 771.43 221.92
  A 0.13 0.12 78.6 0 0 771.56 222.01
  Q 771.89 221.98 771.87 221.57
  Q 771.85 221.18 771.93 221.57
  Q 771.97 221.77 772.33 222.10
  A 0.25 0.25 0.0 0 0 772.70 222.06
  Q 772.91 221.78 773.16 221.79
  A 0.15 0.15 0.0 0 1 773.28 222.04
  L 772.93 222.46
  A 0.21 0.21 0.0 0 0 773.05 222.80
  L 774.00 222.98"
/>
<path stroke="#8080b3" vector-effect="non-scaling-stroke" d="
  M 774.00 222.98
  Q 772.02 223.61 771.69 224.99
  Q 771.08 227.56 771.04 232.00
  Q 770.82 257.63 770.68 283.25
  Q 770.63 290.55 772.19 297.43"
/>
<path stroke="#660033" vector-effect="non-scaling-stroke" d="
  M 772.19 297.43
  Q 770.51 298.89 769.62 300.75
  A 1.56 1.46 59.1 0 0 769.48 301.39
  L 769.48 304.10
  A 0.18 0.18 0.0 0 1 769.13 304.12
  L 768.34 297.47
  A 0.02 0.02 0.0 0 0 768.30 297.47
  L 768.18 297.81
  A 0.12 0.09 -35.8 0 0 768.16 297.87
  Q 768.28 302.09 769.61 305.77
  Q 769.92 306.62 769.02 308.52
  A 1.93 1.91 59.7 0 0 768.83 309.26
  Q 768.72 311.26 769.32 312.25
  A 1.92 1.88 29.1 0 1 769.58 313.13
  Q 770.18 328.89 770.02 343.64
  C 769.95 349.70 770.39 356.33 770.41 361.07
  C 770.42 363.86 769.81 366.61 770.75 369.67
  A 3.19 2.96 -56.9 0 1 770.87 370.37
  L 771.16 378.20"
/>
<path stroke="#8080b3" vector-effect="non-scaling-stroke" d="
  M 771.16 378.20
  Q 770.27 411.99 771.37 445.43"
/>
<path stroke="#660033" vector-effect="non-scaling-stroke" d="
  M 771.37 445.43
  Q 771.45 448.00 770.37 450.98
  A 0.07 0.07 0.0 0 1 770.24 450.95
  L 770.53 446.78
  A 0.03 0.03 0.0 0 0 770.50 446.75
  L 770.23 446.75
  A 0.13 0.12 -0.0 0 0 770.10 446.87
  L 769.92 452.74"
/>
<path stroke="#040340" vector-effect="non-scaling-stroke" d="
  M 769.92 452.74
  Q 769.99 449.59 769.12 447.45
  A 0.43 0.42 -59.9 0 0 768.31 447.67
  Q 768.83 451.84 769.92 454.44"
/>
<path stroke="#660033" vector-effect="non-scaling-stroke" d="
  M 769.92 454.44
  L 769.64 517.27
  A 0.31 0.31 0.0 0 0 770.13 517.52
  Q 770.50 517.24 770.37 516.64
  Q 770.19 518.31 770.59 519.76
  A 0.13 0.12 -13.3 0 0 770.73 519.84
  Q 770.89 519.80 771.06 519.74
  Q 771.20 519.69 771.07 519.29
  Q 771.01 519.12 770.87 518.93
  A 0.05 0.04 -2.6 0 1 770.93 518.87
  Q 770.97 518.88 771.00 518.87
  A 0.11 0.11 0.0 0 1 771.16 518.98
  Q 771.15 519.42 771.26 519.50
  A 0.37 0.36 49.3 0 0 771.59 519.53
  Q 773.38 518.73 775.50 519.24"
/>
<path stroke="#8080b3" vector-effect="non-scaling-stroke" d="
  M 775.50 519.24
  Q 770.57 518.93 770.69 523.75
  Q 771.18 544.06 770.75 592.84"
/>
<path stroke="#660033" vector-effect="non-scaling-stroke" d="
  M 770.75 592.84
  L 768.60 593.98"
/>
<path stroke="#040340" vector-effect="non-scaling-stroke" d="
  M 768.60 593.98
  L 768.07 592.94
  A 0.40 0.40 0.0 0 0 767.44 592.83
  L 764.26 595.72"
/>
<path stroke="#660033" vector-effect="non-scaling-stroke" d="
  M 764.26 595.72
  Q 753.57 594.36 744.95 594.36
  Q 744.47 594.36 35.00 594.39
  Q 13.71 594.40 6.38 594.42
  A 0.18 0.17 1.7 0 0 6.20 594.58
  L 6.20 594.59
  A 0.17 0.17 0.0 0 0 6.36 594.77
  Q 8.47 594.95 10.61 594.87
  C 9.22 594.91 8.06 594.89 7.23 594.86
  A 2.04 1.96 -55.1 0 0 6.38 595.03
  Q 4.46 595.85 2.60 595.03
  A 0.70 0.70 0.0 0 0 1.62 595.67
  L 1.62 596.62
  A 0.20 0.19 -14.0 0 0 1.91 596.79
  Q 2.16 596.66 2.35 597.10
  A 0.39 0.39 0.0 0 1 2.20 597.59
  Q 1.44 598.07 1.50 598.76
  A 0.58 0.58 0.0 0 1 0.82 599.38
  L 0.00 599.25"
/>
<path stroke="#040340" vector-effect="non-scaling-stroke" d="
  M 286.55 469.80
  Q 278.22 460.13 267.79 452.79"
/>
<path stroke="#806633" vector-effect="non-scaling-stroke" d="
  M 267.79 452.79
  C 262.27 446.71 256.55 440.32 252.14 433.72
  Q 247.24 426.36 245.56 423.50
  Q 242.87 418.92 236.56 407.42
  C 232.57 400.13 228.73 389.59 226.16 381.65
  Q 223.96 374.84 223.21 373.08
  C 221.43 368.90 219.60 362.75 219.03 359.76
  Q 216.02 343.91 214.31 330.70
  Q 212.91 319.79 212.79 307.88
  Q 212.61 288.68 212.82 285.00
  C 213.63 270.48 215.90 256.52 217.81 243.77
  C 219.82 230.32 225.23 218.05 229.05 206.59
  Q 231.53 199.16 235.04 192.54
  Q 240.86 181.55 243.72 176.31
  C 247.17 170.01 251.60 164.42 255.51 158.35
  C 257.96 154.55 260.49 152.19 263.87 148.12
  Q 269.45 141.39 278.79 132.90
  Q 284.69 127.54 291.49 123.05
  C 301.25 116.59 306.13 112.41 314.90 110.08
  A 0.01 0.01 0.0 0 0 314.90 110.06
  Q 314.68 109.99 314.65 109.98
  A 0.12 0.12 0.0 0 1 314.67 109.75
  Q 318.43 109.00 326.58 106.39
  Q 339.02 102.42 351.99 100.67
  Q 356.06 100.11 362.75 100.81
  Q 375.09 102.09 386.65 105.57
  C 391.97 107.17 397.52 110.20 403.05 111.68
  A 0.83 0.82 5.6 0 0 404.09 110.83
  C 403.95 108.50 400.43 105.59 398.53 104.22
  A 2.42 2.34 4.6 0 1 397.86 103.46
  C 395.95 100.03 393.37 98.67 390.46 96.54
  Q 388.87 95.38 385.56 93.74
  Q 384.37 93.15 373.55 88.46
  Q 372.10 87.83 366.59 84.51
  Q 361.81 81.62 354.07 79.76
  C 338.00 75.90 323.98 74.10 308.07 75.46
  Q 295.97 76.48 290.75 77.26
  Q 280.06 78.85 268.38 84.81
  Q 264.41 86.84 258.58 89.47
  Q 247.94 94.25 241.55 99.29
  Q 241.49 99.34 230.56 108.14
  C 216.81 119.20 205.17 132.95 194.92 147.56
  C 191.49 152.45 187.78 158.76 183.86 164.84
  Q 181.93 167.84 178.90 175.22
  C 176.26 181.65 172.05 188.66 169.78 195.04
  Q 168.29 199.23 161.85 220.60
  C 160.30 225.75 157.84 231.97 157.01 237.51
  Q 155.23 249.31 152.80 269.82
  C 151.99 276.58 152.28 282.56 151.84 288.70
  Q 151.35 295.62 151.70 302.83
  C 152.14 312.02 151.82 317.90 152.97 326.34
  C 154.27 335.86 155.18 350.85 157.91 361.57
  Q 161.18 374.40 162.68 378.64
  Q 167.02 390.90 168.26 395.98
  Q 168.93 398.71 174.88 411.87
  Q 178.97 420.92 179.37 421.79
  Q 182.96 429.60 184.23 431.57
  C 189.29 439.40 192.45 445.11 197.56 451.96
  Q 204.64 461.44 213.50 471.43
  C 218.59 477.18 224.24 481.84 230.22 487.61
  Q 231.07 488.43 232.38 489.35
  C 234.29 490.70 235.89 492.39 237.97 493.51
  C 244.88 497.22 252.63 503.71 260.02 507.18
  Q 269.43 511.59 273.71 512.76
  Q 283.18 515.34 291.10 517.16
  Q 317.61 523.24 343.76 517.27
  Q 353.98 514.93 364.10 511.59
  Q 368.47 510.15 372.74 508.03
  C 379.83 504.51 382.07 503.49 387.59 499.38
  A 6.92 6.28 -72.8 0 1 388.86 498.63
  C 392.50 496.98 403.86 491.40 402.96 486.73
  A 1.26 1.25 66.2 0 0 400.98 485.96
  L 396.05 489.66
  A 0.66 0.39 -59.5 0 1 395.87 489.76
  Q 393.58 490.70 389.67 491.38
  Q 388.83 491.53 384.13 492.56
  Q 373.04 495.00 366.76 495.22
  Q 353.94 495.66 338.63 494.06
  Q 323.60 492.49 311.17 484.40
  A 6.10 5.73 -15.8 0 0 310.13 483.86
  Q 297.10 478.65 286.55 469.80"
/>
<path stroke="#84690d" vector-effect="non-scaling-stroke" d="
  M 267.79 452.79
  L 286.55 469.80"
/>
<path stroke="#040340" vector-effect="non-scaling-stroke" d="
  M 479.62 118.48
  Q 475.13 131.37 472.99 144.95
  Q 469.72 165.73 469.45 167.19
  C 468.70 171.19 465.44 186.21 457.94 179.91
  C 454.82 177.29 452.85 173.13 450.32 169.64
  C 448.03 166.50 446.40 164.02 444.55 162.33
  Q 443.73 161.58 443.56 160.34
  A 0.17 0.12 64.9 0 0 443.32 160.20
  Q 443.30 160.23 443.29 160.25
  A 1.04 1.03 40.1 0 0 443.40 161.51
  Q 446.75 165.16 447.97 166.80
  Q 448.21 167.14 448.03 167.42
  A 0.26 0.26 0.0 0 1 447.62 167.45
  L 446.78 166.52
  A 1.46 1.36 -9.5 0 0 446.22 166.15
  L 440.33 164.04"
/>
<path stroke="#806633" vector-effect="non-scaling-stroke" d="
  M 440.33 164.04
  L 428.16 142.49
  A 2.98 2.90 -68.2 0 1 427.87 141.79
  Q 426.31 136.44 422.53 132.98
  A 0.62 0.62 0.0 0 0 421.49 133.46
  L 421.63 137.15
  A 4.12 3.72 38.0 0 0 421.81 138.18
  C 423.25 142.88 424.53 145.83 425.21 150.10
  C 426.36 157.23 428.62 165.40 429.50 172.52
  Q 429.80 174.98 432.00 187.04
  C 433.50 195.22 436.84 203.86 438.20 212.38
  Q 438.38 213.55 439.69 218.82
  Q 440.72 222.96 440.35 227.55
  A 0.89 0.89 0.0 0 1 439.21 228.33
  Q 433.68 226.67 429.42 222.57
  Q 424.85 218.17 423.22 217.03
  C 415.82 211.89 412.88 209.66 406.04 205.63
  Q 400.74 202.51 397.26 199.17
  Q 393.58 195.65 390.25 193.42
  Q 383.66 189.01 382.63 188.44
  A 7.14 6.76 80.3 0 1 381.83 187.84
  L 376.58 183.42
  A 0.69 0.69 0.0 0 0 375.45 183.98
  Q 375.66 187.83 377.40 190.85
  C 381.19 197.44 385.29 202.73 389.90 209.67
  Q 400.50 225.64 411.26 241.54"
/>
<path stroke="#040340" vector-effect="non-scaling-stroke" d="
  M 411.26 241.54
  Q 410.16 247.82 408.82 254.06
  Q 408.51 255.49 409.51 258.78
  A 0.24 0.24 0.0 0 1 409.27 259.09
  Q 409.03 259.08 408.95 259.11
  A 0.24 0.23 37.9 0 0 409.02 259.55
  L 411.49 260.14"
/>
<path stroke="#806633" vector-effect="non-scaling-stroke" d="
  M 411.49 260.14
  Q 405.52 259.03 399.49 258.92
  Q 380.84 258.58 360.96 257.08
  C 357.24 256.80 354.80 256.09 351.25 258.20
  A 1.78 1.78 0.0 0 0 351.27 261.27
  C 353.98 262.83 357.95 262.64 360.74 264.97
  Q 366.85 270.07 373.78 273.48
  Q 387.62 280.27 399.97 287.86
  Q 402.95 289.69 404.67 290.35
  C 408.20 291.71 412.21 292.90 413.59 295.95
  Q 415.18 299.47 411.65 301.13
  Q 408.10 302.81 403.92 305.51
  Q 398.25 309.17 396.25 310.00
  C 387.13 313.77 379.42 319.15 370.75 324.22
  Q 366.82 326.52 354.21 331.70
  Q 351.03 333.01 349.44 335.27
  A 2.60 2.36 -53.9 0 0 349.81 338.71
  Q 350.86 339.50 352.75 339.50
  Q 362.98 339.47 372.98 338.16"
/>
<path stroke="#040340" vector-effect="non-scaling-stroke" d="
  M 372.98 338.16
  Q 377.76 341.34 383.76 341.11
  Q 390.33 340.86 407.05 340.11
  A 0.95 0.95 0.0 0 1 407.72 340.34
  L 409.79 342.08
  A 0.88 0.86 24.5 0 1 410.09 342.85
  Q 409.59 346.99 409.06 349.93
  Q 408.77 351.54 406.50 356.53
  Q 404.84 360.16 404.03 364.08"
/>
<path stroke="#806633" vector-effect="non-scaling-stroke" d="
  M 404.03 364.08
  L 377.04 403.62
  A 6.75 6.72 62.3 0 0 375.86 407.43
  L 375.86 409.76
  A 1.30 1.30 0.0 0 0 378.11 410.65
  Q 384.45 403.85 393.04 398.48"
/>
<path stroke="#040340" vector-effect="non-scaling-stroke" d="
  M 393.04 398.48
  Q 399.79 397.54 404.69 393.09
  C 406.32 391.60 408.10 390.31 409.97 390.04
  Q 418.11 388.85 426.95 390.82
  A 1.48 1.48 0.0 0 1 428.11 392.23
  Q 428.22 395.48 427.90 398.32
  Q 426.77 408.34 425.73 418.75
  Q 425.32 422.85 425.70 425.17
  Q 426.25 428.58 428.65 427.57"
/>
<path stroke="#806633" vector-effect="non-scaling-stroke" d="
  M 428.65 427.57
  Q 426.19 441.62 422.04 454.75
  C 421.22 457.36 420.99 459.55 421.23 461.99
  A 0.56 0.55 -12.2 0 0 421.97 462.46
  C 423.87 461.78 425.80 457.09 426.41 455.09
  A 2.29 2.13 69.5 0 1 426.53 454.80
  L 438.43 433.55"
/>
<path stroke="#040340" vector-effect="non-scaling-stroke" d="
  M 438.43 433.55
  C 445.98 427.98 450.08 421.50 454.35 413.33
  C 456.69 408.86 459.10 406.73 463.58 405.20
  A 1.31 1.30 -22.7 0 1 465.17 405.85
  Q 466.69 408.91 467.16 412.00
  Q 468.72 422.13 468.86 423.10
  Q 469.19 425.29 472.23 432.47
  C 473.83 436.25 474.50 441.21 473.53 446.35
  C 472.38 452.38 474.02 457.69 478.66 462.03"
/>
<path stroke="#806633" vector-effect="non-scaling-stroke" d="
  M 478.66 462.03
  Q 479.15 468.15 479.42 474.24
  Q 479.52 476.52 480.46 477.95
  A 1.13 1.13 0.0 0 0 482.43 477.79
  Q 483.53 475.34 483.67 473.25
  Q 483.96 469.03 485.57 460.38
  C 487.74 448.74 489.32 436.81 490.89 425.03"
/>
<path stroke="#040340" vector-effect="non-scaling-stroke" d="
  M 490.89 425.03
  C 493.81 421.34 494.83 416.27 495.38 411.37
  C 495.39 415.77 494.34 420.65 492.96 424.74
  L 489.91 436.28
  A 0.03 0.03 0.0 0 0 489.94 436.32
  Q 489.95 436.33 489.97 436.32
  A 0.14 0.10 -84.9 0 0 490.06 436.21
  L 490.09 435.62
  A 0.46 0.46 0.0 0 1 490.42 435.21
  L 491.83 434.82
  A 0.81 0.81 0.0 0 0 492.43 434.08
  Q 492.83 426.92 495.19 422.88
  Q 498.97 416.42 500.02 411.52
  Q 500.29 410.23 501.35 409.80
  A 2.02 1.89 60.3 0 1 503.64 410.51
  Q 505.52 413.06 506.60 414.11
  C 508.24 415.71 510.89 416.36 512.50 417.11
  A 5.20 5.16 -10.9 0 1 513.87 418.03
  Q 516.11 420.10 516.38 420.76
  Q 519.06 427.44 523.85 431.16"
/>
<path stroke="#806633" vector-effect="non-scaling-stroke" d="
  M 523.85 431.16
  L 540.30 460.85
  A 0.72 0.72 0.0 0 0 541.65 460.50
  L 541.65 457.60
  A 1.93 1.74 42.0 0 0 541.61 457.22
  L 532.32 413.04"
/>
<path stroke="#040340" vector-effect="non-scaling-stroke" d="
  M 532.32 413.04
  Q 532.18 405.96 529.72 399.54"
/>
<path stroke="#806633" vector-effect="non-scaling-stroke" d="
  M 529.72 399.54
  L 528.30 391.53"
/>
<path stroke="#040340" vector-effect="non-scaling-stroke" d="
  M 528.30 391.53
  L 534.91 374.21"
/>
<path stroke="#806633" vector-effect="non-scaling-stroke" d="
  M 534.91 374.21
  Q 546.29 380.87 550.86 384.64
  Q 561.74 393.62 574.20 400.50
  A 10.48 10.24 82.7 0 1 576.86 402.61
  L 586.20 412.93
  A 1.08 1.08 0.0 0 0 588.06 412.38
  C 589.04 406.44 583.63 400.28 580.69 395.45
  C 576.82 389.11 573.12 383.90 568.99 378.28"
/>
<path stroke="#040340" vector-effect="non-scaling-stroke" d="
  M 568.99 378.28
  Q 569.98 375.98 569.85 373.86
  A 0.20 0.20 0.0 0 0 569.51 373.73
  L 567.50 375.64"
/>
<path stroke="#806633" vector-effect="non-scaling-stroke" d="
  M 567.50 375.64
  L 564.38 370.77"
/>
<path stroke="#040340" vector-effect="non-scaling-stroke" d="
  M 564.38 370.77
  Q 565.45 368.78 567.18 367.77"
/>
<path stroke="#040340" vector-effect="non-scaling-stroke" d="
  M 567.18 367.77
  Q 567.96 371.00 567.38 374.10
  A 0.46 0.46 0.0 0 0 567.94 374.63
  Q 568.30 374.54 568.33 374.25
  Q 568.73 370.84 567.18 367.77"
/>
<path stroke="#040340" vector-effect="non-scaling-stroke" d="
  M 567.18 367.77
  C 564.28 363.56 561.59 358.63 558.43 355.00
  C 555.24 351.36 547.83 341.88 556.37 338.77
  Q 560.04 337.44 568.25 337.31"
/>
<path stroke="#806633" vector-effect="non-scaling-stroke" d="
  M 568.25 337.31
  Q 587.52 337.98 606.74 340.61
  Q 608.96 340.91 613.40 338.60
  A 1.63 1.62 -88.6 0 0 614.07 337.96
  Q 615.46 335.50 612.94 333.82
  Q 610.99 332.51 597.65 326.50
  Q 592.20 324.06 587.57 321.03
  Q 579.25 315.58 568.81 310.20
  C 565.00 308.24 561.51 307.30 558.34 304.92
  Q 555.01 302.42 551.68 300.33
  A 2.52 2.52 0.0 0 1 550.68 297.25
  Q 551.78 294.51 554.84 293.15
  Q 559.54 291.06 568.02 286.40
  Q 568.04 286.39 572.80 283.37
  Q 579.62 279.04 585.93 276.41
  Q 590.22 274.63 604.43 265.45
  Q 607.09 263.73 611.49 262.42
  Q 612.96 261.98 613.72 261.14
  A 1.45 1.44 44.5 0 0 613.70 259.19
  C 612.34 257.74 610.17 257.20 608.31 257.57
  C 602.85 258.63 596.70 257.29 591.26 257.81
  Q 578.16 259.07 563.42 259.10
  Q 561.24 259.10 557.61 259.55
  Q 554.40 259.95 551.80 260.07"
/>
<path stroke="#040340" vector-effect="non-scaling-stroke" d="
  M 551.80 260.07
  Q 552.13 252.94 550.82 245.26"
/>
<path stroke="#806633" vector-effect="non-scaling-stroke" d="
  M 550.82 245.26
  L 563.62 225.81"
/>
<path stroke="#040340" vector-effect="non-scaling-stroke" d="
  M 563.62 225.81
  Q 569.31 220.65 571.89 213.60"
/>
<path stroke="#806633" vector-effect="non-scaling-stroke" d="
  M 571.89 213.60
  Q 577.11 206.59 581.27 198.41
  A 9.21 9.20 -11.9 0 1 582.41 196.66
  C 584.20 194.48 585.93 193.07 587.46 190.31
  Q 589.34 186.91 589.76 185.49
  A 0.87 0.87 0.0 0 0 588.77 184.39
  Q 588.34 184.48 588.15 184.63
  Q 584.26 187.62 577.78 191.70
  C 573.01 194.69 569.03 197.77 564.86 201.37
  C 561.02 204.67 555.29 207.64 550.61 210.76"
/>
<path stroke="#040340" vector-effect="non-scaling-stroke" d="
  M 550.61 210.76
  Q 546.96 211.25 543.43 211.65
  C 537.17 212.35 529.30 210.48 531.27 202.34
  Q 534.79 187.73 535.90 183.34
  Q 536.53 180.87 536.84 178.21
  A 1.33 1.28 -61.4 0 0 536.59 177.30
  Q 535.77 176.21 534.28 175.56"
/>
<path stroke="#806633" vector-effect="non-scaling-stroke" d="
  M 534.28 175.56
  C 536.59 168.48 537.65 161.22 539.07 152.50
  Q 539.79 148.10 540.55 145.44
  C 541.47 142.24 543.01 137.68 541.40 135.34
  A 0.56 0.55 -36.9 0 0 540.59 135.23
  Q 539.20 136.40 538.68 137.71
  Q 536.27 143.77 533.38 148.24
  C 528.43 155.89 524.78 163.73 520.04 171.59
  C 517.31 176.12 514.87 182.56 511.54 187.75"
/>
<path stroke="#040340" vector-effect="non-scaling-stroke" d="
  M 511.54 187.75
  C 508.07 191.54 504.00 194.87 500.49 189.85
  C 496.89 184.70 494.97 178.35 493.65 171.49
  C 492.62 166.17 489.62 159.28 489.26 155.21
  Q 488.31 144.44 485.58 134.04"
/>
<path stroke="#806633" vector-effect="non-scaling-stroke" d="
  M 485.58 134.04
  Q 484.20 128.78 483.49 121.00
  Q 483.29 118.79 481.56 116.55
  A 0.59 0.59 0.0 0 0 480.76 116.42
  Q 479.94 116.98 479.62 118.48"
/>
<path stroke="#84690d" vector-effect="non-scaling-stroke" d="
  M 485.58 134.04
  Q 487.06 142.49 488.18 150.99
  Q 490.21 166.46 490.45 168.00
  Q 492.28 179.75 492.51 185.11
  Q 492.74 190.24 494.36 197.43
  Q 495.47 202.33 496.10 209.80
  A 1.70 1.68 87.6 0 0 497.78 211.36
  L 498.28 211.36
  A 0.95 0.94 23.4 0 0 498.92 211.11
  Q 501.35 208.92 502.75 205.27
  Q 506.25 196.12 511.54 187.75"
/>
<path stroke="#84690d" vector-effect="non-scaling-stroke" d="
  M 534.28 175.56
  Q 532.18 183.29 531.32 188.31
  Q 527.82 208.89 523.95 227.30
  A 1.41 1.41 0.0 0 0 526.23 228.67
  Q 528.14 227.08 530.44 225.88
  C 534.93 223.56 538.56 219.99 542.88 216.21
  C 545.30 214.09 547.89 212.44 550.61 210.76"
/>
<path stroke="#84690d" vector-effect="non-scaling-stroke" d="
  M 571.89 213.60
  L 563.62 225.81"
/>
<path stroke="#84690d" vector-effect="non-scaling-stroke" d="
  M 550.82 245.26
  L 545.72 253.05
  A 2.36 2.32 71.2 0 0 545.44 253.63
  L 543.50 259.45
  A 1.58 1.58 0.0 0 0 545.33 261.49
  L 551.80 260.07"
/>
<path stroke="#84690d" vector-effect="non-scaling-stroke" d="
  M 568.25 337.31
  C 561.03 336.42 553.62 336.48 546.69 333.88
  Q 545.27 333.35 544.27 333.59
  A 1.14 1.13 82.1 0 0 543.41 334.73
  Q 543.61 341.12 547.24 345.78
  Q 548.93 347.95 550.11 349.80
  Q 556.92 360.46 564.38 370.77"
/>
<path stroke="#84690d" vector-effect="non-scaling-stroke" d="
  M 567.50 375.64
  L 568.99 378.28"
/>
<path stroke="#84690d" vector-effect="non-scaling-stroke" d="
  M 534.91 374.21
  L 525.72 366.03
  A 0.97 0.97 0.0 0 0 524.11 366.81
  C 524.31 370.13 524.41 373.20 525.35 376.69
  Q 527.30 384.03 528.30 391.53"
/>
<path stroke="#84690d" vector-effect="non-scaling-stroke" d="
  M 529.72 399.54
  L 532.32 413.04"
/>
<path stroke="#84690d" vector-effect="non-scaling-stroke" d="
  M 523.85 431.16
  Q 518.52 422.53 514.24 413.68
  C 511.73 408.49 508.59 404.46 506.38 399.17
  C 504.00 393.51 502.53 389.66 499.89 385.81
  C 498.25 383.41 495.52 385.65 495.39 387.84
  Q 495.16 391.47 493.77 399.20
  C 492.32 407.23 491.76 416.44 490.89 425.03"
/>
<path stroke="#84690d" vector-effect="non-scaling-stroke" d="
  M 478.66 462.03
  Q 477.51 457.92 477.22 453.73
  Q 476.68 446.00 476.68 445.94
  Q 476.13 441.16 475.46 434.30
  C 475.06 430.26 474.24 426.84 473.67 422.02
  Q 472.98 416.15 470.03 401.29
  C 468.94 395.80 468.35 390.62 467.74 384.96
  A 0.72 0.71 58.0 0 0 466.42 384.65
  C 461.91 391.99 458.10 397.10 454.60 404.32
  Q 451.84 410.00 446.69 418.46
  Q 444.55 421.98 438.43 433.55"
/>
<path stroke="#84690d" vector-effect="non-scaling-stroke" d="
  M 428.65 427.57
  Q 429.41 418.57 430.09 415.82
  Q 436.99 387.78 439.72 377.38
  C 440.76 373.43 440.69 370.40 440.22 367.27
  A 1.44 1.44 0.0 0 0 438.40 366.10
  Q 438.13 366.18 437.14 366.91
  Q 432.26 370.51 429.29 373.29
  C 426.37 376.02 424.14 377.09 419.92 379.74
  Q 416.32 382.01 412.85 384.57
  Q 403.13 391.74 393.04 398.48"
/>
<path stroke="#84690d" vector-effect="non-scaling-stroke" d="
  M 404.03 364.08
  Q 408.60 357.26 413.39 350.71
  C 415.78 347.44 421.42 338.75 420.48 335.16
  A 2.09 2.08 -13.2 0 0 418.03 333.65
  C 410.63 335.21 404.81 336.41 396.01 336.79
  Q 384.53 337.29 372.98 338.16"
/>
<path stroke="#84690d" vector-effect="non-scaling-stroke" d="
  M 411.49 260.14
  L 417.52 261.36
  A 1.57 1.56 4.9 0 0 419.39 259.79
  C 419.20 252.82 416.09 247.21 411.26 241.54"
/>
<path stroke="#84690d" vector-effect="non-scaling-stroke" d="
  M 440.33 164.04
  C 444.54 173.45 450.52 181.39 454.70 190.30
  C 458.22 197.77 461.17 202.05 465.15 209.35
  Q 465.71 210.38 466.61 211.36
  A 0.71 0.71 0.0 0 0 467.83 210.77
  Q 467.22 206.78 468.11 203.66
  Q 468.76 201.37 468.94 200.46
  Q 471.78 186.26 474.35 171.76
  C 476.04 162.16 476.48 150.92 477.50 140.51"
/>
<path stroke="#806633" vector-effect="non-scaling-stroke" d="
  M 477.50 140.51
  L 478.06 138.66
  A 0.17 0.16 -42.4 0 1 478.38 138.67
  Q 478.42 138.87 478.38 139.08
  A 0.01 0.00 -40.3 0 0 478.39 139.08
  Q 478.40 139.07 478.41 139.06
  A 0.24 0.06 83.5 0 0 478.43 138.93
  Q 478.47 136.82 478.15 136.31
  A 0.37 0.32 -59.9 0 1 478.11 136.11
  L 479.57 118.78"
/>
<path stroke="#84690d" vector-effect="non-scaling-stroke" d="
  M 479.57 118.78
  L 479.62 118.48"
/>
<path stroke="#040340" vector-effect="non-scaling-stroke" d="
  M 492.96 424.74
  Q 492.94 424.78 493.02 424.82
  Q 493.03 424.83 493.02 424.82
  Q 492.94 424.78 492.96 424.74"
/>
<path stroke="#040340" vector-effect="non-scaling-stroke" d="
  M 479.57 118.78
  Q 478.05 123.63 477.69 125.79
  C 476.21 134.55 473.35 143.12 473.13 152.03
  A 0.19 0.19 0.0 0 0 473.51 152.08
  Q 476.44 138.15 478.13 126.14
  Q 477.69 133.28 477.50 140.51"
/>
<path stroke="#040340" vector-effect="non-scaling-stroke" d="
  M 769.6404 217.5202
  A 0.24 0.07 -92.3 0 0 769.5801 217.7628
  A 0.24 0.07 -92.3 0 0 769.6596 217.9998
  A 0.24 0.07 -92.3 0 0 769.7199 217.7572
  A 0.24 0.07 -92.3 0 0 769.6404 217.5202"
/>
<path stroke="#040340" vector-effect="non-scaling-stroke" d="
  M 766.57 298.12
  Q 766.97 300.76 767.77 303.16
  A 0.18 0.18 0.0 0 0 767.99 303.28
  L 768.24 303.22
  A 0.02 0.01 76.7 0 0 768.25 303.19
  L 766.78 297.87
  A 0.07 0.07 0.0 0 0 766.64 297.90
  L 766.69 298.32
  A 0.04 0.04 0.0 0 1 766.62 298.34
  C 766.62 298.33 766.51 297.75 766.57 298.12"
/>
<path stroke="#040340" vector-effect="non-scaling-stroke" d="
  M 538.5677 431.5399
  A 0.45 0.25 -107.1 0 0 538.4611 432.0435
  A 0.45 0.25 -107.1 0 0 538.8323 432.4001
  A 0.45 0.25 -107.1 0 0 538.9389 431.8965
  A 0.45 0.25 -107.1 0 0 538.5677 431.5399"
/>
<path stroke="#e68080" vector-effect="non-scaling-stroke" d="
  M 1536.00 68.37
  L 1535.26 73.94
  A 1.86 1.86 0.0 0 1 1533.40 75.56
  Q 1470.27 75.33 1380.53 75.33
  Q 1157.83 75.32 794.00 75.36
  Q 781.31 75.36 778.50 74.55
  Q 775.31 73.64 773.29 74.01"
/>
<path stroke="#e68080" vector-effect="non-scaling-stroke" d="
  M 1536.00 155.14
  L 1534.88 149.85
  A 2.24 2.23 -9.4 0 0 1532.42 148.09
  C 1528.03 148.61 1524.20 149.05 1519.19 149.08
  Q 1477.96 149.26 1437.75 149.25
  Q 812.25 149.10 801.59 149.14
  Q 800.46 149.14 791.40 149.09
  Q 782.99 149.04 781.24 149.39
  Q 778.91 149.86 774.69 151.27
  Q 772.53 151.99 771.77 150.00"
/>
<path stroke="#040340" vector-effect="non-scaling-stroke" d="
  M 473.03 152.52
  L 469.98 173.70
  L 470.16 173.73
  A 10.51 0.80 -81.8 0 0 472.45 163.44
  L 472.50 163.06
  A 10.51 0.80 -81.8 0 0 473.21 152.55
  L 473.03 152.52"
/>
<path stroke="#040340" vector-effect="non-scaling-stroke" d="
  M 452.5870 173.0785
  A 0.27 0.27 0.0 0 0 452.2317 172.9386
  L 452.0850 173.0024
  A 0.27 0.27 0.0 0 0 451.9450 173.3577
  L 455.7730 182.1615
  A 0.27 0.27 0.0 0 0 456.1283 182.3014
  L 456.2750 182.2376
  A 0.27 0.27 0.0 0 0 456.4150 181.8823
  L 452.5870 173.0785"
/>
<path stroke="#e68080" vector-effect="non-scaling-stroke" d="
  M 1536.00 216.37
  L 1535.18 222.78
  A 1.65 1.65 0.0 0 1 1533.65 224.22
  C 1527.38 224.62 1520.78 224.12 1514.80 224.12
  Q 906.67 224.16 806.50 224.15
  Q 798.34 224.14 788.67 223.89
  C 784.22 223.77 778.90 223.11 774.00 222.98"
/>
<path stroke="#6a030d" vector-effect="non-scaling-stroke" d="
  M 770.16 155.96
  Q 770.10 155.83 770.03 155.71"
/>
<path stroke="#e68080" vector-effect="non-scaling-stroke" d="
  M 1536.00 304.72
  C 1535.73 302.60 1535.65 297.95 1533.80 296.73
  C 1532.30 295.74 1528.36 296.59 1525.57 296.91
  Q 1522.56 297.25 1520.52 297.25
  Q 1412.61 297.03 806.75 297.29
  Q 789.24 297.30 787.75 297.27
  Q 781.81 297.16 775.63 298.97
  Q 773.68 299.54 772.19 297.43"
/>
<path stroke="#e68080" vector-effect="non-scaling-stroke" d="
  M 1536.00 364.74
  L 1535.29 370.86
  A 1.52 1.51 -85.1 0 1 1533.71 372.20
  Q 1532.87 372.16 1531.50 372.16
  Q 1522.53 372.16 1473.75 372.10
  Q 1449.49 372.06 794.25 372.08
  Q 785.96 372.08 776.19 370.61
  C 771.73 369.94 770.93 374.85 771.16 378.20"
/>
<path stroke="#6a030d" vector-effect="non-scaling-stroke" d="
  M 769.97 301.63
  A 0.10 0.10 0.0 0 0 769.87 301.53
  A 0.10 0.10 0.0 0 0 769.77 301.63
  A 0.10 0.10 0.0 0 0 769.87 301.73
  A 0.10 0.10 0.0 0 0 769.97 301.63"
/>
<path stroke="#6a030d" vector-effect="non-scaling-stroke" d="
  M 769.41 310.02
  Q 769.47 309.89 769.41 309.74
  A 0.09 0.09 0.0 0 0 769.23 309.77
  Q 769.22 310.00 769.27 310.05
  A 0.09 0.09 0.0 0 0 769.41 310.02"
/>
<path stroke="#e68080" vector-effect="non-scaling-stroke" d="
  M 1536.00 452.16
  L 1535.11 446.38
  A 2.02 2.01 -7.5 0 0 1532.90 444.69
  C 1528.77 445.16 1525.16 445.63 1520.75 445.65
  Q 1517.22 445.66 1503.25 445.67
  Q 1188.12 445.84 846.00 445.75
  Q 806.01 445.74 783.78 445.94
  Q 781.23 445.96 775.49 447.23
  A 1.19 1.17 -36.9 0 1 774.73 447.13
  L 771.37 445.43"
/>
<path stroke="#040340" vector-effect="non-scaling-stroke" d="
  M 473.5654 452.1457
  A 0.99 0.17 -115.4 0 0 473.8364 453.1129
  A 0.99 0.17 -115.4 0 0 474.4146 453.9343
  A 0.99 0.17 -115.4 0 0 474.1436 452.9671
  A 0.99 0.17 -115.4 0 0 473.5654 452.1457"
/>
<path stroke="#e68080" vector-effect="non-scaling-stroke" d="
  M 1536.00 513.47
  L 1535.48 518.56
  A 1.61 1.61 0.0 0 1 1533.88 520.00
  Q 1530.51 519.99 1526.75 520.01
  Q 1507.26 520.11 806.75 520.10
  Q 789.23 520.10 775.50 519.24"
/>
<path stroke="#6a030d" vector-effect="non-scaling-stroke" d="
  M 769.92 454.44
  Q 770.39 453.74 769.92 452.74"
/>
<path stroke="#e68080" vector-effect="non-scaling-stroke" d="
  M 1536.00 601.89
  C 1535.64 599.57 1535.62 595.46 1533.25 594.35
  A 1.77 1.76 -35.2 0 0 1532.37 594.20
  C 1529.82 594.45 1524.96 594.86 1521.56 594.86
  Q 1451.37 594.83 783.76 594.86
  Q 781.11 594.86 774.58 595.64
  Q 771.86 595.96 770.75 592.84"
/>
<path stroke="#6a030d" vector-effect="non-scaling-stroke" d="
  M 768.60 593.98
  L 766.49 595.29
  A 0.31 0.31 0.0 0 0 766.65 595.86
  L 768.42 595.84
  A 0.14 0.14 0.0 0 1 768.57 595.96
  L 768.57 595.97
  A 0.12 0.11 87.8 0 1 768.45 596.11
  L 764.26 595.72"
/>
<path stroke="#e68080" vector-effect="non-scaling-stroke" d="
  M 1536.00 661.43
  L 1535.37 666.78
  A 2.15 2.14 -86.7 0 1 1533.24 668.68
  Q 1516.68 668.73 1499.75 668.72
  Q 1183.79 668.53 36.75 668.68
  Q 6.42 668.68 5.75 668.65
  Q 3.71 668.55 2.02 667.95
  A 1.74 1.72 -85.9 0 1 0.91 666.65
  L 0.00 661.99"
/>
<path stroke="#e68080" vector-effect="non-scaling-stroke" d="
  M 1536.00 750.13
  L 1535.02 744.46
  A 1.97 1.96 -8.2 0 0 1532.86 742.85
  Q 1524.96 743.77 1515.75 743.77
  Q 1438.22 743.74 23.25 743.77
  Q 9.87 743.77 3.53 742.91
  A 1.55 1.54 41.2 0 0 2.88 742.95
  Q 0.92 743.44 0.78 745.58
  Q 0.71 746.57 0.00 749.58"
/>
<path stroke="#e68080" vector-effect="non-scaling-stroke" d="
  M 1536.00 807.99
  L 1535.15 814.94
  A 1.80 1.79 88.5 0 1 1533.68 816.50
  Q 1532.10 816.77 1530.41 816.78
  Q 1522.51 816.80 1514.25 816.80
  Q 31.40 816.52 19.25 816.80
  Q 13.31 816.93 7.33 816.81
  C 3.50 816.73 0.57 817.28 0.58 812.77
  Q 0.59 811.64 0.00 809.26"
/>
<path stroke="#e68080" vector-effect="non-scaling-stroke" d="
  M 1536.00 899.13
  L 1535.17 893.05
  A 2.43 2.43 0.0 0 0 1532.73 890.95
  C 1528.84 891.02 1525.67 891.44 1521.09 891.44
  Q 767.86 891.41 14.63 891.51
  C 10.45 891.51 6.34 890.87 3.09 891.09
  A 1.59 1.55 -65.4 0 0 2.21 891.43
  Q 0.64 892.69 0.57 894.76
  Q 0.52 896.38 0.00 897.67"
/>
<path stroke="#e68080" vector-effect="non-scaling-stroke" d="
  M 1536.00 957.74
  L 1535.25 963.45
  A 1.73 1.72 -86.2 0 1 1533.54 964.95
  L 2.99 964.95
  A 2.23 2.22 -4.5 0 1 0.79 963.08
  L 0.00 958.23"
/>
</g>
<path fill="#000066" d="
  M 770.00 0.00
  Q 770.63 7.20 770.41 14.35
  C 769.97 28.52 769.98 41.91 769.96 61.13
  Q 769.95 64.27 770.17 66.36
  C 770.46 69.12 770.86 71.28 770.62 71.86
  Q 770.56 72.00 770.69 72.12
  Q 770.57 71.20 770.93 70.40
  A 0.23 0.23 0.0 0 1 771.37 70.50
  Q 771.34 72.16 771.35 72.26
  A 0.36 0.36 0.0 0 0 772.07 72.25
  Q 772.07 72.14 771.88 71.99
  A 0.10 0.08 74.1 0 1 771.95 71.82
  Q 772.00 71.85 772.05 71.87
  A 0.26 0.22 -67.6 0 1 772.16 72.21
  Q 771.79 73.02 771.84 73.47
  A 0.41 0.41 0.0 0 0 772.43 73.80
  Q 773.33 73.35 773.29 74.01
  Q 770.90 75.82 770.90 80.50
  Q 770.89 111.24 770.87 141.99
  C 770.87 144.68 771.35 147.37 771.77 150.00
  Q 771.15 151.05 770.27 151.65
  A 0.93 0.93 0.0 0 0 769.87 152.45
  L 770.03 155.71
  Q 769.82 155.44 769.72 155.43
  A 0.20 0.20 0.0 0 0 769.56 155.76
  Q 769.76 155.98 770.16 155.96
  L 770.43 220.31
  A 0.18 0.18 0.0 0 0 770.79 220.34
  L 770.86 219.97
  A 0.02 0.01 -42.6 0 1 770.89 219.97
  L 771.43 221.92
  A 0.13 0.12 78.6 0 0 771.56 222.01
  Q 771.89 221.98 771.87 221.57
  Q 771.85 221.18 771.93 221.57
  Q 771.97 221.77 772.33 222.10
  A 0.25 0.25 0.0 0 0 772.70 222.06
  Q 772.91 221.78 773.16 221.79
  A 0.15 0.15 0.0 0 1 773.28 222.04
  L 772.93 222.46
  A 0.21 0.21 0.0 0 0 773.05 222.80
  L 774.00 222.98
  Q 772.02 223.61 771.69 224.99
  Q 771.08 227.56 771.04 232.00
  Q 770.82 257.63 770.68 283.25
  Q 770.63 290.55 772.19 297.43
  Q 770.51 298.89 769.62 300.75
  A 1.56 1.46 59.1 0 0 769.48 301.39
  L 769.48 304.10
  A 0.18 0.18 0.0 0 1 769.13 304.12
  L 768.34 297.47
  A 0.02 0.02 0.0 0 0 768.30 297.47
  L 768.18 297.81
  A 0.12 0.09 -35.8 0 0 768.16 297.87
  Q 768.28 302.09 769.61 305.77
  Q 769.92 306.62 769.02 308.52
  A 1.93 1.91 59.7 0 0 768.83 309.26
  Q 768.72 311.26 769.32 312.25
  A 1.92 1.88 29.1 0 1 769.58 313.13
  Q 770.18 328.89 770.02 343.64
  C 769.95 349.70 770.39 356.33 770.41 361.07
  C 770.42 363.86 769.81 366.61 770.75 369.67
  A 3.19 2.96 -56.9 0 1 770.87 370.37
  L 771.16 378.20
  Q 770.27 411.99 771.37 445.43
  Q 771.45 448.00 770.37 450.98
  A 0.07 0.07 0.0 0 1 770.24 450.95
  L 770.53 446.78
  A 0.03 0.03 0.0 0 0 770.50 446.75
  L 770.23 446.75
  A 0.13 0.12 -0.0 0 0 770.10 446.87
  L 769.92 452.74
  Q 769.99 449.59 769.12 447.45
  A 0.43 0.42 -59.9 0 0 768.31 447.67
  Q 768.83 451.84 769.92 454.44
  L 769.64 517.27
  A 0.31 0.31 0.0 0 0 770.13 517.52
  Q 770.50 517.24 770.37 516.64
  Q 770.19 518.31 770.59 519.76
  A 0.13 0.12 -13.3 0 0 770.73 519.84
  Q 770.89 519.80 771.06 519.74
  Q 771.20 519.69 771.07 519.29
  Q 771.01 519.12 770.87 518.93
  A 0.05 0.04 -2.6 0 1 770.93 518.87
  Q 770.97 518.88 771.00 518.87
  A 0.11 0.11 0.0 0 1 771.16 518.98
  Q 771.15 519.42 771.26 519.50
  A 0.37 0.36 49.3 0 0 771.59 519.53
  Q 773.38 518.73 775.50 519.24
  Q 770.57 518.93 770.69 523.75
  Q 771.18 544.06 770.75 592.84
  L 768.60 593.98
  L 768.07 592.94
  A 0.40 0.40 0.0 0 0 767.44 592.83
  L 764.26 595.72
  Q 753.57 594.36 744.95 594.36
  Q 744.47 594.36 35.00 594.39
  Q 13.71 594.40 6.38 594.42
  A 0.18 0.17 1.7 0 0 6.20 594.58
  L 6.20 594.59
  A 0.17 0.17 0.0 0 0 6.36 594.77
  Q 8.47 594.95 10.61 594.87
  C 9.22 594.91 8.06 594.89 7.23 594.86
  A 2.04 1.96 -55.1 0 0 6.38 595.03
  Q 4.46 595.85 2.60 595.03
  A 0.70 0.70 0.0 0 0 1.62 595.67
  L 1.62 596.62
  A 0.20 0.19 -14.0 0 0 1.91 596.79
  Q 2.16 596.66 2.35 597.10
  A 0.39 0.39 0.0 0 1 2.20 597.59
  Q 1.44 598.07 1.50 598.76
  A 0.58 0.58 0.0 0 1 0.82 599.38
  L 0.00 599.25
  L 0.00 0.00
  L 770.00 0.00
  Z
  M 286.55 469.80
  Q 278.22 460.13 267.79 452.79
  C 262.27 446.71 256.55 440.32 252.14 433.72
  Q 247.24 426.36 245.56 423.50
  Q 242.87 418.92 236.56 407.42
  C 232.57 400.13 228.73 389.59 226.16 381.65
  Q 223.96 374.84 223.21 373.08
  C 221.43 368.90 219.60 362.75 219.03 359.76
  Q 216.02 343.91 214.31 330.70
  Q 212.91 319.79 212.79 307.88
  Q 212.61 288.68 212.82 285.00
  C 213.63 270.48 215.90 256.52 217.81 243.77
  C 219.82 230.32 225.23 218.05 229.05 206.59
  Q 231.53 199.16 235.04 192.54
  Q 240.86 181.55 243.72 176.31
  C 247.17 170.01 251.60 164.42 255.51 158.35
  C 257.96 154.55 260.49 152.19 263.87 148.12
  Q 269.45 141.39 278.79 132.90
  Q 284.69 127.54 291.49 123.05
  C 301.25 116.59 306.13 112.41 314.90 110.08
  A 0.01 0.01 0.0 0 0 314.90 110.06
  Q 314.68 109.99 314.65 109.98
  A 0.12 0.12 0.0 0 1 314.67 109.75
  Q 318.43 109.00 326.58 106.39
  Q 339.02 102.42 351.99 100.67
  Q 356.06 100.11 362.75 100.81
  Q 375.09 102.09 386.65 105.57
  C 391.97 107.17 397.52 110.20 403.05 111.68
  A 0.83 0.82 5.6 0 0 404.09 110.83
  C 403.95 108.50 400.43 105.59 398.53 104.22
  A 2.42 2.34 4.6 0 1 397.86 103.46
  C 395.95 100.03 393.37 98.67 390.46 96.54
  Q 388.87 95.38 385.56 93.74
  Q 384.37 93.15 373.55 88.46
  Q 372.10 87.83 366.59 84.51
  Q 361.81 81.62 354.07 79.76
  C 338.00 75.90 323.98 74.10 308.07 75.46
  Q 295.97 76.48 290.75 77.26
  Q 280.06 78.85 268.38 84.81
  Q 264.41 86.84 258.58 89.47
  Q 247.94 94.25 241.55 99.29
  Q 241.49 99.34 230.56 108.14
  C 216.81 119.20 205.17 132.95 194.92 147.56
  C 191.49 152.45 187.78 158.76 183.86 164.84
  Q 181.93 167.84 178.90 175.22
  C 176.26 181.65 172.05 188.66 169.78 195.04
  Q 168.29 199.23 161.85 220.60
  C 160.30 225.75 157.84 231.97 157.01 237.51
  Q 155.23 249.31 152.80 269.82
  C 151.99 276.58 152.28 282.56 151.84 288.70
  Q 151.35 295.62 151.70 302.83
  C 152.14 312.02 151.82 317.90 152.97 326.34
  C 154.27 335.86 155.18 350.85 157.91 361.57
  Q 161.18 374.40 162.68 378.64
  Q 167.02 390.90 168.26 395.98
  Q 168.93 398.71 174.88 411.87
  Q 178.97 420.92 179.37 421.79
  Q 182.96 429.60 184.23 431.57
  C 189.29 439.40 192.45 445.11 197.56 451.96
  Q 204.64 461.44 213.50 471.43
  C 218.59 477.18 224.24 481.84 230.22 487.61
  Q 231.07 488.43 232.38 489.35
  C 234.29 490.70 235.89 492.39 237.97 493.51
  C 244.88 497.22 252.63 503.71 260.02 507.18
  Q 269.43 511.59 273.71 512.76
  Q 283.18 515.34 291.10 517.16
  Q 317.61 523.24 343.76 517.27
  Q 353.98 514.93 364.10 511.59
  Q 368.47 510.15 372.74 508.03
  C 379.83 504.51 382.07 503.49 387.59 499.38
  A 6.92 6.28 -72.8 0 1 388.86 498.63
  C 392.50 496.98 403.86 491.40 402.96 486.73
  A 1.26 1.25 66.2 0 0 400.98 485.96
  L 396.05 489.66
  A 0.66 0.39 -59.5 0 1 395.87 489.76
  Q 393.58 490.70 389.67 491.38
  Q 388.83 491.53 384.13 492.56
  Q 373.04 495.00 366.76 495.22
  Q 353.94 495.66 338.63 494.06
  Q 323.60 492.49 311.17 484.40
  A 6.10 5.73 -15.8 0 0 310.13 483.86
  Q 297.10 478.65 286.55 469.80
  Z
  M 479.62 118.48
  Q 475.13 131.37 472.99 144.95
  Q 469.72 165.73 469.45 167.19
  C 468.70 171.19 465.44 186.21 457.94 179.91
  C 454.82 177.29 452.85 173.13 450.32 169.64
  C 448.03 166.50 446.40 164.02 444.55 162.33
  Q 443.73 161.58 443.56 160.34
  A 0.17 0.12 64.9 0 0 443.32 160.20
  Q 443.30 160.23 443.29 160.25
  A 1.04 1.03 40.1 0 0 443.40 161.51
  Q 446.75 165.16 447.97 166.80
  Q 448.21 167.14 448.03 167.42
  A 0.26 0.26 0.0 0 1 447.62 167.45
  L 446.78 166.52
  A 1.46 1.36 -9.5 0 0 446.22 166.15
  L 440.33 164.04
  L 428.16 142.49
  A 2.98 2.90 -68.2 0 1 427.87 141.79
  Q 426.31 136.44 422.53 132.98
  A 0.62 0.62 0.0 0 0 421.49 133.46
  L 421.63 137.15
  A 4.12 3.72 38.0 0 0 421.81 138.18
  C 423.25 142.88 424.53 145.83 425.21 150.10
  C 426.36 157.23 428.62 165.40 429.50 172.52
  Q 429.80 174.98 432.00 187.04
  C 433.50 195.22 436.84 203.86 438.20 212.38
  Q 438.38 213.55 439.69 218.82
  Q 440.72 222.96 440.35 227.55
  A 0.89 0.89 0.0 0 1 439.21 228.33
  Q 433.68 226.67 429.42 222.57
  Q 424.85 218.17 423.22 217.03
  C 415.82 211.89 412.88 209.66 406.04 205.63
  Q 400.74 202.51 397.26 199.17
  Q 393.58 195.65 390.25 193.42
  Q 383.66 189.01 382.63 188.44
  A 7.14 6.76 80.3 0 1 381.83 187.84
  L 376.58 183.42
  A 0.69 0.69 0.0 0 0 375.45 183.98
  Q 375.66 187.83 377.40 190.85
  C 381.19 197.44 385.29 202.73 389.90 209.67
  Q 400.50 225.64 411.26 241.54
  Q 410.16 247.82 408.82 254.06
  Q 408.51 255.49 409.51 258.78
  A 0.24 0.24 0.0 0 1 409.27 259.09
  Q 409.03 259.08 408.95 259.11
  A 0.24 0.23 37.9 0 0 409.02 259.55
  L 411.49 260.14
  Q 405.52 259.03 399.49 258.92
  Q 380.84 258.58 360.96 257.08
  C 357.24 256.80 354.80 256.09 351.25 258.20
  A 1.78 1.78 0.0 0 0 351.27 261.27
  C 353.98 262.83 357.95 262.64 360.74 264.97
  Q 366.85 270.07 373.78 273.48
  Q 387.62 280.27 399.97 287.86
  Q 402.95 289.69 404.67 290.35
  C 408.20 291.71 412.21 292.90 413.59 295.95
  Q 415.18 299.47 411.65 301.13
  Q 408.10 302.81 403.92 305.51
  Q 398.25 309.17 396.25 310.00
  C 387.13 313.77 379.42 319.15 370.75 324.22
  Q 366.82 326.52 354.21 331.70
  Q 351.03 333.01 349.44 335.27
  A 2.60 2.36 -53.9 0 0 349.81 338.71
  Q 350.86 339.50 352.75 339.50
  Q 362.98 339.47 372.98 338.16
  Q 377.76 341.34 383.76 341.11
  Q 390.33 340.86 407.05 340.11
  A 0.95 0.95 0.0 0 1 407.72 340.34
  L 409.79 342.08
  A 0.88 0.86 24.5 0 1 410.09 342.85
  Q 409.59 346.99 409.06 349.93
  Q 408.77 351.54 406.50 356.53
  Q 404.84 360.16 404.03 364.08
  L 377.04 403.62
  A 6.75 6.72 62.3 0 0 375.86 407.43
  L 375.86 409.76
  A 1.30 1.30 0.0 0 0 378.11 410.65
  Q 384.45 403.85 393.04 398.48
  Q 399.79 397.54 404.69 393.09
  C 406.32 391.60 408.10 390.31 409.97 390.04
  Q 418.11 388.85 426.95 390.82
  A 1.48 1.48 0.0 0 1 428.11 392.23
  Q 428.22 395.48 427.90 398.32
  Q 426.77 408.34 425.73 418.75
  Q 425.32 422.85 425.70 425.17
  Q 426.25 428.58 428.65 427.57
  Q 426.19 441.62 422.04 454.75
  C 421.22 457.36 420.99 459.55 421.23 461.99
  A 0.56 0.55 -12.2 0 0 421.97 462.46
  C 423.87 461.78 425.80 457.09 426.41 455.09
  A 2.29 2.13 69.5 0 1 426.53 454.80
  L 438.43 433.55
  C 445.98 427.98 450.08 421.50 454.35 413.33
  C 456.69 408.86 459.10 406.73 463.58 405.20
  A 1.31 1.30 -22.7 0 1 465.17 405.85
  Q 466.69 408.91 467.16 412.00
  Q 468.72 422.13 468.86 423.10
  Q 469.19 425.29 472.23 432.47
  C 473.83 436.25 474.50 441.21 473.53 446.35
  C 472.38 452.38 474.02 457.69 478.66 462.03
  Q 479.15 468.15 479.42 474.24
  Q 479.52 476.52 480.46 477.95
  A 1.13 1.13 0.0 0 0 482.43 477.79
  Q 483.53 475.34 483.67 473.25
  Q 483.96 469.03 485.57 460.38
  C 487.74 448.74 489.32 436.81 490.89 425.03
  C 493.81 421.34 494.83 416.27 495.38 411.37
  C 495.39 415.77 494.34 420.65 492.96 424.74
  L 489.91 436.28
  A 0.03 0.03 0.0 0 0 489.94 436.32
  Q 489.95 436.33 489.97 436.32
  A 0.14 0.10 -84.9 0 0 490.06 436.21
  L 490.09 435.62
  A 0.46 0.46 0.0 0 1 490.42 435.21
  L 491.83 434.82
  A 0.81 0.81 0.0 0 0 492.43 434.08
  Q 492.83 426.92 495.19 422.88
  Q 498.97 416.42 500.02 411.52
  Q 500.29 410.23 501.35 409.80
  A 2.02 1.89 60.3 0 1 503.64 410.51
  Q 505.52 413.06 506.60 414.11
  C 508.24 415.71 510.89 416.36 512.50 417.11
  A 5.20 5.16 -10.9 0 1 513.87 418.03
  Q 516.11 420.10 516.38 420.76
  Q 519.06 427.44 523.85 431.16
  L 540.30 460.85
  A 0.72 0.72 0.0 0 0 541.65 460.50
  L 541.65 457.60
  A 1.93 1.74 42.0 0 0 541.61 457.22
  L 532.32 413.04
  Q 532.18 405.96 529.72 399.54
  L 528.30 391.53
  L 534.91 374.21
  Q 546.29 380.87 550.86 384.64
  Q 561.74 393.62 574.20 400.50
  A 10.48 10.24 82.7 0 1 576.86 402.61
  L 586.20 412.93
  A 1.08 1.08 0.0 0 0 588.06 412.38
  C 589.04 406.44 583.63 400.28 580.69 395.45
  C 576.82 389.11 573.12 383.90 568.99 378.28
  Q 569.98 375.98 569.85 373.86
  A 0.20 0.20 0.0 0 0 569.51 373.73
  L 567.50 375.64
  L 564.38 370.77
  Q 565.45 368.78 567.18 367.77
  Q 567.96 371.00 567.38 374.10
  A 0.46 0.46 0.0 0 0 567.94 374.63
  Q 568.30 374.54 568.33 374.25
  Q 568.73 370.84 567.18 367.77
  C 564.28 363.56 561.59 358.63 558.43 355.00
  C 555.24 351.36 547.83 341.88 556.37 338.77
  Q 560.04 337.44 568.25 337.31
  Q 587.52 337.98 606.74 340.61
  Q 608.96 340.91 613.40 338.60
  A 1.63 1.62 -88.6 0 0 614.07 337.96
  Q 615.46 335.50 612.94 333.82
  Q 610.99 332.51 597.65 326.50
  Q 592.20 324.06 587.57 321.03
  Q 579.25 315.58 568.81 310.20
  C 565.00 308.24 561.51 307.30 558.34 304.92
  Q 555.01 302.42 551.68 300.33
  A 2.52 2.52 0.0 0 1 550.68 297.25
  Q 551.78 294.51 554.84 293.15
  Q 559.54 291.06 568.02 286.40
  Q 568.04 286.39 572.80 283.37
  Q 579.62 279.04 585.93 276.41
  Q 590.22 274.63 604.43 265.45
  Q 607.09 263.73 611.49 262.42
  Q 612.96 261.98 613.72 261.14
  A 1.45 1.44 44.5 0 0 613.70 259.19
  C 612.34 257.74 610.17 257.20 608.31 257.57
  C 602.85 258.63 596.70 257.29 591.26 257.81
  Q 578.16 259.07 563.42 259.10
  Q 561.24 259.10 557.61 259.55
  Q 554.40 259.95 551.80 260.07
  Q 552.13 252.94 550.82 245.26
  L 563.62 225.81
  Q 569.31 220.65 571.89 213.60
  Q 577.11 206.59 581.27 198.41
  A 9.21 9.20 -11.9 0 1 582.41 196.66
  C 584.20 194.48 585.93 193.07 587.46 190.31
  Q 589.34 186.91 589.76 185.49
  A 0.87 0.87 0.0 0 0 588.77 184.39
  Q 588.34 184.48 588.15 184.63
  Q 584.26 187.62 577.78 191.70
  C 573.01 194.69 569.03 197.77 564.86 201.37
  C 561.02 204.67 555.29 207.64 550.61 210.76
  Q 546.96 211.25 543.43 211.65
  C 537.17 212.35 529.30 210.48 531.27 202.34
  Q 534.79 187.73 535.90 183.34
  Q 536.53 180.87 536.84 178.21
  A 1.33 1.28 -61.4 0 0 536.59 177.30
  Q 535.77 176.21 534.28 175.56
  C 536.59 168.48 537.65 161.22 539.07 152.50
  Q 539.79 148.10 540.55 145.44
  C 541.47 142.24 543.01 137.68 541.40 135.34
  A 0.56 0.55 -36.9 0 0 540.59 135.23
  Q 539.20 136.40 538.68 137.71
  Q 536.27 143.77 533.38 148.24
  C 528.43 155.89 524.78 163.73 520.04 171.59
  C 517.31 176.12 514.87 182.56 511.54 187.75
  C 508.07 191.54 504.00 194.87 500.49 189.85
  C 496.89 184.70 494.97 178.35 493.65 171.49
  C 492.62 166.17 489.62 159.28 489.26 155.21
  Q 488.31 144.44 485.58 134.04
  Q 484.20 128.78 483.49 121.00
  Q 483.29 118.79 481.56 116.55
  A 0.59 0.59 0.0 0 0 480.76 116.42
  Q 479.94 116.98 479.62 118.48
  Z
  M 769.6404 217.5202
  A 0.24 0.07 -92.3 0 0 769.5801 217.7628
  A 0.24 0.07 -92.3 0 0 769.6596 217.9998
  A 0.24 0.07 -92.3 0 0 769.7199 217.7572
  A 0.24 0.07 -92.3 0 0 769.6404 217.5202
  Z
  M 766.57 298.12
  Q 766.97 300.76 767.77 303.16
  A 0.18 0.18 0.0 0 0 767.99 303.28
  L 768.24 303.22
  A 0.02 0.01 76.7 0 0 768.25 303.19
  L 766.78 297.87
  A 0.07 0.07 0.0 0 0 766.64 297.90
  L 766.69 298.32
  A 0.04 0.04 0.0 0 1 766.62 298.34
  C 766.62 298.33 766.51 297.75 766.57 298.12
  Z
  M 538.5677 431.5399
  A 0.45 0.25 -107.1 0 0 538.4611 432.0435
  A 0.45 0.25 -107.1 0 0 538.8323 432.4001
  A 0.45 0.25 -107.1 0 0 538.9389 431.8965
  A 0.45 0.25 -107.1 0 0 538.5677 431.5399
  Z"
/>
<path fill="#cc0000" d="
  M 1536.00 0.00
  L 1536.00 68.37
  L 1535.26 73.94
  A 1.86 1.86 0.0 0 1 1533.40 75.56
  Q 1470.27 75.33 1380.53 75.33
  Q 1157.83 75.32 794.00 75.36
  Q 781.31 75.36 778.50 74.55
  Q 775.31 73.64 773.29 74.01
  Q 773.33 73.35 772.43 73.80
  A 0.41 0.41 0.0 0 1 771.84 73.47
  Q 771.79 73.02 772.16 72.21
  A 0.26 0.22 -67.6 0 0 772.05 71.87
  Q 772.00 71.85 771.95 71.82
  A 0.10 0.08 74.1 0 0 771.88 71.99
  Q 772.07 72.14 772.07 72.25
  A 0.36 0.36 0.0 0 1 771.35 72.26
  Q 771.34 72.16 771.37 70.50
  A 0.23 0.23 0.0 0 0 770.93 70.40
  Q 770.57 71.20 770.69 72.12
  Q 770.56 72.00 770.62 71.86
  C 770.86 71.28 770.46 69.12 770.17 66.36
  Q 769.95 64.27 769.96 61.13
  C 769.98 41.91 769.97 28.52 770.41 14.35
  Q 770.63 7.20 770.00 0.00
  L 1536.00 0.00
  Z"
/>
<path fill="#ffffff" d="
  M 1536.00 68.37
  L 1536.00 155.14
  L 1534.88 149.85
  A 2.24 2.23 -9.4 0 0 1532.42 148.09
  C 1528.03 148.61 1524.20 149.05 1519.19 149.08
  Q 1477.96 149.26 1437.75 149.25
  Q 812.25 149.10 801.59 149.14
  Q 800.46 149.14 791.40 149.09
  Q 782.99 149.04 781.24 149.39
  Q 778.91 149.86 774.69 151.27
  Q 772.53 151.99 771.77 150.00
  C 771.35 147.37 770.87 144.68 770.87 141.99
  Q 770.89 111.24 770.90 80.50
  Q 770.90 75.82 773.29 74.01
  Q 775.31 73.64 778.50 74.55
  Q 781.31 75.36 794.00 75.36
  Q 1157.83 75.32 1380.53 75.33
  Q 1470.27 75.33 1533.40 75.56
  A 1.86 1.86 0.0 0 0 1535.26 73.94
  L 1536.00 68.37
  Z"
/>
<path fill="#ffcc00" d="
  M 267.79 452.79
  L 286.55 469.80
  Q 297.10 478.65 310.13 483.86
  A 6.10 5.73 -15.8 0 1 311.17 484.40
  Q 323.60 492.49 338.63 494.06
  Q 353.94 495.66 366.76 495.22
  Q 373.04 495.00 384.13 492.56
  Q 388.83 491.53 389.67 491.38
  Q 393.58 490.70 395.87 489.76
  A 0.66 0.39 -59.5 0 0 396.05 489.66
  L 400.98 485.96
  A 1.26 1.25 66.2 0 1 402.96 486.73
  C 403.86 491.40 392.50 496.98 388.86 498.63
  A 6.92 6.28 -72.8 0 0 387.59 499.38
  C 382.07 503.49 379.83 504.51 372.74 508.03
  Q 368.47 510.15 364.10 511.59
  Q 353.98 514.93 343.76 517.27
  Q 317.61 523.24 291.10 517.16
  Q 283.18 515.34 273.71 512.76
  Q 269.43 511.59 260.02 507.18
  C 252.63 503.71 244.88 497.22 237.97 493.51
  C 235.89 492.39 234.29 490.70 232.38 489.35
  Q 231.07 488.43 230.22 487.61
  C 224.24 481.84 218.59 477.18 213.50 471.43
  Q 204.64 461.44 197.56 451.96
  C 192.45 445.11 189.29 439.40 184.23 431.57
  Q 182.96 429.60 179.37 421.79
  Q 178.97 420.92 174.88 411.87
  Q 168.93 398.71 168.26 395.98
  Q 167.02 390.90 162.68 378.64
  Q 161.18 374.40 157.91 361.57
  C 155.18 350.85 154.27 335.86 152.97 326.34
  C 151.82 317.90 152.14 312.02 151.70 302.83
  Q 151.35 295.62 151.84 288.70
  C 152.28 282.56 151.99 276.58 152.80 269.82
  Q 155.23 249.31 157.01 237.51
  C 157.84 231.97 160.30 225.75 161.85 220.60
  Q 168.29 199.23 169.78 195.04
  C 172.05 188.66 176.26 181.65 178.90 175.22
  Q 181.93 167.84 183.86 164.84
  C 187.78 158.76 191.49 152.45 194.92 147.56
  C 205.17 132.95 216.81 119.20 230.56 108.14
  Q 241.49 99.34 241.55 99.29
  Q 247.94 94.25 258.58 89.47
  Q 264.41 86.84 268.38 84.81
  Q 280.06 78.85 290.75 77.26
  Q 295.97 76.48 308.07 75.46
  C 323.98 74.10 338.00 75.90 354.07 79.76
  Q 361.81 81.62 366.59 84.51
  Q 372.10 87.83 373.55 88.46
  Q 384.37 93.15 385.56 93.74
  Q 388.87 95.38 390.46 96.54
  C 393.37 98.67 395.95 100.03 397.86 103.46
  A 2.42 2.34 4.6 0 0 398.53 104.22
  C 400.43 105.59 403.95 108.50 404.09 110.83
  A 0.83 0.82 5.6 0 1 403.05 111.68
  C 397.52 110.20 391.97 107.17 386.65 105.57
  Q 375.09 102.09 362.75 100.81
  Q 356.06 100.11 351.99 100.67
  Q 339.02 102.42 326.58 106.39
  Q 318.43 109.00 314.67 109.75
  A 0.12 0.12 0.0 0 0 314.65 109.98
  Q 314.68 109.99 314.90 110.06
  A 0.01 0.01 0.0 0 1 314.90 110.08
  C 306.13 112.41 301.25 116.59 291.49 123.05
  Q 284.69 127.54 278.79 132.90
  Q 269.45 141.39 263.87 148.12
  C 260.49 152.19 257.96 154.55 255.51 158.35
  C 251.60 164.42 247.17 170.01 243.72 176.31
  Q 240.86 181.55 235.04 192.54
  Q 231.53 199.16 229.05 206.59
  C 225.23 218.05 219.82 230.32 217.81 243.77
  C 215.90 256.52 213.63 270.48 212.82 285.00
  Q 212.61 288.68 212.79 307.88
  Q 212.91 319.79 214.31 330.70
  Q 216.02 343.91 219.03 359.76
  C 219.60 362.75 221.43 368.90 223.21 373.08
  Q 223.96 374.84 226.16 381.65
  C 228.73 389.59 232.57 400.13 236.56 407.42
  Q 242.87 418.92 245.56 423.50
  Q 247.24 426.36 252.14 433.72
  C 256.55 440.32 262.27 446.71 267.79 452.79
  Z"
/>
<path fill="#ffcc00" d="
  M 485.58 134.04
  Q 487.06 142.49 488.18 150.99
  Q 490.21 166.46 490.45 168.00
  Q 492.28 179.75 492.51 185.11
  Q 492.74 190.24 494.36 197.43
  Q 495.47 202.33 496.10 209.80
  A 1.70 1.68 87.6 0 0 497.78 211.36
  L 498.28 211.36
  A 0.95 0.94 23.4 0 0 498.92 211.11
  Q 501.35 208.92 502.75 205.27
  Q 506.25 196.12 511.54 187.75
  C 514.87 182.56 517.31 176.12 520.04 171.59
  C 524.78 163.73 528.43 155.89 533.38 148.24
  Q 536.27 143.77 538.68 137.71
  Q 539.20 136.40 540.59 135.23
  A 0.56 0.55 -36.9 0 1 541.40 135.34
  C 543.01 137.68 541.47 142.24 540.55 145.44
  Q 539.79 148.10 539.07 152.50
  C 537.65 161.22 536.59 168.48 534.28 175.56
  Q 532.18 183.29 531.32 188.31
  Q 527.82 208.89 523.95 227.30
  A 1.41 1.41 0.0 0 0 526.23 228.67
  Q 528.14 227.08 530.44 225.88
  C 534.93 223.56 538.56 219.99 542.88 216.21
  C 545.30 214.09 547.89 212.44 550.61 210.76
  C 555.29 207.64 561.02 204.67 564.86 201.37
  C 569.03 197.77 573.01 194.69 577.78 191.70
  Q 584.26 187.62 588.15 184.63
  Q 588.34 184.48 588.77 184.39
  A 0.87 0.87 0.0 0 1 589.76 185.49
  Q 589.34 186.91 587.46 190.31
  C 585.93 193.07 584.20 194.48 582.41 196.66
  A 9.21 9.20 -11.9 0 0 581.27 198.41
  Q 577.11 206.59 571.89 213.60
  L 563.62 225.81
  L 550.82 245.26
  L 545.72 253.05
  A 2.36 2.32 71.2 0 0 545.44 253.63
  L 543.50 259.45
  A 1.58 1.58 0.0 0 0 545.33 261.49
  L 551.80 260.07
  Q 554.40 259.95 557.61 259.55
  Q 561.24 259.10 563.42 259.10
  Q 578.16 259.07 591.26 257.81
  C 596.70 257.29 602.85 258.63 608.31 257.57
  C 610.17 257.20 612.34 257.74 613.70 259.19
  A 1.45 1.44 44.5 0 1 613.72 261.14
  Q 612.96 261.98 611.49 262.42
  Q 607.09 263.73 604.43 265.45
  Q 590.22 274.63 585.93 276.41
  Q 579.62 279.04 572.80 283.37
  Q 568.04 286.39 568.02 286.40
  Q 559.54 291.06 554.84 293.15
  Q 551.78 294.51 550.68 297.25
  A 2.52 2.52 0.0 0 0 551.68 300.33
  Q 555.01 302.42 558.34 304.92
  C 561.51 307.30 565.00 308.24 568.81 310.20
  Q 579.25 315.58 587.57 321.03
  Q 592.20 324.06 597.65 326.50
  Q 610.99 332.51 612.94 333.82
  Q 615.46 335.50 614.07 337.96
  A 1.63 1.62 -88.6 0 1 613.40 338.60
  Q 608.96 340.91 606.74 340.61
  Q 587.52 337.98 568.25 337.31
  C 561.03 336.42 553.62 336.48 546.69 333.88
  Q 545.27 333.35 544.27 333.59
  A 1.14 1.13 82.1 0 0 543.41 334.73
  Q 543.61 341.12 547.24 345.78
  Q 548.93 347.95 550.11 349.80
  Q 556.92 360.46 564.38 370.77
  L 567.50 375.64
  L 568.99 378.28
  C 573.12 383.90 576.82 389.11 580.69 395.45
  C 583.63 400.28 589.04 406.44 588.06 412.38
  A 1.08 1.08 0.0 0 1 586.20 412.93
  L 576.86 402.61
  A 10.48 10.24 82.7 0 0 574.20 400.50
  Q 561.74 393.62 550.86 384.64
  Q 546.29 380.87 534.91 374.21
  L 525.72 366.03
  A 0.97 0.97 0.0 0 0 524.11 366.81
  C 524.31 370.13 524.41 373.20 525.35 376.69
  Q 527.30 384.03 528.30 391.53
  L 529.72 399.54
  L 532.32 413.04
  L 541.61 457.22
  A 1.93 1.74 42.0 0 1 541.65 457.60
  L 541.65 460.50
  A 0.72 0.72 0.0 0 1 540.30 460.85
  L 523.85 431.16
  Q 518.52 422.53 514.24 413.68
  C 511.73 408.49 508.59 404.46 506.38 399.17
  C 504.00 393.51 502.53 389.66 499.89 385.81
  C 498.25 383.41 495.52 385.65 495.39 387.84
  Q 495.16 391.47 493.77 399.20
  C 492.32 407.23 491.76 416.44 490.89 425.03
  C 489.32 436.81 487.74 448.74 485.57 460.38
  Q 483.96 469.03 483.67 473.25
  Q 483.53 475.34 482.43 477.79
  A 1.13 1.13 0.0 0 1 480.46 477.95
  Q 479.52 476.52 479.42 474.24
  Q 479.15 468.15 478.66 462.03
  Q 477.51 457.92 477.22 453.73
  Q 476.68 446.00 476.68 445.94
  Q 476.13 441.16 475.46 434.30
  C 475.06 430.26 474.24 426.84 473.67 422.02
  Q 472.98 416.15 470.03 401.29
  C 468.94 395.80 468.35 390.62 467.74 384.96
  A 0.72 0.71 58.0 0 0 466.42 384.65
  C 461.91 391.99 458.10 397.10 454.60 404.32
  Q 451.84 410.00 446.69 418.46
  Q 444.55 421.98 438.43 433.55
  L 426.53 454.80
  A 2.29 2.13 69.5 0 0 426.41 455.09
  C 425.80 457.09 423.87 461.78 421.97 462.46
  A 0.56 0.55 -12.2 0 1 421.23 461.99
  C 420.99 459.55 421.22 457.36 422.04 454.75
  Q 426.19 441.62 428.65 427.57
  Q 429.41 418.57 430.09 415.82
  Q 436.99 387.78 439.72 377.38
  C 440.76 373.43 440.69 370.40 440.22 367.27
  A 1.44 1.44 0.0 0 0 438.40 366.10
  Q 438.13 366.18 437.14 366.91
  Q 432.26 370.51 429.29 373.29
  C 426.37 376.02 424.14 377.09 419.92 379.74
  Q 416.32 382.01 412.85 384.57
  Q 403.13 391.74 393.04 398.48
  Q 384.45 403.85 378.11 410.65
  A 1.30 1.30 0.0 0 1 375.86 409.76
  L 375.86 407.43
  A 6.75 6.72 62.3 0 1 377.04 403.62
  L 404.03 364.08
  Q 408.60 357.26 413.39 350.71
  C 415.78 347.44 421.42 338.75 420.48 335.16
  A 2.09 2.08 -13.2 0 0 418.03 333.65
  C 410.63 335.21 404.81 336.41 396.01 336.79
  Q 384.53 337.29 372.98 338.16
  Q 362.98 339.47 352.75 339.50
  Q 350.86 339.50 349.81 338.71
  A 2.60 2.36 -53.9 0 1 349.44 335.27
  Q 351.03 333.01 354.21 331.70
  Q 366.82 326.52 370.75 324.22
  C 379.42 319.15 387.13 313.77 396.25 310.00
  Q 398.25 309.17 403.92 305.51
  Q 408.10 302.81 411.65 301.13
  Q 415.18 299.47 413.59 295.95
  C 412.21 292.90 408.20 291.71 404.67 290.35
  Q 402.95 289.69 399.97 287.86
  Q 387.62 280.27 373.78 273.48
  Q 366.85 270.07 360.74 264.97
  C 357.95 262.64 353.98 262.83 351.27 261.27
  A 1.78 1.78 0.0 0 1 351.25 258.20
  C 354.80 256.09 357.24 256.80 360.96 257.08
  Q 380.84 258.58 399.49 258.92
  Q 405.52 259.03 411.49 260.14
  L 417.52 261.36
  A 1.57 1.56 4.9 0 0 419.39 259.79
  C 419.20 252.82 416.09 247.21 411.26 241.54
  Q 400.50 225.64 389.90 209.67
  C 385.29 202.73 381.19 197.44 377.40 190.85
  Q 375.66 187.83 375.45 183.98
  A 0.69 0.69 0.0 0 1 376.58 183.42
  L 381.83 187.84
  A 7.14 6.76 80.3 0 0 382.63 188.44
  Q 383.66 189.01 390.25 193.42
  Q 393.58 195.65 397.26 199.17
  Q 400.74 202.51 406.04 205.63
  C 412.88 209.66 415.82 211.89 423.22 217.03
  Q 424.85 218.17 429.42 222.57
  Q 433.68 226.67 439.21 228.33
  A 0.89 0.89 0.0 0 0 440.35 227.55
  Q 440.72 222.96 439.69 218.82
  Q 438.38 213.55 438.20 212.38
  C 436.84 203.86 433.50 195.22 432.00 187.04
  Q 429.80 174.98 429.50 172.52
  C 428.62 165.40 426.36 157.23 425.21 150.10
  C 424.53 145.83 423.25 142.88 421.81 138.18
  A 4.12 3.72 38.0 0 1 421.63 137.15
  L 421.49 133.46
  A 0.62 0.62 0.0 0 1 422.53 132.98
  Q 426.31 136.44 427.87 141.79
  A 2.98 2.90 -68.2 0 0 428.16 142.49
  L 440.33 164.04
  C 444.54 173.45 450.52 181.39 454.70 190.30
  C 458.22 197.77 461.17 202.05 465.15 209.35
  Q 465.71 210.38 466.61 211.36
  A 0.71 0.71 0.0 0 0 467.83 210.77
  Q 467.22 206.78 468.11 203.66
  Q 468.76 201.37 468.94 200.46
  Q 471.78 186.26 474.35 171.76
  C 476.04 162.16 476.48 150.92 477.50 140.51
  L 478.06 138.66
  A 0.17 0.16 -42.4 0 1 478.38 138.67
  Q 478.42 138.87 478.38 139.08
  A 0.01 0.00 -40.3 0 0 478.39 139.08
  Q 478.40 139.07 478.41 139.06
  A 0.24 0.06 83.5 0 0 478.43 138.93
  Q 478.47 136.82 478.15 136.31
  A 0.37 0.32 -59.9 0 1 478.11 136.11
  L 479.57 118.78
  L 479.62 118.48
  Q 479.94 116.98 480.76 116.42
  A 0.59 0.59 0.0 0 1 481.56 116.55
  Q 483.29 118.79 483.49 121.00
  Q 484.20 128.78 485.58 134.04
  Z"
/>
<path fill="#08061a" d="
  M 479.62 118.48
  L 479.57 118.78
  Q 478.05 123.63 477.69 125.79
  C 476.21 134.55 473.35 143.12 473.13 152.03
  A 0.19 0.19 0.0 0 0 473.51 152.08
  Q 476.44 138.15 478.13 126.14
  Q 477.69 133.28 477.50 140.51
  C 476.48 150.92 476.04 162.16 474.35 171.76
  Q 471.78 186.26 468.94 200.46
  Q 468.76 201.37 468.11 203.66
  Q 467.22 206.78 467.83 210.77
  A 0.71 0.71 0.0 0 1 466.61 211.36
  Q 465.71 210.38 465.15 209.35
  C 461.17 202.05 458.22 197.77 454.70 190.30
  C 450.52 181.39 444.54 173.45 440.33 164.04
  L 446.22 166.15
  A 1.46 1.36 -9.5 0 1 446.78 166.52
  L 447.62 167.45
  A 0.26 0.26 0.0 0 0 448.03 167.42
  Q 448.21 167.14 447.97 166.80
  Q 446.75 165.16 443.40 161.51
  A 1.04 1.03 40.1 0 1 443.29 160.25
  Q 443.30 160.23 443.32 160.20
  A 0.17 0.12 64.9 0 1 443.56 160.34
  Q 443.73 161.58 444.55 162.33
  C 446.40 164.02 448.03 166.50 450.32 169.64
  C 452.85 173.13 454.82 177.29 457.94 179.91
  C 465.44 186.21 468.70 171.19 469.45 167.19
  Q 469.72 165.73 472.99 144.95
  Q 475.13 131.37 479.62 118.48
  Z
  M 473.03 152.52
  L 469.98 173.70
  L 470.16 173.73
  A 10.51 0.80 -81.8 0 0 472.45 163.44
  L 472.50 163.06
  A 10.51 0.80 -81.8 0 0 473.21 152.55
  L 473.03 152.52
  Z
  M 452.5870 173.0785
  A 0.27 0.27 0.0 0 0 452.2317 172.9386
  L 452.0850 173.0024
  A 0.27 0.27 0.0 0 0 451.9450 173.3577
  L 455.7730 182.1615
  A 0.27 0.27 0.0 0 0 456.1283 182.3014
  L 456.2750 182.2376
  A 0.27 0.27 0.0 0 0 456.4150 181.8823
  L 452.5870 173.0785
  Z"
/>
<path fill="#000066" d="
  M 479.57 118.78
  L 478.11 136.11
  A 0.37 0.32 -59.9 0 0 478.15 136.31
  Q 478.47 136.82 478.43 138.93
  A 0.24 0.06 83.5 0 1 478.41 139.06
  Q 478.40 139.07 478.39 139.08
  A 0.01 0.00 -40.3 0 1 478.38 139.08
  Q 478.42 138.87 478.38 138.67
  A 0.17 0.16 -42.4 0 0 478.06 138.66
  L 477.50 140.51
  Q 477.69 133.28 478.13 126.14
  Q 476.44 138.15 473.51 152.08
  A 0.19 0.19 0.0 0 1 473.13 152.03
  C 473.35 143.12 476.21 134.55 477.69 125.79
  Q 478.05 123.63 479.57 118.78
  Z"
/>
<path fill="#08061a" d="
  M 511.54 187.75
  Q 506.25 196.12 502.75 205.27
  Q 501.35 208.92 498.92 211.11
  A 0.95 0.94 23.4 0 1 498.28 211.36
  L 497.78 211.36
  A 1.70 1.68 87.6 0 1 496.10 209.80
  Q 495.47 202.33 494.36 197.43
  Q 492.74 190.24 492.51 185.11
  Q 492.28 179.75 490.45 168.00
  Q 490.21 166.46 488.18 150.99
  Q 487.06 142.49 485.58 134.04
  Q 488.31 144.44 489.26 155.21
  C 489.62 159.28 492.62 166.17 493.65 171.49
  C 494.97 178.35 496.89 184.70 500.49 189.85
  C 504.00 194.87 508.07 191.54 511.54 187.75
  Z"
/>
<path fill="#cc0000" d="
  M 1536.00 155.14
  L 1536.00 216.37
  L 1535.18 222.78
  A 1.65 1.65 0.0 0 1 1533.65 224.22
  C 1527.38 224.62 1520.78 224.12 1514.80 224.12
  Q 906.67 224.16 806.50 224.15
  Q 798.34 224.14 788.67 223.89
  C 784.22 223.77 778.90 223.11 774.00 222.98
  L 773.05 222.80
  A 0.21 0.21 0.0 0 1 772.93 222.46
  L 773.28 222.04
  A 0.15 0.15 0.0 0 0 773.16 221.79
  Q 772.91 221.78 772.70 222.06
  A 0.25 0.25 0.0 0 1 772.33 222.10
  Q 771.97 221.77 771.93 221.57
  Q 771.85 221.18 771.87 221.57
  Q 771.89 221.98 771.56 222.01
  A 0.13 0.12 78.6 0 1 771.43 221.92
  L 770.89 219.97
  A 0.02 0.01 -42.6 0 0 770.86 219.97
  L 770.79 220.34
  A 0.18 0.18 0.0 0 1 770.43 220.31
  L 770.16 155.96
  Q 770.10 155.83 770.03 155.71
  L 769.87 152.45
  A 0.93 0.93 0.0 0 1 770.27 151.65
  Q 771.15 151.05 771.77 150.00
  Q 772.53 151.99 774.69 151.27
  Q 778.91 149.86 781.24 149.39
  Q 782.99 149.04 791.40 149.09
  Q 800.46 149.14 801.59 149.14
  Q 812.25 149.10 1437.75 149.25
  Q 1477.96 149.26 1519.19 149.08
  C 1524.20 149.05 1528.03 148.61 1532.42 148.09
  A 2.24 2.23 -9.4 0 1 1534.88 149.85
  L 1536.00 155.14
  Z"
/>
<path fill="#000066" d="
  M 473.03 152.52
  L 473.21 152.55
  A 10.51 0.80 -81.8 0 1 472.50 163.06
  L 472.45 163.44
  A 10.51 0.80 -81.8 0 1 470.16 173.73
  L 469.98 173.70
  L 473.03 152.52
  Z"
/>
<path fill="#08061a" d="
  M 770.03 155.71
  Q 770.10 155.83 770.16 155.96
  Q 769.76 155.98 769.56 155.76
  A 0.20 0.20 0.0 0 1 769.72 155.43
  Q 769.82 155.44 770.03 155.71
  Z"
/>
<rect fill="#000066" x="-0.35" y="-5.07" transform="translate(454.18,177.62) rotate(-23.5)" width="0.70" height="10.14" rx="0.27"/>
<path fill="#08061a" d="
  M 550.61 210.76
  C 547.89 212.44 545.30 214.09 542.88 216.21
  C 538.56 219.99 534.93 223.56 530.44 225.88
  Q 528.14 227.08 526.23 228.67
  A 1.41 1.41 0.0 0 1 523.95 227.30
  Q 527.82 208.89 531.32 188.31
  Q 532.18 183.29 534.28 175.56
  Q 535.77 176.21 536.59 177.30
  A 1.33 1.28 -61.4 0 1 536.84 178.21
  Q 536.53 180.87 535.90 183.34
  Q 534.79 187.73 531.27 202.34
  C 529.30 210.48 537.17 212.35 543.43 211.65
  Q 546.96 211.25 550.61 210.76
  Z"
/>
<path fill="#08061a" d="
  M 563.62 225.81
  L 571.89 213.60
  Q 569.31 220.65 563.62 225.81
  Z"
/>
<path fill="#ffffff" d="
  M 1536.00 216.37
  L 1536.00 304.72
  C 1535.73 302.60 1535.65 297.95 1533.80 296.73
  C 1532.30 295.74 1528.36 296.59 1525.57 296.91
  Q 1522.56 297.25 1520.52 297.25
  Q 1412.61 297.03 806.75 297.29
  Q 789.24 297.30 787.75 297.27
  Q 781.81 297.16 775.63 298.97
  Q 773.68 299.54 772.19 297.43
  Q 770.63 290.55 770.68 283.25
  Q 770.82 257.63 771.04 232.00
  Q 771.08 227.56 771.69 224.99
  Q 772.02 223.61 774.00 222.98
  C 778.90 223.11 784.22 223.77 788.67 223.89
  Q 798.34 224.14 806.50 224.15
  Q 906.67 224.16 1514.80 224.12
  C 1520.78 224.12 1527.38 224.62 1533.65 224.22
  A 1.65 1.65 0.0 0 0 1535.18 222.78
  L 1536.00 216.37
  Z"
/>
<ellipse fill="#08061a" cx="0.00" cy="0.00" transform="translate(769.65,217.76) rotate(-92.3)" rx="0.24" ry="0.07"/>
<path fill="#08061a" d="
  M 411.26 241.54
  C 416.09 247.21 419.20 252.82 419.39 259.79
  A 1.57 1.56 4.9 0 1 417.52 261.36
  L 411.49 260.14
  L 409.02 259.55
  A 0.24 0.23 37.9 0 1 408.95 259.11
  Q 409.03 259.08 409.27 259.09
  A 0.24 0.24 0.0 0 0 409.51 258.78
  Q 408.51 255.49 408.82 254.06
  Q 410.16 247.82 411.26 241.54
  Z"
/>
<path fill="#08061a" d="
  M 550.82 245.26
  Q 552.13 252.94 551.80 260.07
  L 545.33 261.49
  A 1.58 1.58 0.0 0 1 543.50 259.45
  L 545.44 253.63
  A 2.36 2.32 71.2 0 1 545.72 253.05
  L 550.82 245.26
  Z"
/>
<path fill="#08061a" d="
  M 766.57 298.12
  C 766.51 297.75 766.62 298.33 766.62 298.34
  A 0.04 0.04 0.0 0 0 766.69 298.32
  L 766.64 297.90
  A 0.07 0.07 0.0 0 1 766.78 297.87
  L 768.25 303.19
  A 0.02 0.01 76.7 0 1 768.24 303.22
  L 767.99 303.28
  A 0.18 0.18 0.0 0 1 767.77 303.16
  Q 766.97 300.76 766.57 298.12
  Z"
/>
<path fill="#cc0000" d="
  M 1536.00 304.72
  L 1536.00 364.74
  L 1535.29 370.86
  A 1.52 1.51 -85.1 0 1 1533.71 372.20
  Q 1532.87 372.16 1531.50 372.16
  Q 1522.53 372.16 1473.75 372.10
  Q 1449.49 372.06 794.25 372.08
  Q 785.96 372.08 776.19 370.61
  C 771.73 369.94 770.93 374.85 771.16 378.20
  L 770.87 370.37
  A 3.19 2.96 -56.9 0 0 770.75 369.67
  C 769.81 366.61 770.42 363.86 770.41 361.07
  C 770.39 356.33 769.95 349.70 770.02 343.64
  Q 770.18 328.89 769.58 313.13
  A 1.92 1.88 29.1 0 0 769.32 312.25
  Q 768.72 311.26 768.83 309.26
  A 1.93 1.91 59.7 0 1 769.02 308.52
  Q 769.92 306.62 769.61 305.77
  Q 768.28 302.09 768.16 297.87
  A 0.12 0.09 -35.8 0 1 768.18 297.81
  L 768.30 297.47
  A 0.02 0.02 0.0 0 1 768.34 297.47
  L 769.13 304.12
  A 0.18 0.18 0.0 0 0 769.48 304.10
  L 769.48 301.39
  A 1.56 1.46 59.1 0 1 769.62 300.75
  Q 770.51 298.89 772.19 297.43
  Q 773.68 299.54 775.63 298.97
  Q 781.81 297.16 787.75 297.27
  Q 789.24 297.30 806.75 297.29
  Q 1412.61 297.03 1520.52 297.25
  Q 1522.56 297.25 1525.57 296.91
  C 1528.36 296.59 1532.30 295.74 1533.80 296.73
  C 1535.65 297.95 1535.73 302.60 1536.00 304.72
  Z
  M 769.97 301.63
  A 0.10 0.10 0.0 0 0 769.87 301.53
  A 0.10 0.10 0.0 0 0 769.77 301.63
  A 0.10 0.10 0.0 0 0 769.87 301.73
  A 0.10 0.10 0.0 0 0 769.97 301.63
  Z
  M 769.41 310.02
  Q 769.47 309.89 769.41 309.74
  A 0.09 0.09 0.0 0 0 769.23 309.77
  Q 769.22 310.00 769.27 310.05
  A 0.09 0.09 0.0 0 0 769.41 310.02
  Z"
/>
<circle fill="#08061a" cx="769.87" cy="301.63" r="0.10"/>
<path fill="#08061a" d="
  M 769.27 310.05
  Q 769.22 310.00 769.23 309.77
  A 0.09 0.09 0.0 0 1 769.41 309.74
  Q 769.47 309.89 769.41 310.02
  A 0.09 0.09 0.0 0 1 769.27 310.05
  Z"
/>
<path fill="#08061a" d="
  M 568.25 337.31
  Q 560.04 337.44 556.37 338.77
  C 547.83 341.88 555.24 351.36 558.43 355.00
  C 561.59 358.63 564.28 363.56 567.18 367.77
  Q 565.45 368.78 564.38 370.77
  Q 556.92 360.46 550.11 349.80
  Q 548.93 347.95 547.24 345.78
  Q 543.61 341.12 543.41 334.73
  A 1.14 1.13 82.1 0 1 544.27 333.59
  Q 545.27 333.35 546.69 333.88
  C 553.62 336.48 561.03 336.42 568.25 337.31
  Z"
/>
<path fill="#08061a" d="
  M 404.03 364.08
  Q 404.84 360.16 406.50 356.53
  Q 408.77 351.54 409.06 349.93
  Q 409.59 346.99 410.09 342.85
  A 0.88 0.86 24.5 0 0 409.79 342.08
  L 407.72 340.34
  A 0.95 0.95 0.0 0 0 407.05 340.11
  Q 390.33 340.86 383.76 341.11
  Q 377.76 341.34 372.98 338.16
  Q 384.53 337.29 396.01 336.79
  C 404.81 336.41 410.63 335.21 418.03 333.65
  A 2.09 2.08 -13.2 0 1 420.48 335.16
  C 421.42 338.75 415.78 347.44 413.39 350.71
  Q 408.60 357.26 404.03 364.08
  Z"
/>
<path fill="#ffffff" d="
  M 1536.00 364.74
  L 1536.00 452.16
  L 1535.11 446.38
  A 2.02 2.01 -7.5 0 0 1532.90 444.69
  C 1528.77 445.16 1525.16 445.63 1520.75 445.65
  Q 1517.22 445.66 1503.25 445.67
  Q 1188.12 445.84 846.00 445.75
  Q 806.01 445.74 783.78 445.94
  Q 781.23 445.96 775.49 447.23
  A 1.19 1.17 -36.9 0 1 774.73 447.13
  L 771.37 445.43
  Q 770.27 411.99 771.16 378.20
  C 770.93 374.85 771.73 369.94 776.19 370.61
  Q 785.96 372.08 794.25 372.08
  Q 1449.49 372.06 1473.75 372.10
  Q 1522.53 372.16 1531.50 372.16
  Q 1532.87 372.16 1533.71 372.20
  A 1.52 1.51 -85.1 0 0 1535.29 370.86
  L 1536.00 364.74
  Z"
/>
<path fill="#08061a" d="
  M 534.91 374.21
  L 528.30 391.53
  Q 527.30 384.03 525.35 376.69
  C 524.41 373.20 524.31 370.13 524.11 366.81
  A 0.97 0.97 0.0 0 1 525.72 366.03
  L 534.91 374.21
  Z"
/>
<path fill="#08061a" d="
  M 428.65 427.57
  Q 426.25 428.58 425.70 425.17
  Q 425.32 422.85 425.73 418.75
  Q 426.77 408.34 427.90 398.32
  Q 428.22 395.48 428.11 392.23
  A 1.48 1.48 0.0 0 0 426.95 390.82
  Q 418.11 388.85 409.97 390.04
  C 408.10 390.31 406.32 391.60 404.69 393.09
  Q 399.79 397.54 393.04 398.48
  Q 403.13 391.74 412.85 384.57
  Q 416.32 382.01 419.92 379.74
  C 424.14 377.09 426.37 376.02 429.29 373.29
  Q 432.26 370.51 437.14 366.91
  Q 438.13 366.18 438.40 366.10
  A 1.44 1.44 0.0 0 1 440.22 367.27
  C 440.69 370.40 440.76 373.43 439.72 377.38
  Q 436.99 387.78 430.09 415.82
  Q 429.41 418.57 428.65 427.57
  Z"
/>
<path fill="#08061a" d="
  M 567.18 367.77
  Q 568.73 370.84 568.33 374.25
  Q 568.30 374.54 567.94 374.63
  A 0.46 0.46 0.0 0 1 567.38 374.10
  Q 567.96 371.00 567.18 367.77
  Z"
/>
<path fill="#08061a" d="
  M 568.99 378.28
  L 567.50 375.64
  L 569.51 373.73
  A 0.20 0.20 0.0 0 1 569.85 373.86
  Q 569.98 375.98 568.99 378.28
  Z"
/>
<path fill="#08061a" d="
  M 478.66 462.03
  C 474.02 457.69 472.38 452.38 473.53 446.35
  C 474.50 441.21 473.83 436.25 472.23 432.47
  Q 469.19 425.29 468.86 423.10
  Q 468.72 422.13 467.16 412.00
  Q 466.69 408.91 465.17 405.85
  A 1.31 1.30 -22.7 0 0 463.58 405.20
  C 459.10 406.73 456.69 408.86 454.35 413.33
  C 450.08 421.50 445.98 427.98 438.43 433.55
  Q 444.55 421.98 446.69 418.46
  Q 451.84 410.00 454.60 404.32
  C 458.10 397.10 461.91 391.99 466.42 384.65
  A 0.72 0.71 58.0 0 1 467.74 384.96
  C 468.35 390.62 468.94 395.80 470.03 401.29
  Q 472.98 416.15 473.67 422.02
  C 474.24 426.84 475.06 430.26 475.46 434.30
  Q 476.13 441.16 476.68 445.94
  Q 476.68 446.00 477.22 453.73
  Q 477.51 457.92 478.66 462.03
  Z
  M 473.5654 452.1457
  A 0.99 0.17 -115.4 0 0 473.8364 453.1129
  A 0.99 0.17 -115.4 0 0 474.4146 453.9343
  A 0.99 0.17 -115.4 0 0 474.1436 452.9671
  A 0.99 0.17 -115.4 0 0 473.5654 452.1457
  Z"
/>
<path fill="#08061a" d="
  M 523.85 431.16
  Q 519.06 427.44 516.38 420.76
  Q 516.11 420.10 513.87 418.03
  A 5.20 5.16 -10.9 0 0 512.50 417.11
  C 510.89 416.36 508.24 415.71 506.60 414.11
  Q 505.52 413.06 503.64 410.51
  A 2.02 1.89 60.3 0 0 501.35 409.80
  Q 500.29 410.23 500.02 411.52
  Q 498.97 416.42 495.19 422.88
  Q 492.83 426.92 492.43 434.08
  A 0.81 0.81 0.0 0 1 491.83 434.82
  L 490.42 435.21
  A 0.46 0.46 0.0 0 0 490.09 435.62
  L 490.06 436.21
  A 0.14 0.10 -84.9 0 1 489.97 436.32
  Q 489.95 436.33 489.94 436.32
  A 0.03 0.03 0.0 0 1 489.91 436.28
  L 492.96 424.74
  Q 492.94 424.78 493.02 424.82
  Q 493.03 424.83 493.02 424.82
  Q 492.94 424.78 492.96 424.74
  C 494.34 420.65 495.39 415.77 495.38 411.37
  C 494.83 416.27 493.81 421.34 490.89 425.03
  C 491.76 416.44 492.32 407.23 493.77 399.20
  Q 495.16 391.47 495.39 387.84
  C 495.52 385.65 498.25 383.41 499.89 385.81
  C 502.53 389.66 504.00 393.51 506.38 399.17
  C 508.59 404.46 511.73 408.49 514.24 413.68
  Q 518.52 422.53 523.85 431.16
  Z"
/>
<path fill="#08061a" d="
  M 532.32 413.04
  L 529.72 399.54
  Q 532.18 405.96 532.32 413.04
  Z"
/>
<path fill="#000066" d="
  M 492.96 424.74
  Q 492.94 424.78 493.02 424.82
  Q 493.03 424.83 493.02 424.82
  Q 492.94 424.78 492.96 424.74
  Z"
/>
<ellipse fill="#08061a" cx="0.00" cy="0.00" transform="translate(538.70,431.97) rotate(-107.1)" rx="0.45" ry="0.25"/>
<path fill="#cc0000" d="
  M 1536.00 452.16
  L 1536.00 513.47
  L 1535.48 518.56
  A 1.61 1.61 0.0 0 1 1533.88 520.00
  Q 1530.51 519.99 1526.75 520.01
  Q 1507.26 520.11 806.75 520.10
  Q 789.23 520.10 775.50 519.24
  Q 773.38 518.73 771.59 519.53
  A 0.37 0.36 49.3 0 1 771.26 519.50
  Q 771.15 519.42 771.16 518.98
  A 0.11 0.11 0.0 0 0 771.00 518.87
  Q 770.97 518.88 770.93 518.87
  A 0.05 0.04 -2.6 0 0 770.87 518.93
  Q 771.01 519.12 771.07 519.29
  Q 771.20 519.69 771.06 519.74
  Q 770.89 519.80 770.73 519.84
  A 0.13 0.12 -13.3 0 1 770.59 519.76
  Q 770.19 518.31 770.37 516.64
  Q 770.50 517.24 770.13 517.52
  A 0.31 0.31 0.0 0 1 769.64 517.27
  L 769.92 454.44
  Q 770.39 453.74 769.92 452.74
  L 770.10 446.87
  A 0.13 0.12 -0.0 0 1 770.23 446.75
  L 770.50 446.75
  A 0.03 0.03 0.0 0 1 770.53 446.78
  L 770.24 450.95
  A 0.07 0.07 0.0 0 0 770.37 450.98
  Q 771.45 448.00 771.37 445.43
  L 774.73 447.13
  A 1.19 1.17 -36.9 0 0 775.49 447.23
  Q 781.23 445.96 783.78 445.94
  Q 806.01 445.74 846.00 445.75
  Q 1188.12 445.84 1503.25 445.67
  Q 1517.22 445.66 1520.75 445.65
  C 1525.16 445.63 1528.77 445.16 1532.90 444.69
  A 2.02 2.01 -7.5 0 1 1535.11 446.38
  L 1536.00 452.16
  Z"
/>
<path fill="#08061a" d="
  M 769.92 452.74
  Q 770.39 453.74 769.92 454.44
  Q 768.83 451.84 768.31 447.67
  A 0.43 0.42 -59.9 0 1 769.12 447.45
  Q 769.99 449.59 769.92 452.74
  Z"
/>
<ellipse fill="#000066" cx="0.00" cy="0.00" transform="translate(473.99,453.04) rotate(-115.4)" rx="0.99" ry="0.17"/>
<path fill="#08061a" d="
  M 286.55 469.80
  L 267.79 452.79
  Q 278.22 460.13 286.55 469.80
  Z"
/>
<path fill="#ffffff" d="
  M 1536.00 513.47
  L 1536.00 601.89
  C 1535.64 599.57 1535.62 595.46 1533.25 594.35
  A 1.77 1.76 -35.2 0 0 1532.37 594.20
  C 1529.82 594.45 1524.96 594.86 1521.56 594.86
  Q 1451.37 594.83 783.76 594.86
  Q 781.11 594.86 774.58 595.64
  Q 771.86 595.96 770.75 592.84
  Q 771.18 544.06 770.69 523.75
  Q 770.57 518.93 775.50 519.24
  Q 789.23 520.10 806.75 520.10
  Q 1507.26 520.11 1526.75 520.01
  Q 1530.51 519.99 1533.88 520.00
  A 1.61 1.61 0.0 0 0 1535.48 518.56
  L 1536.00 513.47
  Z"
/>
<path fill="#08061a" d="
  M 768.60 593.98
  L 766.49 595.29
  A 0.31 0.31 0.0 0 0 766.65 595.86
  L 768.42 595.84
  A 0.14 0.14 0.0 0 1 768.57 595.96
  L 768.57 595.97
  A 0.12 0.11 87.8 0 1 768.45 596.11
  L 764.26 595.72
  L 767.44 592.83
  A 0.40 0.40 0.0 0 1 768.07 592.94
  L 768.60 593.98
  Z"
/>
<path fill="#cc0000" d="
  M 770.75 592.84
  Q 771.86 595.96 774.58 595.64
  Q 781.11 594.86 783.76 594.86
  Q 1451.37 594.83 1521.56 594.86
  C 1524.96 594.86 1529.82 594.45 1532.37 594.20
  A 1.77 1.76 -35.2 0 1 1533.25 594.35
  C 1535.62 595.46 1535.64 599.57 1536.00 601.89
  L 1536.00 661.43
  L 1535.37 666.78
  A 2.15 2.14 -86.7 0 1 1533.24 668.68
  Q 1516.68 668.73 1499.75 668.72
  Q 1183.79 668.53 36.75 668.68
  Q 6.42 668.68 5.75 668.65
  Q 3.71 668.55 2.02 667.95
  A 1.74 1.72 -85.9 0 1 0.91 666.65
  L 0.00 661.99
  L 0.00 599.25
  L 0.82 599.38
  A 0.58 0.58 0.0 0 0 1.50 598.76
  Q 1.44 598.07 2.20 597.59
  A 0.39 0.39 0.0 0 0 2.35 597.10
  Q 2.16 596.66 1.91 596.79
  A 0.20 0.19 -14.0 0 1 1.62 596.62
  L 1.62 595.67
  A 0.70 0.70 0.0 0 1 2.60 595.03
  Q 4.46 595.85 6.38 595.03
  A 2.04 1.96 -55.1 0 1 7.23 594.86
  C 8.06 594.89 9.22 594.91 10.61 594.87
  Q 8.47 594.95 6.36 594.77
  A 0.17 0.17 0.0 0 1 6.20 594.59
  L 6.20 594.58
  A 0.18 0.17 1.7 0 1 6.38 594.42
  Q 13.71 594.40 35.00 594.39
  Q 744.47 594.36 744.95 594.36
  Q 753.57 594.36 764.26 595.72
  L 768.45 596.11
  A 0.12 0.11 87.8 0 0 768.57 595.97
  L 768.57 595.96
  A 0.14 0.14 0.0 0 0 768.42 595.84
  L 766.65 595.86
  A 0.31 0.31 0.0 0 1 766.49 595.29
  L 768.60 593.98
  L 770.75 592.84
  Z"
/>
<path fill="#ffffff" d="
  M 1536.00 661.43
  L 1536.00 750.13
  L 1535.02 744.46
  A 1.97 1.96 -8.2 0 0 1532.86 742.85
  Q 1524.96 743.77 1515.75 743.77
  Q 1438.22 743.74 23.25 743.77
  Q 9.87 743.77 3.53 742.91
  A 1.55 1.54 41.2 0 0 2.88 742.95
  Q 0.92 743.44 0.78 745.58
  Q 0.71 746.57 0.00 749.58
  L 0.00 661.99
  L 0.91 666.65
  A 1.74 1.72 -85.9 0 0 2.02 667.95
  Q 3.71 668.55 5.75 668.65
  Q 6.42 668.68 36.75 668.68
  Q 1183.79 668.53 1499.75 668.72
  Q 1516.68 668.73 1533.24 668.68
  A 2.15 2.14 -86.7 0 0 1535.37 666.78
  L 1536.00 661.43
  Z"
/>
<path fill="#cc0000" d="
  M 1536.00 750.13
  L 1536.00 807.99
  L 1535.15 814.94
  A 1.80 1.79 88.5 0 1 1533.68 816.50
  Q 1532.10 816.77 1530.41 816.78
  Q 1522.51 816.80 1514.25 816.80
  Q 31.40 816.52 19.25 816.80
  Q 13.31 816.93 7.33 816.81
  C 3.50 816.73 0.57 817.28 0.58 812.77
  Q 0.59 811.64 0.00 809.26
  L 0.00 749.58
  Q 0.71 746.57 0.78 745.58
  Q 0.92 743.44 2.88 742.95
  A 1.55 1.54 41.2 0 1 3.53 742.91
  Q 9.87 743.77 23.25 743.77
  Q 1438.22 743.74 1515.75 743.77
  Q 1524.96 743.77 1532.86 742.85
  A 1.97 1.96 -8.2 0 1 1535.02 744.46
  L 1536.00 750.13
  Z"
/>
<path fill="#ffffff" d="
  M 1536.00 807.99
  L 1536.00 899.13
  L 1535.17 893.05
  A 2.43 2.43 0.0 0 0 1532.73 890.95
  C 1528.84 891.02 1525.67 891.44 1521.09 891.44
  Q 767.86 891.41 14.63 891.51
  C 10.45 891.51 6.34 890.87 3.09 891.09
  A 1.59 1.55 -65.4 0 0 2.21 891.43
  Q 0.64 892.69 0.57 894.76
  Q 0.52 896.38 0.00 897.67
  L 0.00 809.26
  Q 0.59 811.64 0.58 812.77
  C 0.57 817.28 3.50 816.73 7.33 816.81
  Q 13.31 816.93 19.25 816.80
  Q 31.40 816.52 1514.25 816.80
  Q 1522.51 816.80 1530.41 816.78
  Q 1532.10 816.77 1533.68 816.50
  A 1.80 1.79 88.5 0 0 1535.15 814.94
  L 1536.00 807.99
  Z"
/>
<path fill="#cc0000" d="
  M 1536.00 899.13
  L 1536.00 957.74
  L 1535.25 963.45
  A 1.73 1.72 -86.2 0 1 1533.54 964.95
  L 2.99 964.95
  A 2.23 2.22 -4.5 0 1 0.79 963.08
  L 0.00 958.23
  L 0.00 897.67
  Q 0.52 896.38 0.57 894.76
  Q 0.64 892.69 2.21 891.43
  A 1.59 1.55 -65.4 0 1 3.09 891.09
  C 6.34 890.87 10.45 891.51 14.63 891.51
  Q 767.86 891.41 1521.09 891.44
  C 1525.67 891.44 1528.84 891.02 1532.73 890.95
  A 2.43 2.43 0.0 0 1 1535.17 893.05
  L 1536.00 899.13
  Z"
/>
<path fill="#ffffff" d="
  M 1536.00 957.74
  L 1536.00 1040.00
  L 0.00 1040.00
  L 0.00 958.23
  L 0.79 963.08
  A 2.23 2.22 -4.5 0 0 2.99 964.95
  L 1533.54 964.95
  A 1.73 1.72 -86.2 0 0 1535.25 963.45
  L 1536.00 957.74
  Z"
/>
</svg>
