<?xml version="1.0" encoding="UTF-8" standalone="no"?>
<!DOCTYPE svg PUBLIC "-//W3C//DTD SVG 1.1//EN" "http://www.w3.org/Graphics/SVG/1.1/DTD/svg11.dtd">
<svg xmlns="http://www.w3.org/2000/svg" version="1.1" viewBox="0.00 0.00 1536.00 1040.00">
<g stroke-width="2.00" fill="none" stroke-linecap="butt">
<path stroke="#809bd3" vector-effect="non-scaling-stroke" d="
  M 1536.00 345.99
  Q 1535.64 343.54 1534.47 342.08
  A 0.30 0.30 0.0 0 0 1534.23 341.96
  L 6.20 341.96
  A 1.76 1.76 0.0 0 1 4.44 340.21
  L 4.40 336.05"
/>
<path stroke="#858483" vector-effect="non-scaling-stroke" d="
  M 4.40 336.05
  L 4.38 2.02
  A 0.78 0.77 -69.5 0 0 4.12 1.44
  Q 3.24 0.63 1.76 1.08
  A 0.63 0.62 76.2 0 0 1.33 1.80
  Q 1.72 3.87 1.71 5.50
  Q 1.44 57.43 1.47 96.00
  Q 1.55 213.77 1.66 331.55"
/>
<path stroke="#809bd3" vector-effect="non-scaling-stroke" d="
  M 1.66 331.55
  L 0.00 345.62"
/>
<path stroke="#052057" vector-effect="non-scaling-stroke" d="
  M 4.40 336.05
  Q 4.28 335.04 3.67 334.80
  A 0.62 0.60 32.7 0 0 3.04 334.93
  Q 2.72 335.24 2.46 335.11
  A 0.38 0.38 0.0 0 1 2.27 334.89
  Q 1.65 333.17 1.66 331.55"
/>
<path stroke="#502656" vector-effect="non-scaling-stroke" d="
  M 1536.00 686.11
  Q 1534.62 686.62 1533.88 688.93
  A 0.61 0.59 -78.0 0 1 1533.25 689.35
  Q 1524.58 688.45 1515.87 689.12
  Q 1515.40 689.15 1515.03 689.51"
/>
<path stroke="#6b2f5f" vector-effect="non-scaling-stroke" d="
  M 1515.03 689.51
  L 38.51 689.32"
/>
<path stroke="#502656" vector-effect="non-scaling-stroke" d="
  M 38.51 689.32
  Q 22.36 689.11 6.24 688.91
  Q 4.00 688.88 0.00 690.76"
/>
<path stroke="#bb1e0e" vector-effect="non-scaling-stroke" d="
  M 1536.00 691.00
  Q 1534.26 692.32 1533.35 691.17
  Q 1532.70 690.35 1531.66 690.26
  Q 1522.41 689.53 1515.03 689.51"
/>
<path stroke="#bb1e0e" vector-effect="non-scaling-stroke" d="
  M 38.51 689.32
  C 28.08 690.49 17.17 689.79 5.55 689.55
  A 1.19 1.18 -86.9 0 0 4.35 690.63
  Q 4.17 692.68 4.20 694.63
  Q 4.87 741.83 4.59 796.14
  C 4.31 852.35 4.61 907.96 4.58 981.76
  Q 4.58 999.71 4.36 1022.62
  C 4.30 1029.36 6.11 1036.56 14.35 1034.98
  A 3.81 3.63 39.2 0 1 15.12 1034.92
  C 32.66 1035.53 52.44 1035.05 67.56 1035.07
  Q 70.22 1035.07 309.00 1035.05
  Q 803.21 1035.02 1447.25 1035.01
  Q 1484.37 1035.00 1529.62 1035.20
  A 1.53 1.46 32.2 0 0 1530.21 1035.08
  L 1536.00 1032.47"
/>
</g>
<path fill="#ffffff" d="
  M 1536.00 0.00
  L 1536.00 345.99
  Q 1535.64 343.54 1534.47 342.08
  A 0.30 0.30 0.0 0 0 1534.23 341.96
  L 6.20 341.96
  A 1.76 1.76 0.0 0 1 4.44 340.21
  L 4.40 336.05
  L 4.38 2.02
  A 0.78 0.77 -69.5 0 0 4.12 1.44
  Q 3.24 0.63 1.76 1.08
  A 0.63 0.62 76.2 0 0 1.33 1.80
  Q 1.72 3.87 1.71 5.50
  Q 1.44 57.43 1.47 96.00
  Q 1.55 213.77 1.66 331.55
  L 0.00 345.62
  L 0.00 0.00
  L 1536.00 0.00
  Z"
/>
<path fill="#0a0807" d="
  M 4.40 336.05
  Q 4.28 335.04 3.67 334.80
  A 0.62 0.60 32.7 0 0 3.04 334.93
  Q 2.72 335.24 2.46 335.11
  A 0.38 0.38 0.0 0 1 2.27 334.89
  Q 1.65 333.17 1.66 331.55
  Q 1.55 213.77 1.47 96.00
  Q 1.44 57.43 1.71 5.50
  Q 1.72 3.87 1.33 1.80
  A 0.63 0.62 76.2 0 1 1.76 1.08
  Q 3.24 0.63 4.12 1.44
  A 0.78 0.77 -69.5 0 1 4.38 2.02
  L 4.40 336.05
  Z"
/>
<path fill="#0037a6" d="
  M 4.40 336.05
  L 4.44 340.21
  A 1.76 1.76 0.0 0 0 6.20 341.96
  L 1534.23 341.96
  A 0.30 0.30 0.0 0 1 1534.47 342.08
  Q 1535.64 343.54 1536.00 345.99
  L 1536.00 686.11
  Q 1534.62 686.62 1533.88 688.93
  A 0.61 0.59 -78.0 0 1 1533.25 689.35
  Q 1524.58 688.45 1515.87 689.12
  Q 1515.40 689.15 1515.03 689.51
  L 38.51 689.32
  Q 22.36 689.11 6.24 688.91
  Q 4.00 688.88 0.00 690.76
  L 0.00 345.62
  L 1.66 331.55
  Q 1.65 333.17 2.27 334.89
  A 0.38 0.38 0.0 0 0 2.46 335.11
  Q 2.72 335.24 3.04 334.93
  A 0.62 0.60 32.7 0 1 3.67 334.80
  Q 4.28 335.04 4.40 336.05
  Z"
/>
<path fill="#a01405" d="
  M 1536.00 686.11
  L 1536.00 691.00
  Q 1534.26 692.32 1533.35 691.17
  Q 1532.70 690.35 1531.66 690.26
  Q 1522.41 689.53 1515.03 689.51
  Q 1515.40 689.15 1515.87 689.12
  Q 1524.58 688.45 1533.25 689.35
  A 0.61 0.59 -78.0 0 0 1533.88 688.93
  Q 1534.62 686.62 1536.00 686.11
  Z"
/>
<path fill="#a01405" d="
  M 38.51 689.32
  C 28.08 690.49 17.17 689.79 5.55 689.55
  A 1.19 1.18 -86.9 0 0 4.35 690.63
  Q 4.17 692.68 4.20 694.63
  Q 4.87 741.83 4.59 796.14
  C 4.31 852.35 4.61 907.96 4.58 981.76
  Q 4.58 999.71 4.36 1022.62
  C 4.30 1029.36 6.11 1036.56 14.35 1034.98
  A 3.81 3.63 39.2 0 1 15.12 1034.92
  C 32.66 1035.53 52.44 1035.05 67.56 1035.07
  Q 70.22 1035.07 309.00 1035.05
  Q 803.21 1035.02 1447.25 1035.01
  Q 1484.37 1035.00 1529.62 1035.20
  A 1.53 1.46 32.2 0 0 1530.21 1035.08
  L 1536.00 1032.47
  L 1536.00 1040.00
  L 0.00 1040.00
  L 0.00 690.76
  Q 4.00 688.88 6.24 688.91
  Q 22.36 689.11 38.51 689.32
  Z"
/>
<path fill="#d62717" d="
  M 1515.03 689.51
  Q 1522.41 689.53 1531.66 690.26
  Q 1532.70 690.35 1533.35 691.17
  Q 1534.26 692.32 1536.00 691.00
  L 1536.00 1032.47
  L 1530.21 1035.08
  A 1.53 1.46 32.2 0 1 1529.62 1035.20
  Q 1484.37 1035.00 1447.25 1035.01
  Q 803.21 1035.02 309.00 1035.05
  Q 70.22 1035.07 67.56 1035.07
  C 52.44 1035.05 32.66 1035.53 15.12 1034.92
  A 3.81 3.63 39.2 0 0 14.35 1034.98
  C 6.11 1036.56 4.30 1029.36 4.36 1022.62
  Q 4.58 999.71 4.58 981.76
  C 4.61 907.96 4.31 852.35 4.59 796.14
  Q 4.87 741.83 4.20 694.63
  Q 4.17 692.68 4.35 690.63
  A 1.19 1.18 -86.9 0 1 5.55 689.55
  C 17.17 689.79 28.08 690.49 38.51 689.32
  L 1515.03 689.51
  Z"
/>
</svg>
