<?xml version="1.0" encoding="UTF-8" standalone="no"?>
<!DOCTYPE svg PUBLIC "-//W3C//DTD SVG 1.1//EN" "http://www.w3.org/Graphics/SVG/1.1/DTD/svg11.dtd">
<svg xmlns="http://www.w3.org/2000/svg" version="1.1" viewBox="0.00 0.00 1536.00 1040.00">
<g stroke-width="2.00" fill="none" stroke-linecap="butt">
<path stroke="#f6949c" vector-effect="non-scaling-stroke" d="
  M 1536.00 512.45
  L 1535.13 517.01
  A 0.46 0.45 -74.8 0 1 1534.53 517.36
  Q 1531.94 516.42 1529.45 516.95
  Q 1524.82 517.91 1518.75 517.92
  Q 1248.76 517.93 437.00 517.94
  Q 159.77 517.94 31.50 517.83
  Q 9.64 517.81 2.01 517.48
  A 0.95 0.95 0.0 0 1 1.20 516.93
  Q 0.22 514.72 0.00 512.30"
/>
<path stroke="#f6949c" vector-effect="non-scaling-stroke" d="
  M 394.19 73.87
  Q 388.70 71.57 383.95 70.59
  Q 365.18 66.74 346.99 65.39
  C 329.67 64.11 311.75 66.01 294.25 69.00
  Q 280.14 71.41 269.09 76.50
  C 262.67 79.46 256.05 81.21 250.57 83.82
  C 245.86 86.06 240.69 89.81 236.00 92.19
  Q 230.76 94.84 223.34 100.33
  Q 206.76 112.61 197.06 123.07
  Q 187.09 133.84 183.97 137.71
  Q 176.40 147.09 170.29 157.63
  Q 164.18 168.16 160.64 174.88
  Q 155.93 183.83 153.19 193.15
  Q 149.42 206.02 147.93 210.05
  C 146.00 215.29 144.72 221.03 144.12 226.56
  Q 141.33 252.08 142.78 277.73
  Q 143.59 292.12 147.75 306.35
  Q 151.86 320.45 151.86 320.47
  Q 155.72 332.97 157.05 335.94
  Q 158.10 338.29 165.49 352.31
  Q 169.01 358.97 173.32 365.36
  Q 180.08 375.38 182.19 377.88
  Q 192.79 390.43 195.36 393.13
  Q 204.40 402.64 214.96 411.33
  C 221.17 416.44 227.96 420.49 234.62 425.27
  Q 236.70 426.76 239.74 428.32
  C 244.67 430.84 247.52 431.93 253.09 435.02
  Q 261.59 439.75 270.83 442.38
  Q 276.58 444.02 286.94 447.26
  Q 302.48 452.13 320.26 453.03
  Q 342.28 454.14 363.75 451.64
  Q 370.47 450.86 380.38 447.93
  Q 382.89 447.18 384.78 446.87
  C 387.18 446.48 389.91 446.22 390.83 445.13
  A 1.12 1.12 0.0 0 0 390.19 443.31
  Q 378.36 441.05 366.89 439.39
  Q 364.43 439.03 362.11 438.14
  Q 348.94 433.06 335.51 428.99
  Q 332.40 428.05 329.90 426.60
  C 321.32 421.64 312.10 416.98 303.99 411.36
  Q 277.08 392.69 258.06 366.47
  Q 255.10 362.40 246.80 348.75
  C 242.17 341.13 239.30 332.62 235.62 324.68
  C 228.99 310.37 227.51 296.05 224.89 280.13
  Q 222.00 262.50 224.46 243.50
  Q 227.17 222.63 228.40 216.44
  Q 230.57 205.57 233.40 198.88
  C 238.18 187.59 241.75 177.90 247.27 168.72
  Q 256.73 152.99 267.37 139.90
  Q 276.96 128.10 289.38 117.88
  Q 301.97 107.52 314.72 99.73
  C 323.68 94.26 334.05 90.62 342.52 86.57
  Q 347.66 84.12 352.57 82.90
  Q 361.99 80.56 362.99 80.44
  Q 376.39 78.76 389.62 77.15
  Q 392.35 76.81 394.31 75.66
  A 1.00 1.00 0.0 0 0 394.19 73.87"
/>
<path stroke="#f6949c" vector-effect="non-scaling-stroke" d="
  M 473.79 134.38
  Q 466.50 134.64 457.51 133.83
  C 451.37 133.27 445.67 137.67 442.68 128.60
  Q 439.09 117.72 437.34 106.97
  Q 436.88 104.16 435.35 104.17
  A 1.61 1.61 0.0 0 0 433.84 105.26
  L 431.48 112.09
  A 4.32 4.19 -22.3 0 1 431.21 112.71
  C 428.07 118.46 427.54 123.03 426.44 130.15
  C 426.03 132.82 424.64 133.99 421.83 134.28
  Q 410.21 135.49 398.71 133.38
  A 2.61 2.46 13.9 0 0 395.80 135.02
  Q 395.21 136.86 397.35 138.25
  C 403.21 142.07 419.57 151.04 417.29 158.68
  Q 413.78 170.41 410.69 182.39
  A 1.18 1.11 -80.6 0 0 411.67 183.85
  Q 412.17 183.89 412.67 183.43
  Q 413.36 182.83 413.51 182.72
  Q 422.84 175.87 428.89 170.43
  Q 431.31 168.26 434.13 167.45
  A 4.02 4.01 56.8 0 1 437.79 168.22
  Q 448.20 176.83 451.82 179.69
  Q 454.99 182.19 458.06 183.59
  A 0.95 0.94 8.8 0 0 459.39 182.62
  Q 459.24 181.41 458.92 180.59
  Q 454.88 170.31 453.76 164.70
  C 453.27 162.24 452.33 160.45 451.24 157.97
  A 2.86 2.71 -60.6 0 1 451.03 157.13
  Q 450.77 153.98 453.55 151.79
  Q 463.70 143.80 471.35 139.39
  A 3.97 3.48 3.8 0 0 472.12 138.80
  L 474.63 136.29
  A 1.12 1.12 0.0 0 0 473.79 134.38"
/>
<path stroke="#f6949c" vector-effect="non-scaling-stroke" d="
  M 356.99 261.42
  C 357.19 259.86 356.17 257.50 355.11 254.44
  C 353.23 249.08 352.77 243.10 350.77 238.07
  C 348.97 233.55 350.25 229.19 353.88 226.53
  Q 368.41 215.88 370.28 214.33
  Q 371.91 212.98 371.72 211.29
  A 1.35 1.34 84.5 0 0 370.28 210.10
  Q 359.01 210.96 349.76 210.92
  C 346.23 210.91 342.18 210.61 341.22 207.02
  Q 337.36 192.69 333.77 184.06
  Q 333.17 182.64 332.01 181.84
  A 1.12 1.12 0.0 0 0 330.30 182.47
  Q 328.36 189.39 326.31 199.55
  Q 325.66 202.82 323.56 207.53
  Q 321.89 211.29 318.31 211.20
  Q 305.90 210.88 294.12 209.55
  A 1.36 1.35 0.7 0 0 292.62 211.01
  C 292.80 213.18 294.10 213.85 295.69 215.04
  Q 307.78 224.09 311.06 226.27
  Q 313.40 227.82 314.08 229.08
  C 316.15 232.92 316.25 234.60 314.52 238.95
  Q 314.33 239.44 312.48 245.08
  C 310.90 249.93 308.01 255.23 306.82 260.00
  A 1.26 1.26 0.0 0 0 308.03 261.57
  Q 308.96 261.57 310.11 260.60
  Q 314.06 257.26 314.17 257.19
  Q 319.89 253.21 327.68 246.72
  Q 332.81 242.45 337.38 246.75
  Q 344.45 253.40 349.52 256.12
  A 2.69 2.15 73.2 0 1 349.94 256.41
  L 356.02 261.81
  A 0.59 0.58 -66.8 0 0 356.99 261.42"
/>
<path stroke="#f6949c" vector-effect="non-scaling-stroke" d="
  M 563.34 259.89
  Q 561.11 252.95 558.90 248.08
  Q 557.84 245.76 556.87 243.20
  C 555.45 239.43 553.12 235.08 553.99 232.69
  Q 555.25 229.19 557.12 227.84
  Q 564.75 222.33 571.38 217.37
  C 573.89 215.50 575.93 214.37 577.29 211.55
  A 1.55 1.55 0.0 0 0 576.21 209.35
  Q 575.38 209.17 574.50 209.31
  Q 566.11 210.62 555.94 210.90
  Q 552.25 211.00 548.87 209.62
  A 5.04 5.00 86.5 0 1 546.36 207.38
  Q 544.77 204.45 544.00 201.26
  Q 541.66 191.47 538.78 183.14
  A 1.39 1.39 0.0 0 0 536.40 182.70
  Q 535.76 183.46 535.16 185.36
  Q 534.12 188.65 527.40 207.65
  Q 526.65 209.74 525.76 210.93
  A 1.99 1.99 0.0 0 1 524.06 211.72
  Q 510.53 210.94 500.77 209.31
  Q 499.12 209.03 498.06 209.60
  A 1.69 1.54 56.2 0 0 497.70 212.05
  Q 499.37 214.18 501.22 215.54
  Q 514.10 225.04 516.24 226.75
  Q 519.29 229.18 520.09 233.65
  A 2.20 2.09 -43.5 0 1 520.04 234.63
  Q 516.82 245.62 513.57 253.19
  C 512.69 255.24 512.31 257.68 512.67 259.70
  A 1.25 1.24 65.4 0 0 514.68 260.45
  Q 517.72 257.99 521.24 255.75
  Q 524.92 253.42 529.93 248.43
  C 532.57 245.80 538.30 242.82 541.94 246.07
  Q 550.64 253.85 557.79 259.25
  Q 559.86 260.82 562.67 260.81
  A 0.71 0.70 81.2 0 0 563.34 259.89"
/>
<path stroke="#f6949c" vector-effect="non-scaling-stroke" d="
  M 329.41 334.05
  A 1.03 1.03 0.0 0 0 329.83 335.02
  Q 339.91 342.56 349.61 349.88
  Q 355.38 354.24 352.97 361.20
  Q 346.44 380.04 345.40 382.93
  Q 345.20 383.47 345.37 384.01
  A 0.67 0.67 0.0 0 0 346.32 384.40
  Q 357.17 378.65 366.09 368.91
  C 370.16 364.46 375.82 369.64 378.96 372.59
  Q 385.70 378.94 392.92 383.74
  A 1.10 1.07 27.4 0 0 394.54 383.25
  Q 394.68 382.89 394.60 382.50
  Q 392.09 369.88 388.21 360.24
  Q 386.17 355.20 390.11 351.50
  Q 395.66 346.27 409.93 336.57
  A 1.07 0.80 -79.8 0 0 410.08 336.43
  L 411.32 335.04
  A 1.11 1.11 0.0 0 0 410.73 333.21
  Q 408.27 332.66 406.19 332.65
  Q 402.93 332.63 387.18 333.15
  C 383.76 333.27 380.56 332.58 379.19 329.60
  Q 377.73 326.41 373.86 312.01
  C 373.15 309.39 372.09 306.79 370.46 304.35
  A 1.18 1.18 0.0 0 0 368.33 304.75
  Q 365.85 315.68 363.33 327.08
  C 362.55 330.59 360.55 334.50 356.75 334.15
  Q 346.92 333.25 332.06 332.37
  Q 329.65 332.23 329.41 334.05"
/>
<path stroke="#f6949c" vector-effect="non-scaling-stroke" d="
  M 538.49 333.22
  Q 536.71 332.43 534.50 332.54
  Q 519.22 333.30 515.54 333.40
  C 508.55 333.58 506.65 330.13 505.27 323.37
  Q 504.43 319.25 501.80 309.46
  Q 501.25 307.37 500.00 306.01
  A 1.65 1.51 46.5 0 0 497.72 305.85
  C 496.29 307.28 495.63 313.37 494.54 316.08
  Q 492.07 322.23 489.20 330.81
  A 3.77 3.77 0.0 0 1 486.70 333.23
  Q 484.16 333.98 480.88 333.87
  Q 471.91 333.56 463.23 332.39
  Q 460.76 332.05 458.76 332.64
  A 1.38 1.38 0.0 0 0 457.90 334.54
  Q 458.05 334.88 458.38 335.12
  Q 473.56 346.46 474.64 347.36
  Q 479.01 350.97 480.86 353.61
  C 484.12 358.25 480.22 360.27 479.21 363.99
  Q 477.22 371.37 475.00 378.74
  Q 474.35 380.88 475.19 382.72
  A 1.16 1.15 67.9 0 0 476.62 383.33
  Q 478.45 382.68 479.96 381.46
  Q 486.20 376.43 491.97 371.23
  C 493.61 369.76 499.54 365.82 501.86 367.93
  Q 513.47 378.46 516.73 380.82
  Q 519.51 382.82 523.58 383.87
  A 0.64 0.63 11.4 0 0 524.37 383.35
  Q 524.44 382.85 524.22 382.02
  Q 521.91 373.61 517.44 364.52
  C 515.41 360.39 514.99 357.11 516.54 353.18
  Q 517.23 351.44 523.04 347.45
  Q 530.98 341.99 538.80 335.31
  A 1.25 1.25 0.0 0 0 538.49 333.22"
/>
</g>
<path fill="#ed2939" d="
  M 1536.00 0.00
  L 1536.00 512.45
  L 1535.13 517.01
  A 0.46 0.45 -74.8 0 1 1534.53 517.36
  Q 1531.94 516.42 1529.45 516.95
  Q 1524.82 517.91 1518.75 517.92
  Q 1248.76 517.93 437.00 517.94
  Q 159.77 517.94 31.50 517.83
  Q 9.64 517.81 2.01 517.48
  A 0.95 0.95 0.0 0 1 1.20 516.93
  Q 0.22 514.72 0.00 512.30
  L 0.00 0.00
  L 1536.00 0.00
  Z
  M 394.19 73.87
  Q 388.70 71.57 383.95 70.59
  Q 365.18 66.74 346.99 65.39
  C 329.67 64.11 311.75 66.01 294.25 69.00
  Q 280.14 71.41 269.09 76.50
  C 262.67 79.46 256.05 81.21 250.57 83.82
  C 245.86 86.06 240.69 89.81 236.00 92.19
  Q 230.76 94.84 223.34 100.33
  Q 206.76 112.61 197.06 123.07
  Q 187.09 133.84 183.97 137.71
  Q 176.40 147.09 170.29 157.63
  Q 164.18 168.16 160.64 174.88
  Q 155.93 183.83 153.19 193.15
  Q 149.42 206.02 147.93 210.05
  C 146.00 215.29 144.72 221.03 144.12 226.56
  Q 141.33 252.08 142.78 277.73
  Q 143.59 292.12 147.75 306.35
  Q 151.86 320.45 151.86 320.47
  Q 155.72 332.97 157.05 335.94
  Q 158.10 338.29 165.49 352.31
  Q 169.01 358.97 173.32 365.36
  Q 180.08 375.38 182.19 377.88
  Q 192.79 390.43 195.36 393.13
  Q 204.40 402.64 214.96 411.33
  C 221.17 416.44 227.96 420.49 234.62 425.27
  Q 236.70 426.76 239.74 428.32
  C 244.67 430.84 247.52 431.93 253.09 435.02
  Q 261.59 439.75 270.83 442.38
  Q 276.58 444.02 286.94 447.26
  Q 302.48 452.13 320.26 453.03
  Q 342.28 454.14 363.75 451.64
  Q 370.47 450.86 380.38 447.93
  Q 382.89 447.18 384.78 446.87
  C 387.18 446.48 389.91 446.22 390.83 445.13
  A 1.12 1.12 0.0 0 0 390.19 443.31
  Q 378.36 441.05 366.89 439.39
  Q 364.43 439.03 362.11 438.14
  Q 348.94 433.06 335.51 428.99
  Q 332.40 428.05 329.90 426.60
  C 321.32 421.64 312.10 416.98 303.99 411.36
  Q 277.08 392.69 258.06 366.47
  Q 255.10 362.40 246.80 348.75
  C 242.17 341.13 239.30 332.62 235.62 324.68
  C 228.99 310.37 227.51 296.05 224.89 280.13
  Q 222.00 262.50 224.46 243.50
  Q 227.17 222.63 228.40 216.44
  Q 230.57 205.57 233.40 198.88
  C 238.18 187.59 241.75 177.90 247.27 168.72
  Q 256.73 152.99 267.37 139.90
  Q 276.96 128.10 289.38 117.88
  Q 301.97 107.52 314.72 99.73
  C 323.68 94.26 334.05 90.62 342.52 86.57
  Q 347.66 84.12 352.57 82.90
  Q 361.99 80.56 362.99 80.44
  Q 376.39 78.76 389.62 77.15
  Q 392.35 76.81 394.31 75.66
  A 1.00 1.00 0.0 0 0 394.19 73.87
  Z
  M 473.79 134.38
  Q 466.50 134.64 457.51 133.83
  C 451.37 133.27 445.67 137.67 442.68 128.60
  Q 439.09 117.72 437.34 106.97
  Q 436.88 104.16 435.35 104.17
  A 1.61 1.61 0.0 0 0 433.84 105.26
  L 431.48 112.09
  A 4.32 4.19 -22.3 0 1 431.21 112.71
  C 428.07 118.46 427.54 123.03 426.44 130.15
  C 426.03 132.82 424.64 133.99 421.83 134.28
  Q 410.21 135.49 398.71 133.38
  A 2.61 2.46 13.9 0 0 395.80 135.02
  Q 395.21 136.86 397.35 138.25
  C 403.21 142.07 419.57 151.04 417.29 158.68
  Q 413.78 170.41 410.69 182.39
  A 1.18 1.11 -80.6 0 0 411.67 183.85
  Q 412.17 183.89 412.67 183.43
  Q 413.36 182.83 413.51 182.72
  Q 422.84 175.87 428.89 170.43
  Q 431.31 168.26 434.13 167.45
  A 4.02 4.01 56.8 0 1 437.79 168.22
  Q 448.20 176.83 451.82 179.69
  Q 454.99 182.19 458.06 183.59
  A 0.95 0.94 8.8 0 0 459.39 182.62
  Q 459.24 181.41 458.92 180.59
  Q 454.88 170.31 453.76 164.70
  C 453.27 162.24 452.33 160.45 451.24 157.97
  A 2.86 2.71 -60.6 0 1 451.03 157.13
  Q 450.77 153.98 453.55 151.79
  Q 463.70 143.80 471.35 139.39
  A 3.97 3.48 3.8 0 0 472.12 138.80
  L 474.63 136.29
  A 1.12 1.12 0.0 0 0 473.79 134.38
  Z
  M 356.99 261.42
  C 357.19 259.86 356.17 257.50 355.11 254.44
  C 353.23 249.08 352.77 243.10 350.77 238.07
  C 348.97 233.55 350.25 229.19 353.88 226.53
  Q 368.41 215.88 370.28 214.33
  Q 371.91 212.98 371.72 211.29
  A 1.35 1.34 84.5 0 0 370.28 210.10
  Q 359.01 210.96 349.76 210.92
  C 346.23 210.91 342.18 210.61 341.22 207.02
  Q 337.36 192.69 333.77 184.06
  Q 333.17 182.64 332.01 181.84
  A 1.12 1.12 0.0 0 0 330.30 182.47
  Q 328.36 189.39 326.31 199.55
  Q 325.66 202.82 323.56 207.53
  Q 321.89 211.29 318.31 211.20
  Q 305.90 210.88 294.12 209.55
  A 1.36 1.35 0.7 0 0 292.62 211.01
  C 292.80 213.18 294.10 213.85 295.69 215.04
  Q 307.78 224.09 311.06 226.27
  Q 313.40 227.82 314.08 229.08
  C 316.15 232.92 316.25 234.60 314.52 238.95
  Q 314.33 239.44 312.48 245.08
  C 310.90 249.93 308.01 255.23 306.82 260.00
  A 1.26 1.26 0.0 0 0 308.03 261.57
  Q 308.96 261.57 310.11 260.60
  Q 314.06 257.26 314.17 257.19
  Q 319.89 253.21 327.68 246.72
  Q 332.81 242.45 337.38 246.75
  Q 344.45 253.40 349.52 256.12
  A 2.69 2.15 73.2 0 1 349.94 256.41
  L 356.02 261.81
  A 0.59 0.58 -66.8 0 0 356.99 261.42
  Z
  M 563.34 259.89
  Q 561.11 252.95 558.90 248.08
  Q 557.84 245.76 556.87 243.20
  C 555.45 239.43 553.12 235.08 553.99 232.69
  Q 555.25 229.19 557.12 227.84
  Q 564.75 222.33 571.38 217.37
  C 573.89 215.50 575.93 214.37 577.29 211.55
  A 1.55 1.55 0.0 0 0 576.21 209.35
  Q 575.38 209.17 574.50 209.31
  Q 566.11 210.62 555.94 210.90
  Q 552.25 211.00 548.87 209.62
  A 5.04 5.00 86.5 0 1 546.36 207.38
  Q 544.77 204.45 544.00 201.26
  Q 541.66 191.47 538.78 183.14
  A 1.39 1.39 0.0 0 0 536.40 182.70
  Q 535.76 183.46 535.16 185.36
  Q 534.12 188.65 527.40 207.65
  Q 526.65 209.74 525.76 210.93
  A 1.99 1.99 0.0 0 1 524.06 211.72
  Q 510.53 210.94 500.77 209.31
  Q 499.12 209.03 498.06 209.60
  A 1.69 1.54 56.2 0 0 497.70 212.05
  Q 499.37 214.18 501.22 215.54
  Q 514.10 225.04 516.24 226.75
  Q 519.29 229.18 520.09 233.65
  A 2.20 2.09 -43.5 0 1 520.04 234.63
  Q 516.82 245.62 513.57 253.19
  C 512.69 255.24 512.31 257.68 512.67 259.70
  A 1.25 1.24 65.4 0 0 514.68 260.45
  Q 517.72 257.99 521.24 255.75
  Q 524.92 253.42 529.93 248.43
  C 532.57 245.80 538.30 242.82 541.94 246.07
  Q 550.64 253.85 557.79 259.25
  Q 559.86 260.82 562.67 260.81
  A 0.71 0.70 81.2 0 0 563.34 259.89
  Z
  M 329.41 334.05
  A 1.03 1.03 0.0 0 0 329.83 335.02
  Q 339.91 342.56 349.61 349.88
  Q 355.38 354.24 352.97 361.20
  Q 346.44 380.04 345.40 382.93
  Q 345.20 383.47 345.37 384.01
  A 0.67 0.67 0.0 0 0 346.32 384.40
  Q 357.17 378.65 366.09 368.91
  C 370.16 364.46 375.82 369.64 378.96 372.59
  Q 385.70 378.94 392.92 383.74
  A 1.10 1.07 27.4 0 0 394.54 383.25
  Q 394.68 382.89 394.60 382.50
  Q 392.09 369.88 388.21 360.24
  Q 386.17 355.20 390.11 351.50
  Q 395.66 346.27 409.93 336.57
  A 1.07 0.80 -79.8 0 0 410.08 336.43
  L 411.32 335.04
  A 1.11 1.11 0.0 0 0 410.73 333.21
  Q 408.27 332.66 406.19 332.65
  Q 402.93 332.63 387.18 333.15
  C 383.76 333.27 380.56 332.58 379.19 329.60
  Q 377.73 326.41 373.86 312.01
  C 373.15 309.39 372.09 306.79 370.46 304.35
  A 1.18 1.18 0.0 0 0 368.33 304.75
  Q 365.85 315.68 363.33 327.08
  C 362.55 330.59 360.55 334.50 356.75 334.15
  Q 346.92 333.25 332.06 332.37
  Q 329.65 332.23 329.41 334.05
  Z
  M 538.49 333.22
  Q 536.71 332.43 534.50 332.54
  Q 519.22 333.30 515.54 333.40
  C 508.55 333.58 506.65 330.13 505.27 323.37
  Q 504.43 319.25 501.80 309.46
  Q 501.25 307.37 500.00 306.01
  A 1.65 1.51 46.5 0 0 497.72 305.85
  C 496.29 307.28 495.63 313.37 494.54 316.08
  Q 492.07 322.23 489.20 330.81
  A 3.77 3.77 0.0 0 1 486.70 333.23
  Q 484.16 333.98 480.88 333.87
  Q 471.91 333.56 463.23 332.39
  Q 460.76 332.05 458.76 332.64
  A 1.38 1.38 0.0 0 0 457.90 334.54
  Q 458.05 334.88 458.38 335.12
  Q 473.56 346.46 474.64 347.36
  Q 479.01 350.97 480.86 353.61
  C 484.12 358.25 480.22 360.27 479.21 363.99
  Q 477.22 371.37 475.00 378.74
  Q 474.35 380.88 475.19 382.72
  A 1.16 1.15 67.9 0 0 476.62 383.33
  Q 478.45 382.68 479.96 381.46
  Q 486.20 376.43 491.97 371.23
  C 493.61 369.76 499.54 365.82 501.86 367.93
  Q 513.47 378.46 516.73 380.82
  Q 519.51 382.82 523.58 383.87
  A 0.64 0.63 11.4 0 0 524.37 383.35
  Q 524.44 382.85 524.22 382.02
  Q 521.91 373.61 517.44 364.52
  C 515.41 360.39 514.99 357.11 516.54 353.18
  Q 517.23 351.44 523.04 347.45
  Q 530.98 341.99 538.80 335.31
  A 1.25 1.25 0.0 0 0 538.49 333.22
  Z"
/>
<path fill="#ffffff" d="
  M 394.19 73.87
  A 1.00 1.00 0.0 0 1 394.31 75.66
  Q 392.35 76.81 389.62 77.15
  Q 376.39 78.76 362.99 80.44
  Q 361.99 80.56 352.57 82.90
  Q 347.66 84.12 342.52 86.57
  C 334.05 90.62 323.68 94.26 314.72 99.73
  Q 301.97 107.52 289.38 117.88
  Q 276.96 128.10 267.37 139.90
  Q 256.73 152.99 247.27 168.72
  C 241.75 177.90 238.18 187.59 233.40 198.88
  Q 230.57 205.57 228.40 216.44
  Q 227.17 222.63 224.46 243.50
  Q 222.00 262.50 224.89 280.13
  C 227.51 296.05 228.99 310.37 235.62 324.68
  C 239.30 332.62 242.17 341.13 246.80 348.75
  Q 255.10 362.40 258.06 366.47
  Q 277.08 392.69 303.99 411.36
  C 312.10 416.98 321.32 421.64 329.90 426.60
  Q 332.40 428.05 335.51 428.99
  Q 348.94 433.06 362.11 438.14
  Q 364.43 439.03 366.89 439.39
  Q 378.36 441.05 390.19 443.31
  A 1.12 1.12 0.0 0 1 390.83 445.13
  C 389.91 446.22 387.18 446.48 384.78 446.87
  Q 382.89 447.18 380.38 447.93
  Q 370.47 450.86 363.75 451.64
  Q 342.28 454.14 320.26 453.03
  Q 302.48 452.13 286.94 447.26
  Q 276.58 444.02 270.83 442.38
  Q 261.59 439.75 253.09 435.02
  C 247.52 431.93 244.67 430.84 239.74 428.32
  Q 236.70 426.76 234.62 425.27
  C 227.96 420.49 221.17 416.44 214.96 411.33
  Q 204.40 402.64 195.36 393.13
  Q 192.79 390.43 182.19 377.88
  Q 180.08 375.38 173.32 365.36
  Q 169.01 358.97 165.49 352.31
  Q 158.10 338.29 157.05 335.94
  Q 155.72 332.97 151.86 320.47
  Q 151.86 320.45 147.75 306.35
  Q 143.59 292.12 142.78 277.73
  Q 141.33 252.08 144.12 226.56
  C 144.72 221.03 146.00 215.29 147.93 210.05
  Q 149.42 206.02 153.19 193.15
  Q 155.93 183.83 160.64 174.88
  Q 164.18 168.16 170.29 157.63
  Q 176.40 147.09 183.97 137.71
  Q 187.09 133.84 197.06 123.07
  Q 206.76 112.61 223.34 100.33
  Q 230.76 94.84 236.00 92.19
  C 240.69 89.81 245.86 86.06 250.57 83.82
  C 256.05 81.21 262.67 79.46 269.09 76.50
  Q 280.14 71.41 294.25 69.00
  C 311.75 66.01 329.67 64.11 346.99 65.39
  Q 365.18 66.74 383.95 70.59
  Q 388.70 71.57 394.19 73.87
  Z"
/>
<path fill="#ffffff" d="
  M 473.79 134.38
  A 1.12 1.12 0.0 0 1 474.63 136.29
  L 472.12 138.80
  A 3.97 3.48 3.8 0 1 471.35 139.39
  Q 463.70 143.80 453.55 151.79
  Q 450.77 153.98 451.03 157.13
  A 2.86 2.71 -60.6 0 0 451.24 157.97
  C 452.33 160.45 453.27 162.24 453.76 164.70
  Q 454.88 170.31 458.92 180.59
  Q 459.24 181.41 459.39 182.62
  A 0.95 0.94 8.8 0 1 458.06 183.59
  Q 454.99 182.19 451.82 179.69
  Q 448.20 176.83 437.79 168.22
  A 4.02 4.01 56.8 0 0 434.13 167.45
  Q 431.31 168.26 428.89 170.43
  Q 422.84 175.87 413.51 182.72
  Q 413.36 182.83 412.67 183.43
  Q 412.17 183.89 411.67 183.85
  A 1.18 1.11 -80.6 0 1 410.69 182.39
  Q 413.78 170.41 417.29 158.68
  C 419.57 151.04 403.21 142.07 397.35 138.25
  Q 395.21 136.86 395.80 135.02
  A 2.61 2.46 13.9 0 1 398.71 133.38
  Q 410.21 135.49 421.83 134.28
  C 424.64 133.99 426.03 132.82 426.44 130.15
  C 427.54 123.03 428.07 118.46 431.21 112.71
  A 4.32 4.19 -22.3 0 0 431.48 112.09
  L 433.84 105.26
  A 1.61 1.61 0.0 0 1 435.35 104.17
  Q 436.88 104.16 437.34 106.97
  Q 439.09 117.72 442.68 128.60
  C 445.67 137.67 451.37 133.27 457.51 133.83
  Q 466.50 134.64 473.79 134.38
  Z"
/>
<path fill="#ffffff" d="
  M 356.99 261.42
  A 0.59 0.58 -66.8 0 1 356.02 261.81
  L 349.94 256.41
  A 2.69 2.15 73.2 0 0 349.52 256.12
  Q 344.45 253.40 337.38 246.75
  Q 332.81 242.45 327.68 246.72
  Q 319.89 253.21 314.17 257.19
  Q 314.06 257.26 310.11 260.60
  Q 308.96 261.57 308.03 261.57
  A 1.26 1.26 0.0 0 1 306.82 260.00
  C 308.01 255.23 310.90 249.93 312.48 245.08
  Q 314.33 239.44 314.52 238.95
  C 316.25 234.60 316.15 232.92 314.08 229.08
  Q 313.40 227.82 311.06 226.27
  Q 307.78 224.09 295.69 215.04
  C 294.10 213.85 292.80 213.18 292.62 211.01
  A 1.36 1.35 0.7 0 1 294.12 209.55
  Q 305.90 210.88 318.31 211.20
  Q 321.89 211.29 323.56 207.53
  Q 325.66 202.82 326.31 199.55
  Q 328.36 189.39 330.30 182.47
  A 1.12 1.12 0.0 0 1 332.01 181.84
  Q 333.17 182.64 333.77 184.06
  Q 337.36 192.69 341.22 207.02
  C 342.18 210.61 346.23 210.91 349.76 210.92
  Q 359.01 210.96 370.28 210.10
  A 1.35 1.34 84.5 0 1 371.72 211.29
  Q 371.91 212.98 370.28 214.33
  Q 368.41 215.88 353.88 226.53
  C 350.25 229.19 348.97 233.55 350.77 238.07
  C 352.77 243.10 353.23 249.08 355.11 254.44
  C 356.17 257.50 357.19 259.86 356.99 261.42
  Z"
/>
<path fill="#ffffff" d="
  M 563.34 259.89
  A 0.71 0.70 81.2 0 1 562.67 260.81
  Q 559.86 260.82 557.79 259.25
  Q 550.64 253.85 541.94 246.07
  C 538.30 242.82 532.57 245.80 529.93 248.43
  Q 524.92 253.42 521.24 255.75
  Q 517.72 257.99 514.68 260.45
  A 1.25 1.24 65.4 0 1 512.67 259.70
  C 512.31 257.68 512.69 255.24 513.57 253.19
  Q 516.82 245.62 520.04 234.63
  A 2.20 2.09 -43.5 0 0 520.09 233.65
  Q 519.29 229.18 516.24 226.75
  Q 514.10 225.04 501.22 215.54
  Q 499.37 214.18 497.70 212.05
  A 1.69 1.54 56.2 0 1 498.06 209.60
  Q 499.12 209.03 500.77 209.31
  Q 510.53 210.94 524.06 211.72
  A 1.99 1.99 0.0 0 0 525.76 210.93
  Q 526.65 209.74 527.40 207.65
  Q 534.12 188.65 535.16 185.36
  Q 535.76 183.46 536.40 182.70
  A 1.39 1.39 0.0 0 1 538.78 183.14
  Q 541.66 191.47 544.00 201.26
  Q 544.77 204.45 546.36 207.38
  A 5.04 5.00 86.5 0 0 548.87 209.62
  Q 552.25 211.00 555.94 210.90
  Q 566.11 210.62 574.50 209.31
  Q 575.38 209.17 576.21 209.35
  A 1.55 1.55 0.0 0 1 577.29 211.55
  C 575.93 214.37 573.89 215.50 571.38 217.37
  Q 564.75 222.33 557.12 227.84
  Q 555.25 229.19 553.99 232.69
  C 553.12 235.08 555.45 239.43 556.87 243.20
  Q 557.84 245.76 558.90 248.08
  Q 561.11 252.95 563.34 259.89
  Z"
/>
<path fill="#ffffff" d="
  M 329.41 334.05
  Q 329.65 332.23 332.06 332.37
  Q 346.92 333.25 356.75 334.15
  C 360.55 334.50 362.55 330.59 363.33 327.08
  Q 365.85 315.68 368.33 304.75
  A 1.18 1.18 0.0 0 1 370.46 304.35
  C 372.09 306.79 373.15 309.39 373.86 312.01
  Q 377.73 326.41 379.19 329.60
  C 380.56 332.58 383.76 333.27 387.18 333.15
  Q 402.93 332.63 406.19 332.65
  Q 408.27 332.66 410.73 333.21
  A 1.11 1.11 0.0 0 1 411.32 335.04
  L 410.08 336.43
  A 1.07 0.80 -79.8 0 1 409.93 336.57
  Q 395.66 346.27 390.11 351.50
  Q 386.17 355.20 388.21 360.24
  Q 392.09 369.88 394.60 382.50
  Q 394.68 382.89 394.54 383.25
  A 1.10 1.07 27.4 0 1 392.92 383.74
  Q 385.70 378.94 378.96 372.59
  C 375.82 369.64 370.16 364.46 366.09 368.91
  Q 357.17 378.65 346.32 384.40
  A 0.67 0.67 0.0 0 1 345.37 384.01
  Q 345.20 383.47 345.40 382.93
  Q 346.44 380.04 352.97 361.20
  Q 355.38 354.24 349.61 349.88
  Q 339.91 342.56 329.83 335.02
  A 1.03 1.03 0.0 0 1 329.41 334.05
  Z"
/>
<path fill="#ffffff" d="
  M 538.49 333.22
  A 1.25 1.25 0.0 0 1 538.80 335.31
  Q 530.98 341.99 523.04 347.45
  Q 517.23 351.44 516.54 353.18
  C 514.99 357.11 515.41 360.39 517.44 364.52
  Q 521.91 373.61 524.22 382.02
  Q 524.44 382.85 524.37 383.35
  A 0.64 0.63 11.4 0 1 523.58 383.87
  Q 519.51 382.82 516.73 380.82
  Q 513.47 378.46 501.86 367.93
  C 499.54 365.82 493.61 369.76 491.97 371.23
  Q 486.20 376.43 479.96 381.46
  Q 478.45 382.68 476.62 383.33
  A 1.16 1.15 67.9 0 1 475.19 382.72
  Q 474.35 380.88 475.00 378.74
  Q 477.22 371.37 479.21 363.99
  C 480.22 360.27 484.12 358.25 480.86 353.61
  Q 479.01 350.97 474.64 347.36
  Q 473.56 346.46 458.38 335.12
  Q 458.05 334.88 457.90 334.54
  A 1.38 1.38 0.0 0 1 458.76 332.64
  Q 460.76 332.05 463.23 332.39
  Q 471.91 333.56 480.88 333.87
  Q 484.16 333.98 486.70 333.23
  A 3.77 3.77 0.0 0 0 489.20 330.81
  Q 492.07 322.23 494.54 316.08
  C 495.63 313.37 496.29 307.28 497.72 305.85
  A 1.65 1.51 46.5 0 1 500.00 306.01
  Q 501.25 307.37 501.80 309.46
  Q 504.43 319.25 505.27 323.37
  C 506.65 330.13 508.55 333.58 515.54 333.40
  Q 519.22 333.30 534.50 332.54
  Q 536.71 332.43 538.49 333.22
  Z"
/>
<path fill="#ffffff" d="
  M 1536.00 512.45
  L 1536.00 1040.00
  L 0.00 1040.00
  L 0.00 512.30
  Q 0.22 514.72 1.20 516.93
  A 0.95 0.95 0.0 0 0 2.01 517.48
  Q 9.64 517.81 31.50 517.83
  Q 159.77 517.94 437.00 517.94
  Q 1248.76 517.93 1518.75 517.92
  Q 1524.82 517.91 1529.45 516.95
  Q 1531.94 516.42 1534.53 517.36
  A 0.46 0.45 -74.8 0 0 1535.13 517.01
  L 1536.00 512.45
  Z"
/>
</svg>
