<?xml version="1.0" encoding="UTF-8" standalone="no"?>
<!DOCTYPE svg PUBLIC "-//W3C//DTD SVG 1.1//EN" "http://www.w3.org/Graphics/SVG/1.1/DTD/svg11.dtd">
<svg xmlns="http://www.w3.org/2000/svg" version="1.1" viewBox="0.00 0.00 1536.00 1040.00">
<g stroke-width="2.00" fill="none" stroke-linecap="butt">
<path stroke="#808080" vector-effect="non-scaling-stroke" d="
  M 275.36 335.63
  Q 277.28 333.97 279.04 331.27
  Q 289.90 314.61 290.78 313.33
  C 295.02 307.24 299.63 298.58 304.56 291.99
  C 307.76 287.72 309.76 283.41 313.01 278.90
  Q 315.83 274.98 319.45 269.16
  Q 330.01 252.20 334.87 244.87
  C 342.87 232.82 351.63 219.91 359.62 206.92
  Q 362.39 202.42 366.90 196.08
  C 368.41 193.96 370.18 190.44 371.33 188.82
  Q 374.65 184.16 383.14 170.76
  C 387.65 163.66 391.99 158.14 395.78 151.81
  C 400.25 144.34 405.93 136.29 410.28 129.02
  Q 411.75 126.56 414.90 122.60
  C 417.59 119.21 415.06 116.67 411.92 114.92
  Q 402.52 109.67 393.12 102.28
  C 389.73 99.62 386.94 98.04 383.49 96.80
  A 3.34 3.33 32.3 0 0 379.98 97.59
  Q 378.56 99.03 377.05 101.55
  Q 371.32 111.04 367.24 117.03
  Q 360.80 126.48 357.18 132.33
  C 349.29 145.04 338.80 160.16 329.83 174.61
  Q 328.92 176.07 321.19 187.66
  Q 317.31 193.47 308.53 207.59
  Q 304.41 214.21 302.81 216.34
  C 297.43 223.48 293.53 230.98 288.65 238.25
  Q 273.79 260.36 258.64 284.54
  C 254.11 291.77 246.46 301.57 241.97 310.23
  Q 241.04 312.02 242.60 313.40
  C 246.79 317.09 251.42 319.08 255.88 322.49
  Q 263.81 328.57 270.76 332.83
  A 3.80 3.65 81.7 0 1 271.39 333.32
  L 273.64 335.57
  A 1.27 1.26 -42.9 0 0 275.36 335.63"
/>
<path stroke="#808080" vector-effect="non-scaling-stroke" d="
  M 1127.98 116.99
  A 3.73 3.73 0.0 0 0 1126.99 122.08
  L 1187.87 215.49
  A 3.73 3.73 0.0 0 0 1193.13 216.51
  L 1222.08 196.27
  A 3.73 3.73 0.0 0 0 1223.07 191.18
  L 1162.19 97.77
  A 3.73 3.73 0.0 0 0 1156.93 96.75
  L 1127.98 116.99"
/>
<path stroke="#808080" vector-effect="non-scaling-stroke" d="
  M 297.85 341.36
  C 296.10 343.66 293.23 349.43 297.23 351.49
  Q 303.34 354.62 309.29 359.23
  C 315.03 363.68 320.92 368.38 327.78 370.92
  A 1.33 1.33 0.0 0 0 328.75 370.90
  Q 330.39 370.22 331.56 368.33
  Q 342.16 351.17 353.71 334.02
  C 357.26 328.74 359.84 323.68 363.87 318.02
  C 370.56 308.61 376.70 298.59 383.14 288.23
  C 386.37 283.04 389.97 278.92 392.57 274.25
  Q 394.99 269.90 399.40 263.63
  C 403.25 258.15 408.35 249.78 413.94 241.48
  Q 420.14 232.31 428.72 218.74
  C 435.97 207.27 443.54 196.33 449.82 186.61
  C 455.84 177.30 460.03 169.65 466.41 161.66
  Q 467.67 160.08 469.30 157.08
  A 2.24 2.24 0.0 0 0 468.61 154.18
  L 437.42 132.50
  A 2.75 2.75 0.0 0 0 434.53 132.35
  Q 432.92 133.24 431.83 135.35
  Q 428.91 140.96 425.13 146.37
  Q 418.90 155.29 417.94 157.10
  C 415.32 162.00 411.43 166.81 408.22 171.81
  Q 395.24 192.04 392.97 195.67
  C 390.51 199.63 386.52 204.78 384.32 208.34
  Q 373.53 225.85 361.62 243.37
  C 358.81 247.51 355.68 253.24 352.65 257.76
  Q 337.97 279.66 334.14 285.88
  Q 330.53 291.73 313.71 317.19
  C 308.40 325.24 303.67 333.73 297.85 341.36"
/>
<path stroke="#808080" vector-effect="non-scaling-stroke" d="
  M 1108.7713 133.7272
  A 2.75 2.75 0.0 0 0 1104.9658 132.9253
  L 1073.8026 153.2402
  A 2.75 2.75 0.0 0 0 1073.0007 157.0458
  L 1211.6887 369.7928
  A 2.75 2.75 0.0 0 0 1215.4942 370.5947
  L 1246.6574 350.2798
  A 2.75 2.75 0.0 0 0 1247.4593 346.4742
  L 1108.7713 133.7272"
/>
<path stroke="#808080" vector-effect="non-scaling-stroke" d="
  M 491.48 168.32
  C 489.04 165.99 486.08 168.76 484.98 171.05
  Q 481.62 178.05 475.55 186.61
  Q 471.54 192.27 469.28 196.10
  C 465.11 203.14 459.77 209.85 455.94 216.98
  Q 455.04 218.64 450.30 225.30
  C 445.79 231.62 442.58 237.70 438.02 244.10
  C 432.89 251.28 429.28 257.93 424.05 265.61
  Q 421.59 269.23 418.88 273.68
  C 415.46 279.28 410.84 285.57 406.95 291.65
  Q 398.59 304.70 385.81 324.13
  Q 381.61 330.51 379.65 333.74
  C 377.62 337.07 373.74 342.00 370.88 346.88
  C 368.76 350.51 367.44 352.87 365.02 356.08
  Q 360.62 361.93 357.60 367.50
  C 354.46 373.29 351.57 376.93 348.28 380.97
  C 345.58 384.28 347.58 386.32 350.79 388.25
  Q 362.07 395.04 372.91 403.23
  C 374.79 404.66 377.56 406.28 379.34 407.29
  A 2.87 2.87 0.0 0 0 382.45 407.12
  Q 383.69 406.23 384.88 404.38
  Q 402.92 376.45 408.24 368.18
  C 412.00 362.31 415.24 357.95 418.50 352.62
  Q 420.98 348.58 426.06 340.88
  Q 448.98 306.16 453.95 298.22
  Q 462.05 285.27 462.90 284.26
  C 466.44 280.06 469.29 273.69 472.88 268.92
  C 477.24 263.15 481.18 255.87 485.88 249.25
  Q 488.06 246.18 491.32 241.02
  Q 504.01 220.98 514.75 205.29
  Q 517.38 201.45 519.76 197.46
  C 522.12 193.50 522.59 189.90 518.63 187.36
  Q 501.33 176.23 500.24 175.47
  Q 495.34 172.02 491.48 168.32"
/>
<path stroke="#808080" vector-effect="non-scaling-stroke" d="
  M 1083.38 289.95
  A 2.06 2.05 -46.4 0 0 1086.00 289.88
  C 1094.08 282.80 1101.15 278.75 1112.77 271.35
  Q 1114.70 270.13 1116.29 267.66
  C 1117.49 265.80 1117.42 264.54 1116.05 262.73
  Q 1112.79 258.45 1109.91 253.41
  C 1106.32 247.14 1102.45 242.34 1099.06 236.67
  Q 1095.11 230.08 1090.33 223.40
  Q 1086.88 218.55 1085.80 216.53
  C 1082.07 209.55 1076.60 202.98 1072.85 196.57
  Q 1070.94 193.31 1065.74 185.91
  Q 1060.79 178.88 1056.84 170.35
  C 1054.09 164.37 1048.42 170.50 1044.32 173.67
  Q 1041.04 176.18 1037.18 178.59
  Q 1027.76 184.46 1022.67 188.46
  Q 1018.79 191.52 1021.07 195.46
  C 1025.38 202.88 1030.12 208.77 1034.06 215.28
  Q 1038.01 221.81 1040.88 226.04
  Q 1052.95 243.93 1064.03 261.70
  C 1066.78 266.12 1071.10 271.53 1073.65 276.11
  C 1076.50 281.23 1079.36 286.79 1083.38 289.95"
/>
<path stroke="#808080" vector-effect="non-scaling-stroke" d="
  M 1268.68 335.76
  L 1271.00 333.26
  A 7.81 6.99 0.4 0 1 1272.11 332.28
  Q 1286.43 322.01 1297.25 315.25
  C 1299.42 313.90 1301.56 310.81 1299.55 308.44
  Q 1296.55 304.89 1293.66 300.18
  C 1288.53 291.81 1283.47 284.83 1273.82 269.72
  Q 1262.48 251.95 1250.69 234.32
  Q 1247.56 229.63 1241.27 218.54
  Q 1239.53 215.48 1237.16 213.70
  A 1.99 1.98 45.7 0 0 1234.84 213.67
  L 1204.68 234.75
  A 3.27 3.26 68.7 0 0 1203.32 237.87
  Q 1203.60 239.89 1205.13 242.13
  Q 1212.39 252.79 1217.09 260.39
  C 1225.13 273.41 1230.72 281.43 1240.41 296.26
  C 1245.10 303.45 1248.63 310.50 1253.27 316.66
  C 1256.75 321.26 1260.42 327.71 1263.21 331.79
  Q 1265.21 334.70 1266.62 335.89
  A 1.50 1.50 0.0 0 0 1268.68 335.76"
/>
<path stroke="#809abd" vector-effect="non-scaling-stroke" d="
  M 541.40 403.13
  L 539.86 406.79"
/>
<path stroke="#e38698" vector-effect="non-scaling-stroke" d="
  M 539.86 406.79
  L 537.68 411.96"
/>
<path stroke="#809abd" vector-effect="non-scaling-stroke" d="
  M 537.68 411.96
  Q 532.13 422.02 530.71 428.24
  Q 527.98 440.20 524.55 449.71
  C 521.43 458.36 520.03 465.26 519.29 473.66
  C 518.59 481.67 517.13 488.07 516.71 495.15
  C 515.56 514.28 515.65 533.95 518.22 553.10
  C 519.66 563.92 520.01 572.33 523.39 581.13
  Q 525.72 587.20 527.21 593.06
  Q 528.60 598.57 532.50 610.68
  C 534.01 615.40 536.45 619.35 538.41 624.48
  C 539.93 628.45 541.68 631.72 543.51 635.96
  Q 544.95 639.32 547.94 644.26
  Q 553.86 654.02 556.06 658.04
  C 559.65 664.61 564.34 670.19 567.79 675.48
  C 570.76 680.03 574.79 683.93 578.05 688.31
  Q 581.05 692.35 585.77 697.37
  Q 607.67 720.68 634.37 738.18
  C 642.23 743.33 653.68 749.64 659.30 752.69
  C 666.50 756.58 675.71 759.20 683.48 763.07
  C 692.66 767.64 702.36 769.15 712.73 771.64
  C 725.01 774.59 738.88 777.94 752.01 778.68
  Q 772.82 779.85 795.04 778.07
  Q 803.81 777.36 814.95 774.72
  Q 821.16 773.24 846.32 767.60
  C 852.00 766.32 857.78 763.27 863.07 760.93
  C 869.87 757.92 879.36 754.80 886.60 750.83
  Q 901.48 742.68 909.68 737.16
  Q 914.74 733.74 931.36 720.78
  Q 938.81 714.98 945.55 708.07
  Q 956.77 696.56 958.82 694.32
  Q 969.00 683.19 981.94 664.44
  C 985.67 659.05 989.39 651.62 993.45 645.19
  Q 995.96 641.22 999.52 631.98"
/>
<path stroke="#e38698" vector-effect="non-scaling-stroke" d="
  M 999.52 631.98
  C 1004.35 621.56 1009.94 611.49 1012.92 600.29
  Q 1014.48 594.39 1015.47 591.38
  C 1018.17 583.09 1020.57 576.82 1021.73 569.12
  Q 1023.49 557.35 1024.62 546.76
  Q 1027.76 517.27 1024.61 488.38
  C 1023.04 474.02 1021.69 461.34 1017.28 449.46
  C 1013.01 437.95 1011.45 426.35 1005.83 415.36
  Q 1003.78 411.35 999.82 402.54
  C 995.41 392.72 989.78 383.03 985.44 375.48
  Q 983.11 371.43 980.96 368.53
  C 976.48 362.49 973.32 357.60 968.70 352.13
  Q 957.88 339.31 957.41 338.80
  Q 944.09 324.53 937.16 318.85
  Q 929.28 312.41 926.15 309.84
  C 918.97 303.93 914.10 301.02 905.79 295.31
  Q 901.79 292.56 896.48 289.64
  Q 886.83 284.33 882.54 282.01
  C 874.20 277.51 866.23 275.22 857.21 271.31
  Q 849.95 268.17 846.19 267.07
  C 834.17 263.58 822.61 261.68 809.98 259.08
  Q 803.50 257.75 789.93 256.13
  Q 771.67 253.95 753.37 256.12
  Q 733.82 258.43 721.95 261.22
  Q 703.00 265.69 698.86 266.32
  C 696.57 266.67 693.17 267.83 691.50 268.51
  Q 678.87 273.65 669.72 277.24
  C 666.29 278.59 661.24 280.84 657.18 283.14
  Q 642.61 291.36 639.49 293.26
  Q 621.21 304.37 602.74 320.98
  Q 589.21 333.14 571.51 354.74
  C 568.12 358.88 566.60 361.82 563.53 365.71
  Q 561.05 368.86 558.03 374.25
  Q 553.16 382.96 546.60 393.29
  C 544.80 396.14 543.06 399.87 541.40 403.13"
/>
<path stroke="#642155" vector-effect="non-scaling-stroke" d="
  M 999.52 631.98
  Q 998.52 628.61 998.82 626.59
  C 999.92 618.92 1001.14 611.19 1001.65 604.13
  Q 1002.23 596.07 1002.72 592.72
  C 1004.26 582.24 1003.29 571.46 1001.11 561.85
  C 1000.09 557.34 998.18 552.71 997.00 548.74
  Q 995.94 545.16 993.30 539.16
  Q 987.85 526.77 987.79 526.46
  A 0.49 0.49 0.0 0 0 986.99 526.17
  L 986.83 526.30
  A 0.17 0.16 55.2 0 1 986.58 526.25
  Q 985.83 524.70 985.61 523.14
  A 2.84 2.72 -64.3 0 0 985.31 522.22
  Q 982.00 515.84 979.78 512.49
  Q 978.62 510.74 971.99 502.70
  C 969.41 499.56 966.86 497.76 964.11 494.90
  C 960.00 490.62 955.01 487.18 950.48 483.34
  C 944.15 477.96 936.02 474.53 927.86 470.60
  A 0.52 0.52 0.0 0 0 927.53 470.57
  Q 926.87 470.76 926.55 469.89
  A 1.24 1.23 2.0 0 0 925.92 469.22
  Q 920.35 466.64 914.74 465.33
  Q 905.89 463.26 903.57 462.82
  C 893.16 460.85 886.09 460.55 872.74 459.93
  Q 865.77 459.61 857.07 461.31
  Q 846.80 463.32 835.36 466.84
  Q 828.94 468.81 822.85 472.26
  Q 818.94 474.48 808.81 479.38
  A 6.42 6.26 12.0 0 0 807.67 480.10
  Q 792.45 491.92 779.31 506.67
  Q 776.12 510.25 769.97 518.99
  Q 761.46 531.08 750.03 542.03
  Q 742.62 549.14 737.68 552.20
  Q 737.57 552.26 726.84 558.68
  Q 718.88 563.44 715.79 564.78
  Q 708.49 567.93 698.78 571.29
  Q 690.97 574.00 680.98 575.02
  Q 667.58 576.39 659.39 575.87
  Q 651.18 575.35 638.09 572.97
  Q 629.21 571.35 620.15 567.82
  Q 609.28 563.59 603.28 559.78
  Q 586.26 548.96 572.69 534.87
  Q 560.30 522.01 552.80 507.35
  Q 544.70 491.50 540.95 475.49
  Q 537.76 461.84 539.10 447.00
  Q 539.33 444.42 538.85 443.03
  A 0.81 0.80 -42.4 0 1 538.88 442.42
  L 539.15 441.87
  A 1.17 1.12 55.0 0 0 539.25 441.21
  Q 538.93 440.26 540.53 430.74
  Q 542.21 420.69 542.14 410.63
  Q 542.14 410.08 542.06 410.62
  Q 541.86 412.04 541.35 414.76
  A 0.13 0.13 0.0 0 1 541.10 414.74
  Q 540.97 412.81 540.17 411.02
  A 0.37 0.36 -41.3 0 0 539.53 410.98
  Q 539.40 411.18 539.32 411.66
  A 0.56 0.56 0.0 0 1 538.68 412.12
  L 537.68 411.96"
/>
<path stroke="#642155" vector-effect="non-scaling-stroke" d="
  M 539.86 406.79
  Q 541.40 407.44 541.40 403.13"
/>
<path stroke="#808080" vector-effect="non-scaling-stroke" d="
  M 1100.58 305.39
  C 1097.24 307.41 1094.65 310.22 1097.83 314.00
  Q 1104.23 321.62 1108.76 329.76
  C 1111.26 334.26 1114.46 338.55 1116.54 341.41
  C 1120.13 346.36 1123.50 353.27 1127.23 358.38
  Q 1130.72 363.15 1132.57 366.28
  C 1137.89 375.30 1145.47 385.33 1149.48 392.58
  C 1151.28 395.86 1153.44 398.50 1156.13 402.76
  C 1157.31 404.61 1158.92 406.32 1160.64 407.82
  A 1.59 1.58 46.4 0 0 1162.66 407.87
  Q 1176.78 396.83 1192.87 386.92
  Q 1194.58 385.87 1194.80 383.37
  Q 1194.92 382.01 1192.77 379.66
  Q 1187.50 373.92 1183.30 365.85
  C 1180.77 361.02 1176.42 355.56 1174.18 352.08
  Q 1157.88 326.77 1140.98 300.87
  Q 1138.66 297.31 1136.93 294.35
  C 1134.97 291.00 1132.70 286.41 1129.81 285.43
  A 2.17 2.17 0.0 0 0 1127.57 285.97
  Q 1125.30 288.29 1123.02 290.00
  Q 1110.65 299.28 1100.58 305.39"
/>
<path stroke="#808080" vector-effect="non-scaling-stroke" d="
  M 1162.77 627.40
  A 2.77 2.77 0.0 0 0 1158.87 628.16
  L 1096.83 723.29
  A 2.77 2.77 0.0 0 0 1097.57 727.07
  L 1128.19 748.35
  A 2.77 2.77 0.0 0 0 1132.09 747.59
  L 1194.13 652.46
  A 2.77 2.77 0.0 0 0 1193.39 648.68
  L 1162.77 627.40"
/>
<path stroke="#808080" vector-effect="non-scaling-stroke" d="
  M 491.43 866.27
  Q 495.28 862.57 500.17 859.12
  Q 501.26 858.36 518.53 847.24
  C 522.49 844.71 522.02 841.11 519.66 837.16
  Q 517.28 833.17 514.65 829.34
  Q 503.92 813.67 491.24 793.67
  Q 487.98 788.51 485.80 785.45
  C 481.11 778.84 477.17 771.57 472.82 765.81
  C 469.23 761.05 466.38 754.69 462.84 750.49
  Q 461.99 749.48 453.90 736.56
  Q 448.93 728.63 426.03 693.96
  Q 420.96 686.27 418.48 682.24
  C 415.22 676.92 411.98 672.57 408.23 666.71
  Q 402.91 658.45 384.88 630.56
  Q 383.69 628.72 382.46 627.83
  A 2.87 2.87 0.0 0 0 379.35 627.66
  C 377.57 628.67 374.81 630.29 372.93 631.71
  Q 362.11 639.90 350.85 646.68
  C 347.64 648.61 345.64 650.65 348.34 653.95
  C 351.63 657.99 354.52 661.62 357.65 667.40
  Q 360.67 672.96 365.07 678.80
  C 367.49 682.01 368.81 684.37 370.92 687.99
  C 373.78 692.86 377.66 697.78 379.69 701.11
  Q 381.65 704.33 385.84 710.70
  Q 398.61 730.10 406.97 743.13
  C 410.85 749.20 415.47 755.48 418.89 761.08
  Q 421.59 765.52 424.05 769.13
  C 429.28 776.80 432.89 783.44 438.01 790.61
  C 442.57 797.00 445.77 803.07 450.28 809.38
  Q 455.02 816.03 455.92 817.69
  C 459.74 824.80 465.08 831.50 469.25 838.53
  Q 471.50 842.36 475.51 848.01
  Q 481.58 856.55 484.93 863.54
  C 486.03 865.83 488.99 868.60 491.43 866.27"
/>
<path stroke="#808080" vector-effect="non-scaling-stroke" d="
  M 330.8540 665.6540
  A 3.58 3.58 0.0 0 0 325.9017 664.6014
  L 296.1625 683.9143
  A 3.58 3.58 0.0 0 0 295.1098 688.8665
  L 355.9460 782.5460
  A 3.58 3.58 0.0 0 0 360.8983 783.5986
  L 390.6375 764.2857
  A 3.58 3.58 0.0 0 0 391.6902 759.3335
  L 330.8540 665.6540"
/>
<path stroke="#808080" vector-effect="non-scaling-stroke" d="
  M 1149.44 760.98
  C 1149.02 762.81 1151.18 764.27 1152.33 764.94
  Q 1166.26 773.08 1177.73 782.16
  Q 1182.88 786.24 1186.84 781.08
  C 1191.70 774.75 1196.37 766.06 1200.80 759.69
  Q 1207.26 750.38 1211.20 743.66
  C 1214.06 738.77 1218.41 733.39 1221.11 728.61
  C 1225.16 721.46 1230.63 714.51 1234.39 707.92
  C 1238.09 701.44 1244.30 695.57 1246.59 688.54
  C 1248.65 682.24 1240.46 681.46 1237.50 679.38
  Q 1228.62 673.15 1219.50 665.92
  Q 1218.07 664.78 1214.39 664.06
  A 1.81 1.81 0.0 0 0 1213.11 664.27
  Q 1210.85 665.57 1210.03 667.07
  Q 1206.91 672.83 1203.10 678.34
  C 1193.09 692.81 1185.02 706.46 1177.33 718.04
  Q 1172.29 725.61 1157.60 748.14
  Q 1154.83 752.40 1150.92 757.40
  Q 1149.97 758.62 1149.44 760.98"
/>
<path stroke="#808080" vector-effect="non-scaling-stroke" d="
  M 274.45 698.23
  C 273.41 698.90 272.47 700.89 271.37 701.80
  Q 269.95 702.98 265.76 705.51
  Q 262.31 707.60 257.07 711.70
  C 253.27 714.67 247.91 717.02 244.15 720.10
  Q 241.97 721.89 241.52 723.56
  A 1.90 1.88 -59.1 0 0 241.95 725.33
  Q 243.83 727.39 248.35 734.97
  Q 251.14 739.65 254.75 744.58
  Q 255.31 745.33 265.75 761.48
  Q 280.49 784.27 289.55 797.77
  C 294.30 804.85 298.55 813.20 303.22 819.38
  Q 305.72 822.68 308.61 827.71
  C 310.88 831.66 314.83 836.69 317.71 841.40
  Q 320.59 846.11 321.21 847.07
  Q 346.11 885.14 360.67 907.60
  Q 374.47 928.89 378.77 936.20
  Q 380.50 939.14 383.93 937.92
  C 385.90 937.22 389.52 934.96 391.54 933.48
  Q 402.50 925.46 412.13 919.55
  Q 415.03 917.77 415.52 916.55
  C 416.98 912.85 411.56 907.66 409.73 904.73
  Q 405.89 898.58 390.31 874.92
  Q 382.56 863.15 380.46 859.64
  C 376.94 853.77 373.19 849.42 369.71 843.29
  Q 367.03 838.56 363.80 834.09
  C 358.83 827.22 355.98 821.33 351.31 814.92
  Q 348.40 810.91 344.63 804.83
  Q 341.57 799.88 333.93 788.21
  Q 313.96 757.72 308.80 749.48
  Q 304.17 742.11 303.12 740.70
  C 297.75 733.51 294.43 726.47 289.15 718.82
  Q 286.05 714.31 275.64 698.48
  A 0.86 0.86 0.0 0 0 274.45 698.23"
/>
<path stroke="#808080" vector-effect="non-scaling-stroke" d="
  M 1267.96 698.73
  A 1.02 1.02 0.0 0 0 1266.46 698.81
  Q 1263.20 702.75 1259.05 709.57
  C 1255.05 716.14 1249.20 724.18 1244.63 731.91
  Q 1241.89 736.55 1239.93 739.21
  C 1235.36 745.38 1232.86 750.86 1228.07 757.41
  C 1224.42 762.40 1221.15 768.34 1217.25 774.16
  Q 1206.88 789.63 1205.95 791.20
  Q 1204.14 794.27 1203.54 797.23
  A 3.32 3.29 -59.6 0 0 1204.26 800.03
  C 1207.09 803.32 1213.33 805.85 1216.02 807.81
  Q 1228.95 817.24 1234.56 820.76
  Q 1236.53 822.00 1238.07 820.07
  C 1242.73 814.25 1246.85 805.82 1250.70 800.68
  C 1254.85 795.15 1258.37 788.62 1261.78 783.47
  Q 1284.81 748.75 1300.33 724.66
  A 1.77 1.77 0.0 0 0 1300.18 722.54
  C 1298.27 720.34 1296.73 718.79 1294.12 717.41
  C 1290.78 715.64 1288.52 714.47 1286.00 712.41
  Q 1279.32 706.93 1273.11 703.60
  A 4.76 4.75 -8.2 0 1 1272.01 702.78
  L 1267.96 698.73"
/>
<path stroke="#808080" vector-effect="non-scaling-stroke" d="
  M 1083.42 744.79
  C 1079.40 747.96 1076.54 753.52 1073.68 758.65
  C 1071.13 763.23 1066.81 768.65 1064.06 773.07
  Q 1052.97 790.86 1040.88 808.77
  Q 1038.01 813.01 1034.06 819.54
  C 1030.11 826.06 1025.37 831.96 1021.06 839.38
  Q 1018.77 843.33 1022.66 846.39
  Q 1027.75 850.40 1037.18 856.27
  Q 1041.05 858.68 1044.33 861.20
  C 1048.44 864.37 1054.11 870.50 1056.87 864.52
  Q 1060.82 855.98 1065.77 848.94
  Q 1070.98 841.53 1072.89 838.27
  C 1076.64 831.85 1082.12 825.28 1085.85 818.29
  Q 1086.93 816.27 1090.39 811.41
  Q 1095.17 804.72 1099.12 798.13
  C 1102.52 792.45 1106.39 787.64 1109.98 781.37
  Q 1112.87 776.32 1116.13 772.04
  C 1117.50 770.23 1117.57 768.96 1116.37 767.10
  Q 1114.78 764.63 1112.85 763.41
  C 1101.21 756.00 1094.14 751.95 1086.05 744.86
  A 2.06 2.05 46.4 0 0 1083.42 744.79"
/>
<path stroke="#808080" vector-effect="non-scaling-stroke" d="
  M 371.93 803.07
  A 2.24 2.24 0.0 0 0 371.33 806.13
  L 433.87 902.07
  A 2.24 2.24 0.0 0 0 437.03 902.68
  L 468.33 880.80
  A 2.24 2.24 0.0 0 0 468.93 877.74
  L 406.40 781.79
  A 2.24 2.24 0.0 0 0 403.24 781.18
  L 371.93 803.07"
/>
<path stroke="#808080" vector-effect="non-scaling-stroke" d="
  M 1138.70 781.18
  A 2.19 2.19 0.0 0 0 1135.62 781.78
  L 1073.02 877.77
  A 2.19 2.19 0.0 0 0 1073.61 880.76
  L 1105.12 902.66
  A 2.19 2.19 0.0 0 0 1108.20 902.06
  L 1170.80 806.07
  A 2.19 2.19 0.0 0 0 1170.21 803.08
  L 1138.70 781.18"
/>
<path stroke="#808080" vector-effect="non-scaling-stroke" d="
  M 1189.99 817.29
  Q 1187.71 818.49 1186.26 821.03
  C 1183.53 825.82 1182.26 828.93 1179.17 832.72
  C 1174.67 838.25 1171.43 845.30 1167.41 850.91
  Q 1162.77 857.41 1157.38 866.33
  C 1155.24 869.87 1151.89 874.00 1150.33 876.59
  Q 1142.36 889.78 1132.02 905.04
  C 1130.89 906.70 1126.60 911.10 1126.10 914.73
  A 3.86 3.84 -70.6 0 0 1127.93 918.58
  Q 1137.64 924.42 1149.69 932.99
  C 1152.36 934.88 1154.93 936.10 1158.09 937.72
  Q 1161.36 939.39 1163.44 935.99
  Q 1168.93 927.05 1172.70 920.41
  C 1175.92 914.74 1179.11 911.38 1182.61 905.60
  Q 1185.38 901.01 1193.64 888.90
  Q 1200.05 879.50 1211.00 861.75
  Q 1213.53 857.63 1215.98 854.15
  C 1219.88 848.60 1225.24 842.76 1221.65 837.69
  C 1219.71 834.95 1213.14 833.09 1210.50 831.01
  Q 1200.19 822.87 1191.87 817.38
  A 1.86 1.84 -42.1 0 0 1189.99 817.29"
/>
<path stroke="#630718" vector-effect="non-scaling-stroke" d="
  M 546.10 399.50
  L 546.07 399.05
  A 0.07 0.06 58.5 0 0 545.95 399.02
  L 544.37 401.44
  A 0.30 0.30 0.0 0 0 544.80 401.85
  Q 547.11 400.10 546.62 397.48
  A 0.49 0.48 -3.1 0 0 546.18 397.09
  Q 545.85 397.06 545.64 397.17
  A 0.41 0.40 43.8 0 0 545.66 397.89
  Q 546.64 398.34 546.16 399.51
  A 0.03 0.03 0.0 0 1 546.10 399.50"
/>
</g>
<path fill="#ffffff" d="
  M 1536.00 0.00
  L 1536.00 1040.00
  L 0.00 1040.00
  L 0.00 0.00
  L 1536.00 0.00
  Z
  M 275.36 335.63
  Q 277.28 333.97 279.04 331.27
  Q 289.90 314.61 290.78 313.33
  C 295.02 307.24 299.63 298.58 304.56 291.99
  C 307.76 287.72 309.76 283.41 313.01 278.90
  Q 315.83 274.98 319.45 269.16
  Q 330.01 252.20 334.87 244.87
  C 342.87 232.82 351.63 219.91 359.62 206.92
  Q 362.39 202.42 366.90 196.08
  C 368.41 193.96 370.18 190.44 371.33 188.82
  Q 374.65 184.16 383.14 170.76
  C 387.65 163.66 391.99 158.14 395.78 151.81
  C 400.25 144.34 405.93 136.29 410.28 129.02
  Q 411.75 126.56 414.90 122.60
  C 417.59 119.21 415.06 116.67 411.92 114.92
  Q 402.52 109.67 393.12 102.28
  C 389.73 99.62 386.94 98.04 383.49 96.80
  A 3.34 3.33 32.3 0 0 379.98 97.59
  Q 378.56 99.03 377.05 101.55
  Q 371.32 111.04 367.24 117.03
  Q 360.80 126.48 357.18 132.33
  C 349.29 145.04 338.80 160.16 329.83 174.61
  Q 328.92 176.07 321.19 187.66
  Q 317.31 193.47 308.53 207.59
  Q 304.41 214.21 302.81 216.34
  C 297.43 223.48 293.53 230.98 288.65 238.25
  Q 273.79 260.36 258.64 284.54
  C 254.11 291.77 246.46 301.57 241.97 310.23
  Q 241.04 312.02 242.60 313.40
  C 246.79 317.09 251.42 319.08 255.88 322.49
  Q 263.81 328.57 270.76 332.83
  A 3.80 3.65 81.7 0 1 271.39 333.32
  L 273.64 335.57
  A 1.27 1.26 -42.9 0 0 275.36 335.63
  Z
  M 1127.98 116.99
  A 3.73 3.73 0.0 0 0 1126.99 122.08
  L 1187.87 215.49
  A 3.73 3.73 0.0 0 0 1193.13 216.51
  L 1222.08 196.27
  A 3.73 3.73 0.0 0 0 1223.07 191.18
  L 1162.19 97.77
  A 3.73 3.73 0.0 0 0 1156.93 96.75
  L 1127.98 116.99
  Z
  M 297.85 341.36
  C 296.10 343.66 293.23 349.43 297.23 351.49
  Q 303.34 354.62 309.29 359.23
  C 315.03 363.68 320.92 368.38 327.78 370.92
  A 1.33 1.33 0.0 0 0 328.75 370.90
  Q 330.39 370.22 331.56 368.33
  Q 342.16 351.17 353.71 334.02
  C 357.26 328.74 359.84 323.68 363.87 318.02
  C 370.56 308.61 376.70 298.59 383.14 288.23
  C 386.37 283.04 389.97 278.92 392.57 274.25
  Q 394.99 269.90 399.40 263.63
  C 403.25 258.15 408.35 249.78 413.94 241.48
  Q 420.14 232.31 428.72 218.74
  C 435.97 207.27 443.54 196.33 449.82 186.61
  C 455.84 177.30 460.03 169.65 466.41 161.66
  Q 467.67 160.08 469.30 157.08
  A 2.24 2.24 0.0 0 0 468.61 154.18
  L 437.42 132.50
  A 2.75 2.75 0.0 0 0 434.53 132.35
  Q 432.92 133.24 431.83 135.35
  Q 428.91 140.96 425.13 146.37
  Q 418.90 155.29 417.94 157.10
  C 415.32 162.00 411.43 166.81 408.22 171.81
  Q 395.24 192.04 392.97 195.67
  C 390.51 199.63 386.52 204.78 384.32 208.34
  Q 373.53 225.85 361.62 243.37
  C 358.81 247.51 355.68 253.24 352.65 257.76
  Q 337.97 279.66 334.14 285.88
  Q 330.53 291.73 313.71 317.19
  C 308.40 325.24 303.67 333.73 297.85 341.36
  Z
  M 1108.7713 133.7272
  A 2.75 2.75 0.0 0 0 1104.9658 132.9253
  L 1073.8026 153.2402
  A 2.75 2.75 0.0 0 0 1073.0007 157.0458
  L 1211.6887 369.7928
  A 2.75 2.75 0.0 0 0 1215.4942 370.5947
  L 1246.6574 350.2798
  A 2.75 2.75 0.0 0 0 1247.4593 346.4742
  L 1108.7713 133.7272
  Z
  M 491.48 168.32
  C 489.04 165.99 486.08 168.76 484.98 171.05
  Q 481.62 178.05 475.55 186.61
  Q 471.54 192.27 469.28 196.10
  C 465.11 203.14 459.77 209.85 455.94 216.98
  Q 455.04 218.64 450.30 225.30
  C 445.79 231.62 442.58 237.70 438.02 244.10
  C 432.89 251.28 429.28 257.93 424.05 265.61
  Q 421.59 269.23 418.88 273.68
  C 415.46 279.28 410.84 285.57 406.95 291.65
  Q 398.59 304.70 385.81 324.13
  Q 381.61 330.51 379.65 333.74
  C 377.62 337.07 373.74 342.00 370.88 346.88
  C 368.76 350.51 367.44 352.87 365.02 356.08
  Q 360.62 361.93 357.60 367.50
  C 354.46 373.29 351.57 376.93 348.28 380.97
  C 345.58 384.28 347.58 386.32 350.79 388.25
  Q 362.07 395.04 372.91 403.23
  C 374.79 404.66 377.56 406.28 379.34 407.29
  A 2.87 2.87 0.0 0 0 382.45 407.12
  Q 383.69 406.23 384.88 404.38
  Q 402.92 376.45 408.24 368.18
  C 412.00 362.31 415.24 357.95 418.50 352.62
  Q 420.98 348.58 426.06 340.88
  Q 448.98 306.16 453.95 298.22
  Q 462.05 285.27 462.90 284.26
  C 466.44 280.06 469.29 273.69 472.88 268.92
  C 477.24 263.15 481.18 255.87 485.88 249.25
  Q 488.06 246.18 491.32 241.02
  Q 504.01 220.98 514.75 205.29
  Q 517.38 201.45 519.76 197.46
  C 522.12 193.50 522.59 189.90 518.63 187.36
  Q 501.33 176.23 500.24 175.47
  Q 495.34 172.02 491.48 168.32
  Z
  M 1083.38 289.95
  A 2.06 2.05 -46.4 0 0 1086.00 289.88
  C 1094.08 282.80 1101.15 278.75 1112.77 271.35
  Q 1114.70 270.13 1116.29 267.66
  C 1117.49 265.80 1117.42 264.54 1116.05 262.73
  Q 1112.79 258.45 1109.91 253.41
  C 1106.32 247.14 1102.45 242.34 1099.06 236.67
  Q 1095.11 230.08 1090.33 223.40
  Q 1086.88 218.55 1085.80 216.53
  C 1082.07 209.55 1076.60 202.98 1072.85 196.57
  Q 1070.94 193.31 1065.74 185.91
  Q 1060.79 178.88 1056.84 170.35
  C 1054.09 164.37 1048.42 170.50 1044.32 173.67
  Q 1041.04 176.18 1037.18 178.59
  Q 1027.76 184.46 1022.67 188.46
  Q 1018.79 191.52 1021.07 195.46
  C 1025.38 202.88 1030.12 208.77 1034.06 215.28
  Q 1038.01 221.81 1040.88 226.04
  Q 1052.95 243.93 1064.03 261.70
  C 1066.78 266.12 1071.10 271.53 1073.65 276.11
  C 1076.50 281.23 1079.36 286.79 1083.38 289.95
  Z
  M 1268.68 335.76
  L 1271.00 333.26
  A 7.81 6.99 0.4 0 1 1272.11 332.28
  Q 1286.43 322.01 1297.25 315.25
  C 1299.42 313.90 1301.56 310.81 1299.55 308.44
  Q 1296.55 304.89 1293.66 300.18
  C 1288.53 291.81 1283.47 284.83 1273.82 269.72
  Q 1262.48 251.95 1250.69 234.32
  Q 1247.56 229.63 1241.27 218.54
  Q 1239.53 215.48 1237.16 213.70
  A 1.99 1.98 45.7 0 0 1234.84 213.67
  L 1204.68 234.75
  A 3.27 3.26 68.7 0 0 1203.32 237.87
  Q 1203.60 239.89 1205.13 242.13
  Q 1212.39 252.79 1217.09 260.39
  C 1225.13 273.41 1230.72 281.43 1240.41 296.26
  C 1245.10 303.45 1248.63 310.50 1253.27 316.66
  C 1256.75 321.26 1260.42 327.71 1263.21 331.79
  Q 1265.21 334.70 1266.62 335.89
  A 1.50 1.50 0.0 0 0 1268.68 335.76
  Z
  M 541.40 403.13
  L 539.86 406.79
  L 537.68 411.96
  Q 532.13 422.02 530.71 428.24
  Q 527.98 440.20 524.55 449.71
  C 521.43 458.36 520.03 465.26 519.29 473.66
  C 518.59 481.67 517.13 488.07 516.71 495.15
  C 515.56 514.28 515.65 533.95 518.22 553.10
  C 519.66 563.92 520.01 572.33 523.39 581.13
  Q 525.72 587.20 527.21 593.06
  Q 528.60 598.57 532.50 610.68
  C 534.01 615.40 536.45 619.35 538.41 624.48
  C 539.93 628.45 541.68 631.72 543.51 635.96
  Q 544.95 639.32 547.94 644.26
  Q 553.86 654.02 556.06 658.04
  C 559.65 664.61 564.34 670.19 567.79 675.48
  C 570.76 680.03 574.79 683.93 578.05 688.31
  Q 581.05 692.35 585.77 697.37
  Q 607.67 720.68 634.37 738.18
  C 642.23 743.33 653.68 749.64 659.30 752.69
  C 666.50 756.58 675.71 759.20 683.48 763.07
  C 692.66 767.64 702.36 769.15 712.73 771.64
  C 725.01 774.59 738.88 777.94 752.01 778.68
  Q 772.82 779.85 795.04 778.07
  Q 803.81 777.36 814.95 774.72
  Q 821.16 773.24 846.32 767.60
  C 852.00 766.32 857.78 763.27 863.07 760.93
  C 869.87 757.92 879.36 754.80 886.60 750.83
  Q 901.48 742.68 909.68 737.16
  Q 914.74 733.74 931.36 720.78
  Q 938.81 714.98 945.55 708.07
  Q 956.77 696.56 958.82 694.32
  Q 969.00 683.19 981.94 664.44
  C 985.67 659.05 989.39 651.62 993.45 645.19
  Q 995.96 641.22 999.52 631.98
  C 1004.35 621.56 1009.94 611.49 1012.92 600.29
  Q 1014.48 594.39 1015.47 591.38
  C 1018.17 583.09 1020.57 576.82 1021.73 569.12
  Q 1023.49 557.35 1024.62 546.76
  Q 1027.76 517.27 1024.61 488.38
  C 1023.04 474.02 1021.69 461.34 1017.28 449.46
  C 1013.01 437.95 1011.45 426.35 1005.83 415.36
  Q 1003.78 411.35 999.82 402.54
  C 995.41 392.72 989.78 383.03 985.44 375.48
  Q 983.11 371.43 980.96 368.53
  C 976.48 362.49 973.32 357.60 968.70 352.13
  Q 957.88 339.31 957.41 338.80
  Q 944.09 324.53 937.16 318.85
  Q 929.28 312.41 926.15 309.84
  C 918.97 303.93 914.10 301.02 905.79 295.31
  Q 901.79 292.56 896.48 289.64
  Q 886.83 284.33 882.54 282.01
  C 874.20 277.51 866.23 275.22 857.21 271.31
  Q 849.95 268.17 846.19 267.07
  C 834.17 263.58 822.61 261.68 809.98 259.08
  Q 803.50 257.75 789.93 256.13
  Q 771.67 253.95 753.37 256.12
  Q 733.82 258.43 721.95 261.22
  Q 703.00 265.69 698.86 266.32
  C 696.57 266.67 693.17 267.83 691.50 268.51
  Q 678.87 273.65 669.72 277.24
  C 666.29 278.59 661.24 280.84 657.18 283.14
  Q 642.61 291.36 639.49 293.26
  Q 621.21 304.37 602.74 320.98
  Q 589.21 333.14 571.51 354.74
  C 568.12 358.88 566.60 361.82 563.53 365.71
  Q 561.05 368.86 558.03 374.25
  Q 553.16 382.96 546.60 393.29
  C 544.80 396.14 543.06 399.87 541.40 403.13
  Z
  M 1100.58 305.39
  C 1097.24 307.41 1094.65 310.22 1097.83 314.00
  Q 1104.23 321.62 1108.76 329.76
  C 1111.26 334.26 1114.46 338.55 1116.54 341.41
  C 1120.13 346.36 1123.50 353.27 1127.23 358.38
  Q 1130.72 363.15 1132.57 366.28
  C 1137.89 375.30 1145.47 385.33 1149.48 392.58
  C 1151.28 395.86 1153.44 398.50 1156.13 402.76
  C 1157.31 404.61 1158.92 406.32 1160.64 407.82
  A 1.59 1.58 46.4 0 0 1162.66 407.87
  Q 1176.78 396.83 1192.87 386.92
  Q 1194.58 385.87 1194.80 383.37
  Q 1194.92 382.01 1192.77 379.66
  Q 1187.50 373.92 1183.30 365.85
  C 1180.77 361.02 1176.42 355.56 1174.18 352.08
  Q 1157.88 326.77 1140.98 300.87
  Q 1138.66 297.31 1136.93 294.35
  C 1134.97 291.00 1132.70 286.41 1129.81 285.43
  A 2.17 2.17 0.0 0 0 1127.57 285.97
  Q 1125.30 288.29 1123.02 290.00
  Q 1110.65 299.28 1100.58 305.39
  Z
  M 1162.77 627.40
  A 2.77 2.77 0.0 0 0 1158.87 628.16
  L 1096.83 723.29
  A 2.77 2.77 0.0 0 0 1097.57 727.07
  L 1128.19 748.35
  A 2.77 2.77 0.0 0 0 1132.09 747.59
  L 1194.13 652.46
  A 2.77 2.77 0.0 0 0 1193.39 648.68
  L 1162.77 627.40
  Z
  M 491.43 866.27
  Q 495.28 862.57 500.17 859.12
  Q 501.26 858.36 518.53 847.24
  C 522.49 844.71 522.02 841.11 519.66 837.16
  Q 517.28 833.17 514.65 829.34
  Q 503.92 813.67 491.24 793.67
  Q 487.98 788.51 485.80 785.45
  C 481.11 778.84 477.17 771.57 472.82 765.81
  C 469.23 761.05 466.38 754.69 462.84 750.49
  Q 461.99 749.48 453.90 736.56
  Q 448.93 728.63 426.03 693.96
  Q 420.96 686.27 418.48 682.24
  C 415.22 676.92 411.98 672.57 408.23 666.71
  Q 402.91 658.45 384.88 630.56
  Q 383.69 628.72 382.46 627.83
  A 2.87 2.87 0.0 0 0 379.35 627.66
  C 377.57 628.67 374.81 630.29 372.93 631.71
  Q 362.11 639.90 350.85 646.68
  C 347.64 648.61 345.64 650.65 348.34 653.95
  C 351.63 657.99 354.52 661.62 357.65 667.40
  Q 360.67 672.96 365.07 678.80
  C 367.49 682.01 368.81 684.37 370.92 687.99
  C 373.78 692.86 377.66 697.78 379.69 701.11
  Q 381.65 704.33 385.84 710.70
  Q 398.61 730.10 406.97 743.13
  C 410.85 749.20 415.47 755.48 418.89 761.08
  Q 421.59 765.52 424.05 769.13
  C 429.28 776.80 432.89 783.44 438.01 790.61
  C 442.57 797.00 445.77 803.07 450.28 809.38
  Q 455.02 816.03 455.92 817.69
  C 459.74 824.80 465.08 831.50 469.25 838.53
  Q 471.50 842.36 475.51 848.01
  Q 481.58 856.55 484.93 863.54
  C 486.03 865.83 488.99 868.60 491.43 866.27
  Z
  M 330.8540 665.6540
  A 3.58 3.58 0.0 0 0 325.9017 664.6014
  L 296.1625 683.9143
  A 3.58 3.58 0.0 0 0 295.1098 688.8665
  L 355.9460 782.5460
  A 3.58 3.58 0.0 0 0 360.8983 783.5986
  L 390.6375 764.2857
  A 3.58 3.58 0.0 0 0 391.6902 759.3335
  L 330.8540 665.6540
  Z
  M 1149.44 760.98
  C 1149.02 762.81 1151.18 764.27 1152.33 764.94
  Q 1166.26 773.08 1177.73 782.16
  Q 1182.88 786.24 1186.84 781.08
  C 1191.70 774.75 1196.37 766.06 1200.80 759.69
  Q 1207.26 750.38 1211.20 743.66
  C 1214.06 738.77 1218.41 733.39 1221.11 728.61
  C 1225.16 721.46 1230.63 714.51 1234.39 707.92
  C 1238.09 701.44 1244.30 695.57 1246.59 688.54
  C 1248.65 682.24 1240.46 681.46 1237.50 679.38
  Q 1228.62 673.15 1219.50 665.92
  Q 1218.07 664.78 1214.39 664.06
  A 1.81 1.81 0.0 0 0 1213.11 664.27
  Q 1210.85 665.57 1210.03 667.07
  Q 1206.91 672.83 1203.10 678.34
  C 1193.09 692.81 1185.02 706.46 1177.33 718.04
  Q 1172.29 725.61 1157.60 748.14
  Q 1154.83 752.40 1150.92 757.40
  Q 1149.97 758.62 1149.44 760.98
  Z
  M 274.45 698.23
  C 273.41 698.90 272.47 700.89 271.37 701.80
  Q 269.95 702.98 265.76 705.51
  Q 262.31 707.60 257.07 711.70
  C 253.27 714.67 247.91 717.02 244.15 720.10
  Q 241.97 721.89 241.52 723.56
  A 1.90 1.88 -59.1 0 0 241.95 725.33
  Q 243.83 727.39 248.35 734.97
  Q 251.14 739.65 254.75 744.58
  Q 255.31 745.33 265.75 761.48
  Q 280.49 784.27 289.55 797.77
  C 294.30 804.85 298.55 813.20 303.22 819.38
  Q 305.72 822.68 308.61 827.71
  C 310.88 831.66 314.83 836.69 317.71 841.40
  Q 320.59 846.11 321.21 847.07
  Q 346.11 885.14 360.67 907.60
  Q 374.47 928.89 378.77 936.20
  Q 380.50 939.14 383.93 937.92
  C 385.90 937.22 389.52 934.96 391.54 933.48
  Q 402.50 925.46 412.13 919.55
  Q 415.03 917.77 415.52 916.55
  C 416.98 912.85 411.56 907.66 409.73 904.73
  Q 405.89 898.58 390.31 874.92
  Q 382.56 863.15 380.46 859.64
  C 376.94 853.77 373.19 849.42 369.71 843.29
  Q 367.03 838.56 363.80 834.09
  C 358.83 827.22 355.98 821.33 351.31 814.92
  Q 348.40 810.91 344.63 804.83
  Q 341.57 799.88 333.93 788.21
  Q 313.96 757.72 308.80 749.48
  Q 304.17 742.11 303.12 740.70
  C 297.75 733.51 294.43 726.47 289.15 718.82
  Q 286.05 714.31 275.64 698.48
  A 0.86 0.86 0.0 0 0 274.45 698.23
  Z
  M 1267.96 698.73
  A 1.02 1.02 0.0 0 0 1266.46 698.81
  Q 1263.20 702.75 1259.05 709.57
  C 1255.05 716.14 1249.20 724.18 1244.63 731.91
  Q 1241.89 736.55 1239.93 739.21
  C 1235.36 745.38 1232.86 750.86 1228.07 757.41
  C 1224.42 762.40 1221.15 768.34 1217.25 774.16
  Q 1206.88 789.63 1205.95 791.20
  Q 1204.14 794.27 1203.54 797.23
  A 3.32 3.29 -59.6 0 0 1204.26 800.03
  C 1207.09 803.32 1213.33 805.85 1216.02 807.81
  Q 1228.95 817.24 1234.56 820.76
  Q 1236.53 822.00 1238.07 820.07
  C 1242.73 814.25 1246.85 805.82 1250.70 800.68
  C 1254.85 795.15 1258.37 788.62 1261.78 783.47
  Q 1284.81 748.75 1300.33 724.66
  A 1.77 1.77 0.0 0 0 1300.18 722.54
  C 1298.27 720.34 1296.73 718.79 1294.12 717.41
  C 1290.78 715.64 1288.52 714.47 1286.00 712.41
  Q 1279.32 706.93 1273.11 703.60
  A 4.76 4.75 -8.2 0 1 1272.01 702.78
  L 1267.96 698.73
  Z
  M 1083.42 744.79
  C 1079.40 747.96 1076.54 753.52 1073.68 758.65
  C 1071.13 763.23 1066.81 768.65 1064.06 773.07
  Q 1052.97 790.86 1040.88 808.77
  Q 1038.01 813.01 1034.06 819.54
  C 1030.11 826.06 1025.37 831.96 1021.06 839.38
  Q 1018.77 843.33 1022.66 846.39
  Q 1027.75 850.40 1037.18 856.27
  Q 1041.05 858.68 1044.33 861.20
  C 1048.44 864.37 1054.11 870.50 1056.87 864.52
  Q 1060.82 855.98 1065.77 848.94
  Q 1070.98 841.53 1072.89 838.27
  C 1076.64 831.85 1082.12 825.28 1085.85 818.29
  Q 1086.93 816.27 1090.39 811.41
  Q 1095.17 804.72 1099.12 798.13
  C 1102.52 792.45 1106.39 787.64 1109.98 781.37
  Q 1112.87 776.32 1116.13 772.04
  C 1117.50 770.23 1117.57 768.96 1116.37 767.10
  Q 1114.78 764.63 1112.85 763.41
  C 1101.21 756.00 1094.14 751.95 1086.05 744.86
  A 2.06 2.05 46.4 0 0 1083.42 744.79
  Z
  M 371.93 803.07
  A 2.24 2.24 0.0 0 0 371.33 806.13
  L 433.87 902.07
  A 2.24 2.24 0.0 0 0 437.03 902.68
  L 468.33 880.80
  A 2.24 2.24 0.0 0 0 468.93 877.74
  L 406.40 781.79
  A 2.24 2.24 0.0 0 0 403.24 781.18
  L 371.93 803.07
  Z
  M 1138.70 781.18
  A 2.19 2.19 0.0 0 0 1135.62 781.78
  L 1073.02 877.77
  A 2.19 2.19 0.0 0 0 1073.61 880.76
  L 1105.12 902.66
  A 2.19 2.19 0.0 0 0 1108.20 902.06
  L 1170.80 806.07
  A 2.19 2.19 0.0 0 0 1170.21 803.08
  L 1138.70 781.18
  Z
  M 1189.99 817.29
  Q 1187.71 818.49 1186.26 821.03
  C 1183.53 825.82 1182.26 828.93 1179.17 832.72
  C 1174.67 838.25 1171.43 845.30 1167.41 850.91
  Q 1162.77 857.41 1157.38 866.33
  C 1155.24 869.87 1151.89 874.00 1150.33 876.59
  Q 1142.36 889.78 1132.02 905.04
  C 1130.89 906.70 1126.60 911.10 1126.10 914.73
  A 3.86 3.84 -70.6 0 0 1127.93 918.58
  Q 1137.64 924.42 1149.69 932.99
  C 1152.36 934.88 1154.93 936.10 1158.09 937.72
  Q 1161.36 939.39 1163.44 935.99
  Q 1168.93 927.05 1172.70 920.41
  C 1175.92 914.74 1179.11 911.38 1182.61 905.60
  Q 1185.38 901.01 1193.64 888.90
  Q 1200.05 879.50 1211.00 861.75
  Q 1213.53 857.63 1215.98 854.15
  C 1219.88 848.60 1225.24 842.76 1221.65 837.69
  C 1219.71 834.95 1213.14 833.09 1210.50 831.01
  Q 1200.19 822.87 1191.87 817.38
  A 1.86 1.84 -42.1 0 0 1189.99 817.29
  Z"
/>
<path fill="#000000" d="
  M 275.36 335.63
  A 1.27 1.26 -42.9 0 1 273.64 335.57
  L 271.39 333.32
  A 3.80 3.65 81.7 0 0 270.76 332.83
  Q 263.81 328.57 255.88 322.49
  C 251.42 319.08 246.79 317.09 242.60 313.40
  Q 241.04 312.02 241.97 310.23
  C 246.46 301.57 254.11 291.77 258.64 284.54
  Q 273.79 260.36 288.65 238.25
  C 293.53 230.98 297.43 223.48 302.81 216.34
  Q 304.41 214.21 308.53 207.59
  Q 317.31 193.47 321.19 187.66
  Q 328.92 176.07 329.83 174.61
  C 338.80 160.16 349.29 145.04 357.18 132.33
  Q 360.80 126.48 367.24 117.03
  Q 371.32 111.04 377.05 101.55
  Q 378.56 99.03 379.98 97.59
  A 3.34 3.33 32.3 0 1 383.49 96.80
  C 386.94 98.04 389.73 99.62 393.12 102.28
  Q 402.52 109.67 411.92 114.92
  C 415.06 116.67 417.59 119.21 414.90 122.60
  Q 411.75 126.56 410.28 129.02
  C 405.93 136.29 400.25 144.34 395.78 151.81
  C 391.99 158.14 387.65 163.66 383.14 170.76
  Q 374.65 184.16 371.33 188.82
  C 370.18 190.44 368.41 193.96 366.90 196.08
  Q 362.39 202.42 359.62 206.92
  C 351.63 219.91 342.87 232.82 334.87 244.87
  Q 330.01 252.20 319.45 269.16
  Q 315.83 274.98 313.01 278.90
  C 309.76 283.41 307.76 287.72 304.56 291.99
  C 299.63 298.58 295.02 307.24 290.78 313.33
  Q 289.90 314.61 279.04 331.27
  Q 277.28 333.97 275.36 335.63
  Z"
/>
<path fill="#000000" d="
  M 1127.98 116.99
  L 1156.93 96.75
  A 3.73 3.73 0.0 0 1 1162.19 97.77
  L 1223.07 191.18
  A 3.73 3.73 0.0 0 1 1222.08 196.27
  L 1193.13 216.51
  A 3.73 3.73 0.0 0 1 1187.87 215.49
  L 1126.99 122.08
  A 3.73 3.73 0.0 0 1 1127.98 116.99
  Z"
/>
<path fill="#000000" d="
  M 297.23 351.49
  C 293.23 349.43 296.10 343.66 297.85 341.36
  C 303.67 333.73 308.40 325.24 313.71 317.19
  Q 330.53 291.73 334.14 285.88
  Q 337.97 279.66 352.65 257.76
  C 355.68 253.24 358.81 247.51 361.62 243.37
  Q 373.53 225.85 384.32 208.34
  C 386.52 204.78 390.51 199.63 392.97 195.67
  Q 395.24 192.04 408.22 171.81
  C 411.43 166.81 415.32 162.00 417.94 157.10
  Q 418.90 155.29 425.13 146.37
  Q 428.91 140.96 431.83 135.35
  Q 432.92 133.24 434.53 132.35
  A 2.75 2.75 0.0 0 1 437.42 132.50
  L 468.61 154.18
  A 2.24 2.24 0.0 0 1 469.30 157.08
  Q 467.67 160.08 466.41 161.66
  C 460.03 169.65 455.84 177.30 449.82 186.61
  C 443.54 196.33 435.97 207.27 428.72 218.74
  Q 420.14 232.31 413.94 241.48
  C 408.35 249.78 403.25 258.15 399.40 263.63
  Q 394.99 269.90 392.57 274.25
  C 389.97 278.92 386.37 283.04 383.14 288.23
  C 376.70 298.59 370.56 308.61 363.87 318.02
  C 359.84 323.68 357.26 328.74 353.71 334.02
  Q 342.16 351.17 331.56 368.33
  Q 330.39 370.22 328.75 370.90
  A 1.33 1.33 0.0 0 1 327.78 370.92
  C 320.92 368.38 315.03 363.68 309.29 359.23
  Q 303.34 354.62 297.23 351.49
  Z"
/>
<rect fill="#000000" x="-21.35" y="-129.73" transform="translate(1160.23,251.76) rotate(-33.1)" width="42.70" height="259.46" rx="2.75"/>
<path fill="#000000" d="
  M 484.98 171.05
  C 486.08 168.76 489.04 165.99 491.48 168.32
  Q 495.34 172.02 500.24 175.47
  Q 501.33 176.23 518.63 187.36
  C 522.59 189.90 522.12 193.50 519.76 197.46
  Q 517.38 201.45 514.75 205.29
  Q 504.01 220.98 491.32 241.02
  Q 488.06 246.18 485.88 249.25
  C 481.18 255.87 477.24 263.15 472.88 268.92
  C 469.29 273.69 466.44 280.06 462.90 284.26
  Q 462.05 285.27 453.95 298.22
  Q 448.98 306.16 426.06 340.88
  Q 420.98 348.58 418.50 352.62
  C 415.24 357.95 412.00 362.31 408.24 368.18
  Q 402.92 376.45 384.88 404.38
  Q 383.69 406.23 382.45 407.12
  A 2.87 2.87 0.0 0 1 379.34 407.29
  C 377.56 406.28 374.79 404.66 372.91 403.23
  Q 362.07 395.04 350.79 388.25
  C 347.58 386.32 345.58 384.28 348.28 380.97
  C 351.57 376.93 354.46 373.29 357.60 367.50
  Q 360.62 361.93 365.02 356.08
  C 367.44 352.87 368.76 350.51 370.88 346.88
  C 373.74 342.00 377.62 337.07 379.65 333.74
  Q 381.61 330.51 385.81 324.13
  Q 398.59 304.70 406.95 291.65
  C 410.84 285.57 415.46 279.28 418.88 273.68
  Q 421.59 269.23 424.05 265.61
  C 429.28 257.93 432.89 251.28 438.02 244.10
  C 442.58 237.70 445.79 231.62 450.30 225.30
  Q 455.04 218.64 455.94 216.98
  C 459.77 209.85 465.11 203.14 469.28 196.10
  Q 471.54 192.27 475.55 186.61
  Q 481.62 178.05 484.98 171.05
  Z"
/>
<path fill="#000000" d="
  M 1083.38 289.95
  C 1079.36 286.79 1076.50 281.23 1073.65 276.11
  C 1071.10 271.53 1066.78 266.12 1064.03 261.70
  Q 1052.95 243.93 1040.88 226.04
  Q 1038.01 221.81 1034.06 215.28
  C 1030.12 208.77 1025.38 202.88 1021.07 195.46
  Q 1018.79 191.52 1022.67 188.46
  Q 1027.76 184.46 1037.18 178.59
  Q 1041.04 176.18 1044.32 173.67
  C 1048.42 170.50 1054.09 164.37 1056.84 170.35
  Q 1060.79 178.88 1065.74 185.91
  Q 1070.94 193.31 1072.85 196.57
  C 1076.60 202.98 1082.07 209.55 1085.80 216.53
  Q 1086.88 218.55 1090.33 223.40
  Q 1095.11 230.08 1099.06 236.67
  C 1102.45 242.34 1106.32 247.14 1109.91 253.41
  Q 1112.79 258.45 1116.05 262.73
  C 1117.42 264.54 1117.49 265.80 1116.29 267.66
  Q 1114.70 270.13 1112.77 271.35
  C 1101.15 278.75 1094.08 282.80 1086.00 289.88
  A 2.06 2.05 -46.4 0 1 1083.38 289.95
  Z"
/>
<path fill="#000000" d="
  M 1268.68 335.76
  A 1.50 1.50 0.0 0 1 1266.62 335.89
  Q 1265.21 334.70 1263.21 331.79
  C 1260.42 327.71 1256.75 321.26 1253.27 316.66
  C 1248.63 310.50 1245.10 303.45 1240.41 296.26
  C 1230.72 281.43 1225.13 273.41 1217.09 260.39
  Q 1212.39 252.79 1205.13 242.13
  Q 1203.60 239.89 1203.32 237.87
  A 3.27 3.26 68.7 0 1 1204.68 234.75
  L 1234.84 213.67
  A 1.99 1.98 45.7 0 1 1237.16 213.70
  Q 1239.53 215.48 1241.27 218.54
  Q 1247.56 229.63 1250.69 234.32
  Q 1262.48 251.95 1273.82 269.72
  C 1283.47 284.83 1288.53 291.81 1293.66 300.18
  Q 1296.55 304.89 1299.55 308.44
  C 1301.56 310.81 1299.42 313.90 1297.25 315.25
  Q 1286.43 322.01 1272.11 332.28
  A 7.81 6.99 0.4 0 0 1271.00 333.26
  L 1268.68 335.76
  Z"
/>
<path fill="#c60d30" d="
  M 999.52 631.98
  Q 998.52 628.61 998.82 626.59
  C 999.92 618.92 1001.14 611.19 1001.65 604.13
  Q 1002.23 596.07 1002.72 592.72
  C 1004.26 582.24 1003.29 571.46 1001.11 561.85
  C 1000.09 557.34 998.18 552.71 997.00 548.74
  Q 995.94 545.16 993.30 539.16
  Q 987.85 526.77 987.79 526.46
  A 0.49 0.49 0.0 0 0 986.99 526.17
  L 986.83 526.30
  A 0.17 0.16 55.2 0 1 986.58 526.25
  Q 985.83 524.70 985.61 523.14
  A 2.84 2.72 -64.3 0 0 985.31 522.22
  Q 982.00 515.84 979.78 512.49
  Q 978.62 510.74 971.99 502.70
  C 969.41 499.56 966.86 497.76 964.11 494.90
  C 960.00 490.62 955.01 487.18 950.48 483.34
  C 944.15 477.96 936.02 474.53 927.86 470.60
  A 0.52 0.52 0.0 0 0 927.53 470.57
  Q 926.87 470.76 926.55 469.89
  A 1.24 1.23 2.0 0 0 925.92 469.22
  Q 920.35 466.64 914.74 465.33
  Q 905.89 463.26 903.57 462.82
  C 893.16 460.85 886.09 460.55 872.74 459.93
  Q 865.77 459.61 857.07 461.31
  Q 846.80 463.32 835.36 466.84
  Q 828.94 468.81 822.85 472.26
  Q 818.94 474.48 808.81 479.38
  A 6.42 6.26 12.0 0 0 807.67 480.10
  Q 792.45 491.92 779.31 506.67
  Q 776.12 510.25 769.97 518.99
  Q 761.46 531.08 750.03 542.03
  Q 742.62 549.14 737.68 552.20
  Q 737.57 552.26 726.84 558.68
  Q 718.88 563.44 715.79 564.78
  Q 708.49 567.93 698.78 571.29
  Q 690.97 574.00 680.98 575.02
  Q 667.58 576.39 659.39 575.87
  Q 651.18 575.35 638.09 572.97
  Q 629.21 571.35 620.15 567.82
  Q 609.28 563.59 603.28 559.78
  Q 586.26 548.96 572.69 534.87
  Q 560.30 522.01 552.80 507.35
  Q 544.70 491.50 540.95 475.49
  Q 537.76 461.84 539.10 447.00
  Q 539.33 444.42 538.85 443.03
  A 0.81 0.80 -42.4 0 1 538.88 442.42
  L 539.15 441.87
  A 1.17 1.12 55.0 0 0 539.25 441.21
  Q 538.93 440.26 540.53 430.74
  Q 542.21 420.69 542.14 410.63
  Q 542.14 410.08 542.06 410.62
  Q 541.86 412.04 541.35 414.76
  A 0.13 0.13 0.0 0 1 541.10 414.74
  Q 540.97 412.81 540.17 411.02
  A 0.37 0.36 -41.3 0 0 539.53 410.98
  Q 539.40 411.18 539.32 411.66
  A 0.56 0.56 0.0 0 1 538.68 412.12
  L 537.68 411.96
  L 539.86 406.79
  Q 541.40 407.44 541.40 403.13
  C 543.06 399.87 544.80 396.14 546.60 393.29
  Q 553.16 382.96 558.03 374.25
  Q 561.05 368.86 563.53 365.71
  C 566.60 361.82 568.12 358.88 571.51 354.74
  Q 589.21 333.14 602.74 320.98
  Q 621.21 304.37 639.49 293.26
  Q 642.61 291.36 657.18 283.14
  C 661.24 280.84 666.29 278.59 669.72 277.24
  Q 678.87 273.65 691.50 268.51
  C 693.17 267.83 696.57 266.67 698.86 266.32
  Q 703.00 265.69 721.95 261.22
  Q 733.82 258.43 753.37 256.12
  Q 771.67 253.95 789.93 256.13
  Q 803.50 257.75 809.98 259.08
  C 822.61 261.68 834.17 263.58 846.19 267.07
  Q 849.95 268.17 857.21 271.31
  C 866.23 275.22 874.20 277.51 882.54 282.01
  Q 886.83 284.33 896.48 289.64
  Q 901.79 292.56 905.79 295.31
  C 914.10 301.02 918.97 303.93 926.15 309.84
  Q 929.28 312.41 937.16 318.85
  Q 944.09 324.53 957.41 338.80
  Q 957.88 339.31 968.70 352.13
  C 973.32 357.60 976.48 362.49 980.96 368.53
  Q 983.11 371.43 985.44 375.48
  C 989.78 383.03 995.41 392.72 999.82 402.54
  Q 1003.78 411.35 1005.83 415.36
  C 1011.45 426.35 1013.01 437.95 1017.28 449.46
  C 1021.69 461.34 1023.04 474.02 1024.61 488.38
  Q 1027.76 517.27 1024.62 546.76
  Q 1023.49 557.35 1021.73 569.12
  C 1020.57 576.82 1018.17 583.09 1015.47 591.38
  Q 1014.48 594.39 1012.92 600.29
  C 1009.94 611.49 1004.35 621.56 999.52 631.98
  Z
  M 546.10 399.50
  L 546.07 399.05
  A 0.07 0.06 58.5 0 0 545.95 399.02
  L 544.37 401.44
  A 0.30 0.30 0.0 0 0 544.80 401.85
  Q 547.11 400.10 546.62 397.48
  A 0.49 0.48 -3.1 0 0 546.18 397.09
  Q 545.85 397.06 545.64 397.17
  A 0.41 0.40 43.8 0 0 545.66 397.89
  Q 546.64 398.34 546.16 399.51
  A 0.03 0.03 0.0 0 1 546.10 399.50
  Z"
/>
<path fill="#000000" d="
  M 1097.83 314.00
  C 1094.65 310.22 1097.24 307.41 1100.58 305.39
  Q 1110.65 299.28 1123.02 290.00
  Q 1125.30 288.29 1127.57 285.97
  A 2.17 2.17 0.0 0 1 1129.81 285.43
  C 1132.70 286.41 1134.97 291.00 1136.93 294.35
  Q 1138.66 297.31 1140.98 300.87
  Q 1157.88 326.77 1174.18 352.08
  C 1176.42 355.56 1180.77 361.02 1183.30 365.85
  Q 1187.50 373.92 1192.77 379.66
  Q 1194.92 382.01 1194.80 383.37
  Q 1194.58 385.87 1192.87 386.92
  Q 1176.78 396.83 1162.66 407.87
  A 1.59 1.58 46.4 0 1 1160.64 407.82
  C 1158.92 406.32 1157.31 404.61 1156.13 402.76
  C 1153.44 398.50 1151.28 395.86 1149.48 392.58
  C 1145.47 385.33 1137.89 375.30 1132.57 366.28
  Q 1130.72 363.15 1127.23 358.38
  C 1123.50 353.27 1120.13 346.36 1116.54 341.41
  C 1114.46 338.55 1111.26 334.26 1108.76 329.76
  Q 1104.23 321.62 1097.83 314.00
  Z"
/>
<path fill="#000000" d="
  M 546.16 399.51
  Q 546.64 398.34 545.66 397.89
  A 0.41 0.40 43.8 0 1 545.64 397.17
  Q 545.85 397.06 546.18 397.09
  A 0.49 0.48 -3.1 0 1 546.62 397.48
  Q 547.11 400.10 544.80 401.85
  A 0.30 0.30 0.0 0 1 544.37 401.44
  L 545.95 399.02
  A 0.07 0.06 58.5 0 1 546.07 399.05
  L 546.10 399.50
  A 0.03 0.03 0.0 0 0 546.16 399.51
  Z"
/>
<path fill="#01357a" d="
  M 541.40 403.13
  Q 541.40 407.44 539.86 406.79
  L 541.40 403.13
  Z"
/>
<path fill="#01357a" d="
  M 999.52 631.98
  Q 995.96 641.22 993.45 645.19
  C 989.39 651.62 985.67 659.05 981.94 664.44
  Q 969.00 683.19 958.82 694.32
  Q 956.77 696.56 945.55 708.07
  Q 938.81 714.98 931.36 720.78
  Q 914.74 733.74 909.68 737.16
  Q 901.48 742.68 886.60 750.83
  C 879.36 754.80 869.87 757.92 863.07 760.93
  C 857.78 763.27 852.00 766.32 846.32 767.60
  Q 821.16 773.24 814.95 774.72
  Q 803.81 777.36 795.04 778.07
  Q 772.82 779.85 752.01 778.68
  C 738.88 777.94 725.01 774.59 712.73 771.64
  C 702.36 769.15 692.66 767.64 683.48 763.07
  C 675.71 759.20 666.50 756.58 659.30 752.69
  C 653.68 749.64 642.23 743.33 634.37 738.18
  Q 607.67 720.68 585.77 697.37
  Q 581.05 692.35 578.05 688.31
  C 574.79 683.93 570.76 680.03 567.79 675.48
  C 564.34 670.19 559.65 664.61 556.06 658.04
  Q 553.86 654.02 547.94 644.26
  Q 544.95 639.32 543.51 635.96
  C 541.68 631.72 539.93 628.45 538.41 624.48
  C 536.45 619.35 534.01 615.40 532.50 610.68
  Q 528.60 598.57 527.21 593.06
  Q 525.72 587.20 523.39 581.13
  C 520.01 572.33 519.66 563.92 518.22 553.10
  C 515.65 533.95 515.56 514.28 516.71 495.15
  C 517.13 488.07 518.59 481.67 519.29 473.66
  C 520.03 465.26 521.43 458.36 524.55 449.71
  Q 527.98 440.20 530.71 428.24
  Q 532.13 422.02 537.68 411.96
  L 538.68 412.12
  A 0.56 0.56 0.0 0 0 539.32 411.66
  Q 539.40 411.18 539.53 410.98
  A 0.37 0.36 -41.3 0 1 540.17 411.02
  Q 540.97 412.81 541.10 414.74
  A 0.13 0.13 0.0 0 0 541.35 414.76
  Q 541.86 412.04 542.06 410.62
  Q 542.14 410.08 542.14 410.63
  Q 542.21 420.69 540.53 430.74
  Q 538.93 440.26 539.25 441.21
  A 1.17 1.12 55.0 0 1 539.15 441.87
  L 538.88 442.42
  A 0.81 0.80 -42.4 0 0 538.85 443.03
  Q 539.33 444.42 539.10 447.00
  Q 537.76 461.84 540.95 475.49
  Q 544.70 491.50 552.80 507.35
  Q 560.30 522.01 572.69 534.87
  Q 586.26 548.96 603.28 559.78
  Q 609.28 563.59 620.15 567.82
  Q 629.21 571.35 638.09 572.97
  Q 651.18 575.35 659.39 575.87
  Q 667.58 576.39 680.98 575.02
  Q 690.97 574.00 698.78 571.29
  Q 708.49 567.93 715.79 564.78
  Q 718.88 563.44 726.84 558.68
  Q 737.57 552.26 737.68 552.20
  Q 742.62 549.14 750.03 542.03
  Q 761.46 531.08 769.97 518.99
  Q 776.12 510.25 779.31 506.67
  Q 792.45 491.92 807.67 480.10
  A 6.42 6.26 12.0 0 1 808.81 479.38
  Q 818.94 474.48 822.85 472.26
  Q 828.94 468.81 835.36 466.84
  Q 846.80 463.32 857.07 461.31
  Q 865.77 459.61 872.74 459.93
  C 886.09 460.55 893.16 460.85 903.57 462.82
  Q 905.89 463.26 914.74 465.33
  Q 920.35 466.64 925.92 469.22
  A 1.24 1.23 2.0 0 1 926.55 469.89
  Q 926.87 470.76 927.53 470.57
  A 0.52 0.52 0.0 0 1 927.86 470.60
  C 936.02 474.53 944.15 477.96 950.48 483.34
  C 955.01 487.18 960.00 490.62 964.11 494.90
  C 966.86 497.76 969.41 499.56 971.99 502.70
  Q 978.62 510.74 979.78 512.49
  Q 982.00 515.84 985.31 522.22
  A 2.84 2.72 -64.3 0 1 985.61 523.14
  Q 985.83 524.70 986.58 526.25
  A 0.17 0.16 55.2 0 0 986.83 526.30
  L 986.99 526.17
  A 0.49 0.49 0.0 0 1 987.79 526.46
  Q 987.85 526.77 993.30 539.16
  Q 995.94 545.16 997.00 548.74
  C 998.18 552.71 1000.09 557.34 1001.11 561.85
  C 1003.29 571.46 1004.26 582.24 1002.72 592.72
  Q 1002.23 596.07 1001.65 604.13
  C 1001.14 611.19 999.92 618.92 998.82 626.59
  Q 998.52 628.61 999.52 631.98
  Z"
/>
<path fill="#000000" d="
  M 1162.77 627.40
  L 1193.39 648.68
  A 2.77 2.77 0.0 0 1 1194.13 652.46
  L 1132.09 747.59
  A 2.77 2.77 0.0 0 1 1128.19 748.35
  L 1097.57 727.07
  A 2.77 2.77 0.0 0 1 1096.83 723.29
  L 1158.87 628.16
  A 2.77 2.77 0.0 0 1 1162.77 627.40
  Z"
/>
<path fill="#000000" d="
  M 491.43 866.27
  C 488.99 868.60 486.03 865.83 484.93 863.54
  Q 481.58 856.55 475.51 848.01
  Q 471.50 842.36 469.25 838.53
  C 465.08 831.50 459.74 824.80 455.92 817.69
  Q 455.02 816.03 450.28 809.38
  C 445.77 803.07 442.57 797.00 438.01 790.61
  C 432.89 783.44 429.28 776.80 424.05 769.13
  Q 421.59 765.52 418.89 761.08
  C 415.47 755.48 410.85 749.20 406.97 743.13
  Q 398.61 730.10 385.84 710.70
  Q 381.65 704.33 379.69 701.11
  C 377.66 697.78 373.78 692.86 370.92 687.99
  C 368.81 684.37 367.49 682.01 365.07 678.80
  Q 360.67 672.96 357.65 667.40
  C 354.52 661.62 351.63 657.99 348.34 653.95
  C 345.64 650.65 347.64 648.61 350.85 646.68
  Q 362.11 639.90 372.93 631.71
  C 374.81 630.29 377.57 628.67 379.35 627.66
  A 2.87 2.87 0.0 0 1 382.46 627.83
  Q 383.69 628.72 384.88 630.56
  Q 402.91 658.45 408.23 666.71
  C 411.98 672.57 415.22 676.92 418.48 682.24
  Q 420.96 686.27 426.03 693.96
  Q 448.93 728.63 453.90 736.56
  Q 461.99 749.48 462.84 750.49
  C 466.38 754.69 469.23 761.05 472.82 765.81
  C 477.17 771.57 481.11 778.84 485.80 785.45
  Q 487.98 788.51 491.24 793.67
  Q 503.92 813.67 514.65 829.34
  Q 517.28 833.17 519.66 837.16
  C 522.02 841.11 522.49 844.71 518.53 847.24
  Q 501.26 858.36 500.17 859.12
  Q 495.28 862.57 491.43 866.27
  Z"
/>
<rect fill="#000000" x="-21.31" y="-59.43" transform="translate(343.40,724.10) rotate(-33.0)" width="42.62" height="118.86" rx="3.58"/>
<path fill="#000000" d="
  M 1149.44 760.98
  Q 1149.97 758.62 1150.92 757.40
  Q 1154.83 752.40 1157.60 748.14
  Q 1172.29 725.61 1177.33 718.04
  C 1185.02 706.46 1193.09 692.81 1203.10 678.34
  Q 1206.91 672.83 1210.03 667.07
  Q 1210.85 665.57 1213.11 664.27
  A 1.81 1.81 0.0 0 1 1214.39 664.06
  Q 1218.07 664.78 1219.50 665.92
  Q 1228.62 673.15 1237.50 679.38
  C 1240.46 681.46 1248.65 682.24 1246.59 688.54
  C 1244.30 695.57 1238.09 701.44 1234.39 707.92
  C 1230.63 714.51 1225.16 721.46 1221.11 728.61
  C 1218.41 733.39 1214.06 738.77 1211.20 743.66
  Q 1207.26 750.38 1200.80 759.69
  C 1196.37 766.06 1191.70 774.75 1186.84 781.08
  Q 1182.88 786.24 1177.73 782.16
  Q 1166.26 773.08 1152.33 764.94
  C 1151.18 764.27 1149.02 762.81 1149.44 760.98
  Z"
/>
<path fill="#000000" d="
  M 274.45 698.23
  A 0.86 0.86 0.0 0 1 275.64 698.48
  Q 286.05 714.31 289.15 718.82
  C 294.43 726.47 297.75 733.51 303.12 740.70
  Q 304.17 742.11 308.80 749.48
  Q 313.96 757.72 333.93 788.21
  Q 341.57 799.88 344.63 804.83
  Q 348.40 810.91 351.31 814.92
  C 355.98 821.33 358.83 827.22 363.80 834.09
  Q 367.03 838.56 369.71 843.29
  C 373.19 849.42 376.94 853.77 380.46 859.64
  Q 382.56 863.15 390.31 874.92
  Q 405.89 898.58 409.73 904.73
  C 411.56 907.66 416.98 912.85 415.52 916.55
  Q 415.03 917.77 412.13 919.55
  Q 402.50 925.46 391.54 933.48
  C 389.52 934.96 385.90 937.22 383.93 937.92
  Q 380.50 939.14 378.77 936.20
  Q 374.47 928.89 360.67 907.60
  Q 346.11 885.14 321.21 847.07
  Q 320.59 846.11 317.71 841.40
  C 314.83 836.69 310.88 831.66 308.61 827.71
  Q 305.72 822.68 303.22 819.38
  C 298.55 813.20 294.30 804.85 289.55 797.77
  Q 280.49 784.27 265.75 761.48
  Q 255.31 745.33 254.75 744.58
  Q 251.14 739.65 248.35 734.97
  Q 243.83 727.39 241.95 725.33
  A 1.90 1.88 -59.1 0 1 241.52 723.56
  Q 241.97 721.89 244.15 720.10
  C 247.91 717.02 253.27 714.67 257.07 711.70
  Q 262.31 707.60 265.76 705.51
  Q 269.95 702.98 271.37 701.80
  C 272.47 700.89 273.41 698.90 274.45 698.23
  Z"
/>
<path fill="#000000" d="
  M 1267.96 698.73
  L 1272.01 702.78
  A 4.76 4.75 -8.2 0 0 1273.11 703.60
  Q 1279.32 706.93 1286.00 712.41
  C 1288.52 714.47 1290.78 715.64 1294.12 717.41
  C 1296.73 718.79 1298.27 720.34 1300.18 722.54
  A 1.77 1.77 0.0 0 1 1300.33 724.66
  Q 1284.81 748.75 1261.78 783.47
  C 1258.37 788.62 1254.85 795.15 1250.70 800.68
  C 1246.85 805.82 1242.73 814.25 1238.07 820.07
  Q 1236.53 822.00 1234.56 820.76
  Q 1228.95 817.24 1216.02 807.81
  C 1213.33 805.85 1207.09 803.32 1204.26 800.03
  A 3.32 3.29 -59.6 0 1 1203.54 797.23
  Q 1204.14 794.27 1205.95 791.20
  Q 1206.88 789.63 1217.25 774.16
  C 1221.15 768.34 1224.42 762.40 1228.07 757.41
  C 1232.86 750.86 1235.36 745.38 1239.93 739.21
  Q 1241.89 736.55 1244.63 731.91
  C 1249.20 724.18 1255.05 716.14 1259.05 709.57
  Q 1263.20 702.75 1266.46 698.81
  A 1.02 1.02 0.0 0 1 1267.96 698.73
  Z"
/>
<path fill="#000000" d="
  M 1083.42 744.79
  A 2.06 2.05 46.4 0 1 1086.05 744.86
  C 1094.14 751.95 1101.21 756.00 1112.85 763.41
  Q 1114.78 764.63 1116.37 767.10
  C 1117.57 768.96 1117.50 770.23 1116.13 772.04
  Q 1112.87 776.32 1109.98 781.37
  C 1106.39 787.64 1102.52 792.45 1099.12 798.13
  Q 1095.17 804.72 1090.39 811.41
  Q 1086.93 816.27 1085.85 818.29
  C 1082.12 825.28 1076.64 831.85 1072.89 838.27
  Q 1070.98 841.53 1065.77 848.94
  Q 1060.82 855.98 1056.87 864.52
  C 1054.11 870.50 1048.44 864.37 1044.33 861.20
  Q 1041.05 858.68 1037.18 856.27
  Q 1027.75 850.40 1022.66 846.39
  Q 1018.77 843.33 1021.06 839.38
  C 1025.37 831.96 1030.11 826.06 1034.06 819.54
  Q 1038.01 813.01 1040.88 808.77
  Q 1052.97 790.86 1064.06 773.07
  C 1066.81 768.65 1071.13 763.23 1073.68 758.65
  C 1076.54 753.52 1079.40 747.96 1083.42 744.79
  Z"
/>
<path fill="#000000" d="
  M 371.93 803.07
  L 403.24 781.18
  A 2.24 2.24 0.0 0 1 406.40 781.79
  L 468.93 877.74
  A 2.24 2.24 0.0 0 1 468.33 880.80
  L 437.03 902.68
  A 2.24 2.24 0.0 0 1 433.87 902.07
  L 371.33 806.13
  A 2.24 2.24 0.0 0 1 371.93 803.07
  Z"
/>
<path fill="#000000" d="
  M 1138.70 781.18
  L 1170.21 803.08
  A 2.19 2.19 0.0 0 1 1170.80 806.07
  L 1108.20 902.06
  A 2.19 2.19 0.0 0 1 1105.12 902.66
  L 1073.61 880.76
  A 2.19 2.19 0.0 0 1 1073.02 877.77
  L 1135.62 781.78
  A 2.19 2.19 0.0 0 1 1138.70 781.18
  Z"
/>
<path fill="#000000" d="
  M 1189.99 817.29
  A 1.86 1.84 -42.1 0 1 1191.87 817.38
  Q 1200.19 822.87 1210.50 831.01
  C 1213.14 833.09 1219.71 834.95 1221.65 837.69
  C 1225.24 842.76 1219.88 848.60 1215.98 854.15
  Q 1213.53 857.63 1211.00 861.75
  Q 1200.05 879.50 1193.64 888.90
  Q 1185.38 901.01 1182.61 905.60
  C 1179.11 911.38 1175.92 914.74 1172.70 920.41
  Q 1168.93 927.05 1163.44 935.99
  Q 1161.36 939.39 1158.09 937.72
  C 1154.93 936.10 1152.36 934.88 1149.69 932.99
  Q 1137.64 924.42 1127.93 918.58
  A 3.86 3.84 -70.6 0 1 1126.10 914.73
  C 1126.60 911.10 1130.89 906.70 1132.02 905.04
  Q 1142.36 889.78 1150.33 876.59
  C 1151.89 874.00 1155.24 869.87 1157.38 866.33
  Q 1162.77 857.41 1167.41 850.91
  C 1171.43 845.30 1174.67 838.25 1179.17 832.72
  C 1182.26 828.93 1183.53 825.82 1186.26 821.03
  Q 1187.71 818.49 1189.99 817.29
  Z"
/>
</svg>
