<?xml version="1.0" encoding="UTF-8" standalone="no"?>
<!DOCTYPE svg PUBLIC "-//W3C//DTD SVG 1.1//EN" "http://www.w3.org/Graphics/SVG/1.1/DTD/svg11.dtd">
<svg xmlns="http://www.w3.org/2000/svg" version="1.1" viewBox="0.00 0.00 1536.00 1040.00">
<g stroke-width="2.00" fill="none" stroke-linecap="butt">
<path stroke="#824101" vector-effect="non-scaling-stroke" d="
  M 325.96 0.00
  Q 329.64 2.69 327.78 10.68
  A 3.13 2.92 54.3 0 0 327.71 11.23
  L 327.38 24.99
  A 1.40 1.32 35.3 0 0 327.50 25.59
  Q 328.22 27.13 328.24 27.91
  Q 328.50 36.34 328.56 43.72
  Q 328.71 61.21 328.73 288.00
  Q 328.73 288.09 328.78 297.87
  Q 328.86 312.68 327.45 326.49
  Q 326.84 332.50 327.56 335.52
  A 0.18 0.18 0.0 0 0 327.90 335.54
  Q 327.94 335.44 327.88 335.19
  A 0.01 0.00 38.9 0 0 327.87 335.19
  L 328.02 335.95"
/>
<path stroke="#fe807e" vector-effect="non-scaling-stroke" d="
  M 328.02 335.95
  Q 327.62 337.28 327.62 338.55
  Q 327.71 490.22 327.75 683.00
  Q 327.75 690.98 328.00 699.06
  A 1.63 1.62 -85.0 0 0 329.29 700.60
  L 331.52 701.05"
/>
<path stroke="#820102" vector-effect="non-scaling-stroke" d="
  M 331.52 701.05
  Q 328.73 702.41 327.98 703.74
  A 1.56 1.50 59.8 0 0 327.79 704.52
  Q 328.19 716.50 328.20 726.35
  Q 328.25 766.69 328.17 999.47
  C 328.17 1006.96 327.76 1019.13 327.98 1028.79
  Q 328.02 1030.93 327.71 1033.21
  Q 327.29 1036.24 326.55 1037.52
  Q 325.57 1039.21 323.48 1039.39
  Q 321.96 1039.52 320.75 1040.00"
/>
<path stroke="#820102" vector-effect="non-scaling-stroke" d="
  M 276.87 1040.00
  Q 276.16 1039.67 275.99 1040.00"
/>
<path stroke="#820102" vector-effect="non-scaling-stroke" d="
  M 274.88 1040.00
  Q 274.16 1039.67 273.99 1040.00"
/>
<path stroke="#820102" vector-effect="non-scaling-stroke" d="
  M 273.88 1040.00
  Q 273.15 1039.66 272.99 1040.00"
/>
<path stroke="#820102" vector-effect="non-scaling-stroke" d="
  M 271.88 1040.00
  Q 271.15 1039.66 270.99 1040.00"
/>
<path stroke="#820102" vector-effect="non-scaling-stroke" d="
  M 263.88 1040.00
  Q 263.08 1039.62 262.99 1040.00"
/>
<path stroke="#820102" vector-effect="non-scaling-stroke" d="
  M 222.62 1040.00
  Q 221.31 1039.66 219.98 1040.00"
/>
<path stroke="#820102" vector-effect="non-scaling-stroke" d="
  M 214.59 1040.00
  L 188.06 1040.00"
/>
<path stroke="#820102" vector-effect="non-scaling-stroke" d="
  M 158.88 1040.00
  Q 157.43 1039.66 155.98 1040.00"
/>
<path stroke="#820102" vector-effect="non-scaling-stroke" d="
  M 152.84 1040.00
  L 99.07 1040.00"
/>
<path stroke="#820102" vector-effect="non-scaling-stroke" d="
  M 68.59 1040.00
  L 63.10 1040.00"
/>
<path stroke="#820102" vector-effect="non-scaling-stroke" d="
  M 0.00 969.97
  L 0.00 950.79"
/>
<path stroke="#81c17f" vector-effect="non-scaling-stroke" d="
  M 1536.00 339.98
  L 1535.62 337.90
  A 1.99 1.99 0.0 0 0 1533.59 336.26
  C 1520.86 336.68 1506.69 336.46 1495.52 336.44
  Q 1392.40 336.28 1289.00 336.31
  Q 1264.23 336.32 679.00 336.29
  Q 521.22 336.28 363.82 336.49
  Q 363.68 336.49 351.19 336.70
  Q 339.60 336.89 330.24 335.71
  Q 328.61 335.51 328.02 335.95"
/>
<path stroke="#808080" vector-effect="non-scaling-stroke" d="
  M 1536.00 694.75
  L 1535.54 699.48
  A 1.36 1.35 2.8 0 1 1534.19 700.70
  L 331.52 701.05"
/>
</g>
<path fill="#ff0000" d="
  M 325.96 0.00
  Q 329.64 2.69 327.78 10.68
  A 3.13 2.92 54.3 0 0 327.71 11.23
  L 327.38 24.99
  A 1.40 1.32 35.3 0 0 327.50 25.59
  Q 328.22 27.13 328.24 27.91
  Q 328.50 36.34 328.56 43.72
  Q 328.71 61.21 328.73 288.00
  Q 328.73 288.09 328.78 297.87
  Q 328.86 312.68 327.45 326.49
  Q 326.84 332.50 327.56 335.52
  A 0.18 0.18 0.0 0 0 327.90 335.54
  Q 327.94 335.44 327.88 335.19
  A 0.01 0.00 38.9 0 0 327.87 335.19
  L 328.02 335.95
  Q 327.62 337.28 327.62 338.55
  Q 327.71 490.22 327.75 683.00
  Q 327.75 690.98 328.00 699.06
  A 1.63 1.62 -85.0 0 0 329.29 700.60
  L 331.52 701.05
  Q 328.73 702.41 327.98 703.74
  A 1.56 1.50 59.8 0 0 327.79 704.52
  Q 328.19 716.50 328.20 726.35
  Q 328.25 766.69 328.17 999.47
  C 328.17 1006.96 327.76 1019.13 327.98 1028.79
  Q 328.02 1030.93 327.71 1033.21
  Q 327.29 1036.24 326.55 1037.52
  Q 325.57 1039.21 323.48 1039.39
  Q 321.96 1039.52 320.75 1040.00
  L 276.87 1040.00
  Q 276.16 1039.67 275.99 1040.00
  L 274.88 1040.00
  Q 274.16 1039.67 273.99 1040.00
  Q 273.94 1040.00 273.88 1040.00
  Q 273.15 1039.66 272.99 1040.00
  L 271.88 1040.00
  Q 271.15 1039.66 270.99 1040.00
  L 263.88 1040.00
  Q 263.08 1039.62 262.99 1040.00
  L 222.62 1040.00
  Q 221.31 1039.66 219.98 1040.00
  L 214.59 1040.00
  L 188.06 1040.00
  L 158.88 1040.00
  Q 157.43 1039.66 155.98 1040.00
  L 152.84 1040.00
  L 99.07 1040.00
  L 68.59 1040.00
  L 63.10 1040.00
  L 0.00 1040.00
  L 0.00 969.97
  L 0.00 950.79
  L 0.00 0.00
  L 325.96 0.00
  Z"
/>
<path fill="#058202" d="
  M 1536.00 0.00
  L 1536.00 339.98
  L 1535.62 337.90
  A 1.99 1.99 0.0 0 0 1533.59 336.26
  C 1520.86 336.68 1506.69 336.46 1495.52 336.44
  Q 1392.40 336.28 1289.00 336.31
  Q 1264.23 336.32 679.00 336.29
  Q 521.22 336.28 363.82 336.49
  Q 363.68 336.49 351.19 336.70
  Q 339.60 336.89 330.24 335.71
  Q 328.61 335.51 328.02 335.95
  L 327.87 335.19
  A 0.01 0.00 38.9 0 1 327.88 335.19
  Q 327.94 335.44 327.90 335.54
  A 0.18 0.18 0.0 0 1 327.56 335.52
  Q 326.84 332.50 327.45 326.49
  Q 328.86 312.68 328.78 297.87
  Q 328.73 288.09 328.73 288.00
  Q 328.71 61.21 328.56 43.72
  Q 328.50 36.34 328.24 27.91
  Q 328.22 27.13 327.50 25.59
  A 1.40 1.32 35.3 0 1 327.38 24.99
  L 327.71 11.23
  A 3.13 2.92 54.3 0 1 327.78 10.68
  Q 329.64 2.69 325.96 0.00
  L 1536.00 0.00
  Z"
/>
<path fill="#fcfffc" d="
  M 1536.00 339.98
  L 1536.00 694.75
  L 1535.54 699.48
  A 1.36 1.35 2.8 0 1 1534.19 700.70
  L 331.52 701.05
  L 329.29 700.60
  A 1.63 1.62 -85.0 0 1 328.00 699.06
  Q 327.75 690.98 327.75 683.00
  Q 327.71 490.22 327.62 338.55
  Q 327.62 337.28 328.02 335.95
  Q 328.61 335.51 330.24 335.71
  Q 339.60 336.89 351.19 336.70
  Q 363.68 336.49 363.82 336.49
  Q 521.22 336.28 679.00 336.29
  Q 1264.23 336.32 1289.00 336.31
  Q 1392.40 336.28 1495.52 336.44
  C 1506.69 336.46 1520.86 336.68 1533.59 336.26
  A 1.99 1.99 0.0 0 1 1535.62 337.90
  L 1536.00 339.98
  Z"
/>
<path fill="#040104" d="
  M 1536.00 694.75
  L 1536.00 1040.00
  L 320.75 1040.00
  Q 321.96 1039.52 323.48 1039.39
  Q 325.57 1039.21 326.55 1037.52
  Q 327.29 1036.24 327.71 1033.21
  Q 328.02 1030.93 327.98 1028.79
  C 327.76 1019.13 328.17 1006.96 328.17 999.47
  Q 328.25 766.69 328.20 726.35
  Q 328.19 716.50 327.79 704.52
  A 1.56 1.50 59.8 0 1 327.98 703.74
  Q 328.73 702.41 331.52 701.05
  L 1534.19 700.70
  A 1.36 1.35 2.8 0 0 1535.54 699.48
  L 1536.00 694.75
  Z"
/>
<path fill="#040104" d="
  M 0.00 969.97
  L 0.00 950.79
  L 0.00 969.97
  Z"
/>
<path fill="#040104" d="
  M 68.59 1040.00
  L 63.10 1040.00
  L 68.59 1040.00
  Z"
/>
<path fill="#040104" d="
  M 152.84 1040.00
  L 99.07 1040.00
  L 152.84 1040.00
  Z"
/>
<path fill="#040104" d="
  M 158.88 1040.00
  L 155.98 1040.00
  Q 157.43 1039.66 158.88 1040.00
  Z"
/>
<path fill="#040104" d="
  M 214.59 1040.00
  L 188.06 1040.00
  L 214.59 1040.00
  Z"
/>
<path fill="#040104" d="
  M 222.62 1040.00
  L 219.98 1040.00
  Q 221.31 1039.66 222.62 1040.00
  Z"
/>
<path fill="#040104" d="
  M 263.88 1040.00
  L 262.99 1040.00
  Q 263.08 1039.62 263.88 1040.00
  Z"
/>
<path fill="#040104" d="
  M 271.88 1040.00
  L 270.99 1040.00
  Q 271.15 1039.66 271.88 1040.00
  Z"
/>
<path fill="#040104" d="
  M 273.88 1040.00
  L 272.99 1040.00
  Q 273.15 1039.66 273.88 1040.00
  Z"
/>
<path fill="#040104" d="
  M 274.88 1040.00
  L 273.99 1040.00
  Q 274.16 1039.67 274.88 1040.00
  Z"
/>
<path fill="#040104" d="
  M 276.87 1040.00
  L 275.99 1040.00
  Q 276.16 1039.67 276.87 1040.00
  Z"
/>
</svg>
