<svg width="32" height="32" viewBox="0 0 32 32" fill="none" xmlns="http://www.w3.org/2000/svg">
<path d="M3.42857 0C1.54857 0 0 2.168 0 4.8V27.2C0 29.832 1.54857 32 3.42857 32H28.5714C30.4514 32 32 29.832 32 27.2V4.8C32 2.168 30.4514 0 28.5714 0H3.42857ZM3.42857 3.2H28.5714C29.2183 3.2 29.7143 3.8944 29.7143 4.8V27.2C29.7143 28.1056 29.2183 28.8 28.5714 28.8H3.42857C2.78171 28.8 2.28571 28.1056 2.28571 27.2V4.8C2.28571 3.8944 2.78171 3.2 3.42857 3.2ZM10.2834 8C9.752 8 9.14514 8.424 8.752 9.0432C8.448 9.5568 8.11771 10.3728 8.232 11.1872C8.77714 11.2768 9.37257 10.7984 9.71429 10.1792C10.0937 9.6112 10.3086 8.8144 10.2834 8ZM12.5714 11.2V20.8H13.6366V17.512H15.1189C16.4617 17.512 17.4103 16.2192 17.4103 14.3568C17.4103 12.4768 16.4731 11.2 15.1429 11.2H12.5714ZM6.672 12.0368C5.48343 12.0368 4.57143 13.4928 4.57143 15.5808C4.57143 18.3008 5.936 20.8 6.78857 20.8C7.30286 20.8 7.49029 20.3152 8.17372 20.3152C8.80343 20.3152 9.00229 20.8 9.53829 20.8C10.5554 20.8 11.3966 17.904 11.4286 17.728C11.2606 17.6096 10.2823 16.9648 10.2834 15.4064C10.2834 13.8928 11.176 13.2144 11.2183 13.184C10.7246 12.1552 9.94743 12.0368 9.65371 12.0368C8.97143 12.0368 8.37486 12.5536 8.04914 12.5536C7.71314 12.5536 7.21829 12.0368 6.672 12.0368ZM13.6366 12.4592H14.864C15.7886 12.4592 16.3211 13.1504 16.3211 14.3568C16.3211 15.5632 15.7886 16.272 14.864 16.272H13.6366V12.4592ZM19.92 13.6496C18.7931 13.6496 17.9554 14.5552 17.9314 15.7968H18.8926C18.9691 15.2112 19.3611 14.8208 19.8926 14.8208C20.5509 14.8208 20.9086 15.248 20.9086 16.0288V16.56L19.5783 16.6848C18.3497 16.792 17.6766 17.5008 17.6766 18.7248C17.6766 19.9664 18.3611 20.8 19.3486 20.8C20.0194 20.8 20.6423 20.32 20.92 19.5744H20.944V20.728H21.9326V15.9408C21.9326 14.5568 21.136 13.6496 19.92 13.6496ZM22.3703 13.7408L24.1691 20.7472L24.08 21.1712C23.9154 21.8816 23.6491 22.1664 23.1806 22.1664C23.0926 22.1664 22.9291 22.1472 22.8663 22.1472V23.2992C22.9303 23.3168 23.1931 23.3344 23.2697 23.3344C24.3097 23.3344 24.8034 22.768 25.2354 21.1008L27.096 13.7408H26.0183L24.7657 19.416H24.7383L23.4869 13.7408H22.3703ZM20.9074 17.568V18.1024H20.9063C20.9063 19.0064 20.3623 19.6432 19.6411 19.6432C19.0697 19.6432 18.7166 19.2736 18.7166 18.688C18.7166 18.0848 19.0583 17.728 19.7303 17.6752L20.9074 17.568Z" fill="black"/>
</svg>
