<svg width="32" height="32" viewBox="0 0 32 32" fill="none" xmlns="http://www.w3.org/2000/svg">
<path d="M12.2573 5.7287V1.77777H7.76611V8.88888M19.7427 5.7287V1.77777H24.2339V8.88888" stroke="black" stroke-width="2" stroke-linecap="round" stroke-linejoin="round"/>
<path d="M6.26906 19.5555H1.77783V26.6667H6.26906M25.731 19.5555H30.2223V26.6667H25.731M18.9942 15.2889V18.1333M10.7603 15.2889H21.2398M6.26906 13.1555C6.26906 9.22808 9.62027 6.04443 13.7544 6.04443H18.2457C22.3798 6.04443 25.731 9.22808 25.731 13.1555V27.3778C25.731 28.1322 25.4156 28.8557 24.8541 29.3891C24.2926 29.9225 23.531 30.2222 22.7369 30.2222H9.26321C8.46911 30.2222 7.70754 29.9225 7.14603 29.3891C6.58451 28.8557 6.26906 28.1322 6.26906 27.3778V13.1555Z" stroke="black" stroke-width="2" stroke-linecap="round" stroke-linejoin="round"/>
</svg>
