<svg width="32" height="32" viewBox="0 0 32 32" fill="none" xmlns="http://www.w3.org/2000/svg">
<path fill-rule="evenodd" clip-rule="evenodd" d="M25.3939 2.20882L21.4542 3.9159L24.078 13.81C25.6591 13.2516 27.3284 13.583 28.746 14.7367C30.1637 15.8904 31.2231 17.7798 31.7087 20.0202C32.1942 22.2606 32.0694 24.6836 31.3596 26.7959C30.6499 28.9083 29.4085 30.5512 27.8882 31.3903C26.3679 32.2294 24.6829 32.2015 23.1764 31.3123C21.6698 30.4232 20.4549 28.7396 19.7789 26.6043C19.1029 24.469 19.0167 22.0426 19.5378 19.8188C20.0589 17.5951 21.1481 15.7413 22.5837 14.6347L21.2654 9.66346L16.7202 23.2763C16.6547 23.4718 16.5522 23.6367 16.4246 23.752C16.2969 23.8673 16.1493 23.9283 15.9987 23.9279H12.7493C12.544 26.2548 11.7319 28.3815 10.4782 29.876C9.22438 31.3704 7.62299 32.1205 5.99948 31.9736C4.37596 31.8267 2.85215 30.794 1.73776 29.0852C0.623367 27.3765 0.00201824 25.1201 1.77654e-06 22.7745C-0.00121106 20.4261 0.618621 18.1653 1.7332 16.4529C2.84778 14.7406 4.37323 13.7054 5.99873 13.5583C7.62423 13.4112 9.22746 14.1634 10.4817 15.6615C11.736 17.1596 12.547 19.2909 12.7493 21.6211H14.7492L10.8455 5.86059C10.8148 5.73619 10.7991 5.6051 10.7991 5.47304H9.5992C9.38704 5.47304 9.18358 5.35151 9.03356 5.1352C8.88354 4.91889 8.79927 4.62551 8.79927 4.3196C8.79927 4.01369 8.88354 3.72031 9.03356 3.504C9.18358 3.28769 9.38704 3.16617 9.5992 3.16617H13.1989C13.4111 3.16617 13.6145 3.28769 13.7645 3.504C13.9146 3.72031 13.9988 4.01369 13.9988 4.3196C13.9988 4.62551 13.9146 4.91889 13.7645 5.1352C13.6145 5.35151 13.4111 5.47304 13.1989 5.47304H12.4486L13.922 11.4213L20.4231 6.48806L19.6512 3.57795C19.6119 3.42975 19.5942 3.27146 19.5993 3.11298C19.6043 2.95449 19.632 2.79922 19.6806 2.65686C19.7292 2.5145 19.7976 2.38813 19.8816 2.28563C19.9656 2.18314 20.0633 2.10673 20.1687 2.06118L24.9339 0L25.3939 2.20882ZM14.4652 13.6163L16.0427 19.9832L19.4264 9.85146L14.4652 13.6163ZM24.8507 23.1863L23.1605 16.8113C22.124 17.693 21.355 19.1041 21.006 20.7647C20.657 22.4254 20.7534 24.2146 21.2761 25.7776C21.7987 27.3407 22.7096 28.5635 23.8281 29.2039C24.9466 29.8443 26.1911 29.8554 27.315 29.2351C28.439 28.6148 29.3603 27.4083 29.8964 25.8548C30.4325 24.3012 30.5443 22.5139 30.2096 20.8471C29.8749 19.1803 29.1181 17.7556 28.0893 16.8554C27.0605 15.9552 25.8347 15.6451 24.6547 15.9866L26.345 22.3627C26.4173 22.6474 26.409 22.9616 26.3219 23.2375C26.2348 23.5133 26.0758 23.7287 25.8795 23.8369C25.6831 23.9451 25.4651 23.9375 25.2726 23.8158C25.0801 23.694 24.9285 23.4679 24.8507 23.1863ZM11.1327 21.6211H6.39947C6.18731 21.6211 5.98385 21.7426 5.83383 21.9589C5.68381 22.1752 5.59953 22.4686 5.59953 22.7745C5.59953 23.0804 5.68381 23.3738 5.83383 23.5901C5.98385 23.8064 6.18731 23.9279 6.39947 23.9279H11.1327C10.9289 25.6351 10.2887 27.1701 9.33835 28.2299C8.38805 29.2896 7.19673 29.7972 5.99957 29.6523C4.80241 29.5075 3.68642 28.7207 2.87189 27.4474C2.05736 26.1741 1.60348 24.5068 1.59987 22.7745C1.59877 21.0382 2.05038 19.3646 2.86511 18.086C3.67983 16.8074 4.79813 16.017 5.99812 15.8718C7.19812 15.7267 8.39212 16.2372 9.34323 17.3022C10.2943 18.3671 10.9331 19.9087 11.1327 21.6211Z" fill="black"/>
</svg>
