<svg width="28" height="29" viewBox="0 0 28 29" fill="none" xmlns="http://www.w3.org/2000/svg">
<path d="M24.6673 19.3333V9.33333L16.334 4.646M11.6673 4.646L3.33398 9.33333V19.3333M5.33398 22.4587L14.0007 27.3333L19.334 24.3333L22.6673 22.4587M14.0007 10.6667L16.0007 11.8333L18.0007 13V17.6667L16.0007 18.8333L14.0007 20L12.0007 18.8333L10.0007 17.6667V13L12.0007 11.8333L14.0007 10.6667ZM14.0007 10.6667V6M18.0007 17.3333L22.6673 20M10.0007 17.3333L5.33398 20" stroke="black" stroke-width="2" stroke-linecap="round" stroke-linejoin="round"/>
<path d="M14.0005 6C15.1051 6 16.0005 5.10457 16.0005 4C16.0005 2.89543 15.1051 2 14.0005 2C12.8959 2 12.0005 2.89543 12.0005 4C12.0005 5.10457 12.8959 6 14.0005 6Z" stroke="black" stroke-width="2" stroke-linecap="round" stroke-linejoin="round"/>
<path d="M3.33398 23.3333C4.43855 23.3333 5.33398 22.4379 5.33398 21.3333C5.33398 20.2287 4.43855 19.3333 3.33398 19.3333C2.22941 19.3333 1.33398 20.2287 1.33398 21.3333C1.33398 22.4379 2.22941 23.3333 3.33398 23.3333Z" stroke="black" stroke-width="2" stroke-linecap="round" stroke-linejoin="round"/>
<path d="M24.6675 23.3333C25.7721 23.3333 26.6675 22.4379 26.6675 21.3333C26.6675 20.2287 25.7721 19.3333 24.6675 19.3333C23.5629 19.3333 22.6675 20.2287 22.6675 21.3333C22.6675 22.4379 23.5629 23.3333 24.6675 23.3333Z" stroke="black" stroke-width="2" stroke-linecap="round" stroke-linejoin="round"/>
</svg>
