<svg width="506" height="506" viewBox="0 0 506 506" fill="none" xmlns="http://www.w3.org/2000/svg">
<path d="M358.417 84.3333C430.1 84.3333 484.917 161.077 484.917 253V358.417C484.917 364.008 482.695 369.371 478.741 373.325C474.788 377.279 469.425 379.5 463.833 379.5H439.145C434.78 391.83 426.701 402.505 416.02 410.055C405.339 417.605 392.58 421.659 379.5 421.659C366.42 421.659 353.661 417.605 342.98 410.055C332.299 402.505 324.22 391.83 319.855 379.5H186.145C181.78 391.83 173.701 402.505 163.02 410.055C152.339 417.605 139.58 421.659 126.5 421.659C113.42 421.659 100.661 417.605 89.9799 410.055C79.2986 402.505 71.2198 391.83 66.8552 379.5H42.1666C36.5749 379.5 31.2123 377.279 27.2584 373.325C23.3045 369.371 21.0833 364.008 21.0833 358.417V126.5C21.0833 115.317 25.5258 104.591 33.4336 96.6836C41.3414 88.7758 52.0666 84.3333 63.2499 84.3333H358.417ZM126.5 337.333C120.908 337.333 115.546 339.555 111.592 343.508C107.638 347.462 105.417 352.825 105.417 358.417C105.417 364.008 107.638 369.371 111.592 373.325C115.546 377.279 120.908 379.5 126.5 379.5C132.092 379.5 137.454 377.279 141.408 373.325C145.362 369.371 147.583 364.008 147.583 358.417C147.583 352.825 145.362 347.462 141.408 343.508C137.454 339.555 132.092 337.333 126.5 337.333ZM379.5 337.333C373.908 337.333 368.546 339.555 364.592 343.508C360.638 347.462 358.417 352.825 358.417 358.417C358.417 364.008 360.638 369.371 364.592 373.325C368.546 377.279 373.908 379.5 379.5 379.5C385.092 379.5 390.454 377.279 394.408 373.325C398.362 369.371 400.583 364.008 400.583 358.417C400.583 352.825 398.362 347.462 394.408 343.508C390.454 339.555 385.092 337.333 379.5 337.333ZM363.477 126.732L385.994 231.917H441.569C434.97 173.811 401.616 130.295 363.477 126.732ZM126.5 126.5H63.2499V189.75H126.5V126.5ZM231.917 126.5H168.667V189.75H231.917V126.5ZM320.277 126.5H274.083V189.75H333.833L320.277 126.5Z" fill="black"/>
</svg>
