<svg width="514" height="514" viewBox="0 0 514 514" fill="none" xmlns="http://www.w3.org/2000/svg">
<path d="M406.917 85.6666H364.083V64.2499C364.083 58.5699 361.827 53.1225 357.811 49.106C353.794 45.0896 348.347 42.8333 342.667 42.8333C336.987 42.8333 331.539 45.0896 327.523 49.106C323.506 53.1225 321.25 58.5699 321.25 64.2499V85.6666H192.75V64.2499C192.75 58.5699 190.494 53.1225 186.477 49.106C182.461 45.0896 177.013 42.8333 171.333 42.8333C165.653 42.8333 160.206 45.0896 156.19 49.106C152.173 53.1225 149.917 58.5699 149.917 64.2499V85.6666H107.083C90.0432 85.6666 73.701 92.4358 61.6518 104.485C49.6026 116.534 42.8334 132.876 42.8334 149.917V406.917C42.8334 423.957 49.6026 440.299 61.6518 452.348C73.701 464.397 90.0432 471.167 107.083 471.167H406.917C423.957 471.167 440.299 464.397 452.348 452.348C464.398 440.299 471.167 423.957 471.167 406.917V149.917C471.167 132.876 464.398 116.534 452.348 104.485C440.299 92.4358 423.957 85.6666 406.917 85.6666ZM428.333 406.917C428.333 412.597 426.077 418.044 422.061 422.06C418.044 426.077 412.597 428.333 406.917 428.333H107.083C101.403 428.333 95.9559 426.077 91.9395 422.06C87.9231 418.044 85.6667 412.597 85.6667 406.917V257H428.333V406.917ZM428.333 214.167H85.6667V149.917C85.6667 144.237 87.9231 138.789 91.9395 134.773C95.9559 130.756 101.403 128.5 107.083 128.5H149.917V149.917C149.917 155.597 152.173 161.044 156.19 165.06C160.206 169.077 165.653 171.333 171.333 171.333C177.013 171.333 182.461 169.077 186.477 165.06C190.494 161.044 192.75 155.597 192.75 149.917V128.5H321.25V149.917C321.25 155.597 323.506 161.044 327.523 165.06C331.539 169.077 336.987 171.333 342.667 171.333C348.347 171.333 353.794 169.077 357.811 165.06C361.827 161.044 364.083 155.597 364.083 149.917V128.5H406.917C412.597 128.5 418.044 130.756 422.061 134.773C426.077 138.789 428.333 144.237 428.333 149.917V214.167Z" fill="black"/>
</svg>
