<svg width="37" height="37" viewBox="0 0 37 37" fill="none" xmlns="http://www.w3.org/2000/svg">
<circle cx="18.5" cy="18.5" r="18" fill="#D9D9D9" stroke="#127FC0"/>
<path d="M11.2929 28.7071C11.6834 29.0976 12.3166 29.0976 12.7071 28.7071L19.0711 22.3431C19.4616 21.9526 19.4616 21.3195 19.0711 20.9289C18.6805 20.5384 18.0474 20.5384 17.6569 20.9289L12 26.5858L6.34315 20.9289C5.95262 20.5384 5.31946 20.5384 4.92893 20.9289C4.53841 21.3195 4.53841 21.9526 4.92893 22.3431L11.2929 28.7071ZM12 10H11L11 28H12H13L13 10H12Z" fill="black"/>
<path d="M27.7071 9.29289C27.3166 8.90237 26.6834 8.90237 26.2929 9.29289L19.9289 15.6569C19.5384 16.0474 19.5384 16.6805 19.9289 17.0711C20.3195 17.4616 20.9526 17.4616 21.3431 17.0711L27 11.4142L32.6569 17.0711C33.0474 17.4616 33.6805 17.4616 34.0711 17.0711C34.4616 16.6805 34.4616 16.0474 34.0711 15.6569L27.7071 9.29289ZM27 28H28L28 10H27H26L26 28H27Z" fill="black"/>
</svg>
