<svg width="35" height="36" viewBox="0 0 35 36" fill="none" xmlns="http://www.w3.org/2000/svg">
<path d="M34 34H2M2 15.4737L15.0016 4.52632C15.8527 3.80967 16.9101 3.41924 18 3.41924C19.0899 3.41924 20.1473 3.80967 20.9984 4.52632L34 15.4737M23.6 6.21053V2.84211C23.6 2.61877 23.6843 2.40457 23.8343 2.24665C23.9843 2.08872 24.1878 2 24.4 2H28.4C28.6122 2 28.8157 2.08872 28.9657 2.24665C29.1157 2.40457 29.2 2.61877 29.2 2.84211V11.2632M5.2 34V12.9474M30.8 34V12.9474" stroke="black" stroke-width="1.5" stroke-linecap="round"/>
<path d="M22.8002 34V25.5789C22.8002 23.1974 22.8002 22.0067 22.0962 21.2673C21.3954 20.5263 20.2642 20.5263 18.0002 20.5263C15.7362 20.5263 14.6066 20.5263 13.9042 21.2673C13.2002 22.005 13.2002 23.1958 13.2002 25.5789V34M21.2002 12.9473C21.2002 13.8407 20.8631 14.6975 20.2629 15.3292C19.6628 15.9609 18.8489 16.3158 18.0002 16.3158C17.1515 16.3158 16.3376 15.9609 15.7375 15.3292C15.1373 14.6975 14.8002 13.8407 14.8002 12.9473C14.8002 12.054 15.1373 11.1972 15.7375 10.5655C16.3376 9.93381 17.1515 9.57892 18.0002 9.57892C18.8489 9.57892 19.6628 9.93381 20.2629 10.5655C20.8631 11.1972 21.2002 12.054 21.2002 12.9473Z" stroke="black" stroke-width="1.5"/>
</svg>
