<svg width="48" height="24" viewBox="0 0 48 24" fill="none" xmlns="http://www.w3.org/2000/svg">
<path d="M48 5.33421L41.7348 24H39.7969L42.1248 17.4681L38 5.33221H40.0384L43.0233 14.6341H43.0622L45.9526 5.33221L48 5.33421ZM21.9703 11.1061V18.6681H20.0009V0.00227134H25.2117C26.4483 -0.040981 27.6523 0.534821 28.5865 1.61625C29.5089 2.62624 30.0159 4.05423 30.0009 5.56421C30.0073 6.32411 29.8831 7.07586 29.6379 7.7619C29.3928 8.44794 29.0331 9.05007 28.5865 9.52216C27.6805 10.5842 26.5556 11.1061 25.2117 11.1061H21.9703ZM21.9628 2.30425V8.81417H25.2597C25.9774 8.84849 26.6763 8.5043 27.2051 7.85618C27.7135 7.25219 27.994 6.4282 27.994 5.57421C27.994 4.71022 27.712 3.88623 27.2051 3.29223C26.9461 2.96372 26.6408 2.70705 26.3068 2.53711C25.9729 2.36716 25.6169 2.28733 25.2597 2.30225L21.9628 2.30425ZM33.9457 5.33421C35.1966 5.33554 36.1861 5.80087 36.9141 6.7302C38.006 8.12418 38 8.92817 38 10.5422V18.2601H36.3756V16.5201H36.3051C35.6031 17.9494 34.6707 18.6647 33.5077 18.6661C32.5073 18.6661 31.6793 18.2601 31.0074 17.4361C30.6836 17.0529 30.4259 16.5808 30.2519 16.0523C30.0779 15.5237 29.9918 14.9512 29.9994 14.3741C29.9984 13.0821 30.3524 12.0508 31.0614 11.2801C31.7663 10.5175 32.7088 10.1355 33.8887 10.1342C34.8967 10.1355 35.7246 10.3922 36.3726 10.9041V10.3622C36.3747 9.96872 36.3137 9.57922 36.1936 9.2198C36.0736 8.86038 35.8973 8.53933 35.6766 8.27818C35.2323 7.72298 34.6447 7.41717 34.0357 7.42419C33.0908 7.42419 32.3408 7.97618 31.7858 9.08017L30.2934 7.78818C31.1144 6.15087 32.3303 5.33154 33.9412 5.33021L33.9457 5.33421ZM31.7513 14.4281C31.7479 14.7245 31.797 15.0178 31.8948 15.2841C31.9925 15.5503 32.1361 15.7819 32.3138 15.9601C32.6888 16.3661 33.1583 16.5861 33.6337 16.5741C34.3447 16.5741 35.0317 16.1781 35.5401 15.4801C36.0786 14.8141 36.3846 13.8761 36.3846 12.8961C35.8546 12.3121 35.1177 12.0201 34.1737 12.0201C33.4777 12.0201 32.9078 12.2501 32.4473 12.7081C31.9868 13.1761 31.7513 13.7421 31.7513 14.4281ZM8.16653 0.00227134C10.1859 -0.0289964 12.1384 0.96565 13.6278 2.78424L11.2999 5.82621C10.4485 4.77638 9.326 4.20535 8.16653 4.23222C7.15459 4.23971 6.16948 4.66695 5.34785 5.45465C4.52622 6.24235 3.90881 7.35148 3.58126 8.62817C3.23771 9.95095 3.23771 11.3893 3.58126 12.7121C3.90881 13.9888 4.52622 15.0979 5.34785 15.8857C6.16948 16.6734 7.15459 17.1006 8.16653 17.1081C9.26747 17.1081 10.2139 16.7441 10.9474 16.0981C11.3696 15.732 11.7314 15.255 12.0107 14.6963C12.29 14.1375 12.4809 13.5086 12.5718 12.8481H8.16503V8.74417H15.8596C15.9536 9.4615 16.0006 10.1835 16.0006 10.9101C16.0006 14.1601 15.1097 16.9101 13.5708 18.7641C12.2193 20.39 10.3684 21.336 8.16503 21.336C6.66103 21.3465 5.18403 20.8035 3.89657 19.7668C2.60911 18.73 1.56111 17.2398 0.867903 15.4601C0.2975 13.9773 0 12.3347 0 10.6682C0 9.00163 0.2975 7.35905 0.867903 5.8762C1.56041 4.0983 2.60701 2.60928 3.89273 1.57268C5.17845 0.53609 6.65356 -0.00796591 8.15603 0.000272464L8.16653 0.00227134Z" fill="black"/>
</svg>
