<svg width="32" height="32" viewBox="0 0 32 32" fill="none" xmlns="http://www.w3.org/2000/svg">
<path d="M4.57143 30.4C3.31429 30.4 2.23848 30.0869 1.344 29.4608C0.449523 28.8347 0.00152381 28.0811 0 27.2V9.6C0 8.72 0.448 7.96693 1.344 7.3408C2.24 6.71466 3.31581 6.40107 4.57143 6.4H9.14286V3.2C9.14286 2.32 9.59086 1.56693 10.4869 0.9408C11.3829 0.314667 12.4587 0.00106667 13.7143 0H18.2857C19.5429 0 20.6194 0.3136 21.5154 0.9408C22.4114 1.568 22.8587 2.32107 22.8571 3.2V6.4H27.4286C28.6857 6.4 29.7623 6.7136 30.6583 7.3408C31.5543 7.968 32.0015 8.72106 32 9.6V27.2C32 28.08 31.5528 28.8336 30.6583 29.4608C29.7638 30.088 28.6872 30.4011 27.4286 30.4C27.4286 30.8533 27.2091 31.2336 26.7703 31.5408C26.3314 31.848 25.7889 32.0011 25.1429 32C24.4968 31.9989 23.9543 31.8453 23.5154 31.5392C23.0766 31.2331 22.8571 30.8533 22.8571 30.4H9.14286C9.14286 30.8533 8.92343 31.2336 8.48457 31.5408C8.04571 31.848 7.50324 32.0011 6.85714 32C6.21105 31.9989 5.66857 31.8453 5.22971 31.5392C4.79086 31.2331 4.57143 30.8533 4.57143 30.4ZM4.57143 27.2H27.4286V9.6H4.57143V27.2ZM9.14286 25.6H13.7143V11.2H9.14286V25.6ZM18.2857 25.6H22.8571V11.2H18.2857V25.6ZM13.7143 6.4H18.2857V3.2H13.7143V6.4Z" fill="black"/>
</svg>
