<svg width="32" height="32" viewBox="0 0 32 32" fill="none" xmlns="http://www.w3.org/2000/svg">
<path d="M5.80334 0L5.54221 1.08522L0.389588 24.7374L0 26.4348H6.80733L5.97788 30.3026L5.5855 32H15.3182L15.5347 30.8689L16.9729 24.1739H20.7292C25.9824 24.1739 30.5946 20.7736 31.7675 15.3043C32.3819 12.4299 31.7312 9.99513 30.3712 8.34783C29.268 7.01217 27.7739 6.208 26.2239 5.82539C25.9279 4.45357 25.2953 3.2793 24.4366 2.39165C22.8447 0.741565 20.644 0 18.5885 0H5.80613H5.80334ZM8.07245 2.78261H18.5927C19.9612 2.78261 21.4721 3.3113 22.4328 4.3047C23.3921 5.29948 23.9548 6.71722 23.4354 9.13252C22.5138 13.4317 19.2532 15.8247 15.1465 15.8247H9.11833L8.90189 16.9127L7.46363 23.6522H3.49094L8.07105 2.78261H8.07245ZM11.6109 4.82783L11.3483 5.91304L9.91008 12.3478L9.5149 14.0452H14.4469C16.9283 14.0452 19.0731 12.2449 19.6833 9.82539H19.7252C19.735 9.79757 19.7196 9.76974 19.7252 9.73913C20.0324 8.52035 19.8369 7.27235 19.1597 6.34713C18.4643 5.40104 17.2983 4.82643 16.0597 4.82643L11.6109 4.82783ZM13.8353 7.61044H16.0611C16.4996 7.61044 16.7314 7.73565 16.892 7.95826C17.0539 8.17809 17.1712 8.53983 17.0218 9.08522V9.13113C16.7593 10.2581 15.4272 11.2598 14.4483 11.2598H13.01L13.8367 7.60904L13.8353 7.61044ZM26.3161 8.82644C27.0562 9.12696 27.7432 9.536 28.2361 10.1301C29.046 11.1179 29.497 12.4744 29.0181 14.6991C28.0965 19.001 24.8359 21.3941 20.7292 21.3941H14.7038L14.4874 22.4793L13.0491 29.2174H9.07644L9.68805 26.4348H9.72994L9.94917 25.3037L11.3874 18.6087H15.1437C20.3969 18.6087 25.0091 15.2083 26.182 9.73913C26.2491 9.4247 26.2756 9.12974 26.3133 8.82644H26.3161Z" fill="black"/>
</svg>
