<svg width="13" height="12" viewBox="0 0 13 12" fill="none" xmlns="http://www.w3.org/2000/svg">
<path d="M2.60472 7.36694C1.94209 7.36694 1.40151 7.38873 0.983005 7.43233L1.02224 4.20197C1.21406 4.25428 1.78951 4.28044 2.74859 4.28044H5.39042V1.76939C5.39042 0.810306 5.36426 0.234857 5.31195 0.0430408L8.54231 0.00380563C8.49872 0.422314 8.47692 0.962887 8.47692 1.62553V4.28044H11.1057C12.056 4.28044 12.6315 4.25428 12.832 4.20197L12.8713 7.43233C12.4527 7.38873 11.9122 7.36694 11.2495 7.36694H8.47692V10.2703C8.47692 10.933 8.49872 11.4735 8.54231 11.8921L5.31195 11.8528C5.36426 11.6523 5.39042 11.0768 5.39042 10.1265V7.36694H2.60472Z" fill="black"/>
</svg>
