<svg width="32" height="32" viewBox="0 0 32 32" fill="none" xmlns="http://www.w3.org/2000/svg">
<path d="M11.3419 23.3008C13.7619 23.3008 15.7236 25.2483 15.7237 27.6504C15.7237 30.0525 13.762 32 11.3419 32C8.92194 31.9998 6.9601 30.0524 6.96005 27.6504C6.96017 25.2484 8.92198 23.3009 11.3419 23.3008ZM25.7403 23.3008C28.1602 23.3009 30.122 25.2484 30.1222 27.6504C30.1221 30.0524 28.1603 31.9998 25.7403 32C23.3203 31.9999 21.3585 30.0525 21.3585 27.6504C21.3586 25.2484 23.3204 23.3009 25.7403 23.3008ZM11.1856 25.4756C10.0621 25.4757 9.15157 26.38 9.15145 27.4951C9.1516 28.6102 10.0622 29.5146 11.1856 29.5146C12.3091 29.5146 13.2197 28.6102 13.2198 27.4951C13.2197 26.38 12.3091 25.4756 11.1856 25.4756ZM25.5841 25.4756C24.4605 25.4756 23.55 26.3799 23.5499 27.4951C23.55 28.6103 24.4605 29.5146 25.5841 29.5146C26.7074 29.5145 27.6181 28.6102 27.6182 27.4951C27.6181 26.38 26.7075 25.4758 25.5841 25.4756ZM18.5411 0C21.203 3.92578e-06 23.8053 0.719917 26.0186 2.06836C28.2318 3.41673 29.957 5.33301 30.9757 7.5752C31.9944 9.81758 32.2606 12.2855 31.7413 14.666C31.222 17.0465 29.9399 19.233 28.0577 20.9492C26.1755 22.6653 23.7777 23.8341 21.1671 24.3076C18.5563 24.7811 15.85 24.5382 13.3907 23.6094C10.9315 22.6806 8.82956 21.1078 7.35067 19.0898C5.96414 17.1978 5.18302 14.9937 5.09091 12.7256L5.08212 12.2715V10.0967C5.08206 10.0763 5.07743 9.31424 4.76864 8.85449C4.45588 8.38879 4.76888 8.69891 4.29989 8.2334C3.83039 7.76738 3.83019 7.76673 3.20419 7.45605C2.57821 7.1454 2.10824 7.14551 1.63876 7.14551C1.17646 7.14559 0.562656 7.29618 0.54403 7.30078C0.54403 7.30078 -0.238493 6.83516 0.0743036 6.21387C0.309048 5.74786 0.700254 5.5918 1.32626 5.5918L3.04794 5.90332C3.98645 6.21382 3.67375 6.05854 4.45614 6.36914C5.23857 6.67976 5.25951 6.64972 6.17782 7.30078C7.27331 8.07747 7.5865 8.5437 7.8995 9.00977C8.42733 9.79593 8.36825 10.7186 8.36825 11.0293V12.2715H18.5411V0ZM8.78622 14.4131C8.7815 16.4345 9.82783 18.3758 11.6944 19.8096C13.5611 21.2434 16.0956 22.0524 18.7403 22.0586C21.385 22.0648 23.9234 21.2678 25.797 19.8428C27.6704 18.4178 28.7256 16.4814 28.7306 14.46L18.7589 14.4365L8.78622 14.4131ZM21.3585 12.1475L28.8341 12.1768C28.8389 10.9857 28.6497 9.80504 28.2784 8.70312C27.9072 7.60147 27.3606 6.59971 26.67 5.75488C25.9793 4.91006 25.158 4.23869 24.253 3.7793C23.3479 3.3199 22.3763 3.08104 21.3946 3.07715L21.3585 12.1475Z" fill="black"/>
</svg>
