<svg width="107" height="106" viewBox="0 0 107 106" fill="none" xmlns="http://www.w3.org/2000/svg">
<g filter="url(#filter0_d_59_3319)">
<circle cx="53.5" cy="49.5" r="49.5" fill="url(#paint0_linear_59_3319)"/>
<circle cx="53.5" cy="49.5" r="48.6951" stroke="black" stroke-width="1.60976"/>
</g>
<path d="M31.287 40.7589C31.3719 40.4382 31.4143 39.8015 31.4143 38.8489V38.1839C30.5465 38.033 29.7637 37.8019 29.0657 37.4907C28.3677 37.17 27.8442 36.821 27.4952 36.4437L27.9055 32.8783L28.0046 32.7934C28.363 33.3311 29.0704 33.8216 30.1268 34.2649C31.2304 34.727 32.3245 34.9581 33.4092 34.9581C34.8712 34.9581 35.871 34.5148 36.4086 33.6282C36.569 33.3641 36.6492 33.0953 36.6492 32.8217C36.6492 32.5482 36.5973 32.3077 36.4935 32.1002C36.3992 31.8927 36.2294 31.6899 35.9842 31.4918C35.5126 31.1145 34.7203 30.7089 33.6073 30.2751C32.5037 29.8317 31.6171 29.4073 30.9474 29.0017C30.2872 28.5961 29.759 28.167 29.3628 27.7142C28.6271 26.8842 28.2592 25.8325 28.2592 24.5592C28.2592 23.4273 28.6695 22.3615 29.4901 21.3617C30.3485 20.3147 31.4615 19.5837 32.8291 19.1687V18.0368C32.8291 17.0842 32.7867 16.4475 32.7018 16.1268H36.5077C36.4699 16.6739 36.4511 17.2587 36.4511 17.8812V18.9282C37.4132 19.0696 38.3422 19.3715 39.2383 19.8337L38.7997 23.3283L38.7006 23.3566C37.2953 22.5926 35.9983 22.2106 34.8099 22.2106C33.961 22.2106 33.2441 22.4181 32.6593 22.8331C32.1406 23.2104 31.8812 23.6584 31.8812 24.1772C31.8812 24.6393 32.0604 25.0213 32.4188 25.3232C33.0791 25.8702 33.9468 26.323 35.0221 26.6814C36.1068 27.0304 36.9746 27.3935 37.6254 27.7708C38.2762 28.1387 38.7997 28.5395 39.1958 28.9734C39.9315 29.794 40.2994 30.8316 40.2994 32.086C40.2994 33.4348 39.8702 34.661 39.0119 35.7646C38.031 37.0379 36.7057 37.8397 35.0363 38.1698V39.0045C35.074 40.1458 35.0928 40.7306 35.0928 40.7589H31.287ZM54.6882 26.9927C56.9613 27.9547 58.0979 29.5865 58.0979 31.888C58.0979 33.7178 57.348 35.2364 55.8483 36.4437C54.2732 37.717 52.1886 38.3537 49.5948 38.3537C47.0953 38.3537 45.0862 37.7736 43.5676 36.6135L43.5111 32.8359L43.6525 32.6661C44.7844 34.2036 46.7557 34.9723 49.5665 34.9723C52.8489 34.9723 54.4901 33.8829 54.4901 31.704C54.4901 30.9212 54.0091 30.3081 53.047 29.8648C52.1792 29.4686 51.17 29.2705 50.0192 29.2705C48.4346 29.2705 47.2179 29.5393 46.369 30.077L46.2841 29.9779L46.4256 26.639C47.5669 26.3277 48.7648 26.1721 50.0192 26.1721H50.755C51.0191 26.1721 51.2784 26.1815 51.5331 26.2004C52.1368 25.8419 52.5282 25.3043 52.7074 24.5875C52.764 24.3894 52.7923 24.1913 52.7923 23.9932C52.7923 23.7857 52.731 23.5782 52.6084 23.3707C52.4858 23.1538 52.3018 22.9651 52.0566 22.8048C51.519 22.4369 50.9106 22.253 50.2315 22.253C49.5618 22.253 48.9959 22.2907 48.5337 22.3662C48.0715 22.4416 47.6235 22.5501 47.1896 22.6916C46.2558 23.0029 45.5578 23.3896 45.0957 23.8518L45.0249 23.781L44.8551 20.1591C46.3737 19.2724 48.2177 18.8291 50.3871 18.8291C52.0943 18.8291 53.5186 19.2206 54.6599 20.0034C55.8861 20.8523 56.4991 21.9842 56.4991 23.399C56.4991 24.1724 56.3294 24.8704 55.9898 25.4929C55.6502 26.106 55.2164 26.6059 54.6882 26.9927ZM50.2173 26.5541C50.4531 26.5541 50.6512 26.5352 50.8115 26.4975L50.2173 26.5541ZM60.7436 28.8602C60.7436 27.436 60.9511 26.106 61.3661 24.8704C61.7906 23.6348 62.3801 22.569 63.1347 21.6729C64.7476 19.7771 66.7896 18.8291 69.2609 18.8291C71.6283 18.8291 73.5242 19.7205 74.9485 21.5031C76.335 23.2387 77.0283 25.5354 77.0283 28.3933C77.0283 31.6191 76.1888 34.1328 74.5099 35.9344C73.0101 37.5473 71.086 38.3537 68.7374 38.3537C66.4642 38.3537 64.5684 37.4765 63.0498 35.7221C61.5123 33.9395 60.7436 31.6522 60.7436 28.8602ZM65.6955 33.3311C66.1105 33.8687 66.6057 34.2884 67.1811 34.5903C67.7564 34.8827 68.3412 35.0289 68.9355 35.0289C69.5391 35.0289 70.1003 34.8968 70.6191 34.6327C71.1379 34.3686 71.6048 33.9725 72.0198 33.4443C72.9536 32.2369 73.4204 30.6571 73.4204 28.7046C73.4204 26.705 73.0243 25.1062 72.232 23.9083C71.4303 22.7293 70.3456 22.1398 68.9779 22.1398C67.6008 22.1398 66.4878 22.7529 65.6389 23.9791C64.7806 25.2147 64.3514 26.8135 64.3514 28.7753C64.3514 30.6523 64.7994 32.1709 65.6955 33.3311ZM37.7074 57.0586C37.2875 57.0195 36.7968 57 36.2352 57H35.6566L38.8427 48.0718C38.9843 47.6714 39.0551 47.4395 39.0551 47.376C39.0551 47.3076 39.0526 47.2661 39.0477 47.2515L39.0551 47.2368C39.3725 47.2515 39.7094 47.2588 40.0658 47.2588C40.3588 47.2588 40.7103 47.2539 41.1205 47.2441L41.1278 47.2588C41.1181 47.2783 41.1132 47.3052 41.1132 47.3394C41.1132 47.4321 41.1864 47.6787 41.3329 48.0791L44.5849 57.022C44.4872 57.0171 44.3725 57.0146 44.2406 57.0146C44.2406 57.0146 44.1137 57.0098 43.8598 57C43.7377 57 43.6278 57 43.5302 57H42.3949L41.7064 54.8906H38.3959L37.7074 57.0586ZM41.1351 53.1328L40.0292 49.7271L38.9525 53.1328H41.1351ZM51.3231 47.2222C51.6259 47.2466 51.8773 47.2588 52.0775 47.2588H52.6854C52.8905 47.2588 53.1054 47.2393 53.33 47.2002V53.2573C53.33 54.4585 52.9662 55.4229 52.2387 56.1504C51.5502 56.8389 50.6859 57.1831 49.6459 57.1831C48.5082 57.1831 47.5878 56.8877 46.8847 56.2969C46.0985 55.6328 45.7055 54.6758 45.7055 53.4258V47.2222C46.1107 47.2466 46.4916 47.2588 46.848 47.2588C47.2094 47.2588 47.5072 47.2393 47.7416 47.2002V53.521C47.7416 54.1362 47.9296 54.6147 48.3056 54.9565C48.6571 55.269 49.0966 55.4253 49.6239 55.4253C50.4052 55.4253 50.9252 55.0249 51.184 54.2241C51.2767 53.936 51.3231 53.5796 51.3231 53.1548V47.2222ZM58.164 57.1831C57.3729 57.1831 56.6283 57.1196 55.9301 56.9927V47.1929C56.5746 47.1147 57.3217 47.0757 58.1713 47.0757C59.0258 47.0757 59.7973 47.1929 60.4857 47.4272C61.1791 47.6567 61.7577 47.9863 62.2216 48.416C63.1591 49.2754 63.6278 50.479 63.6278 52.0269C63.6278 53.7603 63.1054 55.0762 62.0604 55.9746C61.1229 56.7803 59.8241 57.1831 58.164 57.1831ZM57.8344 55.396C58.1517 55.4546 58.4691 55.4839 58.7865 55.4839C59.1039 55.4839 59.4457 55.4229 59.8119 55.3008C60.1781 55.1738 60.4955 54.9785 60.7641 54.7148C61.3402 54.1582 61.6283 53.3477 61.6283 52.2832C61.6283 50.5352 60.9911 49.4609 59.7167 49.0605C59.2968 48.9287 58.8109 48.8628 58.2592 48.8628H58.0614C57.9882 48.8628 57.9125 48.8652 57.8344 48.8701V55.396ZM25.5569 63.6437C26.0668 63.5777 26.5895 63.5447 27.125 63.5447C28.1227 63.5447 28.8802 63.7794 29.3974 64.2489C29.9183 64.7148 30.1787 65.4135 30.1787 66.3452C30.1787 67.1779 29.8944 67.8363 29.3259 68.3205C28.794 68.7753 28.1099 69.0027 27.2736 69.0027C27.1782 69.0027 27.0737 68.9972 26.96 68.9862V71H25.5569V63.6437ZM27.2901 64.8707C27.18 64.8707 27.07 64.8743 26.96 64.8817V67.7758C27.0773 67.7904 27.2204 67.7978 27.3891 67.7978C27.5579 67.7978 27.7339 67.7629 27.9173 67.6932C28.1007 67.6199 28.2548 67.519 28.3795 67.3906C28.6399 67.1229 28.7702 66.7707 28.7702 66.3342C28.7702 65.3585 28.2768 64.8707 27.2901 64.8707ZM30.894 68.1719C30.894 67.7428 30.9673 67.3448 31.114 66.978C31.2608 66.6112 31.468 66.2902 31.7358 66.0151C32.308 65.4319 33.0563 65.1403 33.9806 65.1403C34.7619 65.1403 35.3892 65.3989 35.8624 65.9161C36.3282 66.4149 36.5611 67.0422 36.5611 67.7978C36.5611 68.0876 36.5391 68.2856 36.4951 68.392C36.1283 68.4947 35.3818 68.5461 34.2557 68.5461H32.319C32.4144 68.9385 32.6363 69.2448 32.9848 69.4649C33.3332 69.6813 33.7862 69.7895 34.3438 69.7895C34.927 69.7895 35.4277 69.685 35.8458 69.4759C35.9559 69.4209 36.0384 69.3695 36.0934 69.3219C36.0861 69.4759 36.0769 69.6336 36.0659 69.795L36.0054 70.6534C35.7266 70.8441 35.2755 70.9762 34.6519 71.0495C34.4685 71.0715 34.2924 71.0825 34.1237 71.0825C33.192 71.0825 32.4217 70.8111 31.8128 70.2682C31.2002 69.7217 30.894 69.0229 30.894 68.1719ZM35.0976 67.4787C34.9472 66.69 34.518 66.2957 33.8101 66.2957C33.2525 66.2957 32.8289 66.536 32.5391 67.0165C32.4511 67.1632 32.3832 67.3246 32.3355 67.5007C32.4235 67.5043 32.5318 67.508 32.6601 67.5117H33.0673C33.203 67.5153 33.3332 67.5172 33.4579 67.5172H33.7716C33.9586 67.5172 34.142 67.5153 34.3218 67.5117L34.7729 67.4952C34.894 67.4915 35.0022 67.486 35.0976 67.4787ZM39.0591 70.3838C39.0591 70.6992 39.0664 70.9046 39.0811 71H37.7111V65.2503H39.0591V65.674C39.3709 65.3182 39.6973 65.1403 40.0384 65.1403C40.3832 65.1403 40.6547 65.1825 40.8528 65.2668L40.7537 66.7469L40.7317 66.7634C40.6033 66.536 40.3374 66.4223 39.9339 66.4223C39.7798 66.4223 39.6221 66.4754 39.4607 66.5818C39.303 66.6845 39.1691 66.8221 39.0591 66.9945V70.3838ZM45.2984 63.6437C45.8083 63.5777 46.331 63.5447 46.8665 63.5447C47.8643 63.5447 48.6217 63.7794 49.1389 64.2489C49.6598 64.7148 49.9202 65.4135 49.9202 66.3452C49.9202 67.1779 49.6359 67.8363 49.0674 68.3205C48.5355 68.7753 47.8514 69.0027 47.0151 69.0027C46.9197 69.0027 46.8152 68.9972 46.7015 68.9862V71H45.2984V63.6437ZM47.0316 64.8707C46.9216 64.8707 46.8115 64.8743 46.7015 64.8817V67.7758C46.8189 67.7904 46.9619 67.7978 47.1306 67.7978C47.2994 67.7978 47.4754 67.7629 47.6588 67.6932C47.8422 67.6199 47.9963 67.519 48.121 67.3906C48.3815 67.1229 48.5117 66.7707 48.5117 66.3342C48.5117 65.3585 48.0183 64.8707 47.0316 64.8707ZM50.6355 68.1719C50.6355 67.7428 50.7088 67.3448 50.8556 66.978C51.0023 66.6112 51.2095 66.2902 51.4773 66.0151C52.0495 65.4319 52.7978 65.1403 53.7222 65.1403C54.5035 65.1403 55.1307 65.3989 55.6039 65.9161C56.0697 66.4149 56.3026 67.0422 56.3026 67.7978C56.3026 68.0876 56.2806 68.2856 56.2366 68.392C55.8698 68.4947 55.1234 68.5461 53.9973 68.5461H52.0605C52.1559 68.9385 52.3778 69.2448 52.7263 69.4649C53.0747 69.6813 53.5277 69.7895 54.0853 69.7895C54.6685 69.7895 55.1692 69.685 55.5874 69.4759C55.6974 69.4209 55.7799 69.3695 55.835 69.3219C55.8276 69.4759 55.8185 69.6336 55.8074 69.795L55.7469 70.6534C55.4682 70.8441 55.017 70.9762 54.3934 71.0495C54.21 71.0715 54.0339 71.0825 53.8652 71.0825C52.9335 71.0825 52.1632 70.8111 51.5543 70.2682C50.9418 69.7217 50.6355 69.0229 50.6355 68.1719ZM54.8391 67.4787C54.6887 66.69 54.2595 66.2957 53.5516 66.2957C52.994 66.2957 52.5704 66.536 52.2806 67.0165C52.1926 67.1632 52.1247 67.3246 52.077 67.5007C52.1651 67.5043 52.2733 67.508 52.4017 67.5117H52.8088C52.9445 67.5153 53.0747 67.5172 53.1995 67.5172H53.5131C53.7001 67.5172 53.8836 67.5153 54.0633 67.5117L54.5145 67.4952C54.6355 67.4915 54.7437 67.486 54.8391 67.4787ZM58.8006 70.3838C58.8006 70.6992 58.8079 70.9046 58.8226 71H57.4526V65.2503H58.8006V65.674C59.1124 65.3182 59.4388 65.1403 59.78 65.1403C60.1248 65.1403 60.3962 65.1825 60.5943 65.2668L60.4952 66.7469L60.4732 66.7634C60.3448 66.536 60.0789 66.4223 59.6754 66.4223C59.5214 66.4223 59.3636 66.4754 59.2022 66.5818C59.0445 66.6845 58.9106 66.8221 58.8006 66.9945V70.3838ZM63.2023 71.0825C62.1679 71.0825 61.3884 70.8936 60.8639 70.5158C60.8712 70.4058 60.8822 70.2811 60.8969 70.1417L60.9464 69.7455C60.9758 69.4851 60.9941 69.3237 61.0014 69.2613C61.0088 69.1953 61.0143 69.1605 61.0179 69.1568C61.0216 69.1495 61.0509 69.1788 61.106 69.2448C61.161 69.3072 61.2655 69.3842 61.4196 69.4759C61.5736 69.5676 61.7515 69.6483 61.9533 69.718C62.3898 69.8684 62.8446 69.9436 63.3178 69.9436C63.9524 69.9436 64.2697 69.7327 64.2697 69.3109C64.2697 69.1751 64.2092 69.0743 64.0881 69.0082C63.8717 68.8982 63.5526 68.8157 63.1307 68.7606C62.7126 68.702 62.3696 68.6176 62.1018 68.5076C61.8341 68.3975 61.6158 68.2655 61.4471 68.1114C61.1353 67.8216 60.9794 67.442 60.9794 66.9725C60.9794 66.4002 61.1995 65.9509 61.6397 65.6245C62.0762 65.3017 62.6796 65.1403 63.4499 65.1403C64.2128 65.1403 64.8639 65.3567 65.4031 65.7895C65.3774 65.8849 65.3499 65.9766 65.3206 66.0646C65.2362 66.3067 65.1739 66.4809 65.1335 66.5873L65.007 66.9119C64.9996 66.9413 64.9941 66.956 64.9904 66.956C64.9831 66.956 64.9538 66.9174 64.9024 66.8404C64.6713 66.5726 64.3119 66.3966 63.824 66.3122C63.6736 66.2829 63.5196 66.2682 63.3618 66.2682C62.6942 66.2682 62.3604 66.4699 62.3604 66.8734C62.3604 67.0128 62.4301 67.1192 62.5695 67.1925C62.83 67.3319 63.1858 67.4346 63.6369 67.5007C64.0918 67.5667 64.4366 67.6566 64.6713 67.7703C64.9061 67.8803 65.095 68.0142 65.238 68.1719C65.5021 68.458 65.6342 68.8377 65.6342 69.3109C65.6342 69.8281 65.4269 70.248 65.0125 70.5708C64.5796 70.912 63.9762 71.0825 63.2023 71.0825ZM66.4925 68.1554C66.4925 67.7519 66.5604 67.3668 66.6961 67C66.8355 66.6295 67.0336 66.3067 67.2903 66.0316C67.8515 65.4374 68.5796 65.1403 69.4747 65.1403C70.366 65.1403 71.0739 65.4209 71.5985 65.9821C72.101 66.5176 72.3523 67.2127 72.3523 68.0674C72.3523 68.922 72.0937 69.63 71.5765 70.1912C71.0299 70.7854 70.3055 71.0825 69.4031 71.0825C68.4714 71.0825 67.7415 70.7909 67.2133 70.2077C66.7328 69.6758 66.4925 68.9917 66.4925 68.1554ZM67.8295 68.1224C67.8295 68.3535 67.868 68.5772 67.9451 68.7937C68.0221 69.0101 68.1321 69.1953 68.2752 69.3494C68.5796 69.6832 68.9795 69.8501 69.4747 69.8501C69.9332 69.8501 70.2945 69.6868 70.5586 69.3604C70.8153 69.0449 70.9437 68.6341 70.9437 68.1279C70.9437 67.6144 70.8117 67.1999 70.5476 66.8844C70.2651 66.547 69.8781 66.3782 69.3866 66.3782C68.8878 66.3782 68.4971 66.558 68.2147 66.9174C67.9579 67.2476 67.8295 67.6492 67.8295 68.1224ZM74.9492 70.2957C74.9492 70.6185 74.9639 70.8533 74.9933 71H73.6122V65.2503H74.9492V65.74C75.4334 65.3402 75.9506 65.1403 76.5008 65.1403C77.1024 65.1403 77.5829 65.3457 77.9424 65.7565C78.3019 66.1637 78.4816 66.701 78.4816 67.3686V69.5585C78.4816 70.1784 78.4908 70.5507 78.5091 70.6754C78.5274 70.8001 78.5513 70.8808 78.5806 70.9175C78.6136 70.9541 78.6411 70.9872 78.6632 71.0165L78.6522 71.0385C78.355 71.0128 78.1386 71 78.0029 71H77.6178C77.5004 71 77.3427 71.0055 77.1446 71.0165V68.0179C77.1446 66.9431 76.8181 66.4057 76.1652 66.4057C75.681 66.4057 75.2757 66.6552 74.9492 67.154V70.2957ZM30.5253 84.1307C30.1915 83.8115 29.9274 83.4282 29.733 82.9807C29.5423 82.5332 29.4469 82.0435 29.4469 81.5117C29.4469 80.9761 29.5368 80.4699 29.7165 79.9931C29.8962 79.5162 30.153 79.0963 30.4868 78.7331C30.8206 78.37 31.2241 78.082 31.6973 77.8693C32.1704 77.6529 32.7005 77.5447 33.2874 77.5447C34.2998 77.5447 35.1526 77.8638 35.8458 78.502C36.5868 79.1843 36.9573 80.105 36.9573 81.2641C36.9573 82.3865 36.5758 83.32 35.8128 84.0646C35.3433 84.5232 34.7839 84.8386 34.1347 85.011C33.8156 85.0954 33.4414 85.1376 33.0123 85.1376C32.5868 85.1376 32.1484 85.0495 31.6973 84.8735C31.2498 84.6974 30.8591 84.4498 30.5253 84.1307ZM30.9765 81.4346C30.9765 81.7758 31.0333 82.0894 31.1471 82.3755C31.2608 82.6616 31.4185 82.9074 31.6202 83.1128C32.0494 83.5456 32.6014 83.762 33.2764 83.762C33.9183 83.762 34.4336 83.5548 34.8225 83.1403C35.2186 82.7111 35.4167 82.1261 35.4167 81.3851C35.4167 80.6882 35.2278 80.1068 34.85 79.641C34.4428 79.1421 33.8853 78.8927 33.1773 78.8927C32.4914 78.8927 31.9467 79.1458 31.5432 79.652C31.1654 80.1251 30.9765 80.7194 30.9765 81.4346ZM39.6863 84.2957C39.6863 84.6185 39.701 84.8533 39.7303 85H38.3493V79.2503H39.6863V79.74C40.1705 79.3402 40.6877 79.1403 41.2379 79.1403C41.8395 79.1403 42.32 79.3457 42.6794 79.7565C43.0389 80.1637 43.2187 80.701 43.2187 81.3686V83.5585C43.2187 84.1784 43.2278 84.5507 43.2462 84.6754C43.2645 84.8001 43.2883 84.8808 43.3177 84.9175C43.3507 84.9541 43.3782 84.9872 43.4002 85.0165L43.3892 85.0385C43.0921 85.0128 42.8757 85 42.74 85H42.3548C42.2374 85 42.0797 85.0055 41.8816 85.0165V82.0179C41.8816 80.9431 41.5552 80.4057 40.9023 80.4057C40.4181 80.4057 40.0128 80.6552 39.6863 81.154V84.2957ZM44.5557 82.1719C44.5557 81.7428 44.629 81.3448 44.7757 80.978C44.9225 80.6112 45.1297 80.2902 45.3975 80.0151C45.9697 79.4319 46.718 79.1403 47.6423 79.1403C48.4236 79.1403 49.0509 79.3989 49.5241 79.9161C49.9899 80.4149 50.2228 81.0422 50.2228 81.7978C50.2228 82.0876 50.2008 82.2856 50.1568 82.392C49.79 82.4947 49.0435 82.5461 47.9174 82.5461H45.9807C46.0761 82.9385 46.298 83.2448 46.6465 83.4649C46.9949 83.6813 47.4479 83.7895 48.0055 83.7895C48.5887 83.7895 49.0894 83.685 49.5076 83.4759C49.6176 83.4209 49.7001 83.3695 49.7551 83.3219C49.7478 83.4759 49.7386 83.6336 49.7276 83.795L49.6671 84.6534C49.3883 84.8441 48.9372 84.9762 48.3136 85.0495C48.1302 85.0715 47.9541 85.0825 47.7854 85.0825C46.8537 85.0825 46.0834 84.8111 45.4745 84.2682C44.8619 83.7217 44.5557 83.0229 44.5557 82.1719ZM48.7593 81.4787C48.6089 80.69 48.1797 80.2957 47.4718 80.2957C46.9142 80.2957 46.4906 80.536 46.2008 81.0165C46.1128 81.1632 46.0449 81.3246 45.9972 81.5007C46.0852 81.5043 46.1935 81.508 46.3218 81.5117H46.729C46.8647 81.5153 46.9949 81.5172 47.1196 81.5172H47.4333C47.6203 81.5172 47.8037 81.5153 47.9835 81.5117L48.4346 81.4952C48.5557 81.4915 48.6639 81.486 48.7593 81.4787ZM54.3934 79.2503H55.8735L56.8969 83.3824L57.9973 79.2503H59.2628L60.4017 83.4704L61.4251 79.2503H62.7566L61.062 85H59.6369L58.5475 81.2311L57.5351 85H56.1211L54.3934 79.2503ZM67.4114 84.6589C66.8905 84.9413 66.4192 85.0825 65.9973 85.0825C65.5755 85.0825 65.2142 85.044 64.9134 84.967C64.6126 84.8863 64.3577 84.7689 64.1486 84.6149C63.7231 84.3031 63.5104 83.8519 63.5104 83.2613C63.5104 82.7331 63.7708 82.293 64.2917 81.9408C64.8566 81.5594 65.6232 81.3686 66.5916 81.3686L66.8116 81.3741C66.8557 81.3778 66.9052 81.3815 66.9602 81.3851C67.0152 81.3851 67.0647 81.3888 67.1088 81.3961C67.0794 80.8092 66.8263 80.4663 66.3495 80.3672C66.1917 80.3342 66.023 80.3177 65.8433 80.3177C65.6672 80.3177 65.493 80.3342 65.3206 80.3672C65.1518 80.3966 64.9868 80.4369 64.8254 80.4883C64.4696 80.602 64.2147 80.7322 64.0606 80.8789L64.0441 80.8679L63.879 79.652C64.5283 79.3108 65.238 79.1403 66.0083 79.1403C67.2041 79.1403 67.9689 79.5713 68.3027 80.4333C68.4091 80.7084 68.4623 81.0183 68.4623 81.3631V83.3549C68.4623 83.7804 68.6127 84.0701 68.9134 84.2242L67.9176 85.1376C67.7085 85.0275 67.5398 84.8679 67.4114 84.6589ZM67.1143 82.3865C67.0152 82.3682 66.9125 82.359 66.8061 82.359H66.5861C65.7754 82.359 65.26 82.5387 65.04 82.8982C64.9739 83.0046 64.9409 83.1164 64.9409 83.2338C64.9409 83.3512 64.9611 83.4557 65.0015 83.5474C65.0455 83.6355 65.117 83.7088 65.216 83.7675C65.4068 83.8776 65.6892 83.9326 66.0634 83.9326C66.4412 83.9326 66.7933 83.8427 67.1198 83.663C67.1161 83.6226 67.1143 83.5805 67.1143 83.5364V82.3865ZM69.6562 86.9147L70.0194 86.6231C70.5659 86.1793 71.0189 85.5245 71.3784 84.6589L71.6315 84.0481L69.5242 79.2503H71.0648L72.3853 82.5736L73.6122 79.2503H75.1968C75.0061 79.5144 74.7732 80.0059 74.4981 80.7249L73.6728 82.7661C72.5687 85.3631 71.703 86.9111 71.0758 87.4099L69.6562 86.9147Z" fill="black"/>
<defs>
<filter id="filter0_d_59_3319" x="0.780488" y="0" width="105.439" height="105.439" filterUnits="userSpaceOnUse" color-interpolation-filters="sRGB">
<feFlood flood-opacity="0" result="BackgroundImageFix"/>
<feColorMatrix in="SourceAlpha" type="matrix" values="0 0 0 0 0 0 0 0 0 0 0 0 0 0 0 0 0 0 127 0" result="hardAlpha"/>
<feOffset dy="3.21951"/>
<feGaussianBlur stdDeviation="1.60976"/>
<feComposite in2="hardAlpha" operator="out"/>
<feColorMatrix type="matrix" values="0 0 0 0 0 0 0 0 0 0 0 0 0 0 0 0 0 0 1 0"/>
<feBlend mode="normal" in2="BackgroundImageFix" result="effect1_dropShadow_59_3319"/>
<feBlend mode="normal" in="SourceGraphic" in2="effect1_dropShadow_59_3319" result="shape"/>
</filter>
<linearGradient id="paint0_linear_59_3319" x1="53.6259" y1="7.37852" x2="52.634" y2="99.0397" gradientUnits="userSpaceOnUse">
<stop stop-color="#127FC0"/>
<stop offset="0.381777" stop-color="#49EECC"/>
<stop offset="0.619286" stop-color="#FFD700"/>
<stop offset="0.855" stop-color="#FF9619"/>
</linearGradient>
</defs>
</svg>
