<svg width="416" height="416" viewBox="0 0 416 416" fill="none" xmlns="http://www.w3.org/2000/svg">
<g clip-path="url(#clip0_9_311)">
<path d="M82.16 262.08C57.954 262.08 44.538 249.262 43.316 232.648H60.294C61.984 241.644 70.59 247.806 83.46 247.806C97.084 247.806 105.04 241.41 105.04 231.686C105.04 223.808 99.762 219.544 88.478 216.814L71.422 212.55C55.562 208.728 45.994 199.29 45.994 184.522C45.994 166.166 61.516 153.738 83.538 153.738C105.716 153.738 119.574 166.088 120.874 182H104.104C102.44 173.68 94.952 167.908 83.382 167.908C71.11 167.908 63.362 174.304 63.362 183.508C63.362 190.294 68.458 194.87 77.74 197.08L94.744 201.266C112.242 205.53 122.304 213.928 122.304 230.126C122.304 249.262 107.38 262.08 82.16 262.08ZM171.262 170.82V260H153.972V170.82H123.578V156H201.734V170.768H171.262V170.82Z" fill="black"/>
<path fill-rule="evenodd" clip-rule="evenodd" d="M287.17 200.98V215.124C287.17 244.53 270.634 262.054 243.984 262.054C217.308 262.054 200.72 244.53 200.72 215.124V200.98C200.72 171.444 217.308 153.998 243.984 153.998C270.66 153.998 287.144 171.522 287.144 200.98H287.17ZM269.646 215.202V200.824C269.646 179.322 258.674 168.74 243.984 168.74C229.112 168.74 218.244 179.322 218.244 200.824V215.202C218.244 236.782 229.112 247.364 243.984 247.364C258.674 247.364 269.646 236.756 269.646 215.202ZM299.546 156.026H339.456C360.776 156.026 373.672 170.326 373.672 189.618C373.672 209.04 360.646 223.132 339.326 223.132H316.836V260H299.546V156.026ZM336.882 208.962C348.92 208.962 355.992 201.89 355.992 189.618C355.992 177.346 348.92 170.352 336.882 170.352H316.758V208.962H336.882Z" fill="black"/>
<path fill-rule="evenodd" clip-rule="evenodd" d="M127.218 0C123.777 0.000731093 120.476 1.36581 118.04 3.796L3.796 118.04C1.36581 120.476 0.000731093 123.777 0 127.218L0 288.782C0.000731093 292.223 1.36581 295.524 3.796 297.96L118.04 412.204C120.476 414.634 123.777 415.999 127.218 416H288.782C292.223 415.999 295.524 414.634 297.96 412.204L412.204 297.96C414.634 295.524 415.999 292.223 416 288.782V127.218C415.999 123.777 414.634 120.476 412.204 118.04L297.96 3.796C295.524 1.36581 292.223 0.000731093 288.782 0L127.218 0ZM26 132.6L132.6 26H283.4L390 132.6V283.4L283.4 390H132.6L26 283.4V132.6Z" fill="black"/>
</g>
<defs>
<clipPath id="clip0_9_311">
<rect width="416" height="416" fill="white"/>
</clipPath>
</defs>
</svg>
