<svg width="32" height="32" viewBox="0 0 32 32" fill="none" xmlns="http://www.w3.org/2000/svg">
<path fill-rule="evenodd" clip-rule="evenodd" d="M3.40336 28.6237L5.74364 30.9658C6.16167 31.3893 6.68145 31.6985 7.2532 31.8636C7.82495 32.0287 8.42952 32.0442 9.00899 31.9087C13.4079 30.8535 18.9512 28.1727 23.5533 23.5705C27.6617 19.462 29.9396 14.3732 31.0608 10.213C31.6222 8.12757 31.9056 6.22928 31.9751 4.74096C32.0322 3.49148 32.0732 1.83918 31.116 0.883796C30.1589 -0.0715828 28.5084 -0.0323697 27.2571 0.0246679C25.7706 0.0924 23.8724 0.377588 21.787 0.939052C17.6251 2.0602 12.5381 4.33813 8.42971 8.44484C3.82757 13.0488 1.14685 18.5922 0.0916754 22.9894C-0.0441805 23.5692 -0.0288194 24.1741 0.136286 24.7462C0.301391 25.3183 0.610702 25.8384 1.03456 26.2566L3.37484 28.5969L3.40336 28.6237ZM10.95 10.967C14.4988 7.41816 18.9708 5.38798 22.7138 4.38091C23.8118 4.08503 24.8295 3.88183 25.7261 3.7535L4.64925 24.8289L3.57447 23.7541C4.49775 19.9611 6.86655 15.0487 10.95 10.9652V10.967ZM7.17134 27.351L28.2446 6.27206C28.0934 7.28737 27.884 8.29314 27.6172 9.28436C26.6083 13.0274 24.58 17.4978 21.0312 21.0484C16.9496 25.1301 12.0355 27.5007 8.24256 28.424L7.16778 27.3492L7.17134 27.351Z" fill="black"/>
</svg>
